<svg version="1.2" xmlns="http://www.w3.org/2000/svg" viewBox="0 0 1500 1000" width="1500" height="1000">
	<title>New Project</title>
	<defs>
		<clipPath clipPathUnits="userSpaceOnUse" id="cp1">
			<path d="m204.76 898.06v-6c0-15.46 12.54-28 28-28h295.22v62h-295.22c-15.46 0-28-12.54-28-28z"/>
		</clipPath>
		<clipPath clipPathUnits="userSpaceOnUse" id="cp2">
			<path d="m183.66 820.06v-6c0-15.46 12.54-28 28-28h295.22v62h-295.22c-15.46 0-28-12.54-28-28z"/>
		</clipPath>
		<clipPath clipPathUnits="userSpaceOnUse" id="cp3">
			<path d="m171.64 742.06v-6c0-15.46 12.54-28 28-28h290v62h-290c-15.48 0-28-12.54-28-28z"/>
		</clipPath>
	</defs>
	<style>
		.s0 { fill: none;stroke: #cfb3a9;stroke-linecap: round;stroke-miterlimit:10;stroke-width: 2 } 
		.s1 { fill: #cfb3a9 } 
		.s2 { fill: none;stroke: #edddd5;stroke-linecap: round;stroke-miterlimit:10 } 
		.s3 { fill: none;stroke: #cfb3a9;stroke-miterlimit:10;stroke-width: 2 } 
		.s4 { fill: none;stroke: #f0d9ce;stroke-linecap: round;stroke-miterlimit:10;stroke-width: 2 } 
		.s5 { fill: #f8c15d } 
		.s6 { fill: #efac32 } 
		.s7 { fill: #ffcc70 } 
		.s8 { fill: none;stroke: #ffffff;stroke-miterlimit:10;stroke-width: 4;stroke-dasharray: 24,24,24,24,24,24 } 
		.s9 { fill: #fefffe } 
		.s10 { fill: #f3e8e2 } 
		.s11 { fill: #fcf7f5 } 
		.s12 { fill: none;stroke: #fcf7f5;stroke-miterlimit:10;stroke-width: 2 } 
		.s13 { fill: #e8545d } 
		.s14 { fill: #cb1b3f } 
		.s15 { fill: #d19f6d } 
		.s16 { fill: #fff3cf } 
		.s17 { fill: #3b3147 } 
		.s18 { opacity: .6;fill: #93869e } 
		.s19 { opacity: .2;fill: #ffffff } 
		.s20 { fill: #913f56 } 
		.s21 { fill: #923f56 } 
		.s22 { fill: #1d3d4c } 
		.s23 { fill: #263238 } 
		.s24 { fill: none;stroke: #93bdc9;stroke-linecap: round;stroke-miterlimit:10 } 
		.s25 { fill: #1d3d4c;stroke: #93bdc9;stroke-linecap: round;stroke-miterlimit:10 } 
		.s26 { fill: #782e49 } 
		.s27 { fill: none;stroke: #782e49;stroke-linecap: round;stroke-miterlimit:10;stroke-width: 2 } 
		.s28 { fill: #cf7e2d } 
		.s29 { fill: #0c1a3a } 
		.s30 { fill: #243a57 } 
		.s31 { fill: none;stroke: #0c1a3a;stroke-linecap: round;stroke-miterlimit:10;stroke-width: 2 } 
		.s32 { fill: none;stroke: #571b38;stroke-linecap: round;stroke-miterlimit:10;stroke-width: 2 } 
		.s33 { fill: #571b38 } 
		.s34 { fill: #ffffff } 
		.s35 { fill: #ad5e8f } 
		.s36 { fill: #e67253 } 
		.s37 { fill: #bf4b39 } 
		.s38 { fill: #101840 } 
		.s39 { fill: #f08c3a } 
		.s40 { fill: #ffaa40 } 
		.s41 { fill: #ede2cc } 
		.s42 { fill: none;stroke: #bfb19b;stroke-linecap: round;stroke-miterlimit:10;stroke-width: 2 } 
		.s43 { fill: #35838f } 
		.s44 { fill: #449da3 } 
		.s45 { fill: #c7404f } 
		.s46 { fill: #fc8c60 } 
		.s47 { fill: #f5ebeb } 
		.s48 { fill: #fc8c60;stroke: #ab3a30;stroke-linecap: round;stroke-miterlimit:10;stroke-width: 2 } 
		.s49 { fill: #8ac2d4 } 
		.s50 { fill: #f0f9fa } 
		.s51 { fill: none;stroke: #356d94;stroke-linecap: round;stroke-miterlimit:10 } 
		.s52 { fill: #356d94 } 
		.s53 { fill: #4a7c9f } 
		.s54 { fill: #65a1bf } 
		.s55 { fill: none;stroke: #101840;stroke-linecap: round;stroke-miterlimit:10;stroke-width: 2 } 
		.s56 { fill: none;stroke: #cc453b;stroke-linecap: round;stroke-miterlimit:10;stroke-width: 2 } 
		.s57 { fill: none;stroke: #75a5ba;stroke-linecap: round;stroke-miterlimit:10 } 
		.s58 { fill: #356d94;stroke: #75a5ba;stroke-miterlimit:10 } 
		.s59 { fill: #edd795 } 
		.s60 { fill: none;stroke: #ab3a30;stroke-linecap: round;stroke-miterlimit:10;stroke-width: 2 } 
		.s61 { fill: none;stroke: #1b476e;stroke-linecap: round;stroke-miterlimit:10;stroke-width: 2 } 
		.s62 { fill: none;stroke: #3a8e99;stroke-linecap: round;stroke-miterlimit:10;stroke-width: 2 } 
		.s63 { fill: #fdab90 } 
		.s64 { fill: #ed8874 } 
		.s65 { fill: #f2be60 } 
		.s66 { fill: #0c1b39 } 
		.s67 { fill: #1e314d } 
		.s68 { fill: #e8d1ac } 
		.s69 { fill: #fff3d0 } 
		.s70 { fill: none;stroke: #bf4d49;stroke-linecap: round;stroke-miterlimit:10;stroke-width: 2 } 
	</style>
	<g id="OBJECTS">
		<g id="&lt;Group&gt;">
			<g id="&lt;Group&gt;">
				<g id="&lt;Group&gt;">
					<g id="&lt;Group&gt;">
						<path id="&lt;Path&gt;" class="s0" d="m1211.8 910.2c22.4-123.2 93.5-236.9 194.5-310.9"/>
						<g id="&lt;Group&gt;">
							<path id="&lt;Path&gt;" class="s1" d="m1355.1 641.8c0.8-17.7 13.3-33.3 28.7-41.8 15.5-8.5 33.6-10.9 52.1-10.7-10.9 12.6-21.8 25.3-35.1 35.3-13.3 10-29.2 17.2-45.7 17.2z"/>
							<path id="&lt;Path&gt;" class="s2" d="m1424.7 594.7c-25.4 9.4-48.6 24.8-67.1 44.6"/>
						</g>
						<g id="&lt;Group&gt;">
							<path id="&lt;Path&gt;" class="s1" d="m1332.8 665.3c14.7-7.8 31.5-12 48.1-10.7 16.5 1.4 32.8 8.7 43.8 21.3-33.5 7.9-63.1 5.3-91.9-10.6z"/>
							<path id="&lt;Path&gt;" class="s2" d="m1335.1 665.4c25.4-1.7 51.1 0.6 75.9 6.6"/>
						</g>
						<g id="&lt;Group&gt;">
							<path id="&lt;Path&gt;" class="s1" d="m1342.9 655.3c10.7-30.2 4.1-65.9-16.6-90.3-2.2 15.2-4.4 30.5-3.7 45.9 0.6 15.4 4.2 31 20.3 44.4z"/>
							<path id="&lt;Path&gt;" class="s2" d="m1342.2 653.3c-1.3-22.5-4.8-44.8-10.6-66.6"/>
						</g>
						<g id="&lt;Group&gt;">
							<path id="&lt;Path&gt;" class="s1" d="m1316.6 683.5c4.6-29.4-9.6-60.9-34.8-76.9 0.7 14.2 1.4 28.6 5.3 42.3 4 13.7 11.7 26.8 29.5 34.6z"/>
							<path id="&lt;Path&gt;" class="s2" d="m1287.1 621.3c12 19.2 21.8 39.9 29.1 61.3"/>
						</g>
						<g id="&lt;Group&gt;">
							<path id="&lt;Path&gt;" class="s1" d="m1300.6 704.8c5.3-7.1 16.4-11.9 25.1-13.5 8.7-1.7 17.6-1.1 26.4-0.1 20 2.3 39.8 6.5 58.9 12.6-17.2 4-34.6 7.9-52.3 8.8-17.7 1-38.5-0.7-58.1-7.8z"/>
							<path id="&lt;Path&gt;" class="s2" d="m1302.5 703.8c27.1-4.2 54.8-4.6 81.9-1"/>
						</g>
						<g id="&lt;Group&gt;">
							<path id="&lt;Path&gt;" class="s1" d="m1290.5 720c4.6-32.6-11.6-67.2-39.7-84.5 1.2 16 2.3 32.1 7 47.4 4.8 15.3 13.4 30 32.7 37.1z"/>
							<path id="&lt;Path&gt;" class="s2" d="m1289.6 719.4c-9.1-23-19.5-45.4-31.2-67.2"/>
						</g>
						<g id="&lt;Group&gt;">
							<path id="&lt;Path&gt;" class="s1" d="m1280.3 735.9c29.8-8.4 64 2.5 83.4 26.5-15 0.6-30.3 0.9-45-2.2-14.8-3.1-29.2-9.9-38.4-24.3z"/>
							<path id="&lt;Path&gt;" class="s2" d="m1281.5 736.8c22 2.2 43.6 8.6 63.3 18.8"/>
						</g>
						<g id="&lt;Group&gt;">
							<path id="&lt;Path&gt;" class="s1" d="m1254.6 780.6c14.3-7.9 32.4-6.4 47.6 0 15.1 6.3 27.9 17.1 40.5 27.7-16 0.7-32.2 1.4-47.9-1.7-15.8-3.2-31.2-10.6-40.2-26z"/>
							<path id="&lt;Path&gt;" class="s2" d="m1255.5 780.8c22.6 2.1 44.6 8.9 64.4 19.9"/>
						</g>
						<g id="&lt;Group&gt;">
							<path id="&lt;Path&gt;" class="s1" d="m1261.1 768.3c2.6-16.9 0.1-34.8-9.4-49-9.5-14.2-24.5-24.7-41.2-28.8 3.4 15.9 6.9 31.9 14.3 46.3 7.4 14.4 17.8 27.2 36.3 31.5z"/>
							<path id="&lt;Path&gt;" class="s2" d="m1261.5 767.5c-9.5-21.5-21.7-41.9-36.3-60.4"/>
						</g>
						<g id="&lt;Group&gt;">
							<path id="&lt;Path&gt;" class="s1" d="m1239.3 816c1.9-16.9-3.4-34.6-14.3-47.8-10.9-13.1-27.3-21.6-44.3-22.8 5.4 32.8 29.9 61.6 58.6 70.6z"/>
							<path id="&lt;Path&gt;" class="s2" d="m1238.8 815.2c-10.3-21.9-25-41.7-42.8-58.1"/>
						</g>
						<g id="&lt;Group&gt;">
							<path id="&lt;Path&gt;" class="s1" d="m1227.5 843.4c28.8-17.4 68.2-15.1 94.6 5.7-15.3 3.8-30.7 7.6-46.5 8.3-15.8 0.6-32.1-2.1-48.1-14z"/>
							<path id="&lt;Path&gt;" class="s2" d="m1227.5 844.3c26.1-4.9 53.3-3.9 79 2.8"/>
						</g>
						<g id="&lt;Group&gt;">
							<path id="&lt;Path&gt;" class="s1" d="m1214.8 890.4c25-19 60.2-23.9 89.4-12.3-13.4 6.9-26.9 13.9-41.5 17.7-14.5 3.8-30.5 4.3-47.9-5.4z"/>
							<path id="&lt;Path&gt;" class="s2" d="m1216.9 890.3c22.1-6.9 45.3-10.3 68.4-10"/>
						</g>
						<g id="&lt;Group&gt;">
							<path id="&lt;Path&gt;" class="s1" d="m1222.2 869.1c-0.7-14.8-10.6-28-23.1-35.9-12.4-8-27.2-11.4-41.8-13.5 2.2 14.8 9.7 28.8 20.9 38.7 11.1 10 25.8 15.9 44 10.7z"/>
							<path id="&lt;Path&gt;" class="s2" d="m1221.3 868.8c-15-14.5-31.5-27.5-49.1-38.8"/>
						</g>
					</g>
					<g id="&lt;Group&gt;">
						<path id="&lt;Path&gt;" class="s3" d="m1128.3 911.2c-27.3-85.9-26-180.6 3.4-265.8"/>
						<path id="&lt;Path&gt;" class="s1" d="m1124.7 665.4c-4.1-10.6-3.9-22.7 0.4-33.2 4.3-10.5 12.8-19.2 23.2-23.8 1.3-0.6 2.9-1.1 4.1-0.3 1 0.6 1.3 1.9 1.6 3 4.3 21.6-8 45.4-29.3 54.3z"/>
						<path id="&lt;Path&gt;" class="s1" d="m1120 687.1c5.7-17.6 22.7-30.9 41.1-32.2 1-0.1 2.2 0 3 0.6 1.4 1.3 0.5 3.5-0.4 5.1-4.4 7.7-9.6 15.2-16.6 20.7-7.1 5.4-16.3 8.6-27.1 5.8z"/>
						<path id="&lt;Path&gt;" class="s1" d="m1116.5 698.7c2.7-18.1-7.2-37.4-23.5-45.6-1.6-0.8-3.4-1.5-5.1-1-2.9 0.9-3.6 4.7-3.6 7.7 0.2 9.3 2.1 18.8 7.2 26.6 5.2 7.8 13.7 13.6 25 12.3z"/>
						<path id="&lt;Path&gt;" class="s1" d="m1112.9 717.1c10.6-19 31.9-31.4 53.7-31.3 1.5 0 3.4 0.3 4 1.7 0.6 1.3-0.3 2.9-1.3 4-13.1 16.1-33.3 26.1-56.4 25.6z"/>
						<path id="&lt;Path&gt;" class="s1" d="m1110.4 737.9c-1.7-16.6-15.3-31.3-31.8-34.2-2.2-0.4-4.8-0.5-6.5 0.9-2.8 2.1-2.2 6.4-1 9.6 5.8 15 21.8 25.3 39.3 23.7z"/>
						<path id="&lt;Path&gt;" class="s1" d="m1109.1 757.4c4.7-18 20.1-32.8 38.4-36.6 3.2-0.7 7.2-0.8 9.2 1.8 2.2 2.9 0.7 7-1.2 10.1-9.2 15-26 25.2-46.4 24.7z"/>
						<path id="&lt;Path&gt;" class="s1" d="m1109.6 776.4c-1.1-8.5-5.4-16.6-11.8-22.2-6.5-5.7-15.1-8.9-23.7-8.8-2.8 0-6 0.6-7.8 2.8-2.7 3.4-0.6 8.5 2.1 11.9 8.6 11.2 23.4 17.3 41.2 16.3z"/>
						<path id="&lt;Path&gt;" class="s1" d="m1109 793.6c4.6-18.8 19.3-34.7 37.6-41 4.3-1.4 9.8-2.1 12.8 1.3 1.9 2.2 2.1 5.3 1.3 8-0.8 2.7-2.6 4.9-4.4 7.1-11.2 13-27.1 22-47.3 24.6z"/>
						<path id="&lt;Path&gt;" class="s1" d="m1111 809.8c-3.9-8.5-10.9-15.4-19.3-19.4-8.5-3.9-18.3-4.8-27.3-2.4-3.4 0.9-7.3 2.9-7.7 6.4-0.6 4.1 3.5 7.1 7.3 8.8 13.2 6.1 28.1 8.3 47 6.6z"/>
						<path id="&lt;Path&gt;" class="s1" d="m1111.6 835.9c-0.4-20.8 13.9-41.2 33.7-47.7 2.4-0.7 5-1.3 7.1 0 2 1.2 2.8 3.7 2.5 6-0.2 2.3-1.4 4.4-2.6 6.3-9 15-22.5 27.1-40.7 35.4z"/>
						<path id="&lt;Path&gt;" class="s1" d="m1114.7 853.6c-3.7-9.1-10.7-16.8-19.4-21.4-8.8-4.5-19.1-5.8-28.7-3.6-2.4 0.5-5 1.5-6 3.7-1.6 3.5 1.6 7.2 4.6 9.4 13.6 9.9 31 14.1 49.5 11.9z"/>
						<path id="&lt;Path&gt;" class="s1" d="m1116.8 867.1c1.5-18.3 14.4-35.2 31.6-41.5 2.5-0.9 5.6-1.5 7.7 0.2 2.8 2.3 1.5 7-0.3 10.2-8.2 14.8-22.3 26.3-39 31.1z"/>
						<path id="&lt;Path&gt;" class="s1" d="m1121.7 886.6c-9.6-9.9-22.5-16.5-36-18.5-4.8-0.7-9.8-0.9-14.1 1.4-4.2 2.3-7 7.6-5.1 12 2 4.6 7.8 6 12.7 6.8 12.6 2 25.5 4 42.5-1.7z"/>
						<path id="&lt;Path&gt;" class="s1" d="m1125.1 900c2-9.1 4.9-18.1 9.6-26.1 4.7-8 11.5-15 19.9-18.9 3.3-1.6 7.9-2.3 10.1 0.6 1.9 2.7 0.4 6.4-1.1 9.3-4.5 8.1-9.7 15.9-16.3 22.4-6.6 6.5-14.7 11.6-22.2 12.7z"/>
					</g>
				</g>
				<g id="&lt;Group&gt;">
					<path id="&lt;Path&gt;" class="s1" d="m317.6 787.4c-0.4 0.1-0.9 0.2-1.3 0.2-19.8 4-32.1 7.6-44.5 7.1-12.8-0.4-26-5.5-33.4-16.3-6.1-9.1-7.9-21.5-16.3-28.3-11.8-9.7-31.1-3.3-42.6-13.5q-1-0.9-1.8-1.9c3.7-21.9 10.2-43.4 19.5-63.6-10.7 10.1-20.7 20.8-29.9 32.2-1.6-5.6-3.8-10.8-8.1-14.6-8.8-7.9-23.6-6.6-30.8-16.1-3.6-4.8-4.3-10.9-5.3-17 8.6-8.2 18.5-14.9 29.1-19.6-11 1.3-21.8 4.1-32.2 8.2-1.8-3.9-4.5-7.3-7.5-10.4-3-3.2-6.3-6.2-9.2-9.3-14.8-16-22.3-39-19.8-61.1 18.8-10.1 41.1-12.4 61.7-7.4-3.6 7.5-6.4 15.4-8.3 23.6 7.3-7.2 15.6-13.3 24.6-17.9 6.7 3.1 13 7 18.8 11.8 9.1 7.6 17.5 17.4 28.3 21.2-0.8 6.3-1.6 12.6-2.4 18.9 3.4-6.1 7.3-11.9 11.7-17.3 10.9 0.2 22.6-3.9 31.5 2.3 10.5 7.3 10.2 24.2 19.2 33.3 8.2 8.3 22.1 8.3 29.7 17.1 9.3 10.8 4.4 27.8 8.3 41.6 3.6 12.5 14.2 21.5 19.3 33.4 8.7 20.1 0.2 43.2-8.3 63.4z"/>
					<path id="&lt;Path&gt;" class="s4" d="m98.9 573.7c86.2 46.4 170.2 130 219.2 217.2"/>
					<path id="&lt;Path&gt;" class="s4" d="m169.4 619.9c3.9-12.1 8.6-24 13.8-35.6"/>
					<path id="&lt;Path&gt;" class="s4" d="m157.1 610.7c-13.6 0.4-27.1 3-39.9 7.6"/>
					<path id="&lt;Path&gt;" class="s4" d="m207.9 652.8c-17 6-33.3 14.2-48.3 24.5"/>
					<path id="&lt;Path&gt;" class="s4" d="m124.5 588.5c-0.3-8.8 0.7-17.6 2.9-26.1"/>
					<path id="&lt;Path&gt;" class="s4" d="m220 664.9c1.3-17 5.3-33.8 11.8-49.4"/>
				</g>
				<g id="&lt;Group&gt;">
					<path id="&lt;Path&gt;" class="s1" d="m482.6 617.6c-0.8 14.4-12.9 24.6-16.1 38.5-1.9 8.6-0.3 17.5-0.5 26.3-0.3 14.6-5.5 28.6-12.7 40.5-7.1 11.9-16.1 22-25.1 32q-0.1-0.1-0.2-0.2c-17.1-12.4-26.2-16.2-33.7-23.2-7.5-7.1-13.2-18-12.6-29.7 0.3-5.5 2-11.2 1.1-16.6-1.4-7.8-7.6-12.6-10.7-19.5-6.2-13.9 1.4-31.5 0.7-47.2q14.7 1.4 29.2 4.3c-9.5-9.8-21.7-16.6-34.5-21.2q0 0 0 0c-2.8-4.3-6.2-8-9.4-11.9-5-6.2-9.5-14.3-8.2-23 1.2-8.9 8.1-15.5 9.7-24.2 1.4-7.7-1.5-15.3-2.9-22.8-5.2-25.9 5.8-52.6 16.5-76.4 11.9 0.1 23.7 5 33.6 13.4-2.2 4.3-4.4 8.6-6.6 12.8 4.3-2.3 8.5-4.6 12.8-6.9 5.9 6.5 11 14.3 14.5 23.1 2.1 5.2 3.8 10.8 6.2 15.8-5.7 7.2-11.2 14.6-16.5 22.1q12.1-6.2 24.9-11c3.8 3.3 8 6 11.1 10.2 8.3 11.4 5.3 29.1 8 44.2-11.5 10.8-22.3 22.3-32.3 34.6 13.2-6.4 27.2-11 41.5-13.6 6.1 9.3 12.8 18 12.2 29.6z"/>
					<g id="&lt;Group&gt;">
						<path id="&lt;Path&gt;" class="s4" d="m385.1 468.6c31.8 94.5 46.4 198.1 42.4 301.3"/>
						<path id="&lt;Path&gt;" class="s4" d="m398.8 513.4c7.8-10.7 14-22.8 18.9-35.8"/>
						<path id="&lt;Path&gt;" class="s4" d="m396.7 507.5c-11.9-0.4-23.7-3.4-34.6-8.9"/>
						<path id="&lt;Path&gt;" class="s4" d="m411.7 569c-15.6-1.7-31.1-5-46.2-10"/>
						<path id="&lt;Path&gt;" class="s4" d="m414.4 577.7c13.3-13.4 25.3-28.6 35.7-45.2"/>
						<path id="&lt;Path&gt;" class="s4" d="m425.1 645.5c16.5-10.1 32.1-22.3 46.6-36.3"/>
						<path id="&lt;Path&gt;" class="s4" d="m423.4 651.1q-21.3-2.4-42.6-4.7"/>
					</g>
				</g>
			</g>
			<g id="&lt;Group&gt;">
				<g id="&lt;Group&gt;">
					<g id="&lt;Group&gt;">
						<path id="&lt;Path&gt;" class="s5" d="m182.7 414.1l-74.6-61.8 73.9 30.2z"/>
						<path id="&lt;Path&gt;" class="s6" d="m184.7 388.1l-2 25.8-3-21.4z"/>
						<path id="&lt;Path&gt;" class="s7" d="m205.7 375.4l-21.2 14.3-4.8 3.3-25.8 17.5-58.2-69.7z"/>
						<path id="&lt;Path&gt;" class="s6" d="m184.5 389.7l-4.8 3.3-84-52.2z"/>
					</g>
					<path id="&lt;Path&gt;" class="s8" d="m190.3 411.4c20.2 19.7 26 56.4 21.3 84.3-2.6 15.1-10.3 30.6-24.2 37.1-13.9 6.4-34-0.8-36.4-15.9-1.8-11.4 6.8-22.5 17.5-26.7 10.7-4.3 22.7-3.1 33.9-0.4 39.5 9.4 72.9 35.3 111.1 48.9 59.3 21.1 126.4 10.5 183.5-16.2 57.1-26.7 95-80.3 147.8-116.5 45.9-31.5 110-22.9 164.4-11 49.6 10.7 98.2 36.1 125.8 78.7 27.6 42.5 29 103.9-5.3 141.3-35.9 38.9-95.3 41.6-148.2 42.9-59.5 1.4-120 4.6-176.3 24.3-56.2 19.6-108.5 57.9-132.1 112.6"/>
				</g>
				<g id="&lt;Group&gt;">
					<g id="&lt;Group&gt;">
						<path id="&lt;Compound Path&gt;" fill-rule="evenodd" class="s9" d="m505.5 374.4c-2.2 1.3-4.6 2.3-7 2.9v15.3h-14.7v-15.3c-2.5-0.6-4.8-1.6-7.1-2.9l-10.8 10.8-10.4-10.3 10.9-10.8c-1.3-2.3-2.3-4.7-3-7.1h-15.3v-14.7h15.3q1-3.7 3-7.1l-10.9-10.8 10.4-10.3 10.8 10.8c2.3-1.3 4.7-2.3 7.1-2.9v-15.3h14.7v15.3c2.4 0.6 4.8 1.6 7 2.9l10.9-10.8 10.3 10.3-10.8 10.8c1.3 2.3 2.3 4.7 2.9 7.1h15.3v14.7h-15.3q-0.9 3.7-2.9 7.1l10.8 10.8-10.3 10.3zm-0.7-11c7.6-7.6 7.6-19.9 0-27.5-7.6-7.6-19.9-7.6-27.5 0-7.6 7.6-7.6 19.9 0 27.5 7.6 7.6 19.9 7.6 27.5 0z"/>
					</g>
					<g id="&lt;Group&gt;">
						<path id="&lt;Compound Path&gt;" fill-rule="evenodd" class="s9" d="m641.6 294.9c-4.3 2.5-8.8 4.4-13.5 5.6v29.2h-27.9v-29.2c-4.7-1.2-9.2-3.1-13.5-5.6l-20.7 20.7-19.7-19.8 20.6-20.6c-2.5-4.3-4.3-8.8-5.6-13.5h-29.2v-28h29.2c1.3-4.6 3.1-9.2 5.6-13.4l-20.6-20.7 19.7-19.7 20.7 20.6c4.2-2.5 8.8-4.3 13.5-5.6v-29.2h27.9v29.2c4.7 1.3 9.2 3.1 13.5 5.6l20.6-20.6 19.8 19.7-20.7 20.7c2.5 4.2 4.4 8.8 5.6 13.4h29.2v28h-29.2c-1.2 4.7-3.1 9.2-5.6 13.5l20.7 20.6-19.8 19.8zm-1.2-21c14.5-14.5 14.5-38 0-52.5-14.5-14.5-38-14.5-52.5 0-14.5 14.5-14.5 38 0 52.5 14.5 14.5 38 14.5 52.5 0z"/>
					</g>
					<g id="&lt;Group&gt;">
						<path id="&lt;Compound Path&gt;" fill-rule="evenodd" class="s10" d="m414.3 261.7c-5.4 1.6-10.9 2.4-16.3 2.4l-8.1 32.1-30.7-7.7 8.1-32.1c-4.8-2.6-9.3-5.9-13.3-9.8l-28.4 16.9-16.2-27.1 28.3-17c-1.5-5.4-2.3-10.9-2.4-16.4l-32-8 7.7-30.7 32.1 8c2.6-4.8 5.9-9.2 9.8-13.2l-16.9-28.4 27.1-16.3 17 28.4c5.4-1.5 10.9-2.3 16.4-2.4l8-32 30.7 7.7-8 32c4.8 2.7 9.2 6 13.2 9.9l28.4-17 16.3 27.2-28.4 17c1.5 5.4 2.3 10.9 2.4 16.3l32 8.1-7.7 30.7-32.1-8.1c-2.6 4.8-5.9 9.3-9.8 13.3l16.9 28.4-27.1 16.2zm4.4-23.3c20-11.9 26.5-37.8 14.5-57.7-11.9-19.9-37.7-26.4-57.7-14.5-19.9 11.9-26.4 37.7-14.5 57.7 11.9 19.9 37.8 26.4 57.7 14.5z"/>
					</g>
				</g>
				<g id="&lt;Group&gt;">
					<g id="&lt;Group&gt;">
						<path id="&lt;Path&gt;" class="s11" d="m898.5 329.3h30.4v62h-30.4z"/>
						<path id="&lt;Path&gt;" class="s11" d="m1161.1 205.2h27.2v186.1h-27.2z"/>
						<path id="&lt;Path&gt;" class="s11" d="m1095.8 253.7h28.8v137.6h-28.8z"/>
						<path id="&lt;Path&gt;" class="s11" d="m1027.2 289.4h29.7v101.9h-29.7z"/>
						<path id="&lt;Path&gt;" class="s11" d="m960.1 279.4h30.4v111.9h-30.4z"/>
					</g>
					<g id="&lt;Group&gt;">
						<path id="&lt;Path&gt;" class="s11" d="m1164.9 169.6l-45 8.5 26.5 27.1z"/>
						<path id="&lt;Path&gt;" class="s12" d="m1143.7 184.3l-91 70.8-65.9-4.2-80.5 52.7"/>
					</g>
					<path id="&lt;Path&gt;" class="s12" d="m865.5 187.1l0.4 204.5 339.6-0.3"/>
				</g>
			</g>
			<g id="&lt;Group&gt;">
				<g id="&lt;Group&gt;">
					<path id="&lt;Path&gt;" class="s13" d="m658.4 699.3c-72.1 55.4-92.2 121.5-78.9 224.4l88-79.2z"/>
					<path id="&lt;Path&gt;" class="s13" d="m877.7 699.3c72.1 55.4 92.2 121.5 78.9 224.4l-88-79.2z"/>
					<g id="&lt;Group&gt;">
						<path id="&lt;Path&gt;" class="s7" d="m890.1 582.9l-3.9 62.6-1.9 32.2-0.2 2.1-0.3 4.3-8.7 143.3h-214.2l-8.8-143.3-0.4-6.4-4.8-78.3q-2.1-34.4-1.4-68.9 0.1-5.2 0.2-10.8 0.1-2.1 0.2-4.2c0.4-12.7 0.9-25.7 1.7-36.3 4.6-60.2 18-119.3 39.6-175.3 7.5-19.3 15.9-38.3 25.3-56.8l12.5-24.6 26.2-51.4 11.5-22.8c2.2-4.4 8.3-4.4 10.5 0l49.5 96.9q9.9 19.5 18.4 39.6c2.7 6.3 5.3 12.7 7.7 19.2 21.6 56.1 34.8 115.2 39.3 175.5 0.8 10.8 1.4 23.5 1.8 36q0.1 2.2 0.1 4.3c0.4 12.9 0.6 25.2 0.8 34.3 0.1 9.6-0.1 19.2-0.7 28.8z"/>
						<path id="&lt;Path&gt;" class="s14" d="m848.8 304q-6.6-0.8-13.3-1.5c-49.1-5.2-98.6-4.9-148.3 1.4 7.5-19.3 15.9-38.3 25.3-56.8l12.6-24.6 26.1-51.5 11.6-22.8c2.2-4.3 8.2-4.3 10.4 0l49.5 97q9.9 19.5 18.4 39.5 4 9.6 7.7 19.3z"/>
						<g id="&lt;Group&gt;">
							<g id="&lt;Group&gt;">
								<path id="&lt;Path&gt;" class="s15" d="m693.7 806.4l-4.4 0.1-6.3-126.3 4.3-0.3z"/>
								<path id="&lt;Path&gt;" class="s15" d="m884.1 679.8l-0.2 4.3h-231.8l-0.3-4.3z"/>
								<path id="&lt;Path&gt;" class="s15" d="m890 519.7h-244.2q0-2.1 0.1-4.2h244q0.1 2.1 0.1 4.2z"/>
							</g>
						</g>
						<path id="&lt;Path&gt;" class="s14" d="m645.3 836.6v-1.2c0-4.4 3.5-7.9 7.9-7.9h229.7c4.3 0 7.9 3.5 7.9 7.9v1.2c0 4.4-3.6 7.9-7.9 7.9h-229.7c-4.3 0-7.9-3.5-7.9-7.9z"/>
						<path id="&lt;Path&gt;" class="s14" d="m645.3 806.7v-1.2c0-4.4 3.5-7.9 7.9-7.9h229.7c4.3 0 7.9 3.5 7.9 7.9v1.2c0 4.4-3.6 7.9-7.9 7.9h-229.7c-4.3 0-7.9-3.5-7.9-7.9z"/>
						<g id="&lt;Group&gt;">
							<g id="&lt;Group&gt;">
								<path id="&lt;Path&gt;" class="s15" d="m791.4 323.8c28.6-3.1 55 23.8 59 60.2 4 36.3-16 68.3-44.6 71.4-28.6 3.2-55.1-23.8-59-60.1-4-36.3 16-68.3 44.6-71.5z"/>
								<path id="&lt;Path&gt;" class="s16" d="m798.2 323.6c28.6-3.1 55 23.8 59 60.1 4 36.4-16 68.4-44.6 71.5-28.6 3.1-55-23.8-59-60.1-4-36.4 16-68.3 44.6-71.5z"/>
							</g>
							<g id="&lt;Group&gt;">
								<path id="&lt;Path&gt;" class="s15" d="m822 436.4c-3.5 1.8-7.3 3-11.4 3.4-21.9 2.1-42-18.6-44.9-46.4-2.1-20 5.3-38.2 17.7-47.6 4.9-3.8 10.6-6.2 16.8-6.8 21.9-2.2 42 18.6 44.9 46.4 2.3 22.7-7.5 43-23.1 51z"/>
								<g id="&lt;Group&gt;">
									<path id="&lt;Path&gt;" class="s17" d="m840 398.3c-0.1 2.7-0.4 5.4-0.9 8q-0.5 3.2-1.4 6.2 0 0.1-0.1 0.1c-0.7 2.4-1.5 4.7-2.6 7-1.6 3.6-3.6 6.9-6 9.9q-1.6 2.1-3.6 4-1.3 1.3-2.8 2.4-0.3 0.3-0.6 0.5c-0.2 0.1-0.4 0.2-0.6 0.3q-2.9 1.4-6 2.2-2.3 0.6-4.8 0.9c-21.9 2.2-42-18.6-44.9-46.4-0.2-2.1-0.3-4.2-0.3-6.2q-0.1-4.1 0.4-8c0.1-0.7 0.2-1.5 0.3-2.2q0.4-2.3 0.9-4.5 0.8-3.1 1.8-6 1.9-5.1 4.6-9.5l4.1-5.5q0.4-0.5 0.8-1 1.8-2 3.9-3.7c0.4-0.4 0.8-0.7 1.2-1q2.2-1.2 4.5-1.9 3.4-1.2 6.9-1.5c22-2.2 42.1 18.6 44.9 46.4 0.4 3.2 0.5 6.4 0.3 9.5z"/>
									<path id="&lt;Path&gt;" class="s18" d="m840 398.3l-52.1-54.4q3.4-1.1 6.9-1.5c22-2.2 42.1 18.6 44.9 46.4 0.4 3.2 0.5 6.4 0.3 9.5z"/>
									<path id="&lt;Path&gt;" class="s18" d="m837.6 412.6c-0.7 2.4-1.5 4.7-2.6 7l-61.6-62.6 4.1-5.5z"/>
									<path id="&lt;Path&gt;" class="s18" d="m821.4 436.7l-55.6-57.5q-0.5 3.9-0.4 8l50 51.7z"/>
								</g>
							</g>
						</g>
						<path id="&lt;Path&gt;" class="s19" d="m890.1 582.9l-3.9 62.6c-1.2-59.7-4.5-125.5-11.6-189.8-6.6-60.6-21.9-111.9-39.1-153.2-23-55.1-49.5-92.4-63.5-110-5-6.3-14.5-6.5-19.8-0.6l-27.1 30.6 26.1-51.5 11.6-22.8c2.2-4.3 8.2-4.3 10.4 0l49.5 97q9.9 19.5 18.4 39.5c2.7 6.4 5.3 12.8 7.8 19.3 21.5 56.1 34.7 115.2 39.2 175.4 0.8 10.8 1.4 23.6 1.8 36.1q0.1 2.1 0.2 4.2c0.4 13 0.6 25.3 0.7 34.4 0.1 9.6-0.1 19.2-0.7 28.8z"/>
					</g>
					<path id="&lt;Path&gt;" class="s13" d="m758.3 699.3h19.5v224.4h-19.5z"/>
				</g>
				<g id="&lt;Group&gt;">
					<g id="&lt;Group&gt;">
						<g id="&lt;Group&gt;">
							<path id="&lt;Path&gt;" class="s20" d="m1192.3 906.6l6.1-52.4-39.9-6.6-1.8 56.4z"/>
							<g id="&lt;Group&gt;">
								<path id="&lt;Path&gt;" class="s7" d="m1205 925.9c-0.9 2.6-87.9 2.4-89.5-0.9-0.7-1.7-0.6-3.4 0.1-5.2 3.5-8.1 21.5-16.8 40.5-20.7 4.5-0.9 27.9-0.2 38.4 0.2 3 0.1 5.5 2.2 6.1 5.2l2.8 13.4z"/>
								<path id="&lt;Path&gt;" class="s7" d="m1205 925.9c-0.9 2.6-87.9 2.4-89.5-0.9-0.7-1.7-0.6-3.4 0.1-5.2l87.8-1.9z"/>
							</g>
						</g>
						<g id="&lt;Group&gt;">
							<path id="&lt;Path&gt;" class="s21" d="m1291.5 906.1l-11.2-52.9 40.4-5.6 3.4 53.4z"/>
							<g id="&lt;Group&gt;">
								<path id="&lt;Path&gt;" class="s7" d="m1278.7 925.9c1 2.6 88 2.4 89.5-0.9 0.8-1.7 0.7-3.4-0.1-5.2-3.4-8.1-21.5-16.8-40.4-20.7-4.8-0.9-30.3-0.1-39.9 0.2-2.2 0.1-4 1.6-4.4 3.8l-3 14.8z"/>
								<path id="&lt;Path&gt;" class="s7" d="m1278.7 925.9c1 2.6 88 2.4 89.5-0.9 0.8-1.7 0.7-3.4-0.1-5.2l-87.7-1.9z"/>
							</g>
						</g>
						<g id="&lt;Group&gt;">
							<g id="&lt;Group&gt;">
								<path id="&lt;Path&gt;" class="s22" d="m1330.9 875l-53.1 11.9-48.8-230.8-0.3-1.1-15.2 137.8-10.5 95.6-55.6-9 24.7-290.2 2.9-32.5 107.9-5.2 6.6 45.6z"/>
								<path id="&lt;Path&gt;" class="s23" d="m1289.5 597.1l-117.4-7.9 2.9-32.5 107.9-5.2z"/>
								<path id="&lt;Path&gt;" class="s23" d="m1229 656.1l-0.3-1.1-15.2 137.8-7.3-151.7 22.1 6.6z"/>
							</g>
							<g id="&lt;Group&gt;">
								<path id="&lt;Path&gt;" class="s24" d="m1277.2 878.3l51.5-11.6"/>
								<g id="&lt;Group&gt;">
									<path id="&lt;Path&gt;" class="s24" d="m1277.3 574.3l47.5 292.4"/>
									<path id="&lt;Path&gt;" class="s24" d="m1280.4 593.6c0 0-13.5 0.8-15.8-18.1"/>
								</g>
								<g id="&lt;Group&gt;">
									<path id="&lt;Path&gt;" class="s24" d="m1216.8 571.6l-1.4 65.6"/>
									<path id="&lt;Path&gt;" class="s24" d="m1227.8 573.3c0 0 5.2 30-11.7 31.1"/>
								</g>
								<path id="&lt;Path&gt;" class="s25" d="m1183 576.5c1 9.3-2.7 19-9.7 25.2"/>
							</g>
						</g>
					</g>
					<g id="&lt;Group&gt;">
						<g id="&lt;Group&gt;">
							<path id="&lt;Path&gt;" class="s21" d="m1175 417.9l-24.5 39.3c0 0-10.1-14-19.1-27.8-5.4-8.4-10.4-16.6-12.4-21.6-10.2-24.6-13.4-91.2-13.4-91.2l20.3-5c0 0 13.9 61.1 25 80.2 1.5 2.6 4.7 6.4 8.3 10.3 7.1 7.6 15.8 15.8 15.8 15.8z"/>
							<path id="&lt;Path&gt;" class="s26" d="m1175 417.9l-24.5 39.3c0 0-10.1-14-19.1-27.8 6-11.7 15.9-21.4 27.8-27.3 7.1 7.6 15.8 15.8 15.8 15.8z"/>
						</g>
						<g id="&lt;Group&gt;">
							<path id="&lt;Path&gt;" class="s21" d="m1121.7 322.8c7.4-7 14-14.9 19.6-23.5 0.6-0.9 1.2-1.9 1.4-3 0.2-1.1-0.1-2.4-1-2.9-1.5-0.9-3.3 0.2-4.6 1.4-3.5 2.9-6.9 5.9-11.3 8.9-3.8-9.7-6.7-19.9-8.5-30.4-0.2-1.1-0.4-2.3-1-3.2-0.6-1-1.6-1.8-2.7-1.7-1.1 0.1-2 1-2.5 2-0.4 1-0.5 2.1-0.5 3.2-0.2 5.9 0.4 11.7 0.9 19.1q-5-11-10.1-21.9c-0.4-0.9-0.9-1.9-1.8-2.2-1.1-0.4-2.2 0.4-2.8 1.4-0.5 1-0.5 2.2-0.5 3.3 0.2 8 2.4 15.9 5.8 23.9q-6.7-8.6-13.4-17.1c-0.7-0.9-1.5-1.8-2.6-1.7-1 0-1.9 1.1-2 2.1-0.2 1.1 0.1 2.2 0.5 3.2 2.4 7.1 5.9 13.8 9.5 20.7q-5.4-4.3-10.7-8.6c-0.9-0.7-2-1.5-3.1-1.2-1.3 0.3-2 1.8-1.8 3.1 0.1 1.3 0.9 2.5 1.7 3.5 9.1 11.8 22.8 19.6 37.4 21.3 1.4 0.2 2.8 0.3 4.1-0.2 1.3-0.5 2.5-1.8 0 0.5z"/>
							<path id="&lt;Path&gt;" class="s27" d="m1123.4 303.6c-4-1.2-8.3-0.2-11.6 2.8"/>
						</g>
						<path id="&lt;Path&gt;" class="s7" d="m1205 439.6l-39.8-37.8c0 0-26.7 26.3-28.9 51.3l38.2 50.6z"/>
					</g>
					<g id="&lt;Group&gt;">
						<g id="&lt;Group&gt;">
							<path id="&lt;Path&gt;" class="s7" d="m1289.4 577.9h-2.7l-8.8 0.2-12.9 0.2-36.6 0.6-11.8 0.2-33.4 0.6-10.3 0.2h-1.5c0 0-1.3-13.2-2.5-31.3-0.9-13.3-1.8-29.2-2-44.4q-0.1-4.9 0-9.8v-0.9c0.1-16.7 1.3-31.3 4.3-38.9 3.2-8 13.8-15.3 27.9-20.6q0.9-0.3 1.8-0.7 4.3-1.5 8.9-2.8 3.3-0.9 6.8-1.6c8.5-2 17.6-3.2 26.7-3.5q2.4-0.1 4.8-0.1c8.3-0.1 16.6 0.7 24.3 2.4q1 0.2 2 0.4c1.9 0.5 3.6 2 5.1 4.3 5.5 8.5 8.4 28.1 9.9 50.3q0.1 2.3 0.2 4.7c0.2 3.5 0.4 7 0.5 10.6v0.2c1.4 39-0.7 79.7-0.7 79.7z"/>
							<path id="&lt;Path&gt;" class="s5" d="m1289.4 577.9l-118 2c0 0-1.3-13.2-2.5-31.3 53.1 9.3 101.4-30.9 121.2-50.4 1.4 39-0.7 79.7-0.7 79.7z"/>
						</g>
						<path id="&lt;Path&gt;" class="s5" d="m1166.9 504.2c26.1 4.3 73 6.3 123.2-6.2-0.1-3.6-0.3-7.1-0.5-10.6-43.9 10.1-80.1 10.5-111.2 8.1q-5.5-0.5-10.8-1-0.3 0-0.7-0.1"/>
					</g>
					<g id="&lt;Group&gt;">
						<g id="&lt;Group&gt;">
							<path id="&lt;Path&gt;" class="s21" d="m1283.9 264.4c-0.5-1-1-2-1-3.1-0.1-1.2 0.4-2.4 1.4-2.8 1.5-0.8 3.2 0.6 4.3 1.9 3.1 3.3 6.2 6.6 10.1 10.2 5-9.3 9.1-19.1 12.1-29.2 0.4-1.1 0.7-2.2 1.4-3.1 0.6-0.9 1.8-1.6 2.9-1.4 1 0.3 1.8 1.2 2.1 2.3 0.4 1.1 0.3 2.2 0.2 3.3-0.5 5.8-1.7 11.5-3.1 18.8q6.3-10.3 12.5-20.6c0.5-0.8 1.2-1.8 2.1-2 1.1-0.2 2.2 0.7 2.6 1.8 0.4 1 0.2 2.2 0.1 3.3-1.1 7.9-4.2 15.5-8.5 23q7.6-7.7 15.3-15.4c0.8-0.7 1.7-1.5 2.7-1.4 1.1 0.2 1.8 1.3 1.8 2.4 0.1 1.1-0.4 2.1-0.9 3.1-3.2 6.8-7.5 13-11.8 19.5q5.8-3.7 11.7-7.3c0.9-0.6 2.1-1.3 3.2-0.9 1.2 0.4 1.7 2 1.4 3.3-0.3 1.3-1.2 2.4-2.1 3.3-10.4 10.6-25 16.8-39.7 16.8-1.3 0-2.8-0.1-4-0.7-1.3-0.6-12.2-15.9-16.8-25.1z"/>
							<path id="&lt;Path&gt;" class="s27" d="m1302.2 270.4c3.5 0.2 6.8 1.8 8.7 4.3"/>
						</g>
						<g id="&lt;Group&gt;">
							<path id="&lt;Path&gt;" class="s28" d="m1276.5 404.8l-1.7-12.1c0 0 18 2.6 29.7 12.9 11.7 10.4 15.4 27.3 15.4 27.3l-26.7-6.1z"/>
							<g id="&lt;Group&gt;">
								<path id="&lt;Path&gt;" class="s21" d="m1327.2 376.8c-1.6 8.7-7.7 22.4-14.1 35.2-8.3 16.6-17.1 31.4-17.1 31.4l-34.9-23.3c0 0 8.5-13.8 16.3-28.1 5.4-9.7 10.5-19.7 12.3-25.6 6-19.5 8.6-81 8.6-81l21.6 0.5c0 0 10.8 70.5 7.3 90.9z"/>
								<path id="&lt;Path&gt;" class="s26" d="m1313.1 412c-8.3 16.6-17.1 31.4-17.1 31.4l-34.9-23.3c0 0 8.5-13.8 16.3-28.1 4.4 6.8 14.9 18.7 35.7 20z"/>
							</g>
							<path id="&lt;Path&gt;" class="s7" d="m1240.4 434.6l34.5-42.1c7.1 17.4 34.3 35.9 45 40.3l-33 53.9z"/>
						</g>
					</g>
					<g id="&lt;Group&gt;">
						<g id="&lt;Group&gt;">
							<g id="&lt;Group&gt;">
								<path id="&lt;Path&gt;" class="s21" d="m1246.4 428.5c0 0-21.1 20.2-33 19.4-12.2-1-14.2-12.9-14.2-12.9 1.4-1.2 2.8-2.8 4-4.9 2.8-4.9 4.5-12.3 3.7-24.2l32.6-8.9c-0.5 5.2-0.8 10.2-0.5 14.7 0.4 6.8 2.3 12.6 7.4 16.8z"/>
								<path id="&lt;Path&gt;" class="s26" d="m1239 411.7c-7.8 8.7-22.1 21.7-35.8 18.4 2.8-4.9 4.5-12.3 3.7-24.2l32.6-8.9c-0.5 5.2-0.8 10.2-0.5 14.7z"/>
							</g>
							<g id="&lt;Group&gt;">
								<path id="&lt;Path&gt;" class="s26" d="m1172.9 386.6c1.1-4.6 6.8-7.3 12.8-6 6.1 1.4 10.2 6.2 9.1 10.9-1 4.6-6.7 7.3-12.8 6-6-1.4-10.1-6.2-9.1-10.9z"/>
								<path id="&lt;Path&gt;" class="s29" d="m1179.8 354.7c0 0-1 9.1-0.6 16.3 0.6 9.4 3 18.9 6.5 21.2 0.5-11.3 1.3-23.6 5.2-34-4.3-1.3-11.1-3.5-11.1-3.5z"/>
								<path id="&lt;Path&gt;" class="s21" d="m1251 373.1v0.1q0 1-0.1 2-0.1 1.8-0.3 3.7c-3.1 26.9-24.1 42.5-41.9 41.9-19.9-0.7-27.6-21.7-25.3-46q0.3-4.1 0.7-7.6c0.7-6.2 1.5-11.3 2.5-15.5 3.8-15.9 10.8-18.6 29.2-17.7 28.2 1.4 36.3 17.7 35.2 39.1z"/>
								<path id="&lt;Path&gt;" class="s26" d="m1251.1 375q-0.1 0.1-0.2 0.2c-2.9 2.1-5.8 4.2-8.7 6.9-3.6-4.4-6.3-9.6-8-15.1-1.4 1.5-4 1-5.8 0-1.9-1-3.7-2.4-5.8-2.2-2.6 0.2-4.4 3-7.1 3.3-3.7 0.5-6.5-4-10.3-3.9-3.2 0.1-5.5 3.7-8.8 3.9-2.5 0.2-4.7-1.7-7.2-2.1-1.7-0.2-3.4 0.3-5.1 1.2 0.7-6.2 1.5-11.3 2.5-15.5 18.3-3.9 37.1-5.8 55.8-5.2 5 7.8 7.9 16.9 8.6 26.6v0.1q0.1 0.9 0.1 1.8z"/>
								<path id="&lt;Path&gt;" class="s29" d="m1255.2 379.5c-1.4 2.9-2.2 6.5-1.7 9.9-3.3 1.4-6.6 2.7-9.6 3.6-3.8-9.3-6.2-19.2-7.6-29.8-1.6 2-4.9 1.2-7-0.2-2.2-1.3-4.5-3.1-7-2.7-2.3 0.5-3.9 2.7-6.3 3.3-4.3 0.9-7.9-4.5-12.4-4-3.6 0.3-5.8 4.4-9.4 4.9-2.1 0.2-4.1-0.9-6.2-1.4-1.8-0.4-3.3 0.6-4.8 1.4-1.6 0.8-4.9 0-7.1-1.9-1-0.8-1.8-1.8-2.1-3.1-0.5-2-0.3-4.1-0.8-6.2-0.7-3.1-2.7-6.5-0.9-9.3 1.4-2.3 4.7-3 6.5-5 2.2-2.4 1.8-6.2 3.8-8.7 2-2.5 5.9-3 9.2-2.8 3.4 0.1 7 0.6 10.1-0.7 3-1.3 5.5-4.3 8.7-3.9 2.5 0.3 4.2 2.5 6.5 3.4 3.4 1.5 7.2 0 10.7-1 3.5-1.1 7.9-1.7 10.3 0.9 0.7 0.7 1.2 1.6 1.7 2.5 0.5 0.9 1 1.8 1.9 2.5 1.4 0.9 3.1 0.9 4.8 0.9 1.9 0.1 3.9 0.5 5.5 1.5 3.6 2.3 4 5.7 3.1 9.1-0.5 1.8 0 3.7 1.1 5.2 1.3 1.9 1.6 4.6 1.4 6.9-0.4 3.4-1.6 6.8-1 10.1 0.3 1.9 1.3 3.7 1.4 5.6 0.3 3.2-1.5 6.1-2.8 9z"/>
								<path id="&lt;Path&gt;" class="s21" d="m1247.8 380.7c6-1.5 11.9 1 13.1 5.6 1.2 4.6-2.7 9.6-8.7 11.1-6 1.6-11.9-0.9-13.1-5.5-1.2-4.6 2.7-9.6 8.7-11.2z"/>
								<path id="&lt;Path&gt;" class="s30" d="m1239.8 328.7c-2.9-1.3-6.2-1.5-9.2-0.4-3.3 1.2-6.2 4-9.7 4.2-4.8 0.3-9.4-4-13.8-2.3-2.4 0.9-4 3.3-6.5 3.7-2.6 0.4-4.9-1.5-7.5-2.1-3-0.5-6.3 1.1-7.6 3.8-1.1 2.1-1.1 4.8-2.7 6.5-1.7 1.8-4.8 2.2-5.8 4.4-0.7 1.8 0.3 3.8 0.5 5.7 0.3 2.5-0.9 4.9-1.4 7.4-0.2 0.9-0.2 2 0 3-1-0.8-1.8-1.8-2.1-3.1-0.5-2-0.3-4.1-0.8-6.2-0.7-3.1-2.7-6.5-0.9-9.3 1.4-2.3 4.7-3 6.5-5 2.2-2.4 1.8-6.2 3.8-8.7 2-2.5 5.9-3 9.2-2.8 3.4 0.1 7 0.6 10.1-0.7 3-1.3 5.5-4.3 8.7-3.9 2.5 0.3 4.2 2.5 6.5 3.4 3.4 1.5 7.2 0 10.7-1 3.5-1.1 7.9-1.7 10.3 0.9 0.7 0.7 1.2 1.6 1.7 2.5z"/>
							</g>
						</g>
						<g id="&lt;Group&gt;">
							<path id="&lt;Path&gt;" class="s31" d="m1229.6 375.6c-3.9-3.3-10.1-4.3-15-2.3"/>
							<path id="&lt;Path&gt;" class="s31" d="m1196.4 373.9c-3.6-2.7-8.8-3-12.7-0.7"/>
							<path id="&lt;Path&gt;" class="s32" d="m1199.6 385.4c-0.9 4-0.9 8.2 0 12.2"/>
							<path id="&lt;Path&gt;" class="s29" d="m1216.8 382.7c1.3 0 2.3 1.2 2.3 2.7 0 1.5-1 2.8-2.3 2.8-1.2 0-2.2-1.3-2.2-2.8 0-1.5 1-2.7 2.2-2.7z"/>
							<path id="&lt;Path&gt;" class="s29" d="m1190.1 381.7c1.2 0 2.2 1.2 2.2 2.7 0 1.5-1 2.8-2.2 2.8-1.3 0-2.3-1.3-2.3-2.8 0-1.5 1-2.7 2.3-2.7z"/>
							<g id="&lt;Group&gt;">
								<path id="&lt;Path&gt;" class="s33" d="m1200.9 403.8q0.3 1.1 0.6 2c0.8 2.2 2 4 3.5 5.2q1.1 0.9 2.5 1.3c3.1 0.9 6.8-0.4 8.8-3.2 1.4-2 1.9-4.7 1.5-7.2q-0.1-0.6-0.2-1.1-0.3-0.9-0.7-1.7c-5.2 2.4-12.1 3.9-16 4.7z"/>
								<path id="&lt;Path&gt;" class="s34" d="m1200.9 403.8q0.3 1.1 0.6 2 0.5 0.3 0.9 0.3c1.1 0 10.8-2.9 15.2-5.3q-0.3-0.9-0.7-1.7c-5.2 2.4-12.1 3.9-16 4.7z"/>
								<path id="&lt;Path&gt;" class="s35" d="m1205 411q1.1 0.9 2.5 1.3c3.1 0.9 6.8-0.4 8.8-3.2 1.4-2 1.9-4.7 1.5-7.2-3.1 0.6-8.9 2.7-12.8 9.1z"/>
							</g>
						</g>
					</g>
				</g>
				<g id="&lt;Group&gt;">
					<g id="&lt;Group&gt;">
						<g id="&lt;Group&gt;">
							<path id="&lt;Path&gt;" class="s36" d="m613.7 766.4c0 23.9-87.8 102.2-87.8 102.2l-17.5-20.9c0 0 59.9-78.3 58.9-83.9-0.6-2.9-4.4-9-9.8-16.5-4-5.5-8.8-11.7-13.7-17.9-14.2-17.8-29.5-35.5-29.5-35.5l41.3-59c0 0 20.6 38.2 37.2 74.1 2.3 4.8 4.5 9.6 6.5 14.3 8.3 18.8 14.4 35.4 14.4 43.1z"/>
							<path id="&lt;Path&gt;" class="s37" d="m599.3 723.3l-41.8 24c-4-5.5-8.8-11.7-13.7-17.9l49-20.4c2.3 4.8 4.5 9.6 6.5 14.3z"/>
						</g>
						<g id="&lt;Group&gt;">
							<path id="&lt;Path&gt;" class="s36" d="m482.3 866.5l8.7 8.7 13.1-2.2v14c0 0 29.1 33.2 34.3 31.8 2.2-0.6 1-9.9-1.2-20.6-3.1-15.2-8.2-33.1-8.2-33.1l-17.9-21.2c-3.1 1-6.3 2.8-9.5 5-10 6.9-19.3 17.6-19.3 17.6z"/>
							<path id="&lt;Path&gt;" class="s38" d="m482.3 866.5l8.7 8.7 13.1-2.2v14c0 0 29.1 33.2 34.3 31.8 2.2-0.6 1-9.9-1.2-20.6-11.8-8.4-28.2-35.9-35.6-49.3-10 6.9-19.3 17.6-19.3 17.6z"/>
						</g>
					</g>
					<g id="&lt;Group&gt;">
						<g id="&lt;Group&gt;">
							<path id="&lt;Path&gt;" class="s39" d="m123.5 895.1c0-21.6 17.4-39 39-39h311v78h-311c-21.6 0-39-17.5-39-39z"/>
							<path id="&lt;Path&gt;" class="s40" d="m178 895.1c0-21.6 17.4-39 39-39h311v78h-311c-21.6 0-39-17.5-39-39z"/>
							<path id="&lt;Path&gt;" class="s41" d="m204.8 898.1v-6c0-15.5 12.5-28 28-28h295.2v62h-295.2c-15.5 0-28-12.6-28-28z"/>
							<g id="&lt;Group&gt;">
								<g id="&lt;Clip Group&gt;" clip-path="url(#cp1)">
									<g id="&lt;Group&gt;">
										<path id="&lt;Path&gt;" class="s42" d="m198.3 870l281.7 0.4"/>
										<path id="&lt;Path&gt;" class="s42" d="m198.3 876l254.2 0.4"/>
										<path id="&lt;Path&gt;" class="s42" d="m198.3 885l151 0.4"/>
										<path id="&lt;Path&gt;" class="s42" d="m198.3 894l111 0.4"/>
										<path id="&lt;Path&gt;" class="s42" d="m198.3 903l160 0.4"/>
										<path id="&lt;Path&gt;" class="s42" d="m198.3 910l192 0.4"/>
										<path id="&lt;Path&gt;" class="s42" d="m198.3 919l302.7 0.4"/>
									</g>
								</g>
							</g>
						</g>
						<g id="&lt;Group&gt;">
							<path id="&lt;Path&gt;" class="s43" d="m102.4 817.1c0-21.6 17.4-39 39-39h311v78h-311c-21.6 0-39-17.5-39-39z"/>
							<path id="&lt;Path&gt;" class="s44" d="m156.9 817.1c0-21.6 17.4-39 39-39h311v78h-311c-21.6 0-39-17.5-39-39z"/>
							<path id="&lt;Path&gt;" class="s41" d="m183.7 820.1v-6c0-15.5 12.5-28 28-28h295.2v62h-295.2c-15.5 0-28-12.6-28-28z"/>
							<g id="&lt;Group&gt;">
								<g id="&lt;Clip Group&gt;" clip-path="url(#cp2)">
									<g id="&lt;Group&gt;">
										<path id="&lt;Path&gt;" class="s42" d="m177.2 792l281.7 0.4"/>
										<path id="&lt;Path&gt;" class="s42" d="m177.2 798l254.2 0.4"/>
										<path id="&lt;Path&gt;" class="s42" d="m177.2 807l151 0.4"/>
										<path id="&lt;Path&gt;" class="s42" d="m177.2 816l111 0.4"/>
										<path id="&lt;Path&gt;" class="s42" d="m177.2 825l160 0.4"/>
										<path id="&lt;Path&gt;" class="s42" d="m177.2 832l192 0.4"/>
										<path id="&lt;Path&gt;" class="s42" d="m177.2 841l302.7 0.4"/>
									</g>
								</g>
							</g>
						</g>
						<g id="&lt;Group&gt;">
							<path id="&lt;Path&gt;" class="s45" d="m91.6 739.1c0-21.6 17.5-39 39-39h305.4v78h-305.4c-21.5 0-39-17.5-39-39z"/>
							<path id="&lt;Path&gt;" class="s13" d="m145.3 739.1c0-21.6 17.4-39 39-39h305.3v78h-305.3c-21.6 0-39-17.5-39-39z"/>
							<path id="&lt;Path&gt;" class="s41" d="m171.6 742.1v-6c0-15.5 12.6-28 28-28h290v62h-290c-15.4 0-28-12.6-28-28z"/>
							<g id="&lt;Group&gt;">
								<g id="&lt;Clip Group&gt;" clip-path="url(#cp3)">
									<g id="&lt;Group&gt;">
										<path id="&lt;Path&gt;" class="s42" d="m165.3 714l277.1 0.4"/>
										<path id="&lt;Path&gt;" class="s42" d="m165.3 720l250.1 0.4"/>
										<path id="&lt;Path&gt;" class="s42" d="m165.3 729l148.6 0.4"/>
										<path id="&lt;Path&gt;" class="s42" d="m165.3 738l109.2 0.4"/>
										<path id="&lt;Path&gt;" class="s42" d="m165.3 747l157.4 0.4"/>
										<path id="&lt;Path&gt;" class="s42" d="m165.3 754l188.9 0.4"/>
										<path id="&lt;Path&gt;" class="s42" d="m165.3 763l297.8 0.4"/>
									</g>
								</g>
							</g>
						</g>
					</g>
					<g id="&lt;Group&gt;">
						<g id="&lt;Group&gt;">
							<g id="&lt;Group&gt;">
								<g id="&lt;Group&gt;">
									<path id="&lt;Path&gt;" class="s46" d="m617.4 612.5c0 0-40.2 21.7-57.6 13.9-6-2.6-13.1-12.5-19.3-22.7-7.6-12.7-13.6-25.9-13.6-25.9l1.4-9.7 6.7-45.5c0 0 3.9-3.6 11.4 4.8 2.6 2.9 6.2 12.6 9.9 24 3.4 10.4 6.7 22.2 9.5 31.8 2.9 10.2 5.1 18 5.9 19.3 2.3 3.9 39.6-0.7 39.6-0.7z"/>
									<path id="&lt;Path&gt;" class="s36" d="m565.8 583.2l-25.3 20.5c-7.6-12.7-13.6-25.9-13.6-25.9l1.4-9.7 28-16.7c3.4 10.4 6.7 22.2 9.5 31.8z"/>
								</g>
								<path id="&lt;Path&gt;" class="s47" d="m523.4 529.3l10.9-11.1c0 0 10.1 2.5 14.6 8.4 4.5 5.9 19.2 48.3 19.2 48.3l-35.3 18.8z"/>
								<g id="&lt;Group&gt;">
									<path id="&lt;Path&gt;" class="s46" d="m615.1 614c0 0 22.6 0.1 26.2-0.9 3.9-1.2 13.9-9.4 14.5-13.7 1-7.1-39.2 0.5-39.2 0.5l-16.8 6.3z"/>
									<path id="&lt;Path&gt;" class="s48" d="m638.7 605.5q2.2-1.4 4.3-2.8"/>
								</g>
							</g>
							<g id="&lt;Group&gt;">
								<g id="&lt;Group&gt;">
									<g id="&lt;Group&gt;">
										<path id="&lt;Path&gt;" class="s49" d="m581.9 600.1v-56.2c0-2.1 1.7-3.8 3.8-3.8h85.6c2.1 0 3.8 1.7 3.8 3.8v56.2z"/>
										<path id="&lt;Path&gt;" class="s50" d="m586.4 544.1h84.2v52h-84.2z"/>
										<g id="&lt;Group&gt;">
											<g id="&lt;Group&gt;">
												<path id="&lt;Path&gt;" class="s14" d="m594.9 584.5h3.8v7.4h-3.8z"/>
												<path id="&lt;Path&gt;" class="s14" d="m605.4 577.1h3.8v14.8h-3.8z"/>
												<path id="&lt;Path&gt;" class="s14" d="m616.4 574.6h3.8v17.3h-3.8z"/>
												<path id="&lt;Path&gt;" class="s14" d="m626.8 579.1h3.8v12.8h-3.8z"/>
												<path id="&lt;Path&gt;" class="s14" d="m636.9 570h3.8v21.9h-3.8z"/>
												<path id="&lt;Path&gt;" class="s14" d="m647.8 566.2h3.8v25.7h-3.8z"/>
												<path id="&lt;Path&gt;" class="s14" d="m658.4 560.1h3.8v31.8h-3.8z"/>
											</g>
											<g id="&lt;Group&gt;">
												<path id="&lt;Path&gt;" class="s51" d="m596.8 576.5l20.9-10.2 10.8 2.7 29.4-14.9"/>
												<path id="&lt;Path&gt;" class="s52" d="m655.6 552.2l6.1-0.4-3.1 5.3z"/>
											</g>
										</g>
										<g id="&lt;Group&gt;">
											<path id="&lt;Path&gt;" class="s53" d="m586.4 544.1h84.2v4.1h-84.2z"/>
											<g id="&lt;Group&gt;">
												<path id="&lt;Path&gt;" class="s50" d="m658.2 545.2c0.5 0 0.9 0.4 0.9 0.9 0 0.5-0.4 0.9-0.9 0.9-0.5 0-0.9-0.4-0.9-0.9 0-0.5 0.4-0.9 0.9-0.9z"/>
												<path id="&lt;Path&gt;" class="s50" d="m662.2 545.2c0.5 0 0.9 0.4 0.9 0.9 0 0.5-0.4 0.9-0.9 0.9-0.5 0-0.9-0.4-0.9-0.9 0-0.5 0.4-0.9 0.9-0.9z"/>
												<path id="&lt;Path&gt;" class="s50" d="m666.3 545.2c0.5 0 0.9 0.4 0.9 0.9 0 0.5-0.4 0.9-0.9 0.9-0.5 0-0.9-0.4-0.9-0.9 0-0.5 0.4-0.9 0.9-0.9z"/>
											</g>
										</g>
									</g>
									<g id="&lt;Group&gt;">
										<path id="&lt;Path&gt;" class="s53" d="m555.1 600.1h117.5v4.5h-117.5z"/>
										<path id="&lt;Path&gt;" class="s54" d="m555.1 600.1h93.7v4.5h-93.7z"/>
									</g>
								</g>
								<path id="&lt;Path&gt;" class="s48" d="m638.7 605.6c-5.1-1.7-10.6-2.2-17.1 0.3"/>
							</g>
						</g>
						<g id="&lt;Group&gt;">
							<path id="&lt;Path&gt;" class="s38" d="m489.6 474.2c-7.3-1.5-21.8 7.9-27 13.1-5.2 5.2-7.4 13.1-5.5 20.2 0.4 1.8 1.2 3.7 0.8 5.5-0.9 4.4-6.7 5.3-10.8 7.3-6.8 3.4-9.9 11.9-7.9 19 2 7.1 8.3 12.7 15.6 15.1 7.2 2.5 15.1 2.2 22.6 0.4 6-1.4 12-3.9 16-8.4 4.1-4.6 5.5-11.6 2.2-16.7-1.8-2.8-4.8-4.7-7.2-7-2.4-2.3-4.5-5.5-3.7-8.7 1-4.6 6.7-6.2 10.3-9.3 4-3.4 2.1-29-5.4-30.5z"/>
							<path id="&lt;Path&gt;" class="s14" d="m494 483.2q0.2 1.9-0.4 3.8c-1.8 5.6-8.4 8.4-14.8 6.3-6.4-2.1-10.1-8.3-8.3-13.8 0.4-1.3 1.1-2.4 1.9-3.3 0.4 4.3 3.8 8.4 8.7 10 5 1.6 10 0.3 12.9-3z"/>
						</g>
						<path id="&lt;Path&gt;" class="s9" d="m458.7 529.4c5.2-11.2 26.4-16.1 45.7-16.1 19.4 0 34 4.7 37.2 11.4 3.2 6.7 9.4 25.9 8.7 41.7-0.5 13.1-3 47.6-3 47.6l-78.1 4c0 0-16.9-74.8-10.5-88.6z"/>
						<g id="&lt;Group&gt;">
							<g id="&lt;Group&gt;">
								<path id="&lt;Path&gt;" class="s46" d="m546.9 745.3l-8.7-21-3.1-7.4c-2.4 1.3-4.8 2.7-7.2 3.9-8.4 4.2-17 8-25.2 12.4-3.9 2.1-7.7 4.3-11.5 6.5q2.2 4.1 4.5 8.3c3.4 6.3 6.9 12.8 10.5 19.2 31.2 55.9 85.1 135.3 85.1 135.3l27.3-6.7z"/>
								<path id="&lt;Path&gt;" class="s37" d="m546.9 745.3l-40.7 21.9c-3.6-6.5-7.1-12.9-10.5-19.2l42.5-23.7z"/>
							</g>
							<g id="&lt;Group&gt;">
								<path id="&lt;Path&gt;" class="s46" d="m596.2 934.1l11.9-3.2 4.6-12.4 12.2 7c0 0 43.2-8.5 44.7-13.7 0.6-2.2-8.1-5.8-18.5-9.3-14.7-4.9-32.7-9.6-32.7-9.6l-27.3 4.9c-0.7 3.2-0.8 6.9-0.5 10.8 1 12.1 5.6 25.5 5.6 25.5z"/>
								<path id="&lt;Path&gt;" class="s38" d="m596.2 934.1l11.9-3.2 4.6-12.4 12.2 7c0 0 43.2-8.5 44.7-13.7 0.6-2.2-8.1-5.8-18.5-9.3-13.1 6-45.2 6.3-60.5 6.1 1 12.1 5.6 25.5 5.6 25.5z"/>
							</g>
						</g>
						<g id="&lt;Group&gt;">
							<g id="&lt;Group&gt;">
								<g id="&lt;Group&gt;">
									<path id="&lt;Path&gt;" class="s46" d="m480 517.3c0 0 18.7 17.2 27.6 16.1 8.9-1.2 14.4-16.6 14.4-16.6 0 0-3.2-0.4-4.9-5.7-1-3.1-1.5-7.9-0.7-15.1 0-0.4-28.4-14.9-27.8-7.9 0.5 4.6 0.5 8.5 0.1 11.8-1.4 14.3-8.7 17.4-8.7 17.4z"/>
									<path id="&lt;Path&gt;" class="s36" d="m488.7 499.9c8.4 5.8 18.2 9.7 28.4 11.2-1-3.1-1.6-7.9-0.7-15.1 0-0.4-28.5-14.9-27.8-7.9 0.5 4.6 0.4 8.5 0.1 11.8z"/>
								</g>
								<g id="&lt;Group&gt;">
									<path id="&lt;Path&gt;" class="s36" d="m539.2 464.2c6.1-1.3 11.8 1.4 12.8 6 1 4.7-3 9.5-9.1 10.8-6.1 1.4-11.8-1.3-12.8-6-1-4.6 3-9.5 9.1-10.8z"/>
									<g id="&lt;Group&gt;">
										<path id="&lt;Path&gt;" class="s46" d="m515.2 504.3c-15.4 0.6-33.2-11-39.7-31.7q-1.3-4.3-2-9.2 0-0.4-0.1-0.9c-2.8-24.2 4-46.4 34.8-44.9 10.5 0.5 18.1 4.8 23.4 12.3 4.9 7 7.8 16.7 9 28.4q0.2 1.5 0.3 3c1.6 23-6.5 42.4-25.7 43z"/>
										<path id="&lt;Path&gt;" class="s36" d="m540.9 461.3c-3-8.8-10.5-16.7-17.8-21.8-1.9 5.9-6 11.9-11.9 15.5-6 3.7-12.7 6-19.2 8.5-5.8 2.3-11.7 5-16.5 9.1q-1.3-4.3-2-9.2c11.7-11.5 23.2-23.1 34.7-34.8 7.6 0.3 15.5 0.8 23.4 1.3 4.9 7 7.8 16.7 9 28.4 0.1 1 0.2 2 0.3 3z"/>
									</g>
									<g id="&lt;Group&gt;">
										<path id="&lt;Path&gt;" class="s38" d="m546.9 448.9c-0.8 6.1-2.8 12-5.8 16.9-1-9-2.8-15.6-7.7-21.1-3.4-3.9-7.5-7-11.8-9.7-0.6 2.7-1.7 5.3-3.1 7.7-4.1 6.6-10.8 11.2-17.8 14.9-4.4 2.3-9.1 4.4-13.2 7.2-4.1 2.8-7.8 6.6-9.3 11.3-3.8-2-8.8-3.2-11.4-7.6-6.4-10.7-7-24.5-1.4-35.7 2-3.9 4.7-7.4 7.8-10.4 6-5.6 13.8-9.5 22.1-10.5 5.3-0.7 11.1-0.1 16 2.1 3.6-0.6 7.2-1 10.9-0.8 6.5 0.2 13.2 2.3 17.8 7 3.2 3.4 5.1 7.9 6.2 12.4 1.3 5.2 1.5 10.9 0.7 16.3z"/>
										<path id="&lt;Path&gt;" class="s30" d="m546.9 448.9c-1.2-6.1-3.5-12.3-7.5-17.5-5.7-7.3-14.9-12.1-24.1-11-13.5-5.7-29.4-4.7-42.1 2 6-5.6 13.8-9.5 22.1-10.5 5.3-0.7 11.1-0.1 16 2.1 3.6-0.6 7.2-1 10.9-0.8 6.5 0.2 13.2 2.3 17.8 7 3.2 3.4 5.1 7.9 6.2 12.4 1.3 5.2 1.5 10.9 0.7 16.3z"/>
									</g>
									<path id="&lt;Path&gt;" class="s46" d="m463.1 469.8c1.2-4.6 7-7.1 13-5.6 6 1.6 9.9 6.6 8.7 11.2-1.2 4.6-7 7.1-13 5.5-6-1.5-9.9-6.5-8.7-11.1z"/>
								</g>
							</g>
							<g id="&lt;Group&gt;">
								<path id="&lt;Path&gt;" class="s55" d="m498.7 465.8c3-3.3 7.8-4.3 11.6-2.3"/>
								<path id="&lt;Path&gt;" class="s55" d="m529.1 462.5c2.8-2.7 6.9-3 10-0.7"/>
								<path id="&lt;Path&gt;" class="s56" d="m524.8 474c1 2.8 1 5.7 0.1 8.5"/>
								<path id="&lt;Path&gt;" class="s29" d="m508.5 471.7c1 0 1.8 1 1.8 2.3 0 1.3-0.8 2.3-1.8 2.3-1.1 0-1.9-1-1.9-2.3 0-1.3 0.8-2.3 1.9-2.3z"/>
								<path id="&lt;Path&gt;" class="s29" d="m533 470.8c1.1 0 1.9 1 1.9 2.3 0 1.2-0.8 2.3-1.9 2.3-1 0-1.8-1.1-1.8-2.3 0-1.3 0.8-2.3 1.8-2.3z"/>
								<path id="&lt;Path&gt;" class="s56" d="m522.9 489.7c-4.4 0.8-9.1-0.5-12.6-3.4"/>
							</g>
						</g>
						<g id="&lt;Group&gt;">
							<g id="&lt;Group&gt;">
								<path id="&lt;Path&gt;" class="s7" d="m487.6 556.9l57.9-3.5 6.5 13-4.2 53.7-78.9 0.2-3.7-14.7z"/>
								<path id="&lt;Path&gt;" class="s7" d="m498.6 558.9c0 0-4.4-32.1-16.9-44.6l-10.5 3.2c0 0 15.4 19.1 15.4 45z"/>
								<path id="&lt;Path&gt;" class="s7" d="m534.8 556.4c0 0-1.5-24.2-16.3-42.6l13 2.5c0 0 12.5 14.3 14 37.6"/>
								<path id="&lt;Path&gt;" class="s7" d="m471.2 615.4c0 0-18.7 25.8-18.7 56.2 0 30.3 42 89.6 42 89.6l109-40.9c0 0-49.8-87.3-51.5-93.7-1.4-5.5-4.2-17-4.2-17z"/>
								<g id="&lt;Group&gt;">
									<path id="&lt;Path&gt;" class="s57" d="m470.4 621.2c0 0 50.6 0.2 76.2-6.3"/>
									<path id="&lt;Path&gt;" class="s57" d="m475.9 621.2c0 0-16.7 25.6-15.9 47.1 1.2 31.6 37.2 83.1 37.2 83.1"/>
									<path id="&lt;Path&gt;" class="s57" d="m484 621.2c0 0-4.7 19.9-16.7 17.6"/>
									<path id="&lt;Path&gt;" class="s57" d="m519.8 556.4c0 0 0.7 8.1 1.2 12.9 0.4 4.8 1.4 50 1.4 50 0 0-0.2 8.3 0 12 0.3 8.2 15 40.3 15 40.3"/>
									<path id="&lt;Path&gt;" class="s58" d="m502.4 570.4l33.9-2.4c0 0 1.9 14.4 0.3 18.9-2 5.3-14.2 10.9-14.2 10.9 0 0-15.8-4.2-17.5-9.6-1.7-5.5-2.5-17.8-2.5-17.8z"/>
									<path id="&lt;Path&gt;" class="s57" d="m529.3 618.3c0 0-0.5 8 0.1 10.9 0.5 2.9 6 14.1 5.6 16.8-0.4 2.7-5.5 6.7-5.5 6.7"/>
									<path id="&lt;Path&gt;" class="s57" d="m491.2 754l108.2-38.8"/>
								</g>
							</g>
							<g id="&lt;Group&gt;">
								<path id="&lt;Path&gt;" class="s59" d="m493.7 559.1c2.3 0 4.1 1.8 4.1 4 0 2.3-1.8 4.1-4.1 4.1-2.2 0-4.1-1.8-4.1-4.1 0-2.2 1.9-4 4.1-4z"/>
								<path id="&lt;Path&gt;" class="s59" d="m541.1 555c2.2 0 4.1 1.8 4.1 4.1 0 2.2-1.9 4-4.1 4-2.3 0-4.1-1.8-4.1-4 0-2.3 1.8-4.1 4.1-4.1z"/>
							</g>
						</g>
						<g id="&lt;Group&gt;">
							<g id="&lt;Group&gt;">
								<g id="&lt;Group&gt;">
									<path id="&lt;Path&gt;" class="s46" d="m550.4 639.5l-5.2 18.1c0 0-73.2-16.9-80.7-25.4-3.7-4.2-7.3-21.1-9.9-35.8-1.9-10.8-3.2-20.4-3.5-22.7q-0.1-0.5-0.1-0.5l6.9-0.4 26.7-1.3c0 0 1.7 12.6 3.6 24.2 1.4 8.3 2.9 16.1 4 18.3 1.9 3.8 58.2 25.5 58.2 25.5z"/>
									<path id="&lt;Path&gt;" class="s36" d="m488.2 595.7l-33.6 0.7c-1.9-10.8-3.2-20.4-3.5-22.7l6.8-0.9 26.7-1.3c0 0 1.7 12.6 3.6 24.2z"/>
								</g>
								<g id="&lt;Group&gt;">
									<path id="&lt;Path&gt;" class="s46" d="m546.3 639.1c9.6-3.4 17.6 1.4 26.4 0.1 1.6-0.3 3.6-0.2 4 1.3 0.5 1.5-1.1 2.7-2.4 3.4-3.5 1.8-8.9 0.6-12.1 2.4 0.6 2.1 2.9 5.8 6.8 9.5 4 3.8 9 6.1 13.9 8.5 1 0.5 2.1 1.1 2.2 2.2 0.1 0.9-0.6 1.7-1.4 2.1-0.8 0.3-1.7 0.4-2.5 0.3-6.1-0.3-12.1-2.7-16.8-6.7 2.2 4.1 6.8 6.2 10 9.6 0.8 0.8 1.5 1.7 1.8 2.7 0.3 1.1 0.1 2.3-0.7 3.1-0.8 0.8-2.2 0.8-3 0.1-1.3 1.5-3.9 1.5-5.6-0.1-1.2 0.8-2.4 2.6-5.7 1-1.3-0.7-2.6-1.3-3.7-2.2-7.1-5.6-12.3-12.2-15.9-19.9-0.3-5 1.5-11 4.7-17.4z"/>
									<path id="&lt;Path&gt;" class="s60" d="m571.6 676.2c-4.8-2.9-9.1-6.8-12.5-11.3"/>
									<path id="&lt;Path&gt;" class="s60" d="m565.4 676.9c-4.3-2.3-8-5.6-10.8-9.6"/>
								</g>
							</g>
							<path id="&lt;Path&gt;" class="s9" d="m478.1 537.9c-2.4-6.7-9.8-17.4-9.8-17.4 0 0-10.4 4.2-15.8 16.4-5.6 12.6-4 51.3-4 51.3l41.2 4.5c-0.1 0-2.4-29.5-11.6-54.8z"/>
						</g>
					</g>
					<g id="&lt;Group&gt;">
						<g id="&lt;Group&gt;">
							<g id="&lt;Group&gt;">
								<path id="&lt;Path&gt;" class="s21" d="m383.6 677.4l-27 5.3-15.2-71.3-5.8-27.1 18.9-15.7 12.3-10.3 1.3 9.2 5.2 36.9z"/>
								<path id="&lt;Path&gt;" class="s26" d="m373.3 604.4l-31.9 7-5.8-27.1 18.9-15.7 13.6-1.1z"/>
							</g>
							<path id="&lt;Path&gt;" class="s5" d="m332.2 524.5l5.6-21.7c0 0 16.9-1.4 25.1 12 8.9 14.4 20.7 77.9 20.7 77.9l-44.8 4.4z"/>
						</g>
						<g id="&lt;Group&gt;">
							<g id="&lt;Group&gt;">
								<path id="&lt;Path&gt;" class="s7" d="m449 895.8l-69.8-25.3q0-3.8 0.7-7c3.1-14.5 15.4-19.7 15.4-19.7l31.7 10.1c18.5 14.3 22.5 26.9 22.9 34.5 0.3 4.7-0.9 7.4-0.9 7.4z"/>
								<path id="&lt;Path&gt;" class="s7" d="m449 895.8l-69.8-25.3q0-3.8 0.7-7l70 24.9c0.3 4.7-0.9 7.4-0.9 7.4z"/>
							</g>
							<g id="&lt;Group&gt;">
								<g id="&lt;Group&gt;">
									<path id="&lt;Path&gt;" class="s7" d="m364 895.8l-69.8-25.3q0-3.8 0.7-7c3.1-14.5 15.4-19.7 15.4-19.7l31.7 10.1c18.5 14.3 22.5 26.9 22.9 34.5 0.3 4.7-0.9 7.4-0.9 7.4z"/>
									<path id="&lt;Path&gt;" class="s7" d="m364 895.8l-69.8-25.3q0-3.8 0.7-7l70 24.9c0.3 4.7-0.9 7.4-0.9 7.4z"/>
								</g>
								<g id="&lt;Group&gt;">
									<path id="&lt;Path&gt;" class="s23" d="m340.1 636.3c0 0 94 11.5 99.2 24.2 5.2 12.7-10.1 197.4-10.1 197.4l-40-10.4c0 0-1.4-139-9.4-143.6-8-4.6-63.2-5.8-63.2-5.8l-28.7-47.1z"/>
									<g id="&lt;Group&gt;">
										<g id="&lt;Group&gt;">
											<path id="&lt;Path&gt;" class="s23" d="m344.5 855.8l-40.7-8.4c0 0 8.1-140.4 4.6-146.8-1.2-2.3-45.7 2-59.1-6.4-11.9-7.3-13.1-29.3-11.8-47.2 0.9-14 3.4-25.6 3.4-25.6l33.8-6.3 34.9-6.6 12.3 8.1 29.6 19.5q-0.2 0.4-0.3 0.8c-6.7 16.7-22.3 21.4-22.3 21.4 0 0 34.8 0.5 41 14.9 5.8 13.3-25.4 182.6-25.4 182.6z"/>
											<path id="&lt;Path&gt;" class="s22" d="m351.5 636.1q-0.2 0.4-0.3 0.8c-15.5 6.5-60.4 22.2-113.7 10.1 0.9-14 3.4-25.6 3.4-25.6l33.8-6.3c15.5 0.4 32.4 1 47.2 1.5z"/>
										</g>
										<g id="&lt;Group&gt;">
											<path id="&lt;Path&gt;" class="s61" d="m244.7 633.3c0 0-7.8 41.8 8.2 53.4 16.7 11.9 59.4 4 63 11.4 3.1 6.1-7.5 141.7-7.5 141.7"/>
											<path id="&lt;Path&gt;" class="s61" d="m305.6 840.5l38.9 9.2"/>
											<path id="&lt;Path&gt;" class="s61" d="m253.9 636.5c0 0 5.5 20.5-10.4 23.1"/>
										</g>
									</g>
								</g>
							</g>
						</g>
						<g id="&lt;Group&gt;">
							<path id="&lt;Path&gt;" class="s7" d="m351.3 611.3c0.2 14.6 2.1 25.8 2.1 25.8-23.3 6.6-68.6 13.5-116.3-0.2 0 0 2.3-33.6 6.8-69.9 5.2-42.1 13.5-87.9 24.6-88.7 21.7-1.7 19.5 19.5 39 23 19.6 3.5 39.2-2.8 48.6 6.9 6.3 6.6-3.3 66.8-4.6 92.8-0.2 3.5-0.3 7-0.2 10.3z"/>
							<path id="&lt;Path&gt;" class="s5" d="m353.4 637.1c-23.3 6.6-68.6 13.5-116.3-0.2 0 0 2.3-33.6 6.8-69.9 13.5 19.9 43.5 46.4 107.4 44.3 0.2 14.6 2.1 25.8 2.1 25.8z"/>
						</g>
						<g id="&lt;Group&gt;">
							<g id="&lt;Group&gt;">
								<path id="&lt;Path&gt;" class="s29" d="m267.6 447.3c0.9-0.4 1.9-0.1 2.5 0.6 0.5 0.8 0.6 1.9 0 2.6-0.7 1-2.4 1.5-2.5 2.7-0.1 1 1 1.8 1.9 2.1 0.9 0.4 2 0.8 2.4 1.7 0.8 1.6-1.3 3.7-0.4 5.3 1.1 2.1 5.2 0.5 6.1 2.7 0.6 1.3-0.8 3-0.3 4.4 0.3 0.9 1.3 1.4 2.3 1.3 0.9 0 1.8-0.4 3.2-0.3 0.7-0.8 2-0.2 2.5 0.7 0.4 0.9 0.3 2 0.4 3 0 1 0.4 2.1 1.3 2.5 1.4 0.5 2.9-1 4.4-0.6 1.9 0.5 1.6 3.8 3.5 4.6 1.7 0.7 3.3-1.3 5.2-1.5 2.7-0.4 4.7 3 7.5 3.1 3 0 5.1-3.9 8.1-3.7 1.3 0.1 2.4 1 3.5 1.6 1.2 0.7 2.7 1 2.7-0.2q8.8-10.2 17.5-20.5c0.4-0.4 0.8-0.9 0.7-1.5-0.2-0.8-1.1-1-1.9-1.1-21.3-2.9-42.3-7.8-62.7-14.5-1.3-0.5-2.8-0.9-4.2-0.7-1.4 0.3-2.8 1.4-3.7 5.7z"/>
								<g id="&lt;Group&gt;">
									<path id="&lt;Path&gt;" class="s21" d="m289.8 490c0 0 16.8 24.9 28.7 24.8 12.2-0.2 14.9-12 14.9-12-1.4-1.3-2.6-3-3.7-5.1-2.5-5.1-3.7-12.6-2.2-24.4l-32-10.9c0.1 5.3 0.1 10.2-0.4 14.7-0.9 6.8-0.4 11.4-5.3 12.9z"/>
									<path id="&lt;Path&gt;" class="s26" d="m295.1 477.1c7.2 9.2 20.7 23 34.7 20.6-2.5-5.1-3.8-12.6-2.3-24.5l-32-10.8c0.1 5.2 0.1 10.2-0.4 14.7z"/>
								</g>
								<path id="&lt;Path&gt;" class="s26" d="m350.1 449.3c6.1-1 11.7 2 12.4 6.7 0.8 4.7-3.6 9.3-9.7 10.3-6.1 1-11.7-2-12.4-6.7-0.8-4.7 3.6-9.3 9.7-10.3z"/>
								<g id="&lt;Group&gt;">
									<path id="&lt;Path&gt;" class="s21" d="m285.4 437.8v0.1q0 1 0 2 0 1.9 0.1 3.8c1.5 27.1 21.5 43.2 39.3 44.3 20.2 1.2 28.8-20 28.1-44.4-0.2-3.9 7.5-42.2-30-42.6-28.2-0.4-37.2 15.4-37.5 36.8z"/>
									<path id="&lt;Path&gt;" class="s26" d="m293 450.7c6-4.9 10.3-11.9 12.2-19.8 0.4 1 1.8 1.1 2.8 0.7 1-0.4 1.9-1.1 2.9-1.2 2-0.2 3.6 1.9 5.6 2.1 2.2 0.2 3.9-2 6.1-2.4 2.9-0.5 5.4 2.2 8.3 2.4 2.7 0.3 5.2-1.8 8-2 2.1-0.1 4.1 0.8 6.1 1.2 2.1 0.3 4.7-0.3 4.9-2.3 2.4 6.8 3.8 13.9 4.3 21 0.8-10.5 1.6-21 2.7-31.7q-27.8-0.4-55.6-2.5c-2.6 11.5-6.3 22.7-8.3 34.5z"/>
								</g>
								<g id="&lt;Group&gt;">
									<path id="&lt;Path&gt;" class="s29" d="m364.4 432.6c-0.3 2.1 2.3 3.9 1.6 5.8-0.6 1.7-3.2 1.9-4.2 3.3-1.1 1.6 0 3.8-0.2 5.7-0.2 1.8-1.6 3.4-3.3 4.3-1.6 0.8-3.9 2.1-5.7 3.1 0.5-8.3 0.2-16.7-0.7-25-0.1-1.4-0.9-3.6-2.6-4.1 0.2 1.2-2.4 2.2-4.3 1.8-1.8-0.4-3.5-1.6-5.4-1.5-2.3 0.2-4.1 2.2-6.4 2.3-3.4 0.2-6-3.9-9.4-3.7-2.9 0.3-5.4 3.7-8.1 2.5-1.2-0.5-1.9-1.7-3.1-2.1-1.6-0.4-3.1 0.8-4.5 1.6-1.3 0.9-3.5 1.2-4.2-0.3-3.2 10.6-6.4 20.2-11.3 29.1-4.4-1-8.7-1.5-13.9-2.2-0.6 0.7-1.8 0.7-2.6 0.1-0.8-0.5-1.3-1.4-1.7-2.3-0.5-0.8-1.7 1.3-2 0.4-2.7-6.1-3.8-2.5-5-3.9-0.8-0.9-0.6-2.2-0.3-3.4 0.3-1.1 0.7-2.4 0.3-3.5-0.7-1.6-3-2-4-3.5-0.8-1.2-0.4-3.1 0-4 1.1-1.3 0.4-3.3-0.5-4.8-1-1.5-2.1-3-1.7-4.7 0.3-1.9 2.4-3.2 2.4-5.2 0.1-2.3-3.1-3.8-2.9-6.2 0.2-2.5 3.9-3.2 5-5.4 1.2-2.5-1-5.4-0.3-8 0.6-2.2 3-3.5 5.2-4.2 6.1-2 4-6 6-7.1 3.3-2 5.7 1.8 8.9-4.5 0.8-1.6 2.8-2.3 4.5-2.3 1.5 0 2.9 1 4.4 0.9 3-0.2 4.5-4.6 7.6-4.7 1.5-0.1 2.9 0.9 4.5 1.1 1.9 0.2 3.6-0.9 5.3-2.1 1.8-1.3 3.6-2.6 5.7-2.1 2.3 0.5 3.7 2.9 5.9 3.4 2.1 0.4 4-1 5.9-2.2 1.8-1.1 4.2-2.1 5.9-0.8 1.5 1.1 1.8 3.5 3.4 4.4 2.3 1.3 5.6-1.4 7.8 0.3 1.9 1.4 0.9 4.9 2.7 6.5 1 1 4.6-0.8 7.5 2.5 3.2 3.6-1.1 6.6-0.4 8.9 0.9 3.2 6.4 3.9 6.4 7.3 0 1.8-1.8 3.3-1.8 5.1 0.1 3.5 6.4 4.7 5.7 8.1-0.4 1.9-3 2.9-3 4.8 0 2.3 3.5 3.5 3.4 5.8 0 0.9-0.6 1.7-1.2 2.4-0.6 0.7-1.2 1.4-1.3 2.3z"/>
									<path id="&lt;Path&gt;" class="s30" d="m366.9 427.9c0 0.9-0.6 1.6-1.2 2.4-0.6-1.3-1.5-2.4-2.7-3.1-1.5-0.9-3.6-1.4-4-3.1-0.8-2.8 4-5 3-7.8-1-2.9-6.5-1.1-7.8-3.9-0.7-1.4 0.2-3 1-4.4 0.7-1.4 1.1-3.4-0.1-4.3-1.2-0.8-2.9-0.1-4.2-0.7-1.9-1-1.1-3.9 0-5.8 1.2-1.8 2.4-4.3 0.8-5.8-1.1-1.1-3-0.7-4.5-0.4-1.6 0.3-3.7 0.2-4.2-1.3-0.6-1.5 0.8-3.1 0.2-4.6-0.5-1.3-2.3-1.5-3.8-1.3-1.4 0.3-3 0.7-4.2-0.2-1.2-0.8-1.3-2.6-2.4-3.6-1.2-1.4-3.4-1.2-5.2-0.6-1.7 0.7-3.4 1.7-5.2 1.7-2 0-3.8-1.1-5.4-2.2-1.6-1.2-3.2-2.5-5-3q-0.1 0-0.2 0c1.9-1.3 3.7-2.6 5.8-2.1 2.2 0.5 3.6 2.9 5.8 3.4 2.1 0.4 4.1-1 5.9-2.2 1.8-1.1 4.3-2.1 6-0.8 1.5 1.1 1.7 3.4 3.3 4.3 2.4 1.4 5.7-1.3 7.9 0.3 1.9 1.5 0.9 4.9 2.6 6.6 1.1 1 4.7-0.8 7.6 2.4 3.1 3.6-1.1 6.6-0.4 9 0.9 3.2 6.3 3.9 6.4 7.2 0 1.9-1.9 3.4-1.8 5.2 0.1 3.5 6.3 4.7 5.6 8.1-0.3 1.9-2.9 2.9-2.9 4.8-0.1 2.3 3.4 3.5 3.3 5.8z"/>
								</g>
								<path id="&lt;Path&gt;" class="s21" d="m275.5 448.6c1.6-4.5 7.7-6.3 13.5-4.2 5.8 2.2 9.2 7.6 7.5 12-1.6 4.5-7.7 6.4-13.5 4.2-5.8-2.2-9.2-7.5-7.5-12z"/>
							</g>
							<g id="&lt;Group&gt;">
								<path id="&lt;Path&gt;" class="s31" d="m307.4 443.7c3.8-3.3 10.1-4.2 15-2.2"/>
								<path id="&lt;Path&gt;" class="s31" d="m340.5 442.1c3.6-2.7 8.8-3 12.7-0.7"/>
								<path id="&lt;Path&gt;" class="s32" d="m337.3 453.6c0.9 3.9 1 8.1 0 12.1"/>
								<path id="&lt;Path&gt;" class="s29" d="m320.1 450.8c1.3 0 2.3 1.2 2.3 2.8 0 1.5-1 2.7-2.3 2.7-1.2 0-2.2-1.2-2.2-2.7 0-1.6 1-2.8 2.2-2.8z"/>
								<path id="&lt;Path&gt;" class="s29" d="m346.9 449.8c1.2 0 2.2 1.2 2.2 2.8 0 1.5-1 2.7-2.2 2.7-1.3 0-2.3-1.2-2.3-2.7 0-1.6 1-2.8 2.3-2.8z"/>
								<g id="&lt;Group&gt;">
									<path id="&lt;Path&gt;" class="s33" d="m336 471.9q-0.2 1.1-0.6 2.1c-0.7 2.2-1.9 3.9-3.4 5.1q-1.2 0.9-2.5 1.3c-3.2 1-6.8-0.3-8.8-3.1-1.5-2.1-2-4.8-1.6-7.3q0.1-0.5 0.3-1 0.2-0.9 0.7-1.8c5.1 2.4 12 4 15.9 4.7z"/>
									<path id="&lt;Path&gt;" class="s34" d="m336 471.9q-0.2 1.1-0.6 2.1-0.5 0.3-0.9 0.3c-1.1-0.1-10.8-3-15.1-5.3q0.2-0.9 0.7-1.8c5.1 2.4 12 4 15.9 4.7z"/>
									<path id="&lt;Path&gt;" class="s35" d="m332 479.1q-1.2 0.9-2.5 1.3c-3.2 1-6.8-0.3-8.8-3.1-1.5-2.1-2-4.8-1.6-7.3 3.1 0.7 9 2.8 12.9 9.1z"/>
								</g>
							</g>
						</g>
						<g id="&lt;Group&gt;">
							<g id="&lt;Group&gt;">
								<g id="&lt;Group&gt;">
									<g id="&lt;Group&gt;">
										<path id="&lt;Path&gt;" class="s21" d="m277 473.5l-39.9 21.3c0 0-4.1-14.3-8.3-31.1-4.3-16.6-8.7-35.5-9.6-44.9-1.9-18.7 8.4-113.8 8.4-113.8l25.3-0.4c0 0 0 89.1 1.2 99.1 0.7 5.5 7.6 26.1 13.6 43.5 4.9 14.2 9.3 26.3 9.3 26.3z"/>
										<path id="&lt;Path&gt;" class="s26" d="m277 473.5l-39.9 21.3c0 0-4.1-14.3-8.3-31.1l38.9-16.5c4.9 14.2 9.3 26.3 9.3 26.3z"/>
									</g>
									<g id="&lt;Group&gt;">
										<path id="&lt;Path&gt;" class="s21" d="m249.1 315.9c8-6.8 13-11.1 21-17.9 2.4-2.1 5-4.2 6.2-7.2 0.6-1.3 0.8-3-0.2-4.1-1.5-1.7-4.2-0.5-6.1 0.8-4.6 3.1-6.3 3.8-11.5 6.2 0.3-12.9 0.7-25.9-0.8-38.7-0.2-1.4-0.5-2.9-1.6-3.6-1.4-0.9-3.3-0.2-4.3 1.2-0.9 1.4-1 3.1-1.1 4.8-0.5 7.5-0.6 15-1.3 22.6q-4.6-12.9-10.1-25.4c-1-2.2-2.7-4.8-5-4.2-1.3 0.3-2.2 1.6-2.4 3-0.2 1.3 0.1 2.6 0.4 3.9q2.8 11.3 5.6 22.6c-3.3-6.6-7.2-12.9-11.4-18.9-1.2-1.7-2.9-3.6-4.9-3-1.3 0.4-2.1 1.8-2.2 3.1-0.1 1.4 0.3 2.7 0.8 4q3.5 10.4 7.1 20.8c-3-4.6-6.4-9.1-10.1-13.1-1.5-1.7-4.2-3.4-5.9-1.8-1.1 1.1-0.7 3-0.1 4.6 2.4 6.8 5.8 13.3 10.4 20.1 0.3 7.4 2.8 14.6 8.2 21.4 6.2-0.7 12.5-1.4 19.3-1.2z"/>
										<path id="&lt;Path&gt;" class="s27" d="m255.5 295.8c-6.1-0.3-12.3 2-16.7 6.2"/>
									</g>
								</g>
								<path id="&lt;Path&gt;" class="s7" d="m293 501.1l-20.8-50.9-47.8 29.7 23.5 72.8z"/>
							</g>
							<g id="&lt;Group&gt;">
								<path id="&lt;Path&gt;" class="s62" d="m285.4 507.6c-6.4 22.6-17.3 34.7-34.4 42"/>
								<path id="&lt;Path&gt;" class="s62" d="m260.7 549.6c9-3.1 17.4-7.9 24.7-14.1"/>
							</g>
						</g>
					</g>
				</g>
				<g id="&lt;Group&gt;">
					<g id="&lt;Group&gt;">
						<g id="&lt;Group&gt;">
							<path id="&lt;Path&gt;" class="s63" d="m961.5 550l-0.2 22.7-23.1-7.9-2.7-0.9c0 0-12.2 3.4-16.7 4.7-2.7 0.8-17.8 6.7-17.7 3.9 0.2-5 12.2-10.1 13.6-10.7-1.8 0.5-22 5.6-20.6 1.5 1.6-4.4 19.3-8.8 19.3-8.8 0 0-21.9 1.5-20.8-2.4 1.4-4.9 20.3-5.5 20.3-5.5 0 0-17.8-1.1-14.7-4.4 3-3.3 28.6-2.1 28.6-2.1 0 0-8.2-20.7-1.4-15.1 3.4 2.7 8.5 11.5 10.8 18.6 0 0.2 3.8 1.2 8.4 2.3 7.4 1.8 16.9 4.1 16.9 4.1z"/>
							<path id="&lt;Path&gt;" class="s64" d="m961.5 550l-0.2 22.7-23.1-7.9 6.4-18.9c7.4 1.8 16.9 4.1 16.9 4.1z"/>
						</g>
						<g id="&lt;Group&gt;">
							<path id="&lt;Path&gt;" class="s7" d="m1007.8 479.8l-5.6-12.7c0 0-12 0.4-18 15.2-6.9 16.7-12.8 64-15.5 64.5-2.6 0.5-16.5-2.1-16.5-2.1l-4 31.7c0 0 40.1 21 48.3 12 8.3-9 11.3-108.6 11.3-108.6z"/>
							<path id="&lt;Path&gt;" class="s65" d="m961.5 544.9l-1.1 44.1-16.9-5.8 4.7-41.9z"/>
						</g>
					</g>
					<g id="&lt;Group&gt;">
						<g id="&lt;Group&gt;">
							<g id="&lt;Group&gt;">
								<path id="&lt;Path&gt;" class="s64" d="m990.2 806.9l81.1 70.2 18.3-24.3-59.7-68.5z"/>
								<g id="&lt;Group&gt;">
									<path id="&lt;Path&gt;" class="s64" d="m1114.2 868.1l-7.2 9.8-13.4-0.4 2.2 13.8c0 0-23.6 36.6-29.1 36-2.3-0.3-2.6-9.6-2.1-20.4 0.7-15.3 2.8-33.5 2.8-33.5l14.5-23.3c3.2 0.5 6.7 1.8 10.3 3.5 11.1 5.4 22 14.5 22 14.5z"/>
									<path id="&lt;Path&gt;" class="s66" d="m1114.2 868.1l-7.2 9.8-13.4-0.4 2.2 13.8c0 0-23.6 36.6-29.1 36-2.3-0.3-2.6-9.6-2.1-20.4 10.5-9.8 22.3-39.2 27.6-53.3 11.1 5.4 22 14.5 22 14.5z"/>
								</g>
							</g>
							<path id="&lt;Path&gt;" class="s23" d="m994.3 558c0 0-38.9 185-33.3 226.3 3.9 29.3 67 71.5 67 71.5l27.8-38.8 1.9-199.2z"/>
							<path id="&lt;Path&gt;" class="s23" d="m1068.4 818.4l17.2 15.2-29.8 28.8-19-17.8 26.2-23.8z"/>
						</g>
						<g id="&lt;Group&gt;">
							<g id="&lt;Group&gt;">
								<g id="&lt;Group&gt;">
									<path id="&lt;Path&gt;" class="s63" d="m1054.6 931.5l-12.3 0.6-8.1-10.6-9.5 10.4c0 0-43.9 4.7-46.8 0.2-1.2-1.9 6-8 14.9-14.4 12.5-9 28.3-18.8 28.3-18.8l27.5-3.5c1.6 2.8 2.8 6.4 3.7 10.1 2.7 11.9 2.3 26 2.3 26z"/>
									<path id="&lt;Path&gt;" class="s67" d="m1054.6 931.5l-12.3 0.6-8.1-10.6-9.5 10.4c0 0-43.9 4.7-46.8 0.2-1.2-1.9 6-8 14.9-14.4 14.3 1.9 45-7.4 59.5-12.2 2.7 11.9 2.3 26 2.3 26z"/>
								</g>
								<g id="&lt;Group&gt;">
									<path id="&lt;Path&gt;" class="s63" d="m1068.3 814.3l-5.8 30.5-8.2 43.1-2.8 14.5-0.1 0.6-30.8 1.3 0.2-5.2v-0.1l0.8-15.6 2-42.5 2-42.8z"/>
									<path id="&lt;Path&gt;" class="s64" d="m1062.5 844.8l-8.2 43.1-32.7-4.5 2-42.5z"/>
								</g>
							</g>
							<g id="&lt;Group&gt;">
								<path id="&lt;Path&gt;" class="s22" d="m1077.4 565.2c0 0 29.2 44.2 23.4 101.2-5.7 57.1-35 204.3-35 204.3l-58-2.2 15.3-221.6c0 0-38.1-51.8-32.2-86.2l44.5-26.8z"/>
								<g id="&lt;Group&gt;">
									<path id="&lt;Path&gt;" class="s61" d="m1071.5 576.2c12.6 19.1 18.2 40.6 19.7 63.5 1.9 28.1-2.6 56.3-7.1 84.1-7.4 45.6-18.2 102.6-25.6 148.2"/>
									<path id="&lt;Path&gt;" class="s61" d="m1080.5 594.7c0 0-10.3 11.5-27.4-16.1"/>
									<path id="&lt;Path&gt;" class="s61" d="m1080.5 573.1c0 0-34.9 8.9-66.1 7.6-14.2-0.6-22.8-6.2-22.8-6.2"/>
									<path id="&lt;Path&gt;" class="s61" d="m1009.8 580.6c-2.9 36.4 6.2 48.1 10.8 54"/>
									<path id="&lt;Path&gt;" class="s61" d="m1020.9 580.8c0 0 5.2 33.8-8.5 35"/>
								</g>
								<path id="&lt;Path&gt;" class="s23" d="m1003.9 863.8l-1.6 16 65.4 1.8 3.6-19.2z"/>
							</g>
						</g>
					</g>
					<path id="&lt;Path&gt;" class="s6" d="m991.3 472.6c6.2-7.7 31.9-9.4 46.2-10 18.4-0.7 51.2 8.7 53.7 21.7 4.4 23.2-13.8 81.1-13.8 81.1-49.7 8.5-77.3 8.1-87.3 0.6 0 0-15.4-73 1.2-93.4z"/>
					<g id="&lt;Group&gt;">
						<g id="&lt;Group&gt;">
							<path id="&lt;Path&gt;" class="s68" d="m1018.6 514.5l50.6 0.6-1.3 33.1z"/>
							<path id="&lt;Path&gt;" class="s69" d="m1018.7 602.3v-87.8l51.4 2.4v88.6z"/>
							<path id="&lt;Path&gt;" class="s68" d="m1028.7 522.4l30.7 1.4 0.3 9.1-30.6-1.5z"/>
						</g>
						<g id="&lt;Group&gt;">
							<path id="&lt;Path&gt;" class="s63" d="m1098.2 588l-18.5 3.8-18 3.8-1.9 0.3-2.8 0.6q-0.2 0-0.4 0c-9.3 0.5-33-3.6-36.5-5.7-4-2.4-2.7-6.9-2.7-6.9-3.5-4.2-0.5-6.9-0.5-6.9-3.8-4.1-0.5-6.8-0.5-6.8 0 0-3.4-1.6-3.2-5.7 0.3-4.2 16.2-1.7 16.2-1.7 0 0-6.7-2.9-5.5-6.3 0.2-0.8 10.3-0.2 19 3.6 3.5 1.5 8.7 8.2 11.8 12.4l5.7-1.5 11.8-3 15.1-3.9z"/>
							<path id="&lt;Path&gt;" class="s64" d="m1079.7 591.8l-18 3.8-1.3-24.6 11.7-3z"/>
						</g>
						<g id="&lt;Group&gt;">
							<path id="&lt;Path&gt;" class="s7" d="m1070 509.6c-5.7-23.3 7.8-38.4 18.6-30.5 10.8 7.9 40.9 85.1 37.7 100.2-3.2 15-53.3 20.6-53.3 20.6l-4.8-34.2c0 0 11.7-3.2 12.9-6 1.2-2.8-6-29.5-11.1-50.1z"/>
							<path id="&lt;Path&gt;" class="s65" d="m1061.7 566.8l8.1 36.9 18.2-1.7-12.2-40.7z"/>
						</g>
					</g>
					<g id="&lt;Group&gt;">
						<g id="&lt;Group&gt;">
							<g id="&lt;Group&gt;">
								<path id="&lt;Path&gt;" class="s66" d="m1022.8 370.1l-18.7 8.4-8 17.3c0 0 0.5 17.9-3 24.4-3.6 6.5-11.8 13.2-10 22.2 2.3 11.4 17.1 23.7 62.7 20.2 22.3-1.8 51.7-16.9 48.5-31.6-1.7-7.7-19.3-5.6-19.3-36.3"/>
								<g id="&lt;Group&gt;">
									<path id="&lt;Path&gt;" class="s63" d="m1058.5 466.1c0 0-18.7 17.3-27.6 16.1-8.9-1.1-14.4-16.6-14.4-16.6 0 0 3.2-0.3 4.9-5.7 1-3.1 1.5-7.8 0.7-15.1 0-0.4 28.4-14.9 27.8-7.8-0.5 4.5-0.5 8.4-0.1 11.7 1.4 14.4 8.7 17.4 8.7 17.4z"/>
									<path id="&lt;Path&gt;" class="s64" d="m1049.8 448.7c-8.4 5.9-18.2 9.7-28.4 11.2 1-3.1 1.6-7.8 0.7-15.1 0-0.4 28.5-14.9 27.8-7.8-0.5 4.5-0.4 8.4-0.1 11.7z"/>
								</g>
								<g id="&lt;Group&gt;">
									<path id="&lt;Path&gt;" class="s63" d="m997.9 407.2c2.6-24.3 11.9-39.8 32.4-40.8 30.8-1.4 37.6 20.7 34.8 44.9-3.1 26.9-24 42.5-41.8 41.9-20-0.7-28-21.8-25.4-46z"/>
									<path id="&lt;Path&gt;" class="s64" d="m1058.6 410.7c-9.1 3-19.4 2.5-28.2-1.5-8.8-3.9-16.1-11.1-19.3-20.1-5.8 4.1-11 9.1-14.4 15.2 0.2-9 2.4-17.5 5.7-25.8 18.3-2.7 37.1-2.8 56-0.7 0.8 9.5 1.5 19 0.2 32.9z"/>
								</g>
								<g id="&lt;Group&gt;">
									<path id="&lt;Path&gt;" class="s66" d="m1075.9 419.6q-3.8 3.5-7.6 7c1.1 0.3-2.3 1-2.3 1q-3.6-7.4-7.2-14.8c-21.1 1-40.4-11.5-47.3-29.3-5.2 3.3-9.6 9.8-15.5 23.8-1.8-3.8-3.1-7.4-3.8-10.9-4.6-20.8 9-34.6 29.8-37.3 12.1-1.6 23.9-0.8 33.3 3.4 5.2 2.3 9.7 5.7 13.2 10.3 8.7 11.8 10.8 27.3 7.4 46.8z"/>
									<path id="&lt;Path&gt;" class="s30" d="m1055.2 362.5c-4.4-0.8-28.7-4.1-44.6 6.3-17.8 11.6-18.4 26.8-18.4 27.7-4.6-20.8 9-34.7 29.8-37.4 12.1-1.5 23.9-0.7 33.2 3.4z"/>
								</g>
								<path id="&lt;Path&gt;" class="s63" d="m1062.4 413.1c6-1.5 11.8 0.9 13 5.6 1.2 4.6-2.7 9.6-8.7 11.1-6 1.6-11.8-0.9-13-5.5-1.2-4.6 2.7-9.6 8.7-11.2z"/>
							</g>
							<path id="&lt;Path&gt;" class="s7" d="m1029.2 481.8c10.5-5.3 21.4-9.9 25.9-19.2l13.2 4.5c-1 28.3-18.2 25.8-39.1 14.7z"/>
							<path id="&lt;Path&gt;" class="s7" d="m1029.2 481.8c-8.7-5.8-10.9-12.1-10-18.6l-14.5 2.7c-7.5 22-0.8 25.6 24.5 15.9z"/>
						</g>
						<g id="&lt;Group&gt;">
							<path id="&lt;Path&gt;" class="s55" d="m1038 413.1c-3.3-3-8.3-3.4-11.9-1"/>
							<path id="&lt;Path&gt;" class="s55" d="m1007.4 413c-3.1-2.4-7.2-2.3-10 0.3"/>
							<path id="&lt;Path&gt;" class="s70" d="m1012.8 424c-0.7 2.9-0.4 5.8 0.8 8.5"/>
							<path id="&lt;Path&gt;" class="s29" d="m1028.9 420c1-0.1 2 0.8 2.1 2.1 0.1 1.2-0.6 2.3-1.6 2.4-1.1 0.1-2-0.8-2.1-2-0.2-1.3 0.6-2.4 1.6-2.5z"/>
							<path id="&lt;Path&gt;" class="s29" d="m1004.3 421.6c1.1-0.1 2 0.8 2.1 2.1 0.2 1.2-0.6 2.3-1.6 2.4-1 0.2-2-0.8-2.1-2-0.1-1.3 0.6-2.4 1.6-2.5z"/>
							<path id="&lt;Path&gt;" class="s70" d="m1016.3 439.4c4.5 0.3 9.1-1.4 12.2-4.7"/>
						</g>
					</g>
				</g>
			</g>
		</g>
	</g>
</svg>