<svg version="1.2" xmlns="http://www.w3.org/2000/svg" viewBox="0 0 1500 1000" width="1500" height="1000"><style>.a{fill:#f5f5f5}.b{fill:#ebebeb}.c{fill:#e0e0e0}.d{fill:#263238}.e{fill:#ffcc70}.f{fill:#455a64}.g{fill:#fff}.h{fill:#ae7461}.i{fill:#6f4439}.j{fill:none;stroke:#839198;stroke-miterlimit:10;stroke-width:.4}.k{fill:#ffbf9d}.l{fill:#ff9a6c}.m{fill:#e5b765}.n{fill:none;stroke:#839198;stroke-miterlimit:10;stroke-width:2}.o{fill:#ff725e}.p{fill:#22668d}</style><path class="a" d="m1178.9 90.8c0.9-6.7-8.5-12.3-15.7-12.8-3.4-0.3-6.9 0.2-10.1-0.9-7-2.4-9.8-11.5-16.6-14.3-5.1-2.2-11-0.3-15.9 2.2-4.9 2.5-9.8 5.6-15.3 6-4.8 0.3-10-1.5-14.2 0.9-3.2 1.7-4.8 5.3-7.7 7.4-2.8 2.1-6.5 2.6-10 2.7-3.5 0.2-7.1 0.3-10.3 1.7-3.2 1.5-5.8 4.9-5.2 8.3z"/><path class="b" d="m1411.7 116.3c1.2-9.2-11.7-16.7-21.4-17.5-4.6-0.3-9.4 0.4-13.8-1.2-9.4-3.3-13.2-15.5-22.5-19.4-6.9-2.9-14.9-0.3-21.6 3-6.7 3.4-13.3 7.7-20.8 8.1-6.5 0.5-13.6-2-19.3 1.2-4.3 2.4-6.5 7.3-10.4 10.2-3.8 2.8-8.8 3.4-13.6 3.7-4.7 0.2-9.7 0.3-14 2.3-4.3 1.9-7.9 6.5-7 11.2z"/><path class="b" d="m617.5 78.3c1.1-8-10.1-14.5-18.6-15.2-4-0.3-8.2 0.3-12-1.1-8.2-2.8-11.5-13.5-19.6-16.9-6-2.5-12.9-0.3-18.8 2.7-5.8 2.9-11.6 6.6-18.1 7-5.7 0.4-11.8-1.7-16.8 1.1-3.7 2-5.6 6.3-9 8.8-3.3 2.5-7.7 3-11.8 3.2-4.2 0.2-8.4 0.3-12.2 2-3.8 1.7-6.9 5.7-6.1 9.8z"/><path class="a" d="m315.2 135.8c0.9-6.9-8.8-12.6-16.2-13.2-3.5-0.3-7.1 0.3-10.4-0.9-7.2-2.5-10.1-11.8-17.1-14.7-5.2-2.2-11.2-0.2-16.3 2.3-5.1 2.6-10.1 5.8-15.8 6.1-4.9 0.4-10.2-1.5-14.6 0.9-3.2 1.8-4.9 5.5-7.8 7.7-2.9 2.2-6.7 2.6-10.3 2.8-3.6 0.2-7.3 0.2-10.6 1.7-3.3 1.5-6 5-5.3 8.5z"/><path class="b" d="m1073.4 856.5h-578.7l41.9-49.9h494.6z"/><path class="b" d="m1015.2 776l-469.2 1.7 38.2-45.7 394.7-1.7z"/><path class="b" d="m957 703.4l-358.8-1.9 31.4-40.6h298z"/><path class="b" d="m915.4 637h-274.5l29.4-37.1h218.9z"/><path class="b" d="m286.8 818.6c2.6 1.1 4.4 3.4 5.4 6 0.9 2.6 1 5.5 0.7 8.2-0.6 5.3-3.7 10.7-6.9 14.9-4.5-3.9-5.5-10.7-5.8-14.2-0.5-5.5 2-15.7 6.6-14.9z"/><path class="b" d="m291.2 856.5c-0.7-3 0.5-6.3 2.8-8.3 2.3-2.1 5.6-3 8.6-2.7 1.5 0.1 3 0.5 3.8 1.7 0.8 1.1 0.7 2.6 0.1 3.8-0.6 1.2-1.7 2-2.8 2.8-3.9 2.4-8.1 4-12.5 2.7z"/><path class="c" d="m285.5 872.8c-0.1 0 0-0.4 0.1-1.1q0.2-1.1 0.6-2.9c0.5-2.5 1.1-6 3-9.5 1.9-3.4 4.5-5.9 6.8-7.1 1.1-0.7 2-1.1 2.7-1.3 0.4-0.1 0.6-0.1 0.8-0.2q0.3 0 0.3 0c0 0.1-1.5 0.4-3.7 1.7-2.1 1.3-4.7 3.8-6.6 7.1-1.8 3.4-2.5 6.9-3.1 9.3-0.2 1.3-0.5 2.3-0.6 2.9-0.2 0.7-0.3 1.1-0.3 1.1z"/><path class="c" d="m285.6 826.6q0 0 0.1 0.4 0 0.6 0.1 1.4c0 1.2 0.1 2.9 0.2 5.1 0.1 4.2 0.2 10.1 0.2 16.6 0 6.5-0.2 12.4-0.4 16.6-0.1 2.2-0.2 3.9-0.2 5.1q-0.1 0.8-0.1 1.3-0.1 0.5-0.1 0.5 0 0 0-0.5 0-0.5 0-1.3c0.1-1.3 0.1-3 0.1-5.1 0.1-4.2 0.3-10.1 0.3-16.6 0-6.5 0-12.4-0.1-16.6 0-2.1-0.1-3.8-0.1-5.1q0-0.8 0-1.3 0-0.5 0-0.5z"/><path class="b" d="m283.5 859.8c-1.1-6.5-5.4-12.3-11.3-15.1-1.5-0.7-3.4-1.2-4.6-0.1-1.3 1.1-1 3.1-0.4 4.7 2.5 6.4 9.2 11 16.1 10.9"/><path class="c" d="m273 849.7c0 0 0.3 0.2 0.9 0.5q0.5 0.2 1.1 0.5c0.4 0.3 0.9 0.5 1.3 0.9 0.5 0.3 1.1 0.7 1.6 1.2 0.6 0.4 1.1 0.9 1.7 1.5 1.1 1.1 2.2 2.5 3.1 4 1 1.6 1.6 3.2 2.1 4.7 0.2 0.8 0.4 1.5 0.5 2.2 0.2 0.7 0.2 1.4 0.3 2 0.1 0.6 0.1 1.1 0.1 1.6q0 0.7-0.1 1.2c0 0.6 0 1-0.1 1-0.1 0 0.1-1.5-0.2-3.8 0-0.6-0.1-1.2-0.3-1.9-0.1-0.7-0.3-1.4-0.5-2.2-0.5-1.4-1.2-3-2.1-4.6-0.9-1.5-2-2.9-3.1-4-0.5-0.5-1.1-1.1-1.6-1.5-0.5-0.5-1-0.8-1.5-1.2-1.9-1.4-3.3-2-3.2-2.1z"/><path class="b" d="m210.1 96.2c1-6.9-8.8-12.6-16.1-13.2-3.5-0.3-7.1 0.2-10.4-0.9-7.2-2.5-10.1-11.8-17.1-14.7-5.2-2.3-11.3-0.3-16.3 2.3-5.1 2.5-10.1 5.7-15.8 6.1-4.9 0.3-10.3-1.5-14.6 0.9-3.2 1.8-4.9 5.5-7.9 7.7-2.9 2.1-6.6 2.6-10.2 2.8-3.6 0.2-7.4 0.2-10.6 1.7-3.3 1.5-6 5-5.3 8.5z"/><g style="display:none"><path class="a" d="m952.7 674.7l-0.9-3.5c-6.9-29.9-29.2-53.9-58.6-61.5q-5.7-1.5-11.5-2.2c-28.1-3-57.3 9.3-75.1 31.6-10.5 13-17.7 29.7-32.1 38.1-18.8 10.9-42.3 3.7-62.5-3.7-20.3-7.4-43.8-14.5-62.5-3.6-11.7 6.9-19 19.8-22.6 33-9.4 34.9 4.4 73.5 29.8 98.8 25.4 25.3 60.7 38.4 96.3 42.7 49.7 5.9 102.6-5.3 142.4-36.4 39.8-31.1 64.4-83.2 57.3-133.3z"/><path class="a" d="m1285.9 774.3l-1.2 1.5c-10.2 12.4-26.3 18.5-42 15.3q-3-0.6-5.9-1.7c-13.9-5.1-24.8-17.7-28-32.3-1.9-8.6-1.4-18.2-6.3-25.5-6.3-9.5-19-11.6-30.3-12.8-11.3-1.2-24-3.4-30.3-12.9-3.9-6-4.3-13.7-3-20.8 3.7-18.7 19.2-33.6 37.1-39.6 17.8-6 37.6-4 55.3 2.3 24.9 8.8 47.2 26.4 58.7 50.3 11.5 23.9 11 54.2-4.1 76.2z"/><path class="a" d="m337.5 677.2l1.7 1c13.8 8.4 22.1 23.5 21.1 39.4q-0.2 3.1-0.9 6.1c-3.1 14.5-14 27.1-28.1 32.4-8.2 3-17.7 3.9-24.3 9.7-8.5 7.6-8.8 20.5-8.4 31.8 0.3 11.4 0 24.3-8.5 31.8-5.4 4.8-13 6.3-20.2 5.9-19-1-36-14.3-44.4-31.1-8.5-16.9-9.3-36.7-5.5-55.1 5.2-25.9 19.5-50.4 41.5-65.2 22.1-14.7 52.2-18.5 76-6.7z"/></g><path class="d" d="m1421.3 873.1c0 0.3-300.6 0.6-671.3 0.6-370.8 0-671.3-0.3-671.3-0.6 0-0.2 300.5-0.5 671.3-0.5 370.7 0 671.3 0.3 671.3 0.5z"/><path class="d" d="m191.6 857.1c0.2-0.2 3.3 2.7 5.6 7.3 2.3 4.6 2.6 8.8 2.4 8.8-0.3 0.1-1.2-3.9-3.4-8.4-2.2-4.4-4.8-7.5-4.6-7.7z"/><path class="d" d="m203.1 849.8c0.3 0 0.4 5.4 0.9 12 0.6 6.6 1.4 11.9 1.1 12-0.2 0-1.6-5.3-2.1-11.9-0.6-6.7-0.1-12.1 0.1-12.1z"/><path class="d" d="m218.4 855.4c0.2 0.2-2.3 3.9-3.7 9.2-1.2 3.9-1.4 7.4-1.6 8.9v0.5l-0.3-0.4q-0.5-0.5-0.4-0.6 0-0.1 0.7 0.4l-0.4 0.1c-0.2-1.5-0.2-5.2 1-9.2 1.5-5.5 4.5-9 4.7-8.9z"/><path class="e" d="m1286.5 818.5c2.5 1.1 4.4 3.5 5.3 6.1 1 2.6 1.1 5.4 0.7 8.2-0.6 5.3-3.6 10.6-6.8 14.9-4.5-3.9-5.5-10.7-5.8-14.2-0.5-5.5 2-15.8 6.6-15z"/><path class="e" d="m1290.9 856.5c-0.7-3 0.5-6.3 2.8-8.4 2.3-2 5.5-2.9 8.6-2.7 1.4 0.1 3 0.5 3.8 1.7 0.8 1.1 0.7 2.6 0.1 3.8-0.7 1.2-1.7 2.1-2.9 2.8-3.8 2.4-8 4.1-12.4 2.8z"/><path class="d" d="m1285.1 872.8c0-0.1 0.1-0.4 0.2-1.1q0.2-1.2 0.5-3c0.5-2.5 1.2-6 3.1-9.4 1.9-3.4 4.5-6 6.8-7.2q1.7-0.9 2.7-1.2c0.3-0.1 0.6-0.2 0.8-0.2q0.3-0.1 0.3-0.1c0 0.1-1.6 0.4-3.7 1.7-2.2 1.3-4.7 3.8-6.6 7.2-1.9 3.3-2.5 6.8-3.1 9.3-0.3 1.2-0.5 2.2-0.7 2.9-0.1 0.7-0.2 1.1-0.3 1.1z"/><path class="d" d="m1285.3 826.5q0 0 0.1 0.5 0 0.5 0 1.4c0.1 1.2 0.2 2.9 0.2 5 0.2 4.3 0.3 10.1 0.3 16.6-0.1 6.5-0.2 12.4-0.4 16.7-0.1 2.1-0.2 3.8-0.2 5q-0.1 0.9-0.1 1.4-0.1 0.5-0.1 0.5 0 0 0-0.5 0-0.5 0-1.4c0-1.2 0.1-2.9 0.1-5 0.1-4.3 0.2-10.2 0.3-16.7 0-6.5-0.1-12.3-0.1-16.6-0.1-2.1-0.1-3.8-0.1-5q0-0.9 0-1.4 0-0.5 0-0.5z"/><path class="e" d="m1283.1 859.7c-1-6.4-5.3-12.2-11.2-15.1-1.5-0.7-3.4-1.1-4.7 0-1.2 1.1-0.9 3.1-0.3 4.6 2.5 6.5 9.2 11 16.1 10.9"/><path class="d" d="m1272.6 849.7c0.1 0 0.4 0.1 1 0.4q0.5 0.2 1.1 0.6c0.4 0.2 0.9 0.5 1.3 0.8 0.5 0.4 1.1 0.7 1.6 1.2 0.5 0.4 1.1 1 1.7 1.5 1.1 1.1 2.2 2.5 3.1 4.1 0.9 1.5 1.6 3.2 2.1 4.7 0.2 0.7 0.4 1.5 0.5 2.2 0.2 0.7 0.2 1.3 0.3 1.9 0.1 0.6 0 1.1 0.1 1.6q0 0.7-0.1 1.2c0 0.7-0.1 1.1-0.1 1.1-0.1 0 0.1-1.5-0.2-3.9-0.1-0.6-0.1-1.2-0.3-1.9-0.1-0.7-0.3-1.4-0.5-2.1-0.5-1.5-1.2-3.1-2.1-4.6-0.9-1.6-2-2.9-3.1-4-0.6-0.6-1.1-1.1-1.6-1.6-0.5-0.4-1.1-0.8-1.5-1.2-1.9-1.3-3.3-1.9-3.3-2z"/><path class="e" d="m1408.5 553.1h-1320.2v-370.5h1320.2z"/><path class="e" d="m1062.5 553.1h-624.6v-410h624.6z"/><path class="b" d="m534.9 480h-446.6v-36.9h446.6z"/><path class="b" d="m1408.5 480h-443v-36.9h443z"/><g style="opacity:.3"><path  d="m996 302h-491.8v251.1h491.8z"/></g><path class="c" d="m923.2 250.8h-348.1v-45.1h348.1z"/><g style="opacity:.3"><path  d="m643.3 217v27h-7.6v-10.5h-10.4v10.5h-7.7v-27h7.7v10.2h10.4v-10.2z"/><path  d="m648.7 217h7.7v27h-7.7z"/><path  d="m679.9 229.9h6.8v11.2q-2.3 1.7-5.4 2.6-3 0.9-6 0.9-4.2 0-7.6-1.8-3.4-1.8-5.3-5-2-3.2-2-7.3 0-4 2-7.2 1.9-3.2 5.3-5 3.5-1.8 7.8-1.8 3.8 0 6.8 1.2 3 1.3 5 3.7l-4.9 4.4q-2.7-3-6.5-3-3.5 0-5.6 2.1-2.2 2.1-2.2 5.6 0 2.3 1 4 1 1.8 2.7 2.8 1.7 0.9 4 0.9 2.2 0 4.1-0.8z"/><path  d="m717.2 217v27h-7.6v-10.5h-10.4v10.5h-7.7v-27h7.7v10.2h10.4v-10.2z"/><path  d="m737 243.8q-3.1-0.9-5-2.2l2.5-5.6q1.8 1.2 4.2 1.9 2.4 0.7 4.7 0.7 4.4 0 4.4-2.2 0-1.1-1.3-1.7-1.2-0.6-4-1.2-3-0.6-5.1-1.4-2-0.7-3.5-2.4-1.5-1.6-1.5-4.5 0-2.4 1.4-4.4 1.3-2 4-3.2 2.7-1.1 6.6-1.1 2.7 0 5.2 0.6 2.6 0.6 4.6 1.7l-2.4 5.7q-3.8-2.1-7.4-2.1-2.3 0-3.4 0.7-1 0.7-1 1.7 0 1.1 1.2 1.7 1.3 0.5 4 1.1 3.1 0.6 5.1 1.4 2 0.7 3.5 2.4 1.5 1.6 1.5 4.4 0 2.5-1.3 4.4-1.4 2-4.1 3.2-2.7 1.2-6.5 1.2-3.3 0-6.4-0.8z"/><path  d="m764.7 242.8q-3.4-1.8-5.3-5-2-3.2-2-7.3 0-4 2-7.2 1.9-3.2 5.3-5 3.4-1.8 7.6-1.8 3.7 0 6.7 1.3 2.9 1.3 4.9 3.8l-4.8 4.4q-2.7-3.2-6.4-3.2-2.2 0-3.9 1-1.7 0.9-2.7 2.7-0.9 1.7-0.9 4 0 2.3 0.9 4.1 1 1.7 2.7 2.7 1.7 0.9 3.9 0.9 3.7 0 6.4-3.1l4.8 4.4q-2 2.4-4.9 3.8-3 1.3-6.7 1.3-4.2 0-7.6-1.8z"/><path  d="m813 217v27h-7.6v-10.5h-10.4v10.5h-7.7v-27h7.7v10.2h10.4v-10.2z"/><path fill-rule="evenodd" d="m824.3 242.8q-3.4-1.9-5.3-5.1-2-3.2-2-7.2 0-4 2-7.2 1.9-3.2 5.3-5 3.5-1.8 7.7-1.8 4.3 0 7.7 1.8 3.5 1.8 5.4 5 1.9 3.2 2 7.2-0.1 4-2 7.2-1.9 3.2-5.4 5.1-3.4 1.8-7.7 1.8-4.2 0-7.7-1.8zm11.4-5.5q1.7-1 2.7-2.7 0.9-1.8 0.9-4.1 0-2.3-0.9-4-1-1.8-2.7-2.7-1.6-1-3.7-1-2 0-3.7 1-1.6 0.9-2.6 2.7-1 1.7-1 4 0 2.3 1 4.1 1 1.7 2.6 2.7 1.7 0.9 3.7 0.9 2.1 0 3.7-0.9z"/><path fill-rule="evenodd" d="m857 242.8q-3.4-1.9-5.4-5.1-1.9-3.2-1.9-7.2 0-4 1.9-7.2 2-3.2 5.4-5 3.4-1.8 7.7-1.8 4.3 0 7.7 1.8 3.4 1.8 5.3 5 2 3.2 2 7.2 0 4-2 7.2-1.9 3.2-5.3 5.1-3.4 1.8-7.7 1.8-4.3 0-7.7-1.8zm11.4-5.5q1.6-1 2.6-2.7 1-1.8 1-4.1 0-2.3-1-4-1-1.8-2.6-2.7-1.7-1-3.7-1-2.1 0-3.7 1-1.7 0.9-2.6 2.7-1 1.7-1 4 0 2.3 1 4.1 0.9 1.7 2.6 2.7 1.6 0.9 3.7 0.9 2 0 3.7-0.9z"/><path  d="m883.7 217h7.7v21h12.8v6h-20.5z"/></g><path class="d" d="m641.3 215v27h-7.7v-10.6h-10.4v10.6h-7.6v-27h7.6v10.1h10.4v-10.1z"/><path class="d" d="m646.7 215h7.6v27h-7.6z"/><path class="d" d="m677.9 227.9h6.7v11.2q-2.3 1.6-5.3 2.5-3 0.9-6 0.9-4.3 0-7.7-1.8-3.4-1.8-5.3-5-1.9-3.2-1.9-7.2 0-4.1 1.9-7.3 1.9-3.2 5.4-5 3.4-1.8 7.7-1.8 3.8 0 6.8 1.3 3 1.3 5 3.7l-4.8 4.4q-2.8-3-6.6-3-3.5 0-5.6 2.1-2.1 2.1-2.1 5.6 0 2.2 1 4 0.9 1.7 2.7 2.7 1.7 1 3.9 1 2.2 0 4.2-0.9z"/><path class="d" d="m715.2 215v27h-7.7v-10.6h-10.4v10.6h-7.6v-27h7.6v10.1h10.4v-10.1z"/><path class="d" d="m734.9 241.7q-3-0.8-5-2.2l2.5-5.6q1.8 1.2 4.2 1.9 2.4 0.8 4.7 0.8 4.4 0 4.4-2.2 0-1.2-1.2-1.7-1.3-0.6-4-1.2-3.1-0.7-5.1-1.4-2.1-0.8-3.5-2.4-1.5-1.7-1.5-4.5 0-2.5 1.3-4.5 1.4-2 4.1-3.1 2.7-1.2 6.6-1.2 2.6 0 5.2 0.6 2.6 0.6 4.6 1.8l-2.4 5.7q-3.9-2.1-7.5-2.1-2.3 0-3.3 0.6-1 0.7-1 1.8 0 1.1 1.2 1.6 1.2 0.6 4 1.1 3 0.7 5.1 1.4 2 0.8 3.5 2.4 1.5 1.7 1.5 4.5 0 2.4-1.4 4.4-1.3 2-4 3.1-2.7 1.2-6.6 1.2-3.3 0-6.4-0.8z"/><path class="d" d="m762.6 240.7q-3.3-1.8-5.3-5-1.9-3.2-1.9-7.2 0-4.1 1.9-7.3 2-3.2 5.3-5 3.4-1.8 7.7-1.8 3.7 0 6.6 1.3 3 1.3 5 3.8l-4.9 4.4q-2.6-3.1-6.4-3.1-2.2 0-3.9 0.9-1.7 1-2.6 2.7-1 1.8-1 4.1 0 2.2 1 4 0.9 1.8 2.6 2.7 1.7 1 3.9 1 3.8 0 6.4-3.2l4.9 4.4q-2 2.5-5 3.8-2.9 1.3-6.6 1.3-4.3 0-7.7-1.8z"/><path class="d" d="m811 215v27h-7.7v-10.6h-10.4v10.6h-7.6v-27h7.6v10.1h10.4v-10.1z"/><path fill-rule="evenodd" class="d" d="m822.3 240.7q-3.4-1.8-5.4-5-1.9-3.2-1.9-7.2 0-4 1.9-7.2 2-3.2 5.4-5.1 3.4-1.8 7.7-1.8 4.3 0 7.7 1.8 3.4 1.9 5.4 5.1 1.9 3.2 1.9 7.2 0 4-1.9 7.2-2 3.2-5.4 5-3.4 1.8-7.7 1.8-4.3 0-7.7-1.8zm11.4-5.5q1.7-0.9 2.6-2.7 1-1.8 1-4 0-2.3-1-4.1-0.9-1.7-2.6-2.7-1.7-0.9-3.7-0.9-2.1 0-3.7 0.9-1.7 1-2.6 2.7-1 1.8-1 4.1 0 2.2 1 4 0.9 1.8 2.6 2.7 1.6 1 3.7 1 2 0 3.7-1z"/><path fill-rule="evenodd" class="d" d="m854.9 240.7q-3.4-1.8-5.3-5-2-3.2-2-7.2 0-4 2-7.2 1.9-3.2 5.3-5.1 3.5-1.8 7.7-1.8 4.3 0 7.7 1.8 3.5 1.9 5.4 5.1 1.9 3.2 1.9 7.2 0 4-1.9 7.2-1.9 3.2-5.4 5-3.4 1.8-7.7 1.8-4.2 0-7.7-1.8zm11.4-5.5q1.7-0.9 2.7-2.7 0.9-1.8 0.9-4 0-2.3-0.9-4.1-1-1.7-2.7-2.7-1.6-0.9-3.7-0.9-2 0-3.7 0.9-1.6 1-2.6 2.7-1 1.8-1 4.1 0 2.2 1 4 1 1.8 2.6 2.7 1.7 1 3.7 1 2.1 0 3.7-1z"/><path class="d" d="m881.7 215h7.6v20.9h12.9v6.1h-20.5z"/><path class="c" d="m1075.5 143.1h-658.8v-20.8h658.8z"/><path class="d" d="m971.5 325.6h-436.6v227.5h436.6z"/><path class="f" d="m964.3 390.1h-134.5v157.4h134.5z"/><path class="d" d="m896.9 550.9c-0.3 0-0.5-36.6-0.5-81.7 0-45.1 0.2-81.7 0.5-81.7 0.3 0 0.5 36.6 0.5 81.7 0 45.1-0.2 81.7-0.5 81.7z"/><path class="f" d="m677.2 390.1h-134.5v157.4h134.5z"/><path class="d" d="m609.8 550.9c-0.3 0-0.5-36.6-0.5-81.7 0-45.1 0.2-81.7 0.5-81.7 0.3 0 0.5 36.6 0.5 81.7 0 45.1-0.2 81.7-0.5 81.7z"/><path class="d" d="m606.4 483.6h-8v-29.6h8z"/><path class="d" d="m622.4 483.6h-8v-29.6h8z"/><path class="f" d="m678.1 380.7h-134.5v-44.9h134.5z"/><path class="f" d="m820.7 380.7h-134.4v-44.9h134.4z"/><path class="f" d="m963.4 380.7h-134.4v-44.9h134.4z"/><g style="opacity:.2"><path class="g" d="m964.3 431.8l-134.4 61v14.6l134.4-63.9z"/></g><g style="opacity:.2"><path class="g" d="m963.3 454.8l-134.5 61v8.9l134.5-61.6z"/></g><path class="f" d="m820.7 390.1h-134.4v157.4h134.4z"/><g style="opacity:.2"><path class="g" d="m820.7 390.1l-134.4 61v28.9l134.4-65.4z"/></g><g style="opacity:.2"><path class="g" d="m820.7 424.4l-134.4 61v8.8l134.4-61.6z"/></g><path class="d" d="m753.4 550.9c-0.3 0-0.6-36.6-0.6-81.7 0-45.1 0.3-81.7 0.6-81.7 0.3 0 0.5 36.6 0.5 81.7 0 45.1-0.3 81.7-0.5 81.7z"/><path class="d" d="m777.2 459.8c-0.2-0.2 5.7-8.5 13.3-18.6 7.6-10.1 13.9-18.2 14.2-18 0.2 0.2-5.8 8.5-13.4 18.6-7.5 10.1-13.9 18.2-14.1 18z"/><path class="d" d="m772.9 488.7c-0.2-0.2 6.8-10.4 15.6-22.9 8.8-12.5 16.2-22.5 16.4-22.3 0.2 0.2-6.7 10.4-15.6 22.9-8.8 12.5-16.1 22.5-16.4 22.3z"/><path class="d" d="m699.8 498.9c-0.2-0.2 6.3-6.8 14.5-14.8 8.2-8 15-14.3 15.2-14 0.2 0.2-6.3 6.8-14.5 14.8-8.2 7.9-15 14.2-15.2 14z"/><path class="d" d="m690.4 524.7c-0.1-0.1 0.5-0.6 1.5-1.6q1.8-1.7 4.5-4.2c3.9-3.6 9-8.4 14.6-13.6 5.6-5.3 10.6-10.2 14.5-13.9q2.6-2.4 4.4-4.2c1.1-1 1.7-1.5 1.7-1.4 0.1 0-0.4 0.6-1.4 1.7q-1.5 1.7-4.2 4.5c-3.5 3.7-8.5 8.7-14.3 14.1-5.7 5.3-11 10.1-14.9 13.4-1.9 1.7-3.5 3-4.6 3.9-1.2 0.9-1.8 1.3-1.8 1.3z"/><path class="d" d="m750 483.6h-8v-29.6h8z"/><path class="d" d="m766 483.6h-8v-29.6h8z"/><path class="d" d="m778.2 347.4c0.1 0.2-2.1 1.8-5.8 4.4-3.8 2.9-8.7 6.5-14.1 10.5-5.5 4-10.5 7.6-14.3 10.1-1.9 1.3-3.4 2.3-4.5 2.9-1 0.7-1.7 1-1.7 0.9-0.1-0.1 2.2-1.7 5.8-4.4 3.8-2.8 8.7-6.4 14.1-10.4 5.5-4 10.6-7.7 14.3-10.2 1.9-1.2 3.4-2.2 4.5-2.8 1.1-0.7 1.7-1 1.7-1z"/><path class="d" d="m754.1 355.4c0.1 0.3-5.6 4.6-12.9 9.8-7.2 5.2-13.2 9.2-13.4 9-0.1-0.2 5.6-4.6 12.8-9.8 7.3-5.2 13.3-9.2 13.5-9z"/><path class="d" d="m636 340.4c0.1 0.1-2.2 1.7-5.8 4.4-3.8 2.8-8.7 6.4-14.1 10.4-5.5 4.1-10.6 7.7-14.3 10.2-1.9 1.2-3.4 2.2-4.5 2.9-1.1 0.6-1.7 0.9-1.7 0.9-0.1-0.2 2.1-1.8 5.8-4.4 3.8-2.9 8.7-6.5 14.1-10.5 5.5-4 10.6-7.6 14.3-10.1 1.9-1.3 3.4-2.3 4.5-2.9 1.1-0.7 1.7-1 1.7-0.9z"/><path class="d" d="m611.8 348.3c0.2 0.3-5.6 4.7-12.8 9.9-7.2 5.1-13.2 9.1-13.4 8.9-0.2-0.2 5.6-4.6 12.8-9.8 7.2-5.2 13.3-9.2 13.4-9z"/><path class="d" d="m936.5 343.8c0.1 0.2-2.2 1.8-5.8 4.4-3.8 2.9-8.7 6.5-14.1 10.5-5.5 4-10.6 7.6-14.3 10.1-1.9 1.3-3.4 2.3-4.5 2.9-1.1 0.7-1.7 1-1.7 0.9-0.1-0.1 2.1-1.7 5.8-4.4 3.8-2.8 8.7-6.4 14.1-10.4 5.5-4.1 10.6-7.7 14.3-10.2 1.9-1.2 3.4-2.2 4.5-2.9 1.1-0.6 1.7-0.9 1.7-0.9z"/><path class="d" d="m912.3 351.8c0.2 0.2-5.5 4.6-12.8 9.8-7.2 5.2-13.2 9.2-13.4 9-0.2-0.3 5.6-4.6 12.8-9.8 7.3-5.2 13.3-9.2 13.4-9z"/><g style="opacity:.2"><path class="g" d="m659.7 390.1h-53.6l-62.5 27.6v25.4z"/></g><g style="opacity:.2"><path class="g" d="m678.1 390.9l-134.5 61.1v8.8l134.5-61.6z"/></g><g style="opacity:.1"><path  d="m504.2 382.6h-37.4v-15.5h37.4z"/></g><g style="opacity:.2"><path  d="m486.2 364.6h-37.3v-15.5h37.3z"/></g><g style="opacity:.1"><path  d="m538.4 280.6h-37.4v-15.5h37.4z"/></g><g style="opacity:.2"><path  d="m558.2 258.9h-37.4v-15.4h37.4z"/></g><g style="opacity:.1"><path  d="m418.1 246.8h-37.3v-15.5h37.3z"/></g><g style="opacity:.2"><path  d="m437.9 225.1h-37.3v-15.4h37.3z"/></g><g style="opacity:.1"><path  d="m233.4 301h-37.3v-15.4h37.3z"/></g><g style="opacity:.1"><path  d="m186.2 242.1h-37.4v-15.4h37.4z"/></g><g style="opacity:.2"><path  d="m253.2 279.4h-37.3v-15.5h37.3z"/></g><g style="opacity:.2"><path  d="m263.4 529.8h-37.4v-15.4h37.4z"/></g><g style="opacity:.2"><path  d="m398.3 268.2h-37.3v-15.4h37.3z"/></g><g style="opacity:.1"><path  d="m1362.5 239.1h-37.3v-15.5h37.3z"/></g><g style="opacity:.2"><path  d="m1382.3 217.4h-37.3v-15.5h37.3z"/></g><g style="opacity:.1"><path  d="m1177.8 293.3h-37.3v-15.4h37.3z"/></g><g style="opacity:.1"><path  d="m1130.6 234.4h-37.4v-15.5h37.4z"/></g><g style="opacity:.2"><path  d="m1197.7 271.6h-37.4v-15.4h37.4z"/></g><g style="opacity:.2"><path  d="m1336.1 298.9h-37.3v-15.4h37.3z"/></g><g style="opacity:.2"><path  d="m774.2 198h-37.3v-15.4h37.3z"/></g><g style="opacity:.1"><path  d="m792.9 174.9h-37.3v-15.4h37.3z"/></g><g style="opacity:.2"><path  d="m1062.5 310.2h-36.4v-15.4h36.4z"/></g><g style="opacity:.1"><path  d="m1062.5 287.1h-17.7v-15.5h17.7z"/></g><g style="opacity:.2"><path  d="m941.9 272.9h-37.4v-15.5h37.4z"/></g><g style="opacity:.1"><path  d="m961.7 249.7h-37.3v-15.4h37.3z"/></g><path class="d" d="m437.9 552.6c-0.3 0-0.5-91.6-0.5-204.5 0-113 0.2-204.6 0.5-204.6 0.3 0 0.6 91.6 0.6 204.6 0 112.9-0.3 204.5-0.6 204.5z"/><path class="d" d="m893.5 483.6h-7.9v-29.6h7.9z"/><path class="d" d="m909.6 483.6h-8v-29.6h8z"/><path class="b" d="m420.8 513.4h-145.8v-202.4h145.8z"/><path class="d" d="m406.7 498.9h-117.6v-173.3h117.6z"/><path class="f" d="m396.6 488.4h-97.4v-114.2h97.4z"/><path class="f" d="m396.6 367.8h-97.4v-32h97.4z"/><path class="d" d="m347.9 491.5c-0.3 0-0.5-25.9-0.5-57.8 0-31.8 0.2-57.7 0.5-57.7 0.3 0 0.5 25.9 0.5 57.7 0 31.9-0.2 57.8-0.5 57.8z"/><path class="d" d="m337.9 439.8c0.2 0.3-5.7 5.8-13.1 12.3-7.4 6.6-13.6 11.7-13.8 11.5-0.2-0.2 5.7-5.7 13.1-12.3 7.4-6.5 13.6-11.7 13.8-11.5z"/><path class="d" d="m337.9 431.7c0.2 0.2-3.4 3.6-8.1 7.7-4.7 4-8.6 7.1-8.8 6.9-0.2-0.2 3.4-3.7 8.1-7.7 4.7-4 8.7-7.1 8.8-6.9z"/><path class="d" d="m388.9 403.9c0.1 0.2-6.2 5.7-14.2 12.3-8 6.6-14.6 11.8-14.8 11.5-0.2-0.2 6.1-5.7 14.1-12.3 8-6.6 14.7-11.7 14.9-11.5z"/><path class="d" d="m376.4 421.7c0.2 0.2-1.1 1.7-2.8 3.4-1.8 1.7-3.3 2.8-3.5 2.6-0.2-0.2 1-1.7 2.8-3.4 1.7-1.6 3.3-2.8 3.5-2.6z"/><path class="b" d="m258.8 513.4h-145.8v-202.4h145.8z"/><path class="d" d="m244.7 498.9h-117.6v-173.3h117.6z"/><path class="f" d="m234.6 488.4h-97.4v-114.2h97.4z"/><path class="f" d="m234.6 367.8h-97.4v-32h97.4z"/><path class="d" d="m185.9 491.5c-0.3 0-0.5-25.9-0.5-57.8 0-31.8 0.2-57.7 0.5-57.7 0.3 0 0.5 25.9 0.5 57.7 0 31.9-0.2 57.8-0.5 57.8z"/><path class="d" d="m175.9 439.8c0.2 0.3-5.7 5.8-13.1 12.3-7.4 6.6-13.6 11.7-13.8 11.5-0.1-0.2 5.7-5.7 13.1-12.3 7.4-6.5 13.6-11.7 13.8-11.5z"/><path class="d" d="m176 431.7c0.1 0.2-3.5 3.6-8.2 7.7-4.7 4-8.6 7.1-8.8 6.9-0.2-0.2 3.4-3.7 8.1-7.7 4.7-4 8.7-7.1 8.9-6.9z"/><path class="d" d="m226.9 403.9c0.2 0.2-6.2 5.7-14.2 12.3-8 6.6-14.6 11.8-14.8 11.5-0.2-0.2 6.2-5.7 14.2-12.3 8-6.6 14.6-11.7 14.8-11.5z"/><path class="d" d="m214.4 421.7c0.2 0.2-1.1 1.7-2.8 3.4-1.7 1.7-3.3 2.8-3.5 2.6-0.2-0.2 1-1.7 2.8-3.4 1.7-1.6 3.3-2.8 3.5-2.6z"/><path class="b" d="m1390.4 513.4h-145.8v-202.4h145.8z"/><path class="d" d="m1376.2 498.9h-117.5v-173.3h117.5z"/><path class="f" d="m1366.1 488.4h-97.3v-114.2h97.3z"/><path class="f" d="m1366.1 367.8h-97.3v-32h97.3z"/><path class="d" d="m1317.5 491.5c-0.3 0-0.6-25.9-0.6-57.8 0-31.8 0.3-57.7 0.6-57.7 0.2 0 0.5 25.9 0.5 57.7 0 31.9-0.3 57.8-0.5 57.8z"/><path class="d" d="m1307.4 439.8c0.2 0.3-5.6 5.8-13 12.3-7.4 6.6-13.6 11.7-13.8 11.5-0.2-0.2 5.7-5.7 13.1-12.3 7.4-6.5 13.6-11.7 13.7-11.5z"/><path class="d" d="m1307.5 431.7c0.2 0.2-3.4 3.6-8.1 7.7-4.7 4-8.7 7.1-8.9 6.9-0.1-0.2 3.5-3.7 8.2-7.7 4.7-4 8.6-7.1 8.8-6.9z"/><path class="d" d="m1358.4 403.9c0.2 0.2-6.1 5.7-14.1 12.3-8 6.6-14.7 11.8-14.8 11.5-0.2-0.2 6.1-5.7 14.1-12.3 8-6.6 14.6-11.7 14.8-11.5z"/><path class="d" d="m1346 421.7c0.2 0.2-1.1 1.7-2.8 3.4-1.8 1.7-3.4 2.8-3.6 2.6-0.2-0.2 1.1-1.7 2.8-3.4 1.8-1.6 3.4-2.8 3.6-2.6z"/><path class="b" d="m1228.4 513.4h-145.8v-202.4h145.8z"/><path class="d" d="m1214.3 498.9h-117.6v-173.3h117.6z"/><path class="f" d="m1204.1 488.4h-97.3v-114.2h97.3z"/><path class="f" d="m1204.1 367.8h-97.3v-32h97.3z"/><path class="d" d="m1155.5 491.5c-0.3 0-0.6-25.9-0.6-57.8 0-31.8 0.3-57.7 0.6-57.7 0.3 0 0.5 25.9 0.5 57.7 0 31.9-0.2 57.8-0.5 57.8z"/><path class="d" d="m1145.5 439.8c0.1 0.3-5.7 5.8-13.1 12.3-7.4 6.6-13.6 11.7-13.8 11.5-0.2-0.2 5.7-5.7 13.1-12.3 7.4-6.5 13.6-11.7 13.8-11.5z"/><path class="d" d="m1145.5 431.7c0.2 0.2-3.4 3.6-8.1 7.7-4.7 4-8.7 7.1-8.8 6.9-0.2-0.2 3.4-3.7 8.1-7.7 4.7-4 8.6-7.1 8.8-6.9z"/><path class="d" d="m1196.4 403.9c0.2 0.2-6.1 5.7-14.1 12.3-8 6.6-14.7 11.8-14.8 11.5-0.2-0.2 6.1-5.7 14.1-12.3 8-6.6 14.7-11.7 14.8-11.5z"/><path class="d" d="m1184 421.7c0.2 0.2-1.1 1.7-2.8 3.4-1.8 1.7-3.4 2.8-3.6 2.6-0.1-0.2 1.1-1.7 2.9-3.4 1.7-1.6 3.3-2.8 3.5-2.6z"/><path class="f" d="m289.9 550.6c-6.6-11.4-22-16.8-34.3-12.1-3.4-7.7-11.5-12.9-19.9-12.9-8.4 0-16.5 5.2-19.9 12.9-9.3-4.7-21.9-1.6-27.9 6.9-7.4-8.7-21.4-10.9-31.1-4.9-2.5-6.5-9.3-11.1-16.2-10.9-7 0.2-13.5 5.1-15.7 11.7-12.5-7.2-30.7 1.8-36.6 15.1h225.8c-3.7-8.1-17-11-24.2-5.8z"/><path class="f" d="m427 547.5c-5.3-1.2-12-1.8-12-1.8 0 0-2.7-4.6-7.5-6.1-2.7-0.8-8.1-0.9-10.3 0.8-1.7-9-10.7-16.1-19.9-15.5-9.1 0.6-17.2 8.7-17.7 17.9-3.9-3.7-9.7-5.2-14.9-3.9-5.2 1.3-9.7 5.3-11.5 10.3-7.2-4-17.4 0.1-21.5 7.2l127.7 0.4c-0.9-5.9-7.1-8.1-12.4-9.3z"/><path class="f" d="m1270.9 550.6c-6.6-11.4-21.9-16.8-34.2-12.1-3.5-7.7-11.6-12.9-20-12.9-8.3 0-16.5 5.2-19.9 12.9-9.3-4.7-21.9-1.6-27.9 6.9-7.4-8.7-21.3-10.9-31.1-4.9-2.4-6.5-9.3-11.1-16.2-10.9-6.9 0.2-13.5 5.1-15.6 11.7-12.6-7.2-30.8 1.8-36.6 15.1h225.7c-3.6-8.1-16.9-11-24.2-5.8z"/><path class="f" d="m1408 547.5c-5.3-1.2-12-1.8-12-1.8 0 0-2.7-4.6-7.4-6.1-2.7-0.8-8.2-0.9-10.4 0.8-1.6-9-10.7-16.1-19.8-15.5-9.2 0.6-17.3 8.7-17.8 17.9-3.9-3.7-9.7-5.2-14.9-3.9-5.2 1.3-9.6 5.3-11.4 10.3-7.3-4-17.4 0.1-21.6 7.2l127.7 0.4c-0.9-5.9-7-8.1-12.4-9.3z"/><path class="c" d="m1449.7 574.4h-1399.4v-20.3h1399.4z"/><path class="d" d="m74.9 575c-0.3 0-0.6-4.4-0.6-9.9 0-5.5 0.3-10 0.6-10 0.2 0 0.5 4.5 0.5 10 0 5.5-0.3 9.9-0.5 9.9z"/><path class="d" d="m144.4 575c-0.3 0-0.5-4.4-0.5-9.9 0-5.5 0.2-10 0.5-10 0.3 0 0.5 4.5 0.5 10 0 5.5-0.2 9.9-0.5 9.9z"/><path class="d" d="m214 575c-0.3 0-0.5-4.4-0.5-9.9 0-5.5 0.2-10 0.5-10 0.3 0 0.5 4.5 0.5 10 0 5.5-0.2 9.9-0.5 9.9z"/><path class="d" d="m283.6 575c-0.3 0-0.6-4.4-0.6-9.9 0-5.5 0.3-10 0.6-10 0.3 0 0.5 4.5 0.5 10 0 5.5-0.2 9.9-0.5 9.9z"/><path class="d" d="m353.1 575c-0.2 0-0.5-4.4-0.5-9.9 0-5.5 0.3-10 0.5-10 0.3 0 0.6 4.5 0.6 10 0 5.5-0.3 9.9-0.6 9.9z"/><path class="d" d="m422.7 575c-0.3 0-0.5-4.4-0.5-9.9 0-5.5 0.2-10 0.5-10 0.3 0 0.5 4.5 0.5 10 0 5.5-0.2 9.9-0.5 9.9z"/><path class="d" d="m492.3 575c-0.3 0-0.5-4.4-0.5-9.9 0-5.5 0.2-10 0.5-10 0.3 0 0.5 4.5 0.5 10 0 5.5-0.2 9.9-0.5 9.9z"/><path class="d" d="m561.8 575c-0.2 0-0.5-4.4-0.5-9.9 0-5.5 0.3-10 0.5-10 0.3 0 0.6 4.5 0.6 10 0 5.5-0.3 9.9-0.6 9.9z"/><path class="d" d="m631.4 575c-0.3 0-0.5-4.4-0.5-9.9 0-5.5 0.2-10 0.5-10 0.3 0 0.5 4.5 0.5 10 0 5.5-0.2 9.9-0.5 9.9z"/><path class="d" d="m701 575c-0.3 0-0.5-4.4-0.5-9.9 0-5.5 0.2-10 0.5-10 0.3 0 0.5 4.5 0.5 10 0 5.5-0.2 9.9-0.5 9.9z"/><path class="d" d="m770.6 575c-0.3 0-0.6-4.4-0.6-9.9 0-5.5 0.3-10 0.6-10 0.2 0 0.5 4.5 0.5 10 0 5.5-0.3 9.9-0.5 9.9z"/><path class="d" d="m840.1 575c-0.3 0-0.5-4.4-0.5-9.9 0-5.5 0.2-10 0.5-10 0.3 0 0.6 4.5 0.6 10 0 5.5-0.3 9.9-0.6 9.9z"/><path class="d" d="m909.7 575c-0.3 0-0.5-4.4-0.5-9.9 0-5.5 0.2-10 0.5-10 0.3 0 0.5 4.5 0.5 10 0 5.5-0.2 9.9-0.5 9.9z"/><path class="d" d="m979.3 575c-0.3 0-0.5-4.4-0.5-9.9 0-5.5 0.2-10 0.5-10 0.3 0 0.5 4.5 0.5 10 0 5.5-0.2 9.9-0.5 9.9z"/><path class="d" d="m1048.8 575c-0.2 0-0.5-4.4-0.5-9.9 0-5.5 0.3-10 0.5-10 0.3 0 0.6 4.5 0.6 10 0 5.5-0.3 9.9-0.6 9.9z"/><path class="d" d="m1118.4 575c-0.3 0-0.5-4.4-0.5-9.9 0-5.5 0.2-10 0.5-10 0.3 0 0.5 4.5 0.5 10 0 5.5-0.2 9.9-0.5 9.9z"/><path class="d" d="m1188 575c-0.3 0-0.5-4.4-0.5-9.9 0-5.5 0.2-10 0.5-10 0.3 0 0.5 4.5 0.5 10 0 5.5-0.2 9.9-0.5 9.9z"/><path class="d" d="m1257.6 575c-0.3 0-0.6-4.4-0.6-9.9 0-5.5 0.3-10 0.6-10 0.2 0 0.5 4.5 0.5 10 0 5.5-0.3 9.9-0.5 9.9z"/><path class="d" d="m1327.1 575c-0.3 0-0.5-4.4-0.5-9.9 0-5.5 0.2-10 0.5-10 0.3 0 0.5 4.5 0.5 10 0 5.5-0.2 9.9-0.5 9.9z"/><path class="d" d="m1396.7 575c-0.3 0-0.5-4.4-0.5-9.9 0-5.5 0.2-10 0.5-10 0.3 0 0.5 4.5 0.5 10 0 5.5-0.2 9.9-0.5 9.9z"/><path class="c" d="m437.9 190.3h-363v-15.4h363z"/><path class="c" d="m1415.6 190.3h-353.1v-15.4h353.1z"/><path class="d" d="m1062.5 552.9c-0.3 0-0.5-91.6-0.5-204.5 0-113 0.2-204.6 0.5-204.6 0.3 0 0.5 91.6 0.5 204.6 0 112.9-0.2 204.5-0.5 204.5z"/><path class="d" d="m1470.7 574.4c0 0.3-322.7 0.5-720.7 0.5-398.1 0-720.7-0.2-720.7-0.5 0-0.3 322.6-0.6 720.7-0.6 398 0 720.7 0.3 720.7 0.6z"/><path class="d" d="m1023.9 639.4c-12.2-0.1-26.1 0.5-34 9.7-4 4.6-5.8 10.6-7.4 16.4-3.3 12.5-5.9 25.2-7.8 38-0.7 4.6-1.2 9.6 1.4 13.4 4 5.7 12.4 5.3 19.3 4.1 11.6-2.1 23.1-4.8 34.5-8z"/><path class="d" d="m1024 581.2c0 1.6-26 75.6-26 75.6l10 1 16-60.8z"/><path class="f" d="m1000.8 649.6c0.1 0.1-1 0.3-2.6 1.4-1.6 1-3.6 3.1-4.9 6.2-1.3 3.2-2 7.2-2.9 11.7-1 4.5-1.9 9.4-2.8 14.6-1.7 10.4-3 19.9-3.7 26.8-0.3 3.4 0 6.2 0.7 7.9 0.7 1.8 1.4 2.6 1.3 2.7q0 0-0.5-0.6c-0.3-0.4-0.8-1-1.2-1.9-0.8-1.8-1.3-4.7-1-8.2 0.5-6.9 1.6-16.4 3.4-26.9 0.9-5.2 1.8-10.1 2.8-14.6 1-4.4 1.8-8.5 3.3-11.8 1.4-3.2 3.6-5.3 5.3-6.3 0.8-0.5 1.6-0.7 2.1-0.9 0.5-0.1 0.7-0.1 0.7-0.1z"/><path class="f" d="m1022.2 688.3c0.1 0.1-0.8 0.5-2.3 1.2-1.6 0.7-3.9 1.5-6.8 2.3q-2.3 0.6-4.9 1.1c-1.8 0.3-3.7 0.6-5.8 0.3-2.1-0.3-4.3-1.6-5.3-3.7-1.1-2.1-1.3-4.5-1.2-6.8 0.6-9.3 2.3-17.6 3.7-23.5 0.8-2.9 1.5-5.2 2-6.9 0.5-1.6 0.9-2.4 1-2.4 0 0-0.2 0.9-0.6 2.6-0.4 1.6-1 4-1.6 6.9-1.3 5.9-2.9 14.2-3.5 23.3-0.1 2.3 0.1 4.5 1.1 6.3 0.9 1.9 2.7 3 4.6 3.3 1.8 0.3 3.7 0.1 5.5-0.2q2.6-0.5 4.8-1c2.9-0.7 5.2-1.4 6.8-2 1.6-0.5 2.5-0.9 2.5-0.8z"/><path class="h" d="m1000 477.1l6.1 18 2.2 3c0 0 1.8 10 2 12.2 0.1 2.1-2.7 13.3-2.7 13.3l6.2 9.9-17.2 6.7c0 0-4.7-9.1-6-10.2-1.2-1-2.2-4-2.5-5.9-0.3-2-2.9-13.9-2.9-13.9 0 0-7.6-13-4.4-13.6 0.7-0.2 2.4 0 2.4 0 0 0 4.6 8.6 5.8 8.8l1.7-1.1c0 0-3.6-13.1-3.7-15.5-0.2-2.5 0.3-4.2 2.2-4.5 0 0 1.4 0.6 1.5 1.2 0.2 0.6 3.7 15.3 4.5 15 0.8-0.3 0.5-1.6 0.5-1.6 0 0-4.8-17.8-4.6-18.8 0.2-1 1.1-2.6 2.9-2.4l3.6 9.7c0 0-1.7-8.2-0.4-9.6 1.4-1.5 2.8-0.7 2.8-0.7z"/><path class="i" d="m996.4 516.9c0.1 0 0-1.5 0.6-4 0.6-2.3 2.2-5.8 5.3-8.2l0.3-0.2-0.1-0.3q-0.4-2-0.9-4.1v-0.1h-0.1q-0.5-0.8-0.9-1.5c-1-1.6-1.7-3.4-2-5.1-0.1-0.9-0.2-1.8 0.1-2.5 0.1-0.7 0.7-1.2 1.3-1.3l-0.3-0.1c2 2 3.8 3.6 5 4.7 1.2 1.1 1.9 1.7 2 1.7 0-0.1-0.6-0.8-1.7-2-1.1-1.2-2.8-2.9-4.8-5l-0.1-0.1h-0.2c-1 0.1-1.8 1-2 1.9-0.3 0.9-0.3 1.9-0.1 2.8 0.3 1.9 1 3.7 2 5.5q0.5 0.8 1 1.5l-0.1-0.2q0.5 2.1 1 4.1l0.1-0.4c-3.4 2.7-4.9 6.3-5.3 8.8-0.3 1.3-0.3 2.3-0.3 3q0.1 1.1 0.2 1.1z"/><path class="i" d="m996.4 502.4c-0.1-0.3-2.7 0.5-5.5 2.3-2.8 1.9-4.5 4-4.3 4.1 0.2 0.2 2.1-1.5 4.8-3.3 2.7-1.8 5.1-2.9 5-3.1z"/><path class="h" d="m993.6 533.5c0 0 16.7 57.9 32.1 56.7 15.5-1.1 21.6-14 21.6-14l-0.2-31.5-9.1 1.2-7.6 14.3-22.8-36.6z"/><path class="d" d="m1073 437.1c2.9-9.4 9.6-17.4 18.2-22.1l-0.7-0.6c7.8-2.2 17 2.9 19.3 10.8 0.9 3.2 0.8 6.6 1.1 10 0.3 3.3 1.2 6.8 3.7 9.1 1.3 1.2 3 2 4.4 3.1 1.3 1.1 2.5 2.9 2.1 4.6-0.5 2.3-3.1 3.3-5.4 3.5-2.3 0.1-4.7-0.3-6.8 0.7 2.9 2.5 3 7.5 0.4 10.2-2.6 2.8-7.5 2.8-10.2 0.1 1.1 3.9-1.5 8.2-5.1 9.8-3.7 1.6-8.2 0.8-11.5-1.4-3.4-2.2-5.8-5.7-7.5-9.3-4.3-8.8-5-19.2-2-28.5z"/><path class="d" d="m1015.8 412.4c0.7-2.8 3.5-4.7 6.4-5.2 2.8-0.5 5.7 0.1 8.6 0.8-0.8-3.8-1.5-7.7-0.7-11.5 0.8-3.8 3.5-7.4 7.3-8 3.3-0.6 6.5 1.2 9.1 3.3 2.6 2.1 4.9 4.6 7.8 6.1 7.8 3.9 17.2-0.5 25.7 1.5 8.6 1.9 15.7 12.1 14.2 20.9-14.4 5-28.9 10.1-41.9 18.1-7 4.4-14.5 9.9-22.6 8.3-5-0.9-9.4-4.8-11-9.7-1.5-4.8-0.2-10.5 3.3-14.2-3.4-2.6-7.2-6.3-6.2-10.4z"/><path class="h" d="m1031.3 435.8c1.3-11.9 14.7-23.3 26.5-21.6l38.4 9-6.8 5.3-5.4 77.5c0 0 1.7 28.7-19.9 26.3-19.4-2.1-17.5-22.6-17.5-22.6l1.5-13.3c0 0-16-3-18.3-23-1.2-10 0.2-24.3 1.5-37.6z"/><path class="d" d="m1035.4 454.6c-0.1 1.4 1 2.6 2.4 2.7 1.4 0.1 2.6-0.9 2.7-2.2 0.1-1.4-0.9-2.6-2.3-2.7-1.4-0.1-2.7 0.9-2.8 2.2z"/><path class="d" d="m1034.4 446.6c0.3 0.3 2.3-1 5.1-0.9 2.7 0.1 4.7 1.6 5 1.2 0.1-0.1-0.2-0.7-1-1.4-0.8-0.7-2.3-1.4-4-1.4-1.7-0.1-3.2 0.5-4 1.1-0.9 0.6-1.2 1.2-1.1 1.4z"/><path class="d" d="m1057.9 456.4c-0.1 1.4 0.9 2.6 2.3 2.7 1.5 0.1 2.7-0.8 2.8-2.2 0.1-1.3-1-2.5-2.4-2.7-1.4-0.1-2.6 0.9-2.7 2.2z"/><path class="d" d="m1059.7 448c0.3 0.4 2.3-1 5.1-0.9 2.7 0.1 4.7 1.6 5 1.3 0.1-0.1-0.2-0.8-1-1.4-0.9-0.7-2.3-1.4-4-1.5-1.7 0-3.2 0.6-4.1 1.2-0.8 0.6-1.1 1.2-1 1.3z"/><path class="d" d="m1050.6 469c0-0.1-1.7-0.5-4.4-0.9-0.7-0.1-1.4-0.2-1.5-0.6-0.1-0.5 0.2-1.1 0.5-1.8q1.1-2.1 2.3-4.4c0.8-1.6 4.9-10.8 5-11.7-0.3-0.1-3 5-6.1 11.3q-1.2 2.3-2.2 4.4c-0.3 0.7-0.7 1.4-0.4 2.4 0.2 0.4 0.7 0.8 1.1 0.9 0.5 0.1 0.9 0.1 1.2 0.2 2.8 0.2 4.5 0.3 4.5 0.2z"/><path class="i" d="m1047.7 496.5c0 0 13.4 1.4 27-6 0 0-7.4 13.6-27.3 10.9z"/><path class="d" d="m1058.9 468.3c-0.5-0.1-0.6 2.9-3.3 4.9-2.6 2-5.8 1.6-5.8 2-0.1 0.2 0.7 0.6 2 0.7 1.3 0.1 3.3-0.3 4.9-1.5 1.6-1.2 2.4-2.9 2.5-4.2 0.2-1.2-0.1-2-0.3-1.9z"/><path class="d" d="m1061 438.9c0.3 0.9 2.7 0.3 5.5 0.6 2.9 0.3 5.2 1.3 5.6 0.5 0.1-0.4-0.3-1.2-1.3-2-0.9-0.8-2.4-1.6-4.2-1.7-1.7-0.2-3.2 0.3-4.2 0.9-1 0.6-1.5 1.3-1.4 1.7z"/><path class="d" d="m1034.7 437.1c0.4 0.8 2.5 0.3 4.9 0.5 2.4 0.1 4.3 1 4.9 0.3 0.2-0.4 0-1.1-0.8-1.9-0.8-0.8-2.2-1.6-3.8-1.7-1.7-0.1-3.2 0.4-4.1 1-0.9 0.7-1.3 1.4-1.1 1.8z"/><path class="d" d="m1033.5 424.6c3.9-6.7 10.9-11.2 18.4-13 7.5-1.8 15.4-1.1 22.9 0.8 7.5 1.9 14.6 4.9 21.7 8 1.7 0.8 3.5 1.6 4.3 3.4 0.5 1.1 0.4 2.4 0.3 3.7q-1.4 16-2.8 32l-3.1 6.4c-3.5-0.1-6.3-2.7-8.5-5.4-7.6-9.4-11.3-21.8-10.2-33.8-1.1 1.3-1.4 3-2 4.5-0.7 1.6-1.7 3.2-3.3 3.6-2.8 0.6-4.9-2.5-5.3-5.3-0.3-2.8 0.3-5.8-1-8.3-2.9 3.9-6.6 7.1-10.9 9.3-2 1.1-4.7 1.8-6.4 0.4-1.2-1.1-1.5-2.9-1.1-4.5 0.5-1.5 1.5-2.8 2.5-4.1-3.4 3.5-7.8 5.9-12.6 6.9-1 0.3-2.3 0.4-3.1-0.3-1.1-1.1-0.6-3 0.2-4.3z"/><path class="h" d="m1086 455.7c0.3-0.2 12.4-3.1 11.5 9.1-1 12.1-13 8.6-13 8.3 0-0.4 1.5-17.4 1.5-17.4z"/><path class="i" d="m1088.6 468.8c0-0.1 0.2 0.1 0.5 0.3 0.4 0.2 0.9 0.4 1.6 0.2 1.3-0.4 2.6-2.3 2.8-4.5 0.1-1.1 0-2.2-0.4-3.1-0.3-0.9-0.8-1.6-1.4-1.7-0.6-0.2-1.1 0.1-1.3 0.4-0.2 0.4-0.1 0.6-0.2 0.6 0 0.1-0.3-0.2-0.1-0.7 0.1-0.2 0.2-0.5 0.5-0.7 0.3-0.2 0.8-0.3 1.2-0.2 0.9 0.1 1.7 1.1 2.1 2 0.4 1 0.6 2.2 0.4 3.5-0.2 2.4-1.7 4.6-3.5 5-0.8 0.1-1.5-0.2-1.9-0.5-0.3-0.3-0.4-0.6-0.3-0.6z"/><path class="j" d=""/><path class="f" d="m1079.1 425.3q-0.1 0 0.2 0.7 0.2 0.7 0.8 2c0.8 1.7 2 4.2 4 6.9 1 1.4 2.1 2.8 3.5 4.3 0.7 0.7 1.4 1.4 2.2 2.1 0.8 0.7 1.8 1.4 3 1.6 1.2 0.1 2.5-0.5 3.2-1.4 0.8-1 1.3-2.2 1.5-3.4 0.2-2.6-0.8-5-0.9-7.5q-0.1-0.5 0-0.9l-0.6 0.2q2.4 2.9 4.7 5.6 1.1 1.3 2.2 2.6c0.7 0.9 1.6 1.8 2.7 2.2 0.5 0.2 1.2 0.2 1.8-0.1 0.5-0.2 0.9-0.7 1.2-1.1 0.6-1 0.7-2 0.9-3 0.2-1.9 0.1-3.7-0.1-5.3-0.4-3.3-1.4-5.8-2.3-7.4-0.4-0.8-0.8-1.4-1.1-1.8q-0.4-0.6-0.5-0.6c0 0.1 0.6 0.9 1.4 2.5 0.8 1.6 1.7 4.1 2.1 7.3 0.2 1.6 0.2 3.4-0.1 5.3-0.1 0.9-0.3 1.9-0.8 2.7-0.4 0.8-1.4 1.3-2.3 0.9-0.9-0.3-1.7-1.1-2.4-2q-1.1-1.3-2.2-2.6-2.3-2.7-4.7-5.6l-0.6-0.7v0.9q0 0.5 0 1c0.2 2.6 1.2 5 0.9 7.3-0.1 1.1-0.5 2.2-1.2 3.1-0.7 0.8-1.7 1.3-2.8 1.2-1-0.1-1.9-0.8-2.6-1.4-0.8-0.7-1.5-1.4-2.2-2.1-1.4-1.4-2.6-2.8-3.6-4.1-1.9-2.7-3.2-5.1-4.1-6.8q-0.6-1.3-0.9-1.9-0.3-0.7-0.3-0.7z"/><path class="e" d="m1056.7 888.8v50.6l-67.9 0.2c0.4-6 35.4-18.2 35.4-18.2l-1.4-32.4z"/><path class="g" d="m1044.6 921.9c1.3 0.3 2.2 1.7 1.9 2.9-0.3 1.3-1.8 2.1-3.1 1.8-1.3-0.3-2.5-1.9-2-3.1 0.4-1.2 2.2-2.1 3.5-1.5"/><path class="d" d="m1056.7 939.4l-0.2-5.1-65 2.1c0 0-3 1.2-2.7 3.2z"/><path class="d" d="m1024.1 921.5c0.1 0.3 1.7 0.5 3.4 1.4 1.6 1 2.5 2.3 2.8 2.2 0.3-0.1-0.2-1.9-2.2-3.1-2-1.1-4-0.8-4-0.5z"/><path class="d" d="m1016.4 924.4c-0.1 0.3 1.3 0.8 2.5 2.1 1.1 1.2 1.4 2.6 1.8 2.6 0.3 0.1 0.5-1.7-1-3.3-1.4-1.6-3.3-1.7-3.3-1.4z"/><path class="d" d="m1012.3 932.3c0.3 0 0.7-1.5-0.1-3.2-0.9-1.7-2.5-2.3-2.6-2.1-0.2 0.3 0.8 1.2 1.5 2.6 0.7 1.3 0.8 2.6 1.2 2.7z"/><path class="d" d="m1024 915.1c0.2 0.3 1.7-0.2 3.6 0 1.8 0 3.3 0.6 3.5 0.4 0.2-0.3-1.3-1.4-3.5-1.5-2.2-0.1-3.7 0.9-3.6 1.1z"/><path class="d" d="m1025.3 906.2c0 0.1 1.3 0.3 3.4 0 1-0.2 2.2-0.5 3.5-1.1q1-0.4 2-0.9c0.3-0.2 0.7-0.4 1-0.8 0.4-0.3 0.6-1.1 0.1-1.6-0.3-0.5-0.9-0.7-1.4-0.7-0.5 0-0.9 0.1-1.3 0.2q-1.1 0.2-2.1 0.6c-1.3 0.6-2.3 1.3-3.1 2-1.6 1.3-2.1 2.5-2 2.5 0.1 0.1 0.9-0.8 2.5-2 0.8-0.5 1.8-1.1 3-1.6q0.9-0.3 2-0.5c0.7-0.2 1.3-0.2 1.5 0.1 0.1 0.1 0.1 0.2-0.1 0.4-0.1 0.1-0.4 0.3-0.7 0.5q-0.9 0.5-1.8 1c-1.2 0.5-2.3 0.9-3.3 1.1-1.9 0.5-3.2 0.6-3.2 0.8z"/><path class="d" d="m1025.7 906.6c0.1 0.1 0.8-1 0.9-3 0-1-0.1-2.2-0.5-3.5q-0.3-0.9-0.9-1.9c-0.4-0.6-0.9-1.4-2.1-1.6-0.7 0-1.3 0.5-1.5 0.9-0.2 0.4-0.2 0.8-0.3 1.2q-0.2 1.1 0 2.1c0.2 1.3 0.8 2.4 1.5 3.2 1.3 1.7 2.7 2 2.7 1.9 0.1-0.1-1-0.7-2-2.3-0.5-0.7-1-1.8-1.1-2.9q-0.1-0.9 0-1.9c0.1-0.6 0.4-1.2 0.7-1.1 0.3 0 0.9 0.5 1.2 1q0.5 0.9 0.8 1.7c0.4 1.2 0.6 2.3 0.7 3.2 0.1 1.8-0.3 3-0.1 3z"/><path class="e" d="m1121.3 872.7l28.2 34-47.1 35.3c-3.1-4.3 14.5-30.6 14.5-30.6l-19-21z"/><path class="g" d="m1133.1 900.8c1.1-0.5 2.5 0 3 0.9 0.4 1-0.1 2.4-1.2 2.9-1.1 0.4-2.8 0-3.1-1.1-0.4-1 0.4-2.6 1.5-2.8"/><path class="d" d="m1149.5 906.7l-3-3.3-44 35c0 0-1.4 2.4-0.1 3.6z"/><path class="d" d="m1116.9 911.8c0.1 0.2 1.4-0.6 3-0.8 1.7-0.2 3.1 0.3 3.2 0 0.2-0.2-1.2-1.2-3.2-0.9-2.1 0.2-3.3 1.5-3 1.7z"/><path class="d" d="m1113.1 917.8c0.1 0.2 1.4-0.2 2.9 0.1 1.6 0.2 2.5 1 2.8 0.8 0.2-0.1-0.6-1.4-2.5-1.7-1.9-0.4-3.3 0.6-3.2 0.8z"/><path class="d" d="m1114.5 925.1c0.3-0.1-0.3-1.3-1.8-2-1.5-0.7-3-0.3-2.9-0.1 0 0.3 1.2 0.3 2.4 0.9 1.3 0.6 2.1 1.4 2.3 1.2z"/><path class="d" d="m1113.2 906.9c0.2 0.2 1-0.9 2.4-1.8 1.4-0.9 2.7-1.3 2.7-1.6 0-0.2-1.7-0.2-3.2 0.8-1.6 1.1-2.2 2.6-1.9 2.6z"/><path class="d" d="m1109.2 900.7c0 0.1 1.1-0.5 2.3-1.8 0.7-0.6 1.3-1.5 1.9-2.5q0.5-0.8 0.8-1.7c0.2-0.3 0.3-0.6 0.3-1 0.1-0.4-0.2-1.1-0.8-1.2-0.5-0.1-1 0.1-1.4 0.3-0.3 0.3-0.6 0.5-0.8 0.8q-0.6 0.7-1.1 1.5c-0.5 1.1-0.9 2.1-1.1 2.9-0.3 1.7 0 2.8 0.1 2.8 0.2 0 0.1-1.1 0.6-2.7 0.3-0.7 0.7-1.7 1.2-2.6q0.5-0.7 1.1-1.4c0.4-0.5 0.8-0.8 1.1-0.7 0.1 0.1 0.1 0.1 0.1 0.3 0 0.2-0.1 0.5-0.2 0.7q-0.3 0.9-0.7 1.6c-0.5 1-1.1 1.8-1.6 2.5-1.1 1.3-1.9 2.1-1.8 2.2z"/><path class="d" d="m1109.7 900.7c0.1 0 0-1.1-1.1-2.5-0.5-0.6-1.2-1.4-2.2-2q-0.8-0.5-1.7-0.8c-0.6-0.3-1.4-0.6-2.4 0-0.5 0.3-0.6 1-0.5 1.3 0.1 0.4 0.3 0.7 0.4 1q0.5 0.8 1.2 1.4c0.9 0.8 2 1.2 2.9 1.4 1.8 0.4 3 0 2.9-0.1 0-0.2-1.1 0-2.7-0.5-0.8-0.3-1.7-0.7-2.4-1.4q-0.6-0.6-1-1.3c-0.3-0.5-0.4-1-0.2-1.1 0.2-0.1 0.9-0.1 1.4 0.1q0.9 0.3 1.6 0.7c0.9 0.5 1.6 1.2 2.2 1.8 1.1 1.2 1.5 2.1 1.6 2z"/><path class="d" d="m1021.5 644.4l3.7 24.4c0 0-24.6 102-27.1 119.7-2.6 17.7 22.8 131.1 22.8 131.1l39-3.3-11.8-119.2 34.5-75.3c1.1-1.3 3.7-11.8 7.1-18.7 5-10.2 6.6-22.8 8.7-30l-0.2-10.4-0.4-6.7z"/><path class="d" d="m1072.6 723.4l1.5 81.7 62.9 82-34.6 24.1-82.1-92-2.5-107.9z"/><path class="f" d="m1084.8 716.1q0 0-0.2 0.5-0.2 0.6-0.6 1.5-0.8 2-2.3 5.6c-2.2 4.9-5.2 11.9-9 20.5-3.8 8.7-8.3 19-13.4 30.4-2.6 5.7-5.3 11.7-8.3 17.8q-0.5 1.2-1.1 2.3c-0.4 0.8-0.7 1.5-1.3 2.4-0.3 0.3-0.2 1.4-0.2 2.2q0 1.2 0.1 2.6c0.2 3.4 0.5 7 0.8 10.6 2.7 28.7 5.7 54.6 7.8 73.4 1 9.4 1.8 16.9 2.4 22.3q0.4 3.8 0.6 6 0.1 1 0.1 1.6 0.1 0.5 0.1 0.5-0.1 0-0.2-0.5-0.1-0.6-0.2-1.5-0.3-2.2-0.8-6.1c-0.7-5.3-1.6-12.9-2.8-22.2-2.2-18.8-5.3-44.7-8-73.4-0.4-3.6-0.7-7.2-0.9-10.7q0-1.3-0.1-2.6 0-0.7 0-1.4c0-0.2 0.1-0.4 0.1-0.7 0 0 0.1-0.2 0.1-0.3 0.1-0.1 0.1-0.2 0.2-0.1-0.1-0.2 0-0.1 0-0.2l0.1-0.2c0.4-0.6 0.8-1.4 1.2-2.2q0.6-1.1 1.1-2.2c3-6.2 5.7-12.1 8.3-17.8 5.1-11.4 9.8-21.6 13.7-30.3 3.8-8.5 7-15.5 9.2-20.4q1.6-3.5 2.5-5.5 0.5-0.8 0.7-1.4 0.3-0.5 0.3-0.5z"/><path class="f" d="m1021.6 683.6c0.3 0-2 11.2-5.1 25-3.1 13.8-5.8 24.9-6.1 24.8-0.3-0.1 2-11.3 5.1-25 3.1-13.8 5.9-24.9 6.1-24.8z"/><path class="f" d="m1083.9 499.9c0 0 19.4 22 20.3 42.3 0.5 10.3-1 107.1-1 107.1l1.1 35.6-89.9-2.1 5.2-45.1 10.9-77.7 13.5-47.8 2.7-6.6z"/><path class="d" d="m1089.3 508.1c0 0-5.3-5.4-15.4-6-10.2-0.5-17.4 2.9-25.3 16.2-5.6 9.3-23 59.6-23 59.6l0.4 16c0 0 23-86.7 45.1-88.5 22.1-1.9 32.6 32.2 32.6 32.2 0 0-2.4-17.8-14.4-29.5z"/><path class="h" d="m1096.7 539.6c0 0.9 2 70.6-1 78.5-3 7.9-8.5 13.9-18.3 13.2-9.9-0.6-50.5-18.6-50.5-18.6l-7.4-17.7 46.5 2.3-6.7-58.2z"/><path class="h" d="m1028.2 598.1l-0.7-18.7c0 0-9.4 1.7-10.5 4.6-1.1 3-1.6 5.6-2.8 9.2-1.1 3.6 1.6 12.7 2.8 15.2 1.1 2.5 20.8 9.4 20.8 9.4l3.2-13z"/><path class="i" d="m1075.9 608.2c-0.3 0.1-1.5-3.3-4.7-6.4-3.1-3-6.6-4.2-6.5-4.5 0-0.2 3.9 0.5 7.2 3.8 3.5 3.2 4.3 7.1 4 7.1z"/><path class="f" d="m1101.8 574.7l-51.7 2c0 0 0.2-38.8 1.5-47.8 1.3-9 16.1-29.1 32.4-20.1 0 0 6.2 3.2 9.7 11.1 1.4 3.2 8.1 54.8 8.1 54.8z"/><path class="d" d="m1051.7 529.4c0.1 0 0-2.9 1.8-7.1 0.9-2.1 2.2-4.5 4-6.9 1.8-2.4 4.1-4.9 7.2-6.4 3.1-1.4 6.4-1.9 9.4-1.8 3 0.1 5.7 0.5 7.9 1.1 2.3 0.5 4 1.1 5.2 1.6 1.2 0.5 1.8 0.9 1.8 0.8q0 0-0.4-0.3-0.4-0.3-1.3-0.8c-1.1-0.6-2.9-1.3-5.1-1.9-2.3-0.6-5-1.1-8-1.2-3.1-0.2-6.6 0.4-9.8 1.8-3.3 1.6-5.7 4.2-7.4 6.7-1.8 2.5-3.2 4.9-4 7.1-0.8 2.2-1.2 4-1.3 5.3q-0.1 1-0.1 1.5 0 0.5 0.1 0.5z"/><path class="d" d="m1048.7 545.5q0 0 0 0.6 0 0.7 0 1.8 0 2.4 0.2 6.5c0.2 5.6 0.4 13.4 0.8 22.3v0.4h0.4c3.2-0.2 6.7-0.3 10.3-0.4 11.4-0.5 21.7-1 29.3-1.3 3.6-0.2 6.6-0.3 8.8-0.5q1.5-0.1 2.5-0.1 0.8-0.1 0.8-0.1 0-0.1-0.8-0.1-1 0-2.5 0c-2.2 0.1-5.2 0.2-8.9 0.3-7.6 0.2-17.9 0.6-29.3 1-3.5 0.1-7 0.3-10.3 0.4l0.4 0.4c-0.4-8.9-0.8-16.7-1.1-22.3q-0.2-4.1-0.4-6.5 0-1.1-0.1-1.8-0.1-0.6-0.1-0.6z"/><path class="i" d="m1027.5 578.4c0.1 0.1-1.1 0.7-3.1 1.4-1.9 0.8-4.8 1.6-6.5 4.2-1.9 2.5-2.5 5.3-2.9 7.4-0.5 2-0.9 3.3-1 3.2-0.2 0 0-1.3 0.2-3.4 0.3-2 0.8-5.1 2.8-7.8 0.9-1.4 2.3-2.5 3.6-3 1.3-0.6 2.6-1 3.6-1.3 2-0.5 3.2-0.9 3.3-0.7z"/><path class="d" d="m487.3 462.6c6.7-9.4 5-23.7-3.8-31.2l-18.8-8.9c-3.8-11.1-17.8-7.5-22.3-4.3-4.6 3.2-6.9 8.8-7.1 14.4-0.2 3.3 0.2 6.9-1.6 9.7-1.8 2.5-5 3.5-7.4 5.5-4.9 4-5.4 12.3-0.9 16.8-3.8 1.4-6.8 5.1-7.3 9.1-0.5 4 1.5 8.3 4.9 10.5-2.2 3.2-3.7 7-3.8 10.8-0.1 3.9 1.5 7.9 4.7 10.1 3.2 2.2 7.9 2.2 10.6-0.6 0.3 5.1 4.2 9.7 9.1 10.8 5 1.2 10.5-1.3 13-5.7 4.1 4 10.7 5 15.8 2.4 5-2.5 8.1-8.5 7.4-14.1 2.2 2.9 6.9 2.8 9.8 0.6 2.8-2.3 4.2-6 4.8-9.5 1.5-9.3-1.1-19.2-7.1-26.4z"/><path class="f" d="m466.3 421.8c-1.5-1.6-4-1.7-6-0.9-2 0.8-3.6 2.4-5 4-2.8 3.2-5.2 6.7-6.6 10.6q-0.1 0.1-0.1 0.2c-2.1 5.7 1 11.9 6.7 14.1q1 0.4 2.1 1c4.7-9.2 8.7-18.8 11.6-28.6z"/><path class="d" d="m454 454.9c-3.3-4-3-10.3 0.5-14.1-2.1-2.4-1.5-6.3 0.4-8.9 2-2.5 4.9-4.1 7.8-5.5 1.4-7.4 9.4-12.9 16.8-11.4 3.6-5.7 11.7-6.9 18.3-5.2 1.6 0.4 3.2 0.9 4.9 0.9 1.2-0.1 2.4-0.5 3.6-0.7 6.6-1.1 13.3 3.3 16.1 9.4 0.5 1 0.8 2 1.5 2.8 0.9 1.1 2.2 1.7 3.4 2.5 2.4 1.8 4.1 4.7 4.3 7.7 0.2 2.6-0.5 5.3 0.7 7.6 0.5 1.2 1.5 2.1 2 3.3 1.4 3.5-2.4 7.2-1.6 10.9 0.2 0.7 0.6 1.4 0.8 2.1 0.5 1.5 0.4 3.2-0.2 4.6-0.5 1.1-1.3 2.1-1.4 3.4 0 0.9 0.5 1.7 0.7 2.6 0.5 2.2-3.9 10.8-5.8 12.1l-56.5 2.5c-4.3-0.8-8-4.5-8.5-8.9-0.1-0.7-0.2-1.5-0.6-2-0.4-0.5-1-0.7-1.6-1-3.7-1.8-4.3-6.8-4.1-10.9 0-0.6 0.1-1.2-0.1-1.7-0.2-0.8-0.9-1.5-1.4-2.1z"/><path class="k" d="m470.2 454.4c-0.5-10 5.4-21.7 15.1-27 6.2-3.3 11.1-3.5 14.4-4 7.3-1.1 13.4 2.4 13.4 2.4 3.1 0.6 14.9 10.6 15.9 22 1.1 12.6 1.9 25.5 1 35-1.7 16.7-17.6 19.2-17.6 19.2-0.2-1.8 2.8 36.3 2.8 36.3l-39.3-13.9z"/><path class="l" d="m502.8 483.3c0-0.9 0.5-1.7 1.1-2.4 1.2-1.2 3.1-1.4 4.6-0.6 1.4 0.9 1.7 2.5 1.6 4.3-0.7 1.2-1.2 2.3-2.5 2.5q-0.3 0-0.6 0.1c-1 0-2-0.2-2.9-0.9-0.8-0.7-1.4-1.8-1.3-3z"/><path class="d" d="m523.5 463.9c0.1 1.3-1 2.4-2.3 2.5-1.3 0.1-2.5-0.9-2.5-2.1-0.1-1.3 0.9-2.4 2.2-2.6 1.4-0.1 2.5 0.9 2.6 2.2z"/><path class="d" d="m524.9 455c-0.3 0.4-2.2-1-4.8-0.9-2.6 0-4.5 1.4-4.8 1.1-0.1-0.1 0.2-0.7 1-1.3 0.8-0.7 2.2-1.3 3.8-1.3 1.6 0 3 0.5 3.8 1.1 0.8 0.6 1.1 1.2 1 1.3z"/><path class="d" d="m510.1 476.1c0-0.1 1.6-0.4 4.2-0.8 0.7-0.1 1.3-0.3 1.4-0.7 0.2-0.5-0.1-1.2-0.5-2q-1-2.4-2.1-5c-2.9-7.2-3.8-10-3.5-10.1 0.2-0.2 1.7 2.5 4.6 9.7q1 2.6 2 5c0.3 0.8 0.7 1.6 0.4 2.6-0.2 0.5-0.6 0.9-1.1 1-0.4 0.2-0.8 0.2-1.1 0.2-2.6 0.2-4.3 0.3-4.3 0.1z"/><path class="l" d="m512.3 502c0 0-12.8 1.1-25.6-6.1 0 0 7.1 13.1 26 10.9z"/><path class="d" d="m524 445.9c-0.4 0.7-2.7 0.3-5.3 0.5-2.6 0.2-4.8 1.1-5.4 0.4-0.2-0.3 0-1 0.9-1.7 0.9-0.7 2.4-1.4 4.2-1.6 1.8-0.2 3.5 0.2 4.4 0.8 1 0.6 1.4 1.2 1.2 1.6z"/><path class="d" d="m496.3 464.6c0.1 1.3 1.2 2.3 2.5 2.3 1.3 0 2.4-1.1 2.4-2.3-0.1-1.3-1.2-2.3-2.5-2.3-1.4 0-2.4 1-2.4 2.3z"/><path class="d" d="m489.2 456.8c0.3 0.3 2.1-1.2 4.7-1.3 2.6-0.2 4.6 1 4.8 0.6 0.1-0.1-0.2-0.7-1.1-1.2-0.8-0.6-2.3-1.1-3.9-1-1.6 0.2-2.9 0.8-3.7 1.5-0.7 0.7-1 1.2-0.8 1.4z"/><path class="d" d="m485.6 448c0.7 0.8 3.3-0.2 6.4-0.4 3.2-0.3 5.9 0.1 6.4-0.7 0.3-0.4-0.2-1.2-1.4-1.8-1.2-0.7-3.1-1.1-5.3-1-2.1 0.2-4 1.1-5 1.9-1.1 0.9-1.4 1.7-1.1 2z"/><path class="k" d="m473.7 472.3c0-1.5-1.7-4.7-3.1-4.9-3.8-0.5-10.5 0-10.3 9.4 0.2 12.9 13.1 10 13.2 9.6 0-0.3 0.3-9.3 0.2-14.1z"/><path class="l" d="m469.8 481.8c0-0.1-0.2 0.1-0.6 0.3-0.4 0.2-1 0.3-1.7 0.1-1.3-0.5-2.5-2.6-2.6-5-0.1-1.1 0.1-2.3 0.5-3.2 0.4-0.9 1-1.6 1.7-1.7 0.7-0.2 1.2 0.2 1.3 0.5 0.2 0.4 0.1 0.7 0.2 0.7 0 0 0.3-0.2 0.2-0.8-0.1-0.2-0.2-0.5-0.6-0.8q-0.5-0.3-1.2-0.3c-1 0.1-1.9 1-2.3 2.1-0.5 1-0.8 2.3-0.7 3.6 0.1 2.6 1.5 5 3.4 5.5 0.9 0.2 1.6-0.1 2-0.4 0.4-0.3 0.5-0.6 0.4-0.6z"/><path class="d" d="m531.9 447.9c-2.6-1.6-4.4-3.8-4.3-6.8-1.7 0.5-3.5-1.7-4.5-3.1-1.1-1.5-2.3-2.2-2.3-4 0-0.4 0-0.7-0.2-1.1-0.2-0.4-0.9-0.6-1.4-0.7-2.8-0.8-5.1-3.1-5.8-5.9-2.8 1.3-5.8 1.9-8.8 1.7-1.3 1.9-3.7 3.2-6 3.1-2.4 0-4.7-1.3-5.9-3.3-0.7 1.6-2.4 2.7-4.1 3.1-1.7 0.5-3.5 0.5-5.3 0.5 0.8 3.4-1.3 7.3-4.7 8.5-0.4 0.1-1 0.3-1.2 0.7-0.2 0.5 0.1 1 0.3 1.4 1.2 3-0.7 6.7-3.7 7.6 2.1 1.5 2 5.3-0.3 6.8-0.4 0.3-1 0.6-0.9 1.2 0 0.2 0.1 0.3 0.3 0.5 0.9 1.3 1.9 2.6 2.1 4.2 0.1 1.6-0.9 3.4-2.5 3.5 0.9 0.7 1.7 1.7 1.7 2.8 0.1 1.1-1 2.3-2.1 1.9-0.4-0.1-6.9-1.2-7.2-1.6-3.7-4.9 0.7-10.5 0.9-16.6 0.2-6.2 2.2-12.2 5.1-17.6 1.3-2.2 2.7-4.4 4.5-6.3 2-2.1 4.5-3.8 6.9-5.4 3.2-2.1 6.5-4.2 10.2-5.2 7-1.8 14.3 0.5 20.8 3.4 2.5 1 5 2.2 7.1 3.9 2.6 2.1 4.5 4.8 6.1 7.6 2.4 4 4.5 8.4 5 13.1"/><path class="f" d="m534.3 443.3c0 0-0.1-0.5-0.7-1.4-0.3-0.4-0.7-0.9-1.1-1.5-0.4-0.6-0.7-1.4-0.8-2.4-0.1-0.9 0-2 0-3.2 0.1-1.2 0.1-2.5-0.2-3.8-0.3-1.4-0.9-2.8-1.8-4q-0.7-1-1.6-1.8c-0.7-0.6-1.4-1-2.1-1.5-0.7-0.4-1.5-0.9-2-1.6-0.6-0.7-0.9-1.5-1.3-2.4-0.8-1.7-1.8-3.4-3.3-4.9-1.4-1.5-3.1-2.8-5.1-3.7-0.9-0.5-2-0.8-3.1-1.1-1.1-0.2-2.2-0.4-3.4-0.3-0.6 0-1.1 0.1-1.7 0.2q-0.9 0.2-1.7 0.3c-1.2 0.3-2.3 0.4-3.5 0.1-1.1-0.2-2.3-0.5-3.5-0.8-1.2-0.3-2.4-0.5-3.7-0.6-1.2-0.1-2.5 0-3.7 0.1q-1.9 0.2-3.8 0.8c-2.4 0.8-4.8 2.3-6.4 4.5q-0.2 0.3-0.4 0.6l0.2-0.1c-4-0.8-8 0.4-11.1 2.6-3.1 2.1-5.3 5.4-6 9l0.1-0.2c-1.5 0.8-3 1.6-4.4 2.5-1.4 1-2.7 2.1-3.6 3.4-1 1.4-1.5 2.9-1.6 4.5-0.1 1.6 0.4 3.2 1.4 4.3v-0.2c-1.8 1.9-2.7 4.4-2.8 6.7-0.2 2.4 0.4 4.6 1.5 6.4 0.2 0.5 0.6 0.9 0.9 1.3 0.3 0.3 0.6 0.7 0.9 1.1q0.4 0.6 0.5 1.2c0 0.5 0 0.9 0 1.4q-0.1 2.7 0.3 4.9c0.2 1.4 0.7 2.7 1.3 3.7 0.7 0.9 1.4 1.6 2.1 2 0.7 0.4 1.3 0.6 1.6 0.8 0.3 0.2 0.5 0.4 0.5 0.4 0 0-0.1-0.2-0.5-0.4-0.3-0.3-0.9-0.5-1.6-0.9-0.6-0.4-1.4-1.1-2-2-0.6-1-1-2.2-1.3-3.7q-0.3-2.1-0.2-4.8c0-0.5 0.1-0.9 0-1.4 0-0.5-0.2-0.9-0.5-1.4-0.3-0.4-0.6-0.7-0.9-1.1q-0.5-0.6-0.9-1.2c-1-1.8-1.6-4-1.4-6.2 0.1-2.3 1-4.7 2.7-6.5l0.1-0.2-0.1-0.1c-0.9-1.1-1.3-2.6-1.2-4.1 0-1.5 0.6-3 1.5-4.3 0.9-1.3 2.1-2.4 3.5-3.3 1.4-0.9 2.9-1.7 4.4-2.5h0.1v-0.1c0.6-3.4 2.8-6.6 5.8-8.7 3-2.1 7-3.3 10.8-2.5h0.1l0.1-0.1q0.2-0.3 0.4-0.6c1.6-2.1 3.8-3.5 6.2-4.3q1.8-0.6 3.7-0.8c1.2-0.1 2.5-0.2 3.7-0.1 1.2 0.1 2.5 0.3 3.6 0.6 1.2 0.2 2.4 0.6 3.6 0.8q0.9 0.2 1.8 0.1 0.9 0 1.7-0.2 0.9-0.2 1.7-0.4c0.6 0 1.2-0.1 1.7-0.1 1.1-0.1 2.3 0 3.3 0.2 1.1 0.3 2.1 0.6 3.1 1.1 1.9 0.9 3.6 2.2 5 3.6 1.4 1.5 2.5 3.1 3.2 4.8 0.4 0.9 0.8 1.7 1.4 2.5 0.6 0.7 1.3 1.2 2 1.7 0.8 0.4 1.5 0.9 2.1 1.4q0.9 0.8 1.6 1.7 1.4 2 1.8 3.9c0.3 1.4 0.3 2.6 0.2 3.8 0 1.2-0.1 2.3 0.1 3.2 0.1 1 0.4 1.8 0.8 2.5 0.4 0.6 0.8 1.1 1.1 1.5q0.5 0.6 0.6 1 0.2 0.3 0.2 0.3z"/><path class="d" d="m502.3 480.9c0.3-0.2 1.6 1.9 4.3 2.4 2.8 0.4 4.9-1.2 5.1-0.9 0.1 0.1-0.3 0.7-1.2 1.3-0.9 0.6-2.5 1.1-4.2 0.9-1.6-0.3-2.8-1.3-3.4-2.1-0.7-0.8-0.7-1.5-0.6-1.6z"/><path class="f" d="m456.9 507.5q0 0-0.3 0.2-0.3 0.1-0.9 0.4c-0.9 0.3-2.3 0.5-4 0.3-1.7-0.2-3.9-1.1-5.5-3.1-1.6-1.9-2.5-4.9-1.7-8l0.4 0.5c-3.2 0-6-2.8-6.7-6.2-0.8-3.4 0.3-7.1 1.7-10.4l0.3 0.6c-4-1.8-7-6.4-6.7-11.3 0.3-3.7 2.3-7.1 5.2-9l-0.1 0.8c-3.6-3.2-4.9-8.2-3.8-12.2 1.1-4.1 4.1-7.1 7.3-8.3l-0.2 0.5c-1.2-2.7-0.9-5.6 0.2-7.7 1-2.1 2.8-3.3 4.2-4 1.5-0.6 2.8-0.7 3.7-0.7 0.8 0 1.3 0.2 1.2 0.2 0.1 0.2-1.8-0.4-4.7 0.9-1.4 0.7-2.9 1.9-3.9 3.9-0.9 2-1.1 4.7 0 7.1l0.2 0.4-0.4 0.1c-2.9 1.2-5.8 4-6.7 7.8-1 3.7 0.3 8.4 3.6 11.2l0.5 0.5-0.5 0.3c-2.7 1.8-4.5 4.9-4.8 8.3-0.3 4.4 2.5 8.6 6.1 10.3l0.5 0.2-0.2 0.4c-1.4 3.4-2.5 6.8-1.8 9.9 0.6 3.1 3.1 5.5 5.8 5.6h0.5l-0.1 0.5c-0.8 2.8 0 5.6 1.4 7.4 1.4 1.9 3.4 2.7 5.1 3 1.6 0.4 2.9 0.1 3.8-0.1 0.9-0.2 1.3-0.4 1.3-0.3z"/><path class="f" d="m478.4 438.8c0 0.1-1.2 0.8-3.4 0.3-1.1-0.2-2.3-0.7-3.4-1.8-1-1-1.8-2.5-2.1-4.2q-0.1-1.1 0.1-2.2l0.6 0.6c-2.9 0.6-5.3-0.9-6.4-2.3-1.1-1.3-1.2-2.5-1.1-2.5 0.1 0 0.4 1 1.6 2.1 1.1 1.1 3.3 2.2 5.7 1.7l0.7-0.2-0.1 0.8q-0.2 0.9 0 1.9c0.2 1.4 0.8 2.8 1.7 3.7 0.9 0.9 1.9 1.4 2.9 1.7 1.9 0.6 3.2 0.2 3.2 0.4z"/><path class="f" d="m504.5 410.2c0 0 0.9-0.4 2.5 0.1 0.7 0.2 1.6 0.7 2.2 1.6 0.7 0.9 1.1 2.2 0.9 3.6l-0.5-0.6c1.3-0.1 2.8 0.2 4.1 1 1.5 1 2.6 2.6 2.9 4.2 0.3 1.6-0.1 3-0.6 4.1-1.1 2.1-2.6 2.6-2.6 2.5-0.2-0.1 1.1-0.8 1.9-2.8 0.4-1 0.6-2.3 0.3-3.6-0.2-1.3-1.2-2.6-2.5-3.5-1.1-0.7-2.3-1-3.4-0.9h-0.6l0.1-0.6c0.1-1.1-0.2-2.1-0.7-2.9-0.5-0.8-1.1-1.3-1.8-1.6-1.3-0.6-2.2-0.4-2.2-0.6z"/><path class="d" d="m490 440.4c-0.1 0-0.3-0.5-0.4-1.3 0-0.8 0.1-2.1 1-3.4 0.9-1.3 2.7-2.4 4.8-2.4 1 0 2.2 0.3 3.1 1.2 0.4 0.4 0.8 1 0.8 1.8 0 0.7-0.6 1.4-1.1 1.7-1.2 0.7-2.6 0.5-3.6 0.1-1.1-0.3-2-1-2.7-1.7-1.5-1.5-1.9-3.5-1.7-5.1 0.3-1.5 0.9-2.6 1.5-3.2 0.6-0.6 1-0.8 1-0.8 0.2 0.1-1.5 1.3-1.7 4.1-0.1 1.4 0.3 3 1.6 4.3 0.6 0.6 1.4 1.2 2.3 1.5 0.9 0.3 1.9 0.3 2.7-0.1 0.8-0.4 0.8-1.3 0.2-1.9-0.6-0.6-1.6-0.9-2.4-0.9-1.8-0.1-3.4 0.8-4.2 1.8-0.8 1.1-1.1 2.2-1.2 3 0 0.8 0.1 1.2 0 1.3z"/><path class="d" d="m532.4 457c0-0.1 1.1 0 2.4-1 0.6-0.5 1.1-1.4 1.1-2.4 0-1.1-0.6-2.3-1.7-2.9l-0.5-0.3 0.5-0.5c1.3-1.2 2.6-2.8 2.8-4.7 0.1-1 0-2-0.5-2.8-0.4-0.7-1.2-1.3-2-1.8-0.7-0.6-1.5-1.1-2.1-1.7-0.7-0.7-1.1-1.4-1.4-2.1-1.2-2.8-0.4-4.7-0.3-4.7 0.2 0-0.3 1.9 1 4.4q0.9 1.9 3.4 3.3c0.8 0.5 1.7 1.1 2.3 2.1 0.6 1 0.8 2.2 0.7 3.4-0.3 2.4-1.9 4.1-3.3 5.4l-0.1-0.8c1.5 0.8 2.1 2.4 2 3.7 0 1.3-0.8 2.3-1.6 2.8-1.6 1.1-2.8 0.7-2.7 0.6z"/><path class="d" d="m429.1 437.8c0-0.1 0.2-0.1 0.4-0.3 0.3-0.2 0.6-0.6 0.6-1.2 0-0.7-0.4-1.4-1.2-1.5-0.8-0.2-1.9 0.3-2.3 1.2-0.4 1-0.2 2.3 0.5 3.3 0.6 1.1 2 1.9 3.4 1.9 1.4 0.1 2.6-1 2.9-2.6 0.4-1.6 0.2-3.4 0.4-5.2 0.2-3.7 0.9-7.3 2.4-10.2 1.4-2.9 3.8-5 5.9-6.1 2.2-1.1 4.3-1.3 5.7-1.1 1.3 0.1 2 0.5 2 0.5 0 0.1-0.8-0.1-2.1-0.1-1.3-0.1-3.2 0.2-5.2 1.4-2 1.1-4.1 3.1-5.5 5.9-1.3 2.7-2 6.1-2.2 9.7-0.1 1.8 0 3.6-0.4 5.4-0.2 0.9-0.6 1.8-1.4 2.5-0.7 0.6-1.7 0.9-2.5 0.9-1.8-0.1-3.3-1.1-4.2-2.4-0.8-1.3-1-2.9-0.3-4.1 0.6-1.3 2-1.8 3-1.5 0.5 0.1 1 0.4 1.2 0.9 0.3 0.4 0.3 0.8 0.3 1.2-0.1 0.7-0.5 1.2-0.9 1.4-0.3 0.1-0.5 0.1-0.5 0.1z"/><path class="b" d="m524.7 536.7c0.2 0.7 14.1 24.4 15.7 36.6 1.7 12.5 1.9 44.5 1.9 44.5l-0.6 25.9 10.9 23.5-79.8-5 1.4-60.3-15.7-63.2 14.7-22.5c0 0 30.2 0.1 32.3 1l12.3 10.6z"/><path class="d" d="m473.4 651.3c0 0 39.1-51.5 45-67.8 8.7-23.9 10.4-48.8-4-61.1-14.4-12.4-33.2-5.3-41 1.4-7.7 6.7-12.9 12-12.9 12l8.9 6c0 0 13.6-29 33.9-21.9 13 4.5 18.4 16.2 17 28.3-1.5 12 0.1 42.6-46.9 87.2l-8.1 12.4z"/><path class="f" d="m603.7 568l-4-3.5-21.4-9.6-44.7 67.3 19 16 4.4 1.1z"/><path class="d" d="m542.1 626.8l48.7-68.7-5-3.2-18-5.3-25.7 38.6z"/><path class="d" d="m596.8 565.1c0.3 0.2-9.4 14.7-21.6 32.4-12.1 17.8-22.2 32-22.4 31.8-0.3-0.1 9.4-14.6 21.6-32.4 12.1-17.7 22.2-31.9 22.4-31.8z"/><path class="f" d="m584.1 555.4c0.2 0.1-9 13.6-20.6 30.1-11.6 16.4-21.2 29.6-21.4 29.5-0.2-0.2 9-13.7 20.6-30.1 11.6-16.5 21.1-29.7 21.4-29.5z"/><path class="g" d="m577.4 571.1c0.1 0.1-0.9 1.8-2.8 4.5-1.8 2.7-4.3 6.4-7.2 10.5-2.9 4.1-5.6 7.7-7.5 10.3-2 2.6-3.3 4.2-3.4 4.1-0.1-0.1 1-1.8 2.8-4.5 1.8-2.7 4.3-6.4 7.2-10.5 2.9-4.1 5.6-7.7 7.5-10.3 2-2.6 3.3-4.2 3.4-4.1z"/><path class="g" d="m589.7 583.7c0.2 0.2-2.4 5-6.2 10.5-3.9 5.5-7.4 9.7-7.6 9.5-0.2-0.2 2.9-4.6 6.7-10.1 3.8-5.5 6.8-10 7.1-9.9z"/><path class="g" d="m593.3 579c0.2 0.2 0.1 0.7-0.3 1.3-0.4 0.5-0.9 0.8-1.2 0.6-0.2-0.2 0-0.7 0.4-1.3 0.4-0.5 0.9-0.8 1.1-0.6z"/><path class="e" d="m519.9 906.1l-0.5 51.1 65.1 0.9c-0.3-6.1-33.8-18.7-33.8-18.7l1.6-32.7z"/><path class="g" d="m530.6 936.3c-1.3 0.4-2.1 1.7-1.9 3 0.3 1.2 1.7 2.1 3 1.8 1.3-0.3 2.4-1.9 2-3.1-0.5-1.2-2.2-2.2-3.3-1.6"/><path class="d" d="m519.4 957.3v-5.5l62.5 3.2c0 0 2.9 1.3 2.5 3.3z"/><path class="d" d="m551.7 939c0 0.4-1.6 0.5-3.1 1.5-1.6 0.9-2.5 2.2-2.8 2.1-0.3-0.1 0.2-1.9 2.2-3.1 1.9-1.1 3.8-0.7 3.7-0.5z"/><path class="d" d="m558.5 941.9c0.1 0.3-1.3 0.8-2.4 2.1-1.1 1.3-1.4 2.7-1.7 2.7-0.3 0-0.5-1.8 0.9-3.4 1.4-1.6 3.2-1.7 3.2-1.4z"/><path class="d" d="m562.3 949.9c-0.3 0.1-0.7-1.5 0.1-3.2 0.8-1.7 2.4-2.3 2.5-2 0.2 0.2-0.8 1.1-1.5 2.5-0.7 1.4-0.8 2.7-1.1 2.7z"/><path class="d" d="m551.3 931.6c-0.2 0.2-1.6-0.2-3.4-0.1-1.8 0-3.2 0.6-3.4 0.3-0.2-0.2 1.2-1.3 3.3-1.4 2.2-0.1 3.6 0.9 3.5 1.2z"/><path class="e" d="m442 873.2l-34.2 38.6 49 41.8c3.8-4.8-13.3-35.6-13.3-35.6l22.9-23.9z"/><path class="g" d="m430.2 903c-1.2-0.6-2.8-0.1-3.4 1.1-0.6 1.1-0.1 2.7 1 3.2 1.2 0.6 3.1 0.1 3.6-1.1 0.5-1.2-0.2-3-1.5-3.3"/><path class="d" d="m407.7 911.9l3.7-4.2 45.5 42c0 0 1.4 2.8-0.2 4z"/><path class="d" d="m444.5 918.4c-0.2 0.3-1.5-0.7-3.4-0.9-1.8-0.3-3.3 0.2-3.5-0.1-0.2-0.2 1.4-1.3 3.7-1 2.2 0.3 3.4 1.9 3.2 2z"/><path class="d" d="m447.8 924.9c-0.2 0.3-1.6-0.2-3.3 0.1-1.7 0.2-2.8 1.1-3.1 0.9-0.2-0.2 0.8-1.7 2.9-2 2.2-0.3 3.6 0.8 3.5 1z"/><path class="d" d="m445.3 933.4c-0.3-0.2 0.4-1.6 2.2-2.4 1.8-0.7 3.3-0.3 3.3 0-0.1 0.3-1.4 0.4-2.8 1-1.5 0.6-2.4 1.6-2.7 1.4z"/><path class="d" d="m449.1 912.4c-0.3 0.1-1.1-1.1-2.6-2.2-1.4-1.1-2.8-1.5-2.8-1.8 0.1-0.3 1.9-0.3 3.5 1 1.7 1.2 2.2 2.9 1.9 3z"/><path class="e" d="m463.9 661.9c0 0-3.6 16.7-12.8 34.2-15.7 29.5-41.2 67.5-45.2 75.6-6.1 12.2 3.8 19.8 27.2 19.4 23.4-0.3 19.5-15.4 37.5-8.9 18 6.5 32.4-9.5 32.4-9.5l13.2-109z"/><path class="d" d="m546.9 671.3l2.2 22.7c0 0 25.7 91.8 22.2 117.3-4.5 32.2-15 118.1-15 118.1l-40.1 1c0 0-0.8-77.3 6.2-110.7 7.5-35.9-15.2-143.7-15.2-143.7z"/><path class="d" d="m539.9 735.7c0.7-10.1 8.8-73.3 8.8-73.3l-74.9-2.7c0 0-5.6 0.3-6.6 9.1 0 0-6.8 14.4-7.3 38-0.5 18.2 11.5 49.9 11.5 49.9 5.7 16.4 17.4 39.7 17.4 39.7l-75.1 91.2 38.7 28.9c0 0 92-93.4 95.5-108.5 5.2-22.7-8.5-64-8-72.3z"/><path class="f" d="m526.2 709.7q0 0 0.2 0.5 0.2 0.5 0.5 1.4 0.7 1.9 1.8 5.3c1.6 4.7 3.7 11.5 6.4 19.7 2.7 8.3 5.8 18.3 8.9 29.5 1.5 5.5 3.1 11.4 4.6 17.5 1.5 6.1 3.1 12.6 2.3 19.4-0.4 3.4-1.4 6.7-3 9.6-1.7 2.9-3.7 5.4-5.6 7.9-4 4.9-8 9.5-11.8 13.8-7.7 8.6-14.9 16.2-21 22.5-6.1 6.3-11.1 11.3-14.6 14.7-1.7 1.7-3.1 3-4 3.9q-0.7 0.6-1.1 1-0.4 0.3-0.4 0.3 0 0 0.3-0.4 0.4-0.4 1-1 1.4-1.5 3.9-4.1c3.5-3.5 8.4-8.6 14.4-14.9 6-6.4 13.1-14 20.8-22.6 3.8-4.4 7.8-8.9 11.7-13.9 1.9-2.4 3.9-5 5.5-7.7 1.5-2.8 2.5-6 2.9-9.2 0.8-6.5-0.8-13-2.3-19-1.5-6.1-3-12-4.5-17.6-3.1-11.1-6.1-21.1-8.7-29.5-2.5-8.3-4.6-15-6.1-19.8q-1-3.4-1.6-5.4-0.2-0.8-0.4-1.4-0.1-0.5-0.1-0.5z"/><path class="m" d="m549.5 658.6l3.1 16.2-86.3 7.4c0 0 0.7-14.8 2.1-20.2 1.4-5.4 81.1-3.4 81.1-3.4z"/><path class="d" d="m470.9 536.8c0 0-17-6.7-26.6-4.9-9.6 1.8-33.6 27.5-37.6 35.8-4.1 8.4-18.5 57.1-20.3 67.7-1.9 10.6 0.6 29.3 9 34.1 7.8 4.4 38.6 14.7 56.3 12.6q0.2 0 0.5-0.1c12.2-1.5 21.2-11.8 21.2-23.8v-99.1z"/><path class="n" d=""/><path class="e" d="m402.6 775.1c20.3-34 39.6-70.3 63.1-102.5 2.5-3.5 9.4-3 13.2-5.3 5-3 11.8-3.3 17.2-0.8l20.1 9.6c-21.2 19.7-44.9 33.5-62.3 56.5-12.9 17-18.7 38.1-16.1 58.5q-13.5-0.9-27-1.9c-3.7-0.3-7.9-0.8-9.9-3.6-2.2-3.2-0.3-7.2 1.7-10.5z"/><path class="d" d="m468.9 716.9c0.1 0.1-0.7 0.9-2.1 2.4-0.7 0.7-1.6 1.6-2.6 2.7-0.9 1.1-2.1 2.3-3.2 3.7-2.3 2.8-5 6.3-7.6 10.4-2.6 4-5.3 8.6-7.6 13.7-2.4 5-4.2 10-5.6 14.6-1.3 4.7-2.3 8.9-2.9 12.5-0.4 1.8-0.6 3.4-0.8 4.9-0.2 1.4-0.3 2.7-0.4 3.7-0.2 2-0.3 3.1-0.4 3.1-0.1 0-0.1-1.1 0-3.2 0-1 0.1-2.2 0.3-3.7 0.1-1.4 0.2-3.1 0.6-4.9 0.5-3.7 1.4-8 2.7-12.6 1.4-4.7 3.2-9.8 5.5-14.9 2.4-5.1 5.1-9.7 7.8-13.8 2.7-4 5.4-7.5 7.8-10.2 1.2-1.4 2.4-2.6 3.4-3.7 1-1 1.9-1.9 2.7-2.6 1.5-1.4 2.4-2.1 2.4-2.1z"/><path class="f" d="m460.1 534.6c0.1 0-0.5 0.9-1.5 2.5-1.1 1.6-2.7 3.9-4.8 6.7-4.1 5.6-9.9 13.1-16.8 21.1-3.5 3.9-6.5 8-10.6 10.6-1.9 1.2-4.2 1.9-6.3 2-2 0.1-3.9 0.3-5.6 0.3-3.5 0-6.4-0.6-8.1-1.6-0.8-0.5-1.4-1-1.8-1.4q-0.5-0.5-0.5-0.6c0.1 0 0.8 0.8 2.5 1.6 1.7 0.8 4.5 1.4 7.9 1.2 1.7 0 3.6-0.2 5.6-0.4 2-0.1 4-0.7 5.8-2 3.8-2.4 6.8-6.4 10.3-10.4 6.9-8 12.8-15.4 17-20.8 2-2.7 3.7-4.8 5-6.5 1.2-1.5 1.9-2.4 1.9-2.3z"/><path class="f" d="m474.1 654c0 0-1.3 0-3.5-0.2-2.3-0.2-5.6-0.6-9.6-1.1-8.1-1-19.3-2.6-31.5-4.9-12.2-2.4-23.2-5-31-7.1-4-1-7.1-1.9-9.3-2.6-2.2-0.6-3.4-1-3.4-1.1 0 0 1.3 0.2 3.5 0.8 2.4 0.5 5.5 1.3 9.3 2.2 8 1.9 18.9 4.4 31.1 6.7 12.2 2.4 23.3 4.1 31.4 5.3 3.9 0.6 7.1 1 9.5 1.4 2.3 0.3 3.5 0.5 3.5 0.6z"/><path class="f" d="m433.4 568.7c0.1 0 0.2 1.1 0.3 3.1 0.1 2 0.2 4.9 0.3 8.5 0 7.1-0.3 16.9-1.3 27.8-1.1 10.8-2.8 20.5-4.3 27.5-0.7 3.5-1.4 6.3-1.9 8.2-0.5 1.9-0.8 3-0.9 3 0 0 0.2-1.1 0.5-3.1 0.4-2.1 1-4.9 1.6-8.3 1.3-6.9 2.8-16.7 3.9-27.4 1.1-10.8 1.5-20.6 1.6-27.8 0.1-3.4 0.1-6.2 0.1-8.4 0-2 0.1-3.1 0.1-3.1z"/><path class="d" d="m442.4 536.7q-2.1-3.4-3.5-7.1c-0.2-0.5-0.4-1.1-0.2-1.7 0.2-0.8 1-1.4 1.7-1.8 4.4-2.3 9.6-3.3 14.5-2.8 1.1 0.1 2.1 0.2 3 0.8 1.6 1.2 1.9 3.5 1.5 5.4-0.4 1.9-1.4 3.8-1.6 5.7q-1.4-0.3-2.7-0.6 0.6-3.3 1.1-6.6c0.1-0.7 0.2-1.6-0.2-2.2-0.6-1-2-1-3.1-0.9q-4.2 0.2-8.3 0.8c-1.3 0.2-2.9 0.6-3.3 1.9-0.3 0.8 0.1 1.7 0.5 2.6 1.1 2.1 2.5 4.2 4.3 5.9"/><path class="f" d="m420.6 573.3l-5.2 0.3c-0.3 0.3-0.3 0.7-0.4 1q-0.2 1.5-0.4 3c-0.1 1-0.2 2 0 3 0.2 1 0.9 1.9 1.8 2.2 1.3 0.4 2.7-0.6 3.3-1.8 0.6-1.1 0.8-2.5 0.9-3.8 0-1.3 0-2.4 0-3.9z"/><path class="f" d="m431.4 615c-0.1 0.1-2.2 0-5.5-0.5-3.4-0.5-8-1.4-13.1-2.5-5.1-1.2-9.6-2.5-12.9-3.5-3.2-1-5.2-1.8-5.1-1.9 0-0.1 2 0.4 5.3 1.2 3.3 0.8 7.9 2 12.9 3.1 5.1 1.2 9.7 2.1 13 2.8 3.3 0.7 5.4 1.2 5.4 1.3z"/><path class="o" d="m424.7 590c-1.3-1-3.8-0.6-4.7-0.1-2.6 1.4-4 3.6-4 3.6 0 0-0.8-2.1-2.3-4.3-0.5-0.8-2-2-3.5-2.3-1.8-0.4-3.7 0.9-4.3 2.7-0.7 2.3 0.3 4.9 1.5 7.1 1.6 2.8 3.1 5.6 5.2 8.1 0.7 0.9 2 1 2.9 0.4 3.3-2.6 6.3-5.5 8.9-8.7 0.8-1 1.6-2.1 1.9-3.3 0.2-1.3-0.6-2.4-1.6-3.2z"/><path class="g" d="m459.3 584.2c0 0 0.4 0.3 0.9 1.2 0.4 0.9 0.8 2.5 0.1 4.4-0.4 0.9-0.9 1.8-1.9 2.6-0.9 0.7-2.3 1.1-3.7 0.9-1.4-0.2-2.8-0.9-4-2-0.6-0.6-1.1-1.3-1.3-2.1-0.3-0.9-0.3-1.9 0.2-2.7v-0.1c0.5-0.5 1.3-0.4 1.7-0.2 0.5 0.2 0.9 0.5 1.3 0.9 0.8 0.6 1.4 1.4 2.1 2.2 1.2 1.6 2.4 3.4 3.3 5.5 0.8 2.2 0.8 4.7-0.1 7-0.5 1.2-1.3 2.3-2.3 3.1-1 0.8-2.4 1.3-3.7 1.2-1.4 0-2.7-0.3-3.9-1.1-1.2-0.7-2.2-2-2.4-3.4-0.1-0.8 0-1.6 0.4-2.3 0.3-0.7 1.3-1.3 2.2-1.1 0.8 0.1 1.4 0.6 2 1q0.8 0.6 1.6 1.3c2.1 1.9 4 4.2 4.8 7.1 0.8 2.9 0.4 6.3-1.7 8.7-2 2.3-5.4 3-8.2 2-1.3-0.6-2.6-1.6-3.1-3.1-0.2-0.7-0.3-1.5 0-2.3 0.4-0.8 1.1-1.4 1.9-1.5 1.6-0.3 2.9 0.4 4 1.2q1.7 1.1 3 2.5c1.8 1.9 3.3 4.1 3.9 6.6 1.3 4.9-1.6 10.4-6.1 11.7-2.3 0.6-4.6-0.1-6.3-1.3-1.7-1.2-2.9-3.2-2.7-5.2 0-1 0.4-2 1.1-2.7 0.7-0.7 1.8-0.9 2.7-0.6 1.7 0.6 2.7 2.2 3.3 3.5 1.3 2.7 1.6 5.2 1.6 7.3 0 2.1-0.3 3.7-0.7 4.7q-0.2 0.8-0.4 1.2-0.2 0.4-0.2 0.4c-0.1-0.1 1-2.2 0.9-6.3 0-2-0.5-4.5-1.7-7.1-0.6-1.2-1.6-2.6-3-3.1-0.7-0.2-1.5 0-2 0.5-0.5 0.5-0.9 1.4-0.9 2.2-0.2 3.5 4.2 6.7 8.1 5.6 3.9-1.1 6.6-6.1 5.3-10.6-0.5-2.2-1.9-4.3-3.6-6.1q-1.3-1.3-2.8-2.4c-1-0.7-2.3-1.3-3.3-1-1.1 0.2-1.5 1.4-1.1 2.5 0.3 1.1 1.3 2 2.5 2.4 2.3 0.9 5.3 0.3 7-1.7 1.8-2.1 2.2-5.1 1.5-7.7-0.7-2.6-2.5-4.8-4.5-6.6q-0.7-0.7-1.5-1.3c-0.6-0.4-1.1-0.8-1.6-0.8-0.9-0.2-1.6 1.1-1.4 2.2 0.3 2.4 3 3.8 5.3 3.8 2.3 0.1 4.3-1.7 5.1-3.7 0.9-2.1 0.9-4.4 0.2-6.4-0.8-2-2-3.8-3.1-5.3-0.7-0.8-1.3-1.6-2-2.2-0.6-0.6-1.6-1.1-1.9-0.7v-0.1c-0.8 1.4 0 3 1 4.1 1 1 2.3 1.6 3.6 1.8 1.2 0.3 2.4-0.1 3.3-0.7q1.4-1 1.8-2.4c0.7-1.7 0.5-3.2 0.1-4.1-0.4-0.9-0.8-1.3-0.7-1.3z"/><path class="g" d="m469.3 626.8c0.2 0.2-1.3 2.3-3.4 4.8-2.1 2.4-4 4.2-4.2 4-0.3-0.2 1.3-2.3 3.4-4.7 2.1-2.5 4-4.3 4.2-4.1z"/><path class="d" d="m470.9 536.8c0 0-17-6.7-26.6-4.9-9.6 1.8-33.6 27.5-37.6 35.8-4.1 8.4-18.5 57.1-20.3 67.7-1.9 10.6 0.6 29.3 9 34.1 7.8 4.4 38.6 14.7 56.3 12.6q0.2 0 0.5-0.1c12.2-1.5 21.2-11.8 21.2-23.8v-99.1z"/><path class="f" d="m460.1 534.6c0.1 0-0.5 0.9-1.5 2.5-1.1 1.6-2.7 3.9-4.8 6.7-4.1 5.6-9.9 13.1-16.8 21.1-3.5 3.9-6.5 8-10.6 10.6-1.9 1.2-4.2 1.9-6.3 2-2 0.1-3.9 0.3-5.6 0.3-3.5 0-6.4-0.6-8.1-1.6-0.8-0.5-1.4-1-1.8-1.4q-0.5-0.5-0.5-0.6c0.1 0 0.8 0.8 2.5 1.6 1.7 0.8 4.5 1.4 7.9 1.2 1.7 0 3.6-0.2 5.6-0.4 2-0.1 4-0.7 5.8-2 3.8-2.4 6.8-6.4 10.3-10.4 6.9-8 12.8-15.4 17-20.8 2-2.7 3.7-4.8 5-6.5 1.2-1.5 1.9-2.4 1.9-2.3z"/><path class="f" d="m474.1 654c0 0-1.3 0-3.5-0.2-2.3-0.2-5.6-0.6-9.6-1.1-8.1-1-19.3-2.6-31.5-4.9-12.2-2.4-23.2-5-31-7.1-4-1-7.1-1.9-9.3-2.6-2.2-0.6-3.4-1-3.4-1.1 0 0 1.3 0.2 3.5 0.8 2.4 0.5 5.5 1.3 9.3 2.2 8 1.9 18.9 4.4 31.1 6.7 12.2 2.4 23.3 4.1 31.4 5.3 3.9 0.6 7.1 1 9.5 1.4 2.3 0.3 3.5 0.5 3.5 0.6z"/><path class="f" d="m433.4 568.7c0.1 0 0.2 1.1 0.3 3.1 0.1 2 0.2 4.9 0.3 8.5 0 7.1-0.3 16.9-1.3 27.8-1.1 10.8-2.8 20.5-4.3 27.5-0.7 3.5-1.4 6.3-1.9 8.2-0.5 1.9-0.8 3-0.9 3 0 0 0.2-1.1 0.5-3.1 0.4-2.1 1-4.9 1.6-8.3 1.3-6.9 2.8-16.7 3.9-27.4 1.1-10.8 1.5-20.6 1.6-27.8 0.1-3.4 0.1-6.2 0.1-8.4 0-2 0.1-3.1 0.1-3.1z"/><path class="d" d="m442.4 536.7q-2.1-3.4-3.5-7.1c-0.2-0.5-0.4-1.1-0.2-1.7 0.2-0.8 1-1.4 1.7-1.8 4.4-2.3 9.6-3.3 14.5-2.8 1.1 0.1 2.1 0.2 3 0.8 1.6 1.2 1.9 3.5 1.5 5.4-0.4 1.9-1.4 3.8-1.6 5.7q-1.4-0.3-2.7-0.6 0.6-3.3 1.1-6.6c0.1-0.7 0.2-1.6-0.2-2.2-0.6-1-2-1-3.1-0.9q-4.2 0.2-8.3 0.8c-1.3 0.2-2.9 0.6-3.3 1.9-0.3 0.8 0.1 1.7 0.5 2.6 1.1 2.1 2.5 4.2 4.3 5.9"/><path class="f" d="m420.6 573.3l-5.2 0.3c-0.3 0.3-0.3 0.7-0.4 1q-0.2 1.5-0.4 3c-0.1 1-0.2 2 0 3 0.2 1 0.9 1.9 1.8 2.2 1.3 0.4 2.7-0.6 3.3-1.8 0.6-1.1 0.8-2.5 0.9-3.8 0-1.3 0-2.4 0-3.9z"/><path class="f" d="m431.4 615c-0.1 0.1-2.2 0-5.5-0.5-3.4-0.5-8-1.4-13.1-2.5-5.1-1.2-9.6-2.5-12.9-3.5-3.2-1-5.2-1.8-5.1-1.9 0-0.1 2 0.4 5.3 1.2 3.3 0.8 7.9 2 12.9 3.1 5.1 1.2 9.7 2.1 13 2.8 3.3 0.7 5.4 1.2 5.4 1.3z"/><path class="p" d="m424.7 590c-1.3-1-3.8-0.6-4.7-0.1-2.6 1.4-4 3.6-4 3.6 0 0-0.8-2.1-2.3-4.3-0.5-0.8-2-2-3.5-2.3-1.8-0.4-3.7 0.9-4.3 2.7-0.7 2.3 0.3 4.9 1.5 7.1 1.6 2.8 3.1 5.6 5.2 8.1 0.7 0.9 2 1 2.9 0.4 3.3-2.6 6.3-5.5 8.9-8.7 0.8-1 1.6-2.1 1.9-3.3 0.2-1.3-0.6-2.4-1.6-3.2z"/><path class="g" d="m459.3 584.2c0 0 0.4 0.3 0.9 1.2 0.4 0.9 0.8 2.5 0.1 4.4-0.4 0.9-0.9 1.8-1.9 2.6-0.9 0.7-2.3 1.1-3.7 0.9-1.4-0.2-2.8-0.9-4-2-0.6-0.6-1.1-1.3-1.3-2.1-0.3-0.9-0.3-1.9 0.2-2.7v-0.1c0.5-0.5 1.3-0.4 1.7-0.2 0.5 0.2 0.9 0.5 1.3 0.9 0.8 0.6 1.4 1.4 2.1 2.2 1.2 1.6 2.4 3.4 3.3 5.5 0.8 2.2 0.8 4.7-0.1 7-0.5 1.2-1.3 2.3-2.3 3.1-1 0.8-2.4 1.3-3.7 1.2-1.4 0-2.7-0.3-3.9-1.1-1.2-0.7-2.2-2-2.4-3.4-0.1-0.8 0-1.6 0.4-2.3 0.3-0.7 1.3-1.3 2.2-1.1 0.8 0.1 1.4 0.6 2 1q0.8 0.6 1.6 1.3c2.1 1.9 4 4.2 4.8 7.1 0.8 2.9 0.4 6.3-1.7 8.7-2 2.3-5.4 3-8.2 2-1.3-0.6-2.6-1.6-3.1-3.1-0.2-0.7-0.3-1.5 0-2.3 0.4-0.8 1.1-1.4 1.9-1.5 1.6-0.3 2.9 0.4 4 1.2q1.7 1.1 3 2.5c1.8 1.9 3.3 4.1 3.9 6.6 1.3 4.9-1.6 10.4-6.1 11.7-2.3 0.6-4.6-0.1-6.3-1.3-1.7-1.2-2.9-3.2-2.7-5.2 0-1 0.4-2 1.1-2.7 0.7-0.7 1.8-0.9 2.7-0.6 1.7 0.6 2.7 2.2 3.3 3.5 1.3 2.7 1.6 5.2 1.6 7.3 0 2.1-0.3 3.7-0.7 4.7q-0.2 0.8-0.4 1.2-0.2 0.4-0.2 0.4c-0.1-0.1 1-2.2 0.9-6.3 0-2-0.5-4.5-1.7-7.1-0.6-1.2-1.6-2.6-3-3.1-0.7-0.2-1.5 0-2 0.5-0.5 0.5-0.9 1.4-0.9 2.2-0.2 3.5 4.2 6.7 8.1 5.6 3.9-1.1 6.6-6.1 5.3-10.6-0.5-2.2-1.9-4.3-3.6-6.1q-1.3-1.3-2.8-2.4c-1-0.7-2.3-1.3-3.3-1-1.1 0.2-1.5 1.4-1.1 2.5 0.3 1.1 1.3 2 2.5 2.4 2.3 0.9 5.3 0.3 7-1.7 1.8-2.1 2.2-5.1 1.5-7.7-0.7-2.6-2.5-4.8-4.5-6.6q-0.7-0.7-1.5-1.3c-0.6-0.4-1.1-0.8-1.6-0.8-0.9-0.2-1.6 1.1-1.4 2.2 0.3 2.4 3 3.8 5.3 3.8 2.3 0.1 4.3-1.7 5.1-3.7 0.9-2.1 0.9-4.4 0.2-6.4-0.8-2-2-3.8-3.1-5.3-0.7-0.8-1.3-1.6-2-2.2-0.6-0.6-1.6-1.1-1.9-0.7v-0.1c-0.8 1.4 0 3 1 4.1 1 1 2.3 1.6 3.6 1.8 1.2 0.3 2.4-0.1 3.3-0.7q1.4-1 1.8-2.4c0.7-1.7 0.5-3.2 0.1-4.1-0.4-0.9-0.8-1.3-0.7-1.3z"/><path class="g" d="m469.3 626.8c0.2 0.2-1.3 2.3-3.4 4.8-2.1 2.4-4 4.2-4.2 4-0.3-0.2 1.3-2.3 3.4-4.7 2.1-2.5 4-4.3 4.2-4.1z"/><path class="g" d="m468.3 635.8c-0.3 0.1-1.8-2-3.2-4.8-1.5-2.8-2.2-5.3-2-5.4 0.3-0.1 1.5 2.2 2.9 4.9 1.4 2.8 2.5 5.1 2.3 5.3z"/><path class="d" d="m476.3 570.2q0-0.1 0.8-0.1 0.9 0 2.3-0.1 3.2 0 8.7-0.3c7.5-0.1 18.2-0.7 31-0.3l-0.5 0.6c-1.2-5.7-1.1-11.9-1.2-18.4 0-6.5-0.4-13.5-3.2-19.9-2.3-5-6.2-9.3-11.1-11-4.9-1.7-10.3-1.3-14.5 0.9-4.3 2.1-7.3 5.9-9.1 9.7-1.9 3.9-2.8 7.9-3.1 11.5-0.7 7.3-0.1 13.3-0.1 17.4 0 2.1-0.1 3.7-0.1 4.8q-0.1 1.6-0.2 1.7 0-0.1 0-1.7c0-1.1-0.1-2.7-0.2-4.8 0-4.1-0.7-10.1-0.2-17.5 0.4-3.7 1.2-7.8 3.1-11.8 1.9-3.9 4.9-7.9 9.4-10.2 4.5-2.3 10.1-2.7 15.3-0.9 5.2 1.8 9.4 6.2 11.7 11.5 3 6.6 3.3 13.8 3.3 20.2 0.1 6.6 0 12.8 1.1 18.3l0.2 0.6h-0.6c-12.8-0.6-23.5-0.2-31-0.1-3.7 0-6.7 0-8.7 0q-1.4 0-2.3-0.1-0.8 0-0.8 0z"/><path class="k" d="m477.1 570c0 0.9 2.4 71.5 5.5 79.7 3.1 8.2 14.3 15.8 24.5 15.1 10.3-0.6 62.6-17.1 62.6-17.1l7.7-18.3-61.8-0.1 0.3-59.9z"/><path class="k" d="m577.9 610c0 0 6.6 1.8 7.7 4.8 1.2 3.1 1.7 5.8 2.9 9.5 1.2 3.7-1.6 13.1-2.8 15.7-1.2 2.6-21.6 9.7-21.6 9.7l-3.3-13.4 14-6v-5.8z"/><path class="k" d="m578.6 613.3c0 0 1-3 0-4.5-1-1.5-3.7-1.9-5.6-1.1-1.9 0.9-5.2 2.9-5 4.2 0.3 1.3 0.7 2.1 0.7 2.1 0 0-7.4-3-9-3.3-1.7-0.4-5.6 1.3-4.5 4.1l0.4 0.7c0 0-2.3-1.8-4.5-0.3-2.3 1.5-2 4.4-0.9 5.9 0 0-3.9-0.1-4 3.2-0.1 3.3 0.8 3.3 0.8 3.3 0 0-2.5 1.2-1.6 4.8 0.4 1.9 11.5 8.6 15.1 7.5 3.5-1.1 4.2-3.3 5.5-3.7 1.4-0.5 4.2-1.9 4.9-3.3 0.8-1.3 3.8-2.7 4.1-4.7 0.3-1.9 1.7-4.4 1.9-7.1 0.1-2.7 0.9-6.3 0.9-6.3z"/><path class="l" d="m578.6 613.3c0.1 0-0.2 0.5-0.7 1.6v-0.1c-0.3 1.5-0.7 4-0.9 7.4-0.2 1.7-1 3.5-1.5 5.5l-0.2 0.7q-0.1 0.5-0.3 0.9c-0.3 0.5-0.7 0.9-1.1 1.4-0.8 0.8-1.9 1.4-2.5 2.3-0.7 1.2-1.9 1.9-3 2.6q-0.9 0.5-1.9 0.8c-0.3 0.2-0.5 0.2-0.8 0.4q-0.3 0.3-0.7 0.7c-0.9 1-2.1 2-3.5 2.5-0.7 0.3-1.6 0.6-2.4 0.5-0.8-0.1-1.5-0.3-2.3-0.5-2.9-0.9-5.7-2.4-8.5-4.2q-1-0.7-2-1.5c-0.3-0.3-0.6-0.5-0.9-0.9-0.3-0.2-0.6-1-0.6-1.3-0.4-1.7 0.1-3.9 1.9-5l0.2 1c-0.5-0.1-0.6-0.3-0.7-0.5-0.5-0.9-0.5-1.7-0.6-2.4 0-0.8 0-1.7 0.4-2.5 0.4-0.8 1.1-1.3 1.9-1.6 0.7-0.4 1.5-0.5 2.3-0.5l-0.4 0.8c-1.3-1.8-1.3-4.5 0.3-6.1 0.8-0.7 1.9-1.2 2.9-1.2 1.1 0.1 2.1 0.4 2.9 1l-0.7 0.7q-0.2-0.4-0.4-0.8c-0.4-0.9-0.3-2 0.2-2.7 0.5-0.8 1.2-1.3 1.9-1.6 0.8-0.4 1.5-0.6 2.4-0.5 0.9 0 1.5 0.3 2.2 0.5 2.6 1 5.1 2 7.4 3l-0.5 0.5c-0.4-0.8-0.6-1.5-0.7-2.2-0.1-0.6 0.2-1 0.4-1.3q0.3-0.5 0.8-0.8c1-0.9 2.2-1.6 3.3-2.2 2.2-1.2 4.8-0.8 6.1 0.4 0.7 0.6 0.9 1.5 0.9 2.2 0.1 0.7 0 1.2-0.1 1.7-0.2 0.9-0.4 1.3-0.5 1.3 0 0 0.1-0.5 0.2-1.4 0.1-0.4 0.2-1 0.1-1.6 0-0.6-0.2-1.4-0.9-1.9-1.2-0.9-3.5-1.3-5.5-0.1-1.1 0.6-2.2 1.2-3.2 2.1-0.4 0.4-1 1-0.9 1.4 0.1 0.7 0.4 1.4 0.7 2l0.4 1-0.9-0.4c-2.3-0.9-4.8-1.9-7.4-2.8-0.7-0.2-1.4-0.5-2-0.5-0.6 0-1.3 0.1-1.9 0.4-0.6 0.3-1.2 0.8-1.5 1.3-0.3 0.5-0.4 1.2-0.1 1.8l-0.1-0.1q0.2 0.4 0.4 0.8l1.1 1.9-1.8-1.3c-0.6-0.4-1.5-0.8-2.3-0.8-0.8 0-1.6 0.4-2.2 1-1.2 1.1-1.2 3.3-0.2 4.7l0.6 0.8h-1c-1.3 0-2.8 0.5-3.3 1.6-0.2 0.5-0.2 1.2-0.2 1.9 0 0.7 0.1 1.5 0.3 1.9q0.1 0.1 0.1 0.1c0 0 0 0-0.1 0.1v0.1 0.1-0.3l0.2 1c-1.2 0.7-1.7 2.3-1.4 3.8 0.1 0.5 0.1 0.5 0.4 0.9 0.2 0.2 0.5 0.5 0.8 0.7q0.9 0.8 1.9 1.5c2.7 1.7 5.4 3.2 8.2 4.1 0.7 0.2 1.4 0.4 2.1 0.4 0.7 0.1 1.2-0.1 1.9-0.3 1.3-0.5 2.3-1.4 3.3-2.4 0.2-0.2 0.5-0.5 0.8-0.7 0.3-0.3 0.8-0.4 1-0.5q0.9-0.3 1.8-0.8c1.1-0.6 2.1-1.2 2.7-2.2 0.9-1.1 1.9-1.7 2.7-2.5 0.4-0.4 0.7-0.8 1-1.2 0.2-0.4 0.3-0.8 0.4-1.4 0.6-2.1 1.4-3.8 1.7-5.4 0.3-3.4 0.8-5.9 1.1-7.3h0.1c0.6-1.1 0.9-1.5 0.9-1.5z"/><path class="l" d="m552.7 633.5c-0.1 0.2-2-0.7-3.7-2.5-1.8-1.9-2.5-3.8-2.2-4 0.2-0.1 1.3 1.5 2.9 3.3 1.7 1.7 3.2 2.9 3 3.2z"/><path class="l" d="m558.9 628.4c-0.2 0.2-2.1-1.5-4.4-3.6-2.4-2-4.3-3.7-4.1-3.9 0.1-0.2 2.4 1.1 4.8 3.2 2.4 2.1 3.9 4.1 3.7 4.3z"/><path class="l" d="m567.8 623.1c-0.1 0.2-3.1-1-6.6-3-3.4-2.1-5.9-4.1-5.7-4.3 0.1-0.3 2.9 1.4 6.3 3.4 3.4 2 6.1 3.6 6 3.9z"/><path class="l" d="m575.9 615.6c0.1 0.3-1.6 1.1-3.8 0.6-2.2-0.5-3.4-2-3.1-2.2 0.2-0.2 1.4 0.8 3.3 1.2 1.9 0.5 3.5 0.2 3.6 0.4z"/><path class="l" d="m504.2 641c-0.2-0.1 0.6-4.1 4.2-7.4 3.4-3.4 7.5-4.2 7.5-3.9 0.1 0.3-3.6 1.5-6.8 4.6-3.3 3.2-4.6 6.8-4.9 6.7z"/><path class="l" d="m490.9 472.4h-0.2c-0.4 0.2-0.5 0.7-0.3 1 0.3 0.3 0.9 0.2 1.1-0.1 0.1-0.4-0.2-0.9-0.6-0.9z"/><path class="l" d="m489.6 477.5h-0.3c-0.4 0.2-0.5 0.7-0.2 1 0.3 0.3 0.8 0.2 1-0.2 0.2-0.3-0.1-0.8-0.5-0.8z"/><path class="l" d="m518.3 479.2l-0.3 0.1c-0.4 0.1-0.5 0.7-0.2 1 0.3 0.2 0.8 0.2 1-0.2 0.2-0.4-0.1-0.8-0.5-0.9z"/><path class="p" d="m557 688.8c-1.3-5.1-5-13.8-10-15.8l-0.7 14.5c1.4 12.5 4.2 24.8 8.3 36.7 4.7-11.1 5.6-23.8 2.4-35.4z"/><path class="e" d="m535.6 704.1c1.6-12.4 7.1-24.4 6.6-36.9l6.4 5.8c6.1 13.3 7.7 28.1 8.2 42.6 0.4 14.6-0.2 29.2 1.7 43.7-2.3-0.2-4.6 0.5-6.9 0.8-2.2 0.3-4.9 0.1-6.4-1.5-0.8-0.9-1.2-2.1-1.6-3.3-5.1-16.6-10.3-33.9-8-51.2z"/><path class="e" d="m540.4 666.9c0 5 3.9 9 8.6 9 4.7 0 8.6-4 8.6-9 0-4.9-3.9-8.9-8.6-8.9-4.7 0-8.6 4-8.6 8.9z"/><path class="d" d="m551.6 658.2c0 0-0.5-0.2-1.5-0.4-0.9-0.2-2.5-0.3-4.2 0.4-1.8 0.5-3.6 2-4.8 4.1-1.1 2.1-1.8 4.9-0.9 7.6 0.8 2.6 2.6 4.9 4.9 5.9 2.2 1.2 4.6 1.1 6.3 0.5 1.8-0.5 3-1.4 3.7-2.1 0.7-0.7 0.9-1.3 0.8-1.3-0.1-0.2-1.4 1.8-4.7 2.6-1.6 0.4-3.7 0.4-5.6-0.7-1.9-0.9-3.5-2.9-4.2-5.3-0.8-2.3-0.2-4.7 0.8-6.7 0.9-1.9 2.5-3.2 4-3.8 1.5-0.7 2.9-0.8 3.9-0.7 1 0 1.5 0 1.5-0.1z"/><path class="d" d="m550 675.5c0.1-0.1 0.4 0.6 0.8 1.8q0.7 1.8 1.8 5.1c1.3 4.5 2.9 10.7 3.8 17.6 0.9 7 1.1 13.4 1 18-0.1 2.3-0.2 4.2-0.3 5.4-0.1 1.3-0.2 2-0.3 2-0.2 0-0.1-2.8-0.1-7.4-0.1-4.6-0.4-10.9-1.3-17.8-1-6.9-2.4-13.1-3.5-17.6-1.2-4.4-2-7.1-1.9-7.1z"/></svg>