<svg version="1.2" xmlns="http://www.w3.org/2000/svg" viewBox="0 0 5000 2764" width="5000" height="2764">
	<title>wxw4-ai</title>
	<style>
		.s0 { fill: #b3b3b3 } 
	</style>
	<g id="Layer 1">
		<g id="&lt;Group&gt;">
			<path id="&lt;Compound Path&gt;" fill-rule="evenodd" class="s0" d="m0 1468.5c230.8-100.1 557.8-98 1021.2 113.2 20.6 7.8 41.4 15.9 62.5 24.5 22.8 7.4 46.1 15.4 69.5 23.7 22.2 5.9 44.5 12.1 67.2 18.7 20.7 4.2 41.7 8.7 62.9 13.4 22 2.8 44.2 5.7 66.7 8.9q29.8 1.1 60.1 2.5c20-1.4 40.2-2.7 60.5-4q28.8-5.6 57.9-11.3 27.2-9.3 54.4-19 26.4-13.8 52.7-28.3 23.9-17.9 47.6-36.8c15.4-16 30.7-32.3 45.9-49.3q19.7-27.7 38.9-57.1 19.5-37.1 38.2-76.7c9.5-25 18.7-51 27.7-77.5 9.4-35 18.4-71.3 27.1-108.6 5.8-32.4 11.1-65.7 16.2-99.9 5-46.4 9.3-94.8 13.1-144.2 1.8-38.7 3.2-78.2 4.1-119.1l0.2-5.6c0-20.5 0.1-40.6-0.2-61.8l-0.5-79.2c-4.5-96.3-9-190.2-13.3-281.3-6.8-145.2-13.3-282.9-19.3-413.6h2.4c6 130.6 12.5 268.3 19.3 413.5 3.4 72 6.9 145.9 10.4 221.9l-0.7-105.4c-1.4-189.3-2.7-365.7-3.4-530h2.4c0.7 164.2 1.9 340.7 3.3 530q0.6 80.8 1.2 164.8l0.6 11.8c0.6 13.7 0.9 26.5 1.4 39.9q3.4-86.1 6.7-168.7c8.2-208.5 15.8-400.8 23.7-577.8h2.3c-7.8 177-15.4 369.3-23.7 577.9q-3.8 97.4-7.9 199.6c0.8 19.6 1.6 39.3 2.1 58.3 9.1-95.2 17.9-187.2 26.3-276.1 19.2-202.5 36.9-388.8 54.2-559.7h2.4c-17.4 170.9-35 357.3-54.3 560-8.9 94.3-18.2 192.2-27.9 293.7 0.6 22.9 1 45.1 1.4 67.3 25-152.5 48.2-296.8 70-433.1 28.2-175.6 54.3-338.1 79.5-487.9h2.4c-25.2 149.9-51.3 312.5-79.5 488.3-22.5 140.3-46.4 289-72.2 446.1 0.4 23.1 0.8 46.1 0.9 68.4 55.5-222.8 104.4-428.9 149.4-618.4 32.4-136.8 62.8-264.8 92.2-384.4h2.4c-29.4 119.7-59.8 248-92.3 384.9-45.6 191.9-95.1 400.8-151.6 627.2 0.1 24 0 47.4-0.1 70.8 105.9-295.9 192.9-564.6 270.7-805 31.5-97.3 61.5-190 90.6-277.9h2.5c-29.2 88.1-59.3 181.1-90.9 278.7-78.4 242.1-166.1 512.9-273 811.4-0.2 23.5-0.3 47.2-0.8 70 178.7-355.5 313.2-680.2 431.1-964.8 27.9-67.4 54.9-132.6 81.3-195.3h2.6c-26.5 63-53.7 128.5-81.7 196.2-118.4 285.8-253.6 612-433.4 969.2-0.5 24-1.3 47.2-2.1 70.4 272.6-387.1 458.3-759.5 619.9-1083.4 25.9-52.1 51.3-103 76.3-152.4h2.6c-25.1 49.7-50.7 101-76.8 153.4-162 324.8-348.3 698.4-622.2 1086.7-0.8 23.2-1.5 46.5-2.6 68.8 382.6-380.8 617.1-795.4 822-1157.6 29.1-51.6 57.7-102.1 86-151.3h2.8c-28.6 49.6-57.4 100.4-86.8 152.5-205.2 362.9-440.2 778.3-824.1 1159.9-1.3 23.4-2.8 45.8-4.3 68.4l0.4-0.5 0.1-0.1h0.1c503.3-335.2 780.8-791.7 1026.2-1195.3 38.4-63.2 76.1-125 113.6-184.9h2.8c-37.8 60.3-75.7 122.5-114.4 186.1-245.5 403.8-523.1 860.5-1026.8 1196q-1.1 1.1-2.3 2.3c-1.4 22.5-2.7 45.4-4.6 67q2.8-1.8 5.5-3.8h0.1l0.1-0.1c627-254.7 940.3-755.5 1221-1204.2 52.3-83.5 103.5-165.3 155.3-243.3h2.8c-52.1 78.4-103.5 160.6-156.1 244.6-280.9 448.9-594.4 950.1-1222 1205.1-2.3 1.6-4.6 3.2-6.9 4.7-1.9 22.7-4.4 44.1-6.6 66 4.1-1.8 8.3-3.6 12.5-5.4l0.1-0.1h0.2c753.3-146.4 1096.9-698 1407.6-1197 68.7-110.2 135.7-217.8 205.2-317.9h2.9c-69.8 100.4-137.1 208.5-206.1 319.2-311 499.3-654.8 1051.3-1409.1 1198-4.5 2-9.1 3.9-13.6 5.9-2.2 21.3-4.3 43.1-6.8 63.5 6.6-1.4 13.2-2.8 19.8-4.2l0.1-0.1h0.2c881.4-16.1 1250.5-625.8 1585.9-1180 85.5-141.3 168.9-279 258-402.3h2.9c-89.5 123.6-173.1 261.7-258.9 403.5-335.7 554.7-705.1 1165-1587.8 1181.2-6.9 1.5-13.7 2.9-20.6 4.4-2.6 21.1-5.6 41.3-8.6 61.6 9.7-0.3 19.3-0.6 29-0.9h0.1 0.1c1010.8 131.8 1401.6-544.2 1756.4-1157.9 101.7-175.9 200.5-346.7 310-491.9h3c-109.9 145.4-209 316.7-310.9 493.1-355.2 614.4-746.4 1291-1758.7 1159-9.8 0.3-19.6 0.6-29.4 1-2.9 20.1-5.9 40-9.2 59.3 12.9 1.6 25.8 3.1 38.8 4.8l0.1 0.1h0.1c1141.3 294 1550.6-456.4 1919.9-1133.5 116.5-213.6 229-419.8 359.2-583.8h3c-130.6 164-243.4 370.8-360.2 584.9-369.7 677.8-779.4 1429.1-1922.4 1134.7-13.1-1.8-26-3.3-38.9-4.9-3.3 19.4-6.8 38.4-10.5 57 16.6 4.3 33.1 8.5 49.9 13l0.1 0.1c1273.2 468 1698.1-365.3 2077.4-1108.9 129.6-254.3 254-498.1 405-675.9h3.1c-151.4 177.7-276.1 422.1-406 677-379.7 744.5-805.1 1578.7-2080.3 1110-16.7-4.5-33.1-8.7-49.6-13-3.7 18.7-7.6 36.7-11.6 54.6 20.5 7.7 41.1 15.4 62 23.6h0.1c1406.6 652.4 1844.6-272.5 2229.6-1085.5 141.3-298.4 275.5-581.8 447.8-766.7h3.2c-172.8 184.6-307.2 468.6-448.9 767.7-385.4 814-824 1740-2232.7 1086.7-20.8-8.1-41.2-15.8-61.7-23.5-3.9 17.7-7.8 35.6-12.1 52.5 24.7 11.7 49.5 23.7 74.8 36.3 1199.9 658.2 1737.6 183.1 2099.4-476.9 103.2-188.2 192-391.4 277.9-587.7 151.8-347.1 294.1-672.5 489.2-855.1h3.4c-195.7 181.9-338.3 508.1-490.5 856-85.8 196.4-174.7 399.7-277.9 588-362.4 661.1-901 1136.9-2102.5 477.8-25.1-12.5-49.8-24.4-74.4-36.1-4.4 17.2-9.3 33.3-14 49.7q44.1 25 89.5 51.8c1175.6 733.3 1751.8 396.5 2123.9-200.3 159.4-255.7 281.3-559.2 396.9-846.7 159.7-397.3 307.1-764.2 524.4-933 3.2-2.5 6.4-4.8 9.6-7.2h4c-4.1 2.9-8.2 6-12.2 9.1-216.7 168.4-364.1 535-523.6 932-115.6 287.6-237.6 591.2-397.1 847.1-372.8 597.9-949.9 935.4-2127.1 201-30.1-17.8-59.7-34.9-89-51.5-4.7 16.2-9.3 32.5-14.3 47.8 34.3 22.1 69.2 45.3 104.5 69.2 1185.3 819 1794.2 570.9 2179.7 12.6 206.1-298.5 348.5-685.7 481-1045.9 138.1-375.5 265.4-721.7 443.1-908v3.4c-176.4 186.3-303.3 531.3-440.9 905.4-132.5 360.4-274.9 747.7-481.2 1046.4-386.3 559.4-996.2 808.1-2183-12-35.2-23.7-69.9-46.8-104-68.8-5.1 15.6-10.6 30.4-16 45.2q59.6 42.7 121.4 89.2c1210.7 909.8 1850.8 729.1 2250.9 196.4 248-330.2 403.9-795.6 546.2-1220.5 99.8-298 193-576 306.6-773.8v4.7c-112.5 197.3-205.2 473.7-304.3 769.8-142.4 425.1-298.4 890.7-546.6 1221.2-400.9 533.8-1042 715-2254.2-195.9-41-30.8-81.3-60.4-120.8-88.8-217.9 588.5-676 495.6-1128.9 196.4-24.3-14.4-48.7-29.3-73-44.9-22.2-12.6-44.3-25.7-66.4-39.2-24-12.9-47.9-26.2-71.6-40.1-22.4-11.3-44.6-23.2-66.7-35.3-23.6-11.2-47-22.7-70.3-34.7-22.4-9.7-44.6-19.8-66.6-30.1-23.1-9-46-18.4-68.6-28-22.8-7.6-45.3-15.4-67.4-23.6-22.1-6.1-43.8-12.4-65.2-18.9q-14.8-3.1-29.4-6.2v-2.4l5.7 1.2-5.7-1.8v-3.2q9.7 1 19.4 2-9.7-4-19.4-8.1v-2.5q13.9 5.8 28 11.5c8 0.8 16.1 1.5 24.3 2.2-9.8-4.7-19.4-9.5-29.1-14.3-7.8 0.1-15.5 0.1-23.2 0.1v-2.3q9.2 0 18.5-0.1-9.3-4.7-18.5-9.4v-2.6q11.8 6 23.9 12c8.4-0.1 17-0.2 25.6-0.3q-16.3-9.3-32.3-18.7l-17.2 1.9v-2.3l13.8-1.6q-6.9-4.1-13.8-8.2v-2.7q8.9 5.3 17.8 10.5c8.5-0.9 17.2-1.9 25.9-2.9-11.5-7.5-23-15.1-34.3-22.7l-9.4 2v-2.4l6.7-1.4-6.7-4.6v-2.8q5 3.3 9.9 6.7 12.8-2.7 25.8-5.5c-12-8.8-23.9-17.6-35.7-26.4v-3l0.4 0.2q12.6-3.9 25.6-7.7-13.1-10.6-26-21.3v-3.1c9.5 7.9 19.1 15.7 28.8 23.5 8.5-2.5 17-5 25.7-7.5-12.7-10.9-25.2-21.9-37.7-32.8q-8.4 3.2-16.8 6.4v-2.4q7.4-2.9 14.9-5.7-7.5-6.6-14.9-13.2v-3.2q8.7 7.7 17.4 15.4c8.5-3.2 16.9-6.4 25.6-9.5q-19.6-18.1-38.7-36.1l-4.3 1.9v-2.6l2.5-1.1-2.5-2.3v-3.3l4.9 4.6c8.4-3.8 16.8-7.5 25.4-11.2q-15.2-15-30.3-30.1v-3.4c10.8 10.9 21.8 21.7 32.8 32.6 255-106.7 607.2-166.5 1082.2-87.6-9.4-4.7-18.8-9.3-28.2-13.8-488.7-118.5-839-61.5-1086.8 58.6v-2.6c246.2-119.2 593.2-176 1076.1-61.1-8.4-4-16.8-7.9-25.1-11.9-475.1-147.8-812.5-106.9-1051 10.9v-2.8c236.1-116.4 568.8-157.5 1035.3-15.5-4.9-2.3-10.1-4.8-15-7.1-461.8-174.6-788.9-153-1020.3-42.7v-3c224.5-106.8 538.7-130.3 978.3 27.4-440.9-192.2-754.8-191.1-978.3-94zm1876.3-332.8c2.1-10 4-20.4 6-30.5 0.9-11.6 1.5-23.6 2.2-35.5-1.7 11.8-3.2 24-4.9 35.5-1.1 10.1-2.1 20.5-3.3 30.5zm-9 73.3c3.2-11 6.3-22.6 9.4-33.9 1.5-17.6 3.2-34.6 4.6-52.4-2.5 12.5-5 25.2-7.6 37.4-2 16.7-4.3 32.6-6.4 48.9zm-1501.6 857.1c-5.5-2.2-11-4.5-16.5-6.7 6.5 3.7 13.1 7.2 19.6 10.8 4.3 2 8.6 4 12.9 6-5.3-3.3-10.6-6.8-16-10.1zm-10.6-55.3c11.4 9.6 22.8 19.1 34.3 28.5 342.6 72 728.2 50.4 1064.9-219-12.2-7.6-24.2-14.9-36.3-22.2-351.8 230.7-731.5 260.9-1062.9 212.7zm1514-841.2c0.7-3.3 1.5-6.5 2.3-9.8 0.4-3.9 0.8-8 1.3-12-1.2 7.3-2.4 14.6-3.6 21.8zm-13.5 76.5c2.4-7.9 5-15.6 7.4-23.6 1.8-13.2 3.7-26.3 5.5-39.7-1.7 7.6-3.5 14.9-5.2 22.4-2.4 14-5.1 27.3-7.7 40.9zm-12.1 61.4c3.9-9.1 7.8-18.1 11.6-27.3 2.2-14.1 4-29 6-43.8-3.2 10.3-6.4 20.4-9.6 30.5-2.6 13.7-5.2 27.4-8 40.6zm-1582.8 702.6c-7.2-2.1-14.4-4.1-21.6-6.2q12.8 7 25.6 13.9 10.4 3.8 20.9 7.5c-8.3-5-16.6-10.1-24.9-15.2zm35.2 21.4c-5.2-1.8-10.4-3.6-15.5-5.4 6 3.1 12 6.3 18.1 9.5 5.9 2.5 11.7 5.1 17.6 7.6-6.7-3.9-13.5-7.7-20.2-11.7zm33 11.3c-6.9-2.3-13.7-4.6-20.6-7 8.2 4.8 16.4 9.6 24.5 14.3q10.8 4.4 21.5 8.7c-8.5-5.3-17-10.6-25.4-16zm32.8 10.5c-7.8-2.5-15.6-5-23.4-7.5 9.6 6.1 19.1 12.1 28.7 18.1 7.5 2.9 15.1 5.7 22.6 8.6-9.3-6.4-18.6-12.7-27.9-19.2zm1496.9-781.5c4.2-10.3 8.2-20.9 12.3-31.4 1.7-17 3.2-34.8 4.7-52.4-3.4 11.7-6.8 23.5-10.2 34.9-2.2 16.5-4.4 33-6.8 48.9zm-11.3 0.7c0.6-2 1.2-4 1.9-6l0.8-4c-0.9 3.4-1.9 6.6-2.7 10zm-19 71.1c3.6-8.2 7.1-17 10.7-25.4 2.2-10 4.1-20.5 6.1-30.9-3 9-6 18-9 26.9-2.6 9.8-5.1 19.9-7.8 29.4zm-15.9 53.2c4.7-8 9.4-16.1 14.1-24.3 3.2-13.7 6.4-27.4 9.6-41.3-3.9 8.8-7.7 17.6-11.6 26.3-4 13.4-8.1 26.1-12.1 39.3zm-1619.7 583.8c-7.7-1.7-15.2-3.6-22.8-5.4 8.8 4.5 17.8 8.8 26.7 13.2 7.2 2.3 14.5 4.5 21.7 6.8q-12.9-7.3-25.6-14.6zm35.9 20.2c-6.2-1.8-12.3-3.8-18.4-5.7 7.2 3.5 14.4 6.9 21.6 10.3 5.1 2 10.3 3.9 15.5 5.8-6.3-3.4-12.5-6.9-18.7-10.4zm34.7 19q-1.4-0.5-2.8-1 3.1 1.4 6.2 2.8-1.7-0.9-3.4-1.8zm29.6-0.9q-11.7-3.1-23.3-6.3c9.2 5.6 18.4 11.3 27.6 16.8 8.1 2.8 16.1 5.7 24.2 8.4-9.5-6.2-19-12.6-28.5-18.9zm32.3 8.4c-8.3-2.1-16.6-4.3-24.8-6.5 9.9 6.6 19.8 13.3 29.7 19.8 8.4 2.7 16.7 5.4 25.1 8q-15.1-10.6-30-21.3zm1523.4-694c5-9.1 10-18.1 14.9-27.4 2.2-18.9 4.6-37.5 6.7-56.9-4.3 10.7-8.5 21.3-12.8 31.8-2.8 17.9-5.8 35-8.8 52.5zm-18 31.8c4.9-8.5 9.7-17 14.5-25.6 2.9-16.7 5.9-33 8.6-50-4.1 9.9-8.2 19.6-12.4 29.3-3.4 15.8-7.1 30.9-10.7 46.3zm-13.4 2.4c1.6-3.6 3.3-7.1 5-10.7 1.4-4.8 2.7-9.9 4.1-14.8-3.1 8.5-6.1 17.1-9.1 25.5zm-21.8 56.8c4-6.5 8-12.8 12-19.4 3.3-10.6 6.5-21.2 9.8-31.9-2.9 6.3-5.8 12.5-8.8 18.7-4.2 11.2-8.7 21.7-13 32.6zm-17.6 44c5.3-6.4 10.6-12.8 15.9-19.4 3.8-11.3 7.3-23.2 10.9-35.1q-7.1 11.8-14.3 23.4c-4.1 10.4-8.2 21-12.5 31.1zm-1653.1 486.2c-7.3-1.2-14.7-2.4-22-3.7 8.5 3.9 17.1 7.9 25.7 11.7 7.7 2 15.3 4 23.1 5.9-9-4.6-17.9-9.2-26.8-13.9zm35.4 18.4c-6-1.4-11.9-2.9-17.8-4.4q10.3 4.5 20.8 9c6 2 12.1 4.1 18.2 6.1q-10.6-5.3-21.2-10.7zm35.4 17.7q-1.9-0.6-3.9-1.2 3.9 1.5 7.8 3.1-2-1-3.9-1.9zm29.1-3q-12.2-2.6-24.2-5.3c9.7 5.5 19.6 11 29.4 16.4 7.7 2.3 15.5 4.5 23.2 6.7q-14.3-8.8-28.4-17.8zm31.7 6.4c-8.3-1.6-16.6-3.2-24.8-4.9 10.1 6.3 20.2 12.6 30.4 18.9 8.3 2.3 16.6 4.6 24.9 6.8-10.2-6.9-20.4-13.8-30.5-20.8zm31.6 6c-8.5-1.6-17.1-3.2-25.6-4.9q15.9 10.9 31.9 21.6c8.5 2.3 17 4.5 25.6 6.7-10.7-7.7-21.3-15.6-31.9-23.4zm1550.8-609c5.8-7.7 11.6-15.4 17.3-23.3 2.5-17.8 4.5-36.6 6.7-55.1-5.1 9.3-10.2 18.4-15.2 27.6-2.9 17.1-5.7 34.3-8.8 50.8zm-20.3 26.7q8.6-11.2 17.2-22.6c3-15.7 5.6-32.4 8.4-48.8-5.1 9.1-10.2 18.1-15.3 27-3.4 14.9-6.7 30-10.3 44.4zm-20.5 26.1q8.5-10.6 16.9-21.4c3.4-13.4 6.5-27.7 9.8-41.7-5 8.5-10 16.8-15 25.1-3.8 12.8-7.6 25.7-11.7 38zm-16.8 3.7c2.4-3.7 4.7-7.6 7-11.3 1.3-3.1 2.5-6.4 3.8-9.5-3.5 7.1-7.2 13.8-10.8 20.8zm-23.1 44.7c4.8-5.6 9.5-11.5 14.3-17.2 3.6-8.5 7.1-17.2 10.7-26-4.3 6.7-8.6 13.3-12.9 19.8-4.1 7.9-8 15.8-12.1 23.4zm-21.7 38q9.2-7.8 18.3-15.7c4.7-10.4 9.3-20.8 14-31.3-5.3 6.3-10.7 12.5-16 18.7-5.4 9.5-10.8 18.9-16.3 28.3zm-1674.9 413.2c-2.7-0.6-5.4-1.1-8.2-1.7q8.3 2.5 16.7 4.9c-2.8-1.1-5.7-2.2-8.5-3.2zm31.7 5.7c-6.3-1.1-12.5-2.2-18.7-3.3 7 2.6 14 5.3 21.1 8q9.6 2.6 19.3 5.1c-7.3-3.2-14.6-6.5-21.7-9.8zm34.3 15.6q-2.8-0.8-5.6-1.5c3.9 1.4 7.7 2.8 11.6 4.2-2-0.9-4-1.8-6-2.7zm28.9-5.2c-8-1.2-16-2.5-24-3.8q14.4 7.6 28.9 15c8.1 2 16.3 4 24.6 5.9-9.9-5.7-19.7-11.3-29.5-17.1zm31.6 4.5c-8.4-1.1-16.8-2.4-25.1-3.6 10.2 6.1 20.6 12.1 30.9 18 8.3 1.9 16.7 3.7 25.1 5.5-10.3-6.6-20.7-13.2-30.9-19.9zm31.2 4c-8.6-1-17.1-2.1-25.6-3.2 10.7 6.9 21.5 13.8 32.2 20.6q12.8 2.7 25.7 5.2c-10.8-7.5-21.6-15-32.3-22.6zm31.1 3.7c-8.7-1-17.4-2-26.1-3 11.1 7.8 22.2 15.4 33.4 23.1 8.7 1.7 17.4 3.4 26.2 5-11.2-8.3-22.4-16.7-33.5-25.1zm1577-523.9c6.5-6.2 13-12.3 19.5-18.7 3-18.8 6-37.1 8.7-56.4-5.8 7.9-11.7 15.5-17.5 23.3-3.4 17.8-7.2 34.6-10.7 51.8zm-22.8 21.6c6.6-6.1 13.1-12.4 19.7-18.6 3.5-16.8 7.1-33.3 10.5-50.5-5.8 7.7-11.7 15.5-17.6 23.1-4 15.7-8.4 30.7-12.6 46zm-22.7 20.9c6.4-5.9 12.9-11.7 19.3-17.6 4.1-14.7 8.2-29.2 12.1-44.2-5.7 7.3-11.5 14.4-17.2 21.5-4.7 13.7-9.5 26.8-14.2 40.3zm-22.8 20.2q9.6-8.3 19.1-16.9c4.5-12.7 9-25.2 13.4-38.2q-8.5 10.5-17 20.8c-5.1 11.6-10.3 22.9-15.5 34.3zm-16-1.3c2.5-2.9 5.1-5.7 7.7-8.6 2.6-4.8 5.2-9.6 7.8-14.5-5.1 7.7-10.3 15.6-15.5 23.1zm-28 38.9c5.4-4.5 10.8-8.9 16.2-13.5 4.6-7.9 9.1-15.9 13.7-23.9q-6.9 7.8-13.8 15.5c-5.3 7.4-10.7 14.6-16.1 21.9zm-22.4 30.4q9.9-5.8 19.7-11.6c5.2-8.6 10.4-17.5 15.5-26.4-6.2 5.3-12.4 10.5-18.6 15.6-5.5 7.5-11 15.1-16.6 22.4zm-1665.1 351.4c-6.7-0.7-13.3-1.4-19.9-2.1q11.2 3.5 22.6 7c6.2 1.3 12.5 2.5 18.8 3.7-7.3-2.9-14.4-5.8-21.5-8.6zm31 2.8q-11.4-1-22.8-2.1c8.9 3.6 17.7 7.1 26.6 10.5 7.4 1.4 14.9 2.8 22.4 4.1-8.8-4.1-17.5-8.3-26.2-12.5zm31 2.6c-8.1-0.6-16.2-1.2-24.1-1.9 9.5 4.5 19 9 28.7 13.5q12.1 2.1 24.3 4.2c-9.7-5.2-19.3-10.5-28.9-15.8zm30.9 2.3q-12.6-0.9-25-1.8c10.1 5.5 20.1 11 30.4 16.5 8.5 1.3 16.9 2.7 25.5 4.1-10.4-6.2-20.7-12.5-30.9-18.8zm30.8 1.9c-8.6-0.5-17.1-1-25.6-1.6 10.6 6.5 21.1 13 31.8 19.3q13 2 26.1 3.8-16.3-10.7-32.3-21.5zm30.6 1.6q-13-0.6-25.8-1.3c11 7.4 22 14.8 33.1 22 8.6 1.2 17.3 2.3 26.1 3.4q-16.8-12-33.4-24.1zm30.5 1.3c-8.7-0.3-17.4-0.7-26-1.1 11.3 8.2 22.6 16.4 34 24.5q13.1 1.6 26.4 3.1c-11.5-8.8-23-17.6-34.4-26.5zm1603.7-440.7c7.2-4.8 14.5-9.4 21.8-14.3 3-17.5 5.6-36.1 8.4-54.4-6.5 6.5-13.2 12.6-19.8 18.9-3.4 16.7-6.7 33.8-10.4 49.8zm-24.8 16.3c7.3-4.6 14.5-9.5 21.8-14.3 3.6-15.7 6.9-32.5 10.3-48.9-6.6 6.4-13.3 12.8-20 19-4 14.9-7.9 30-12.1 44.2zm-24.8 15.7c7.2-4.5 14.4-8.9 21.5-13.5 4.2-13.9 8.1-28.6 12-43.1-6.5 6-13.1 11.8-19.7 17.8-4.6 13-9.1 26.3-13.8 38.8zm-24.8 15.5c7.1-4.4 14.2-8.8 21.3-13.3 4.7-12.2 9.1-25 13.6-37.7-6.6 5.9-13.2 11.8-19.8 17.6-5 11.2-10 22.6-15.1 33.4zm-24.7 15c6.9-4.2 13.8-8.3 20.7-12.5 5-10.4 9.8-21.2 14.7-32-6.4 5.6-12.8 11-19.2 16.4-5.4 9.5-10.7 19-16.2 28.1zm-20.2-0.8c3.6-2.9 7.1-6 10.7-8.9 2.4-3.2 4.7-6.5 7.1-9.7-5.9 6.4-11.9 12.4-17.8 18.6zm-27.4 28.7c5.8-3.3 11.7-6.8 17.5-10.2q7.4-9.5 14.7-19.4c-5.5 4.5-11 8.8-16.6 13.3-5.2 5.5-10.4 11-15.6 16.3zm-18.4 10.3c3.4-1.9 6.9-3.8 10.3-5.8 3.6-3.5 7.2-7 10.7-10.7-7 5.5-14 11.1-21 16.5zm-1597.3 312.8c-8.4 0.1-16.8 0.2-25 0.3q15.2 7.5 30.7 15c8.3 0.7 16.7 1.4 25.1 2-10.3-5.7-20.6-11.5-30.8-17.3zm30.2-0.5q-12.8 0.3-25.4 0.4 15.8 9 31.9 17.9c8.5 0.7 17.1 1.3 25.8 1.9-10.9-6.7-21.6-13.4-32.3-20.2zm30.2-0.7c-8.7 0.2-17.2 0.4-25.8 0.6q16.4 10.4 33.1 20.7c8.7 0.6 17.3 1.2 26.1 1.7-11.2-7.6-22.3-15.3-33.4-23zm30.1-0.8c-8.7 0.2-17.4 0.5-26 0.7 11.3 7.8 22.6 15.6 34.1 23.3 8.6 0.5 17.4 1 26.1 1.4-11.5-8.4-22.8-16.9-34.2-25.4zm30-1.1c-8.7 0.3-17.5 0.6-26.1 0.9 11.6 8.7 23.1 17.3 34.8 25.8 8.7 0.4 17.5 0.8 26.3 1.1-11.8-9.2-23.4-18.5-35-27.8zm1628.7-357.6c8-3.3 15.9-6.5 23.9-9.9 3.5-17.9 7.1-35.5 10.4-54-7.3 5-14.6 9.7-21.9 14.5-4 16.9-8.3 33-12.4 49.4zm-26.8 11.1c8-3.2 16-6.6 23.9-9.9 4.1-16.1 8.3-32 12.2-48.6-7.3 4.8-14.7 9.8-22 14.5-4.6 15.1-9.4 29.4-14.1 44zm-26.7 10.7c7.9-3.1 15.8-6.2 23.8-9.4 4.6-14.3 9.2-28.4 13.7-43.1-7.3 4.6-14.6 9-21.9 13.6-5.1 13.3-10.4 26-15.6 38.9zm-26.8 10.7c7.9-3.1 15.8-6.3 23.7-9.4 5.1-12.6 10.2-25.1 15.2-38-7.3 4.6-14.6 9.2-21.9 13.6-5.6 11.5-11.3 22.6-17 33.8zm-26.6 10.3c7.7-3 15.5-5.9 23.2-9 5.5-10.8 11.1-21.5 16.5-32.6-7.2 4.4-14.3 8.6-21.5 12.8-6 9.8-12.1 19.3-18.2 28.8zm-26.5 10.2q11.3-4.4 22.7-8.7c5.9-9.2 11.7-18.3 17.5-27.6-7.1 4.2-14.1 8.4-21.2 12.5-6.3 8-12.7 15.9-19 23.8zm-26.1 9.8q10.8-4.1 21.7-8.2c5.9-7.2 11.8-14.5 17.6-22-6.6 3.9-13.3 7.6-19.9 11.4-6.5 6.3-12.9 12.5-19.4 18.8zm-24.8 9q9.7-3.5 19.3-7 8.4-8.1 16.8-16.3-8.8 5-17.6 9.8c-6.1 4.6-12.3 9-18.5 13.5zm-20.1 7.4c4-1.4 8.1-3 12.1-4.4 3.2-2.3 6.4-4.7 9.6-7-7.2 3.9-14.5 7.6-21.7 11.4zm-1551.5 257.2c-8.6 1-17.2 1.9-25.6 2.9q16.3 9.6 33 19 12.9-0.1 25.9-0.4-16.8-10.7-33.3-21.5zm29.5-3.4q-13 1.5-25.8 3c11.2 7.3 22.6 14.6 34 21.8 8.7-0.1 17.4-0.3 26.2-0.5q-17.4-12.1-34.4-24.3zm29.5-3.4c-8.7 1.1-17.4 2-26 3q17.4 12.3 34.9 24.5 13.1-0.3 26.3-0.7-17.7-13.3-35.2-26.8zm29.5-3.4q-13.2 1.5-26.1 3 17.7 13.6 35.7 27.1c8.7-0.3 17.5-0.6 26.3-1q-18.1-14.5-35.9-29.1zm1654.4-275.6q12.9-2.8 25.9-5.5c3.7-16.9 7-34.6 10.5-52.2-8.1 3.4-16.1 6.7-24.1 10-4.1 16-8 32.3-12.3 47.7zm-28.6 6c8.6-1.8 17.2-3.6 25.8-5.4 4.3-15.3 8.2-31.3 12.2-47.1-8 3.3-16.1 6.7-24.1 10-4.6 14.3-9.1 28.8-13.9 42.5zm-28.5 5.9c8.5-1.8 17.1-3.5 25.6-5.3 4.8-13.6 9.3-27.8 13.8-41.9-8 3.2-16 6.3-24 9.5-5.1 12.7-10.2 25.5-15.4 37.7zm-28.5 5.9c8.4-1.7 17-3.5 25.5-5.3 5.2-12 10.2-24.5 15.3-37-8 3.2-16.1 6.4-24.1 9.6-5.5 11-11.1 22.1-16.7 32.7zm-28.5 5.8c8.5-1.7 16.8-3.4 25.3-5.1 5.6-10.4 11.1-21.3 16.5-32.1-7.9 3.1-15.8 6.1-23.7 9.2-6 9.4-12 18.9-18.1 28zm-28.3 5.8q12.4-2.5 24.9-5.1c6-8.8 11.8-18.1 17.7-27.3-7.8 3-15.7 6-23.5 9-6.4 7.9-12.7 15.8-19.1 23.4zm-27.9 5.6q12-2.4 24.1-4.8c6.2-7.3 12.3-14.9 18.4-22.5-7.6 2.9-15.3 5.7-22.9 8.5-6.5 6.4-13.1 12.7-19.6 18.8zm-27.5 5.5q11.4-2.2 22.9-4.5c6.2-5.8 12.5-11.8 18.7-17.8q-11 4.1-22 8.1c-6.5 4.8-13 9.6-19.6 14.2zm-26 5.2c6.7-1.3 13.4-2.6 20.1-4q8.8-6.1 17.5-12.5-9.8 3.6-19.6 7.1c-6 3.1-12 6.4-18 9.4zm-20.5 4.1l11.9-2.4c3.8-1.9 7.6-3.8 11.5-5.8-7.8 2.7-15.6 5.5-23.4 8.2zm-1507.2 205.2c-8.6 1.8-17.1 3.6-25.6 5.4 11.5 7.7 23.1 15.3 34.8 23q12.9-1.5 26-3c-11.8-8.5-23.6-16.9-35.2-25.4zm29-6q-13.1 2.7-25.8 5.3c11.7 8.6 23.6 17.2 35.6 25.7 8.7-1 17.3-2 26.1-3-12-9.3-24.1-18.6-35.9-28zm28.9-5.9c-8.7 1.8-17.3 3.5-25.9 5.3 12 9.4 24.2 18.8 36.4 28.2q12.9-1.6 26.2-3.1c-12.3-10.1-24.6-20.2-36.7-30.4zm1679.1-194.2q13.8-0.5 27.7-1c4.1-16.8 8.2-33.5 12.1-50.9q-13.1 2.8-26.1 5.5c-4.4 15.9-9.1 31.1-13.7 46.4zm-30.4 1.2c9.2-0.4 18.5-0.8 27.7-1.1 4.6-15.1 9.2-30.2 13.6-45.9-8.6 1.9-17.3 3.7-25.9 5.5-5 14.2-10.2 27.8-15.4 41.5zm-30.2 1.3c9.1-0.4 18.3-0.8 27.5-1.2 5.1-13.5 10.2-27 15.2-41-8.7 1.8-17.3 3.6-25.9 5.4-5.5 12.5-11.2 24.6-16.8 36.8zm-30.2 1.3c9.1-0.5 18.3-0.8 27.4-1.2 5.6-12 11.1-23.9 16.6-36.3-8.7 1.8-17.3 3.6-25.9 5.4-5.9 10.9-12 21.4-18.1 32.1zm-30.1 1.4c9.1-0.4 18.1-0.9 27.2-1.3 6-10.4 12-20.8 17.8-31.6-8.6 1.8-17.1 3.5-25.6 5.2-6.4 9.5-12.9 18.5-19.4 27.7zm-29.9 1.5c8.9-0.5 17.9-0.9 26.8-1.3 6.4-9 12.7-17.9 19-27.2-8.5 1.8-17 3.5-25.4 5.2-6.8 7.9-13.6 15.6-20.4 23.3zm-29.8 1.5c8.8-0.4 17.6-0.9 26.4-1.4 6.7-7.4 13.3-14.9 19.9-22.6-8.4 1.7-16.7 3.4-25 5.1-7.1 6.4-14.2 12.6-21.3 18.9zm-29.3 1.6q12.7-0.7 25.5-1.4c6.9-6 13.7-12.1 20.5-18.2q-12.2 2.4-24.4 4.8c-7.2 5-14.4 9.9-21.6 14.8zm-28.7 1.6q12.1-0.7 24.1-1.3 10.2-6.9 20.3-13.9-11.5 2.3-23 4.6c-7.1 3.6-14.2 7.1-21.4 10.6zm-27.1 1.7c7.1-0.5 14.1-0.9 21.1-1.3q9.3-4.6 18.7-9.3-10.1 2-20.2 4c-6.5 2.2-13 4.4-19.6 6.6zm-20.4 1.2c3.8-0.2 7.6-0.5 11.4-0.7q5.4-1.8 10.8-3.6c-7.5 1.4-14.8 2.9-22.2 4.3zm-1460.9 154.7c-8.6 2.6-17.1 5.1-25.5 7.7 11.9 9 24 17.9 36.2 26.8 8.5-1.7 17.1-3.5 25.9-5.3-12.3-9.7-24.6-19.4-36.6-29.2zm28.4-8.3q-12.9 3.7-25.6 7.5c12.2 9.8 24.5 19.6 36.8 29.4 8.6-1.8 17.2-3.6 26-5.3-12.5-10.6-24.9-21.1-37.2-31.6zm1703.8-113.6c9.8 1.1 19.7 2.2 29.5 3.4 4.3-16 8.4-32.5 12.5-49.2q-14 0.5-27.9 1.1c-4.6 15.1-9.2 30.2-14.1 44.7zm-31.9-3.4c9.7 1 19.5 2.1 29.3 3.1 4.8-14.4 9.4-29.3 14-44.3-9.3 0.3-18.6 0.7-27.8 1.1-5.1 13.5-10.2 27.1-15.5 40.1zm-31.9-3.2q14.6 1.4 29.3 2.9c5.2-12.9 10.3-26.3 15.4-39.7-9.3 0.4-18.6 0.8-27.8 1.2-5.6 12-11.2 24-16.9 35.6zm-31.6-3.1c9.6 0.8 19.3 1.9 29 2.8 5.6-11.4 11.2-23.3 16.7-35.2-9.2 0.4-18.5 0.8-27.7 1.2-5.9 10.5-11.9 21.1-18 31.2zm-31.7-2.8c9.6 0.8 19.2 1.6 28.9 2.5 6.1-10 12-20.4 18-30.8-9.3 0.4-18.4 0.9-27.6 1.4-6.4 9-12.8 18.2-19.3 26.9zm-31.3-2.8c9.4 0.8 18.9 1.7 28.4 2.5 6.5-8.6 12.8-17.5 19.1-26.5-9.1 0.4-18.2 0.9-27.3 1.3-6.7 7.7-13.4 15.4-20.2 22.7zm-31.3-2.4c9.4 0.7 18.7 1.4 28.2 2.2 6.7-7.3 13.3-14.8 20-22.3-9.1 0.5-18 1-27.1 1.4-7 6.3-14 12.7-21.1 18.7zm-30.9-2.3c9.1 0.7 18.3 1.4 27.5 2.1 6.9-6 13.8-12.1 20.7-18.3-8.8 0.5-17.7 1-26.5 1.5-7.2 4.9-14.4 10-21.7 14.7zm-30.5-2.1q13.2 0.9 26.5 1.8c7.1-4.6 14.1-9.4 21.2-14.2q-12.9 0.8-25.8 1.5c-7.3 3.7-14.6 7.4-21.9 10.9zm-29.9-1.8c8.4 0.5 16.7 1 25 1.5 7-3.3 13.9-6.8 20.8-10.2q-12.1 0.7-24.2 1.4c-7.2 2.5-14.4 4.9-21.6 7.3zm-27.5-1.7c7 0.4 14.1 0.9 21.2 1.3q9.4-3.1 18.9-6.3-10.5 0.6-21 1.3c-6.4 1.2-12.8 2.5-19.1 3.7zm-21.3-1c3.8 0.1 7.5 0.3 11.3 0.5l10.2-2q-10.8 0.7-21.5 1.5zm314 72c10.3 2.4 20.8 5.1 31.1 7.6q7-23.2 13.5-47.4c-9.8-1.1-19.7-2.2-29.6-3.3-4.9 14.7-9.9 29-15 43.1zm-33.6-7.8q15.5 3.5 31.1 7.2c5.1-14 10.1-28.2 14.9-42.8-9.8-1.1-19.7-2.1-29.5-3.1-5.4 13.2-10.9 26-16.5 38.7zm-33.4-7.6q15.4 3.5 30.9 7c5.5-12.6 11-25.3 16.4-38.4q-14.8-1.5-29.4-3c-5.9 11.8-11.9 23.1-17.9 34.4zm-33.1-7.3c10.1 2.2 20.4 4.5 30.6 6.8 6-11.2 11.9-22.5 17.7-34.1-9.8-1-19.6-2-29.2-2.9-6.3 10.3-12.7 20.2-19.1 30.2zm-33.1-6.9c10.1 2.1 20.2 4.2 30.5 6.3 6.3-9.8 12.6-19.7 18.9-29.8-9.8-0.9-19.5-1.7-29.2-2.6-6.7 8.9-13.5 17.5-20.2 26.1zm-32.8-6.8c9.9 2 20.1 4.2 30.1 6.3 6.7-8.5 13.4-17.1 20-25.8-9.6-0.9-19.3-1.8-28.8-2.6-7.1 7.6-14.2 14.8-21.3 22.1zm-32.7-6.2c10 1.9 19.9 3.7 29.9 5.6 7-7.2 14-14.3 21-21.7-9.7-0.8-19.2-1.5-28.7-2.2-7.4 6.2-14.8 12.2-22.2 18.3zm-32.3-6.1c9.7 1.7 19.5 3.6 29.3 5.5 7.2-6 14.5-11.9 21.7-18-9.4-0.7-18.8-1.4-28.1-2.1-7.6 5-15.3 9.7-22.9 14.6zm-32-5.8q14.3 2.5 28.6 5.1c7.5-4.7 14.9-9.4 22.3-14.2-9.2-0.6-18.4-1.2-27.6-1.8-7.8 3.7-15.5 7.3-23.3 10.9zm-31.5-5.4q13.7 2.3 27.5 4.7c7.4-3.5 14.9-6.9 22.4-10.5q-13.4-0.8-26.6-1.6c-7.8 2.5-15.5 4.9-23.3 7.4zm-30.1-5c8.3 1.3 16.7 2.8 25.1 4.2q10.9-3.5 21.8-7c-8.3-0.5-16.6-1-24.8-1.4-7.4 1.4-14.7 2.8-22.1 4.2zm-28.9-4.4c7.3 1.1 14.5 2.1 21.9 3.3l19-3.6q-10.9-0.6-21.8-1.1c-6.4 0.5-12.7 0.9-19.1 1.4zm-20.8-3.2c3.4 0.5 6.8 1.1 10.2 1.6l10-0.7q-10.1-0.5-20.2-0.9zm357.8 116.2c10.8 3.7 21.7 7.8 32.6 11.7 4.9-14.9 9.7-30 14.4-45.5-10.4-2.6-21-5.2-31.3-7.7q-7.7 21.2-15.7 41.5zm-35-12c10.9 3.7 21.6 7.3 32.5 11.1q8-20.2 15.7-41.2c-10.5-2.5-20.8-4.8-31.2-7.2-5.6 12.7-11.2 25.2-17 37.3zm-34.7-11.7c10.7 3.6 21.5 7.2 32.3 10.9 5.7-12.1 11.3-24.5 16.9-37.1-10.4-2.4-20.8-4.7-31.1-7-6 11.3-12 22.4-18.1 33.2zm-34.5-11.3c10.6 3.4 21.3 7 32 10.5 6.1-10.7 12.1-21.8 18.1-33-10.3-2.2-20.7-4.6-30.9-6.8-6.3 9.9-12.7 19.8-19.2 29.3zm-34.4-10.8c10.6 3.3 21.2 6.6 31.9 10 6.4-9.4 12.8-19.2 19.1-29-10.3-2.2-20.5-4.3-30.7-6.4-6.8 8.6-13.5 17.1-20.3 25.4zm-34-10.7c10.4 3.1 21 6.6 31.4 9.9 6.8-8.2 13.5-16.7 20.2-25.2-10.1-2-20.4-4.3-30.4-6.3-7 7.3-14.1 14.6-21.2 21.6zm-34-10c10.5 3.1 20.8 6 31.4 9.2 7-6.9 14-14.1 21-21.3-10.2-2.1-20.2-3.9-30.4-5.8-7.3 6-14.6 12.1-22 17.9zm-33.5-9.7c10.1 2.8 20.4 5.9 30.6 8.9 7.3-5.7 14.6-11.7 21.9-17.7-10-1.9-19.9-3.8-29.8-5.6-7.6 4.8-15.1 9.7-22.7 14.4zm-33.3-9.3c10 2.7 20 5.5 30.2 8.4 7.5-4.6 14.9-9.4 22.4-14.1-9.9-1.8-19.6-3.5-29.4-5.2-7.7 3.6-15.5 7.4-23.2 10.9zm-33.1-8.9q14.7 3.9 29.4 7.9c7.6-3.4 15.2-7.1 22.8-10.6q-14.3-2.5-28.5-4.9c-7.9 2.6-15.8 5.1-23.7 7.6zm-32-8.5c9.2 2.4 18.6 4.9 27.8 7.4 7.6-2.4 15.2-4.9 22.8-7.4-9-1.5-18.2-3-27.2-4.4-7.8 1.5-15.6 3-23.4 4.4zm-31.7-7.7c8.7 2.1 17.4 4.1 26.2 6.4 7.3-1.4 14.6-2.8 21.9-4.2-8.6-1.3-17.1-2.6-25.6-3.9-7.5 0.6-15 1.1-22.5 1.7zm-28.5-7c7 1.6 14 3.4 21 5.1 6.5-0.4 13-0.9 19.4-1.4-6.6-0.9-13.4-2.1-20-3-6.8-0.2-13.6-0.5-20.4-0.7zm-19.3-4.6c2.7 0.7 5.4 1.2 8.1 1.8 2.4 0.1 4.9 0.2 7.4 0.3q-7.8-1.1-15.5-2.1zm400.8 164.2c11.2 5 22.7 10.4 34.1 15.7 5.1-14.1 10-29 14.9-43.8-10.9-3.9-21.9-8-32.7-11.7-5.3 13.5-10.7 26.9-16.3 39.8zm-36.4-15.9c11.3 5 22.5 9.7 34 14.8 5.5-12.8 10.9-26.2 16.2-39.6-10.9-3.9-21.7-7.4-32.6-11.1-5.8 12.2-11.7 24.2-17.6 35.9zm-36.1-15.8c11.1 4.8 22.4 9.8 33.7 14.7 5.9-11.6 11.7-23.5 17.5-35.7-10.8-3.6-21.7-7.3-32.4-10.9q-9.3 16.3-18.8 31.9zm-35.9-15.1c11.1 4.6 22.3 9.3 33.5 14.1q9.5-15.5 18.7-31.7c-10.8-3.6-21.6-7.2-32.2-10.6-6.6 9.6-13.3 18.9-20 28.2zm-35.7-14.7c11.1 4.5 22.1 9 33.3 13.7 6.7-9.2 13.3-18.5 19.8-28-10.7-3.4-21.4-6.7-32.1-10.1-6.9 8.3-14 16.4-21 24.4zm-35.2-14.3c10.8 4.2 21.9 8.9 32.8 13.4 7-8 14-16 20.9-24.3-10.6-3.3-21.3-6.8-31.7-10-7.3 7.1-14.7 14-22 20.9zm-35.3-13.6c11 4.2 21.8 8.2 32.8 12.6 7.3-6.8 14.6-13.6 21.8-20.6-10.7-3.3-21.1-6.2-31.7-9.3-7.6 5.9-15.3 11.6-22.9 17.3zm-34.6-13.3c10.5 4 21.3 8.2 32 12.3 7.5-5.7 15.1-11.3 22.6-17.1-10.4-3.1-20.8-6.2-31.1-9.1-7.8 4.7-15.7 9.3-23.5 13.9zm-34.6-12.7c10.6 3.9 21.1 7.6 31.8 11.6 7.7-4.5 15.5-9 23.2-13.7-10.4-2.9-20.6-5.7-30.9-8.5-8 3.6-16 7.1-24.1 10.6zm-34.1-12.2q15.4 5.4 30.9 11.1c7.9-3.5 15.8-6.9 23.7-10.5q-15.1-4.1-30.1-8.1c-8.2 2.6-16.3 5-24.5 7.5zm-33.2-11.7c9.7 3.4 19.7 6.9 29.5 10.4 8-2.4 15.9-4.8 23.9-7.3-9.8-2.6-19.5-5.2-29.2-7.6-8.1 1.5-16.1 3-24.2 4.5zm-33.3-11c9.5 3.2 19 6.2 28.6 9.5 7.8-1.5 15.6-2.9 23.4-4.4-9.5-2.4-18.9-4.6-28.3-6.9-7.9 0.6-15.8 1.2-23.7 1.8zm-31.3-10.3c8.4 2.7 17 5.6 25.5 8.4 7.4-0.6 14.8-1.1 22.2-1.7-8.3-2-16.8-4.2-25.1-6.1-7.6-0.3-15.1-0.4-22.6-0.6zm-29.8-9.3c7.4 2.3 14.7 4.4 22.1 6.8 6.1 0.1 12.2 0.2 18.2 0.4-7.7-1.8-15.2-3.4-22.8-5.1-5.9-0.7-11.7-1.4-17.5-2.1zm-22.1-6.6q4.8 1.4 9.6 2.8 3.6 0.5 7.1 0.9c-5.5-1.2-11.2-2.6-16.7-3.7zm449.3 216.8c11.6 6.3 23.5 12.8 35.3 19.3 5.5-13.7 11-27.3 16.3-41.7-11.4-5.2-22.9-10.7-34.2-15.7-5.7 13.1-11.5 25.6-17.4 38.1zm-37.6-19.7c11.7 6.2 23.3 12.1 35.2 18.5 5.9-12.5 11.7-25 17.4-38-11.5-5.2-22.8-9.9-34.2-14.9-6 11.8-12.2 23.1-18.4 34.4zm-37.2-19.5c11.5 5.9 23.2 12.1 34.8 18.2 6.2-11.2 12.4-22.4 18.4-34.1-11.3-5-22.6-10-33.8-14.8-6.4 10.5-12.9 20.6-19.4 30.7zm-37-18.8c11.5 5.8 23 11.5 34.7 17.6 6.5-10 13-20.1 19.3-30.5-11.3-4.9-22.5-9.6-33.7-14.2q-10.1 13.8-20.3 27.1zm-36.8-18.2c11.4 5.6 22.9 11.3 34.4 17.1q10.3-13.2 20.3-27c-11.2-4.7-22.4-9.2-33.5-13.8-7 8-14.1 16-21.2 23.7zm-36.3-17.9c11.2 5.4 22.7 11.2 34 16.7 7.1-7.6 14.1-15.5 21.1-23.5-11-4.4-22.2-9.1-33.1-13.4-7.3 6.8-14.6 13.7-22 20.2zm-36.3-17c11.3 5.3 22.5 10.4 33.9 15.9 7.3-6.5 14.6-13.3 21.9-20.1-11.1-4.4-22-8.5-33.1-12.7-7.6 5.7-15.1 11.5-22.7 16.9zm-35.7-16.7c10.9 5 22.1 10.4 33.2 15.6 7.5-5.5 15.1-11.2 22.6-16.8-10.8-4.2-21.7-8.5-32.4-12.5-7.8 4.6-15.6 9.3-23.4 13.7zm-35.7-15.9c11 4.9 21.9 9.6 33 14.7 7.8-4.4 15.5-9 23.3-13.6-10.9-4-21.6-7.8-32.3-11.7-8 3.6-16 7.2-24 10.6zm-35.2-15.5q16 7 32.3 14.2c7.8-3.4 15.8-6.9 23.7-10.4-10.6-3.9-21.1-7.6-31.5-11.3-8.2 2.5-16.4 5.1-24.5 7.5zm-34.6-14.9c10.3 4.4 20.8 9 31.2 13.5 8.1-2.4 16.1-4.9 24.2-7.4-10.3-3.6-20.5-7.2-30.7-10.7-8.2 1.6-16.5 3.1-24.7 4.6zm-34.6-14.1c10.2 4.2 20.3 8.2 30.6 12.5 8-1.5 16-3 24.1-4.5-10.1-3.4-20-6.6-30-9.9-8.2 0.6-16.5 1.3-24.7 1.9zm-32.9-13.4c9.2 3.6 18.7 7.6 28 11.4 7.9-0.6 15.9-1.2 23.9-1.8-9.2-3-18.5-6.2-27.5-9.1-8.2-0.2-16.3-0.4-24.4-0.5zm-32.6-12.6c8.9 3.4 17.5 6.6 26.5 10.1 7.3 0.1 14.8 0.3 22.2 0.5-8.9-2.8-17.6-5.4-26.5-8-7.4-0.9-14.8-1.8-22.2-2.6zm-29.4-11.1q10.2 3.8 20.4 7.7c6.2 0.7 12.5 1.4 18.7 2.2-6.7-2-13.4-4.2-20-6.1-6.4-1.2-12.7-2.5-19.1-3.8zm-36.9-7.1c8.6 3.8 17.3 7.7 26.1 11.6 7.2 0.8 14.3 1.4 21.6 2.1-8.3-3.1-16.7-6.3-24.9-9.3-7.6-1.5-15.3-3-22.8-4.4zm510.2 271.3q18.2 11.3 36.7 22.9c5.6-12.8 10.9-26.8 16.3-40.3-11.9-6.5-23.7-13.1-35.4-19.4-5.8 12.5-11.6 25.1-17.6 36.8zm-38.9-23.5c12.2 7.4 24.3 14.6 36.6 22.1 6-11.7 11.7-24.3 17.5-36.6-11.9-6.4-23.6-12.4-35.4-18.6-6.2 11.2-12.3 22.5-18.7 33.1zm-38.3-23.1c11.8 7 24 14.5 36.1 21.8 6.3-10.6 12.4-21.8 18.6-33-11.7-6.1-23.5-12.4-35-18.4-6.5 10.1-13.1 20-19.7 29.6zm-38.3-22.3c12 7 23.9 13.7 36 20.9 6.7-9.5 13.2-19.4 19.7-29.4-11.8-6-23.3-11.7-34.9-17.6-6.9 8.9-13.8 17.6-20.8 26.1zm-37.9-21.7q17.7 10.1 35.6 20.5c7-8.5 13.9-17.2 20.7-26-11.6-5.9-23.1-11.6-34.6-17.2-7.2 7.7-14.4 15.2-21.7 22.7zm-37.4-21.2c11.6 6.5 23.4 13.2 35.2 19.9q10.8-11.1 21.6-22.6c-11.4-5.6-22.9-11.4-34.2-16.8-7.5 6.7-15.1 13.1-22.6 19.5zm-37.4-20.4c11.7 6.4 23.2 12.6 35.1 19.1 7.5-6.3 15-12.7 22.4-19.3-11.5-5.5-22.8-10.7-34.2-16-7.7 5.5-15.5 10.9-23.3 16.2zm-36.7-19.9c11.3 6 22.9 12.5 34.3 18.7 7.8-5.4 15.5-10.7 23.2-16.2-11.1-5.2-22.4-10.6-33.5-15.6-8 4.4-16 8.7-24 13.1zm-36.7-19.1c11.4 6 22.7 11.6 34.2 17.8 8-4.4 15.9-8.6 23.9-13.1-11.3-5.1-22.3-9.9-33.5-14.8-8.2 3.4-16.4 6.7-24.6 10.1zm-36.1-18.5q16.6 8.4 33.4 17.1c8.1-3.3 16.2-6.6 24.3-10.1-10.9-4.8-21.9-9.6-32.7-14.3-8.4 2.5-16.7 4.9-25 7.3zm-35.5-17.8c10.7 5.2 21.6 10.8 32.4 16.3 8.3-2.5 16.5-4.8 24.7-7.3-10.7-4.6-21.4-9.2-32-13.7-8.4 1.6-16.7 3.1-25.1 4.7zm-35.6-17.1c10.6 5.1 21.2 10 32 15.3 8.2-1.5 16.4-3 24.7-4.5-10.6-4.4-21.1-8.6-31.6-12.9-8.4 0.7-16.8 1.4-25.1 2.1zm-34.3-16.5c9.9 4.7 20.1 9.7 30.1 14.5 8.1-0.7 16.3-1.4 24.5-2.1-9.8-3.9-19.8-8.2-29.5-12-8.4-0.1-16.7-0.2-25.1-0.4zm-34.3-15.6c9.8 4.5 19.4 8.6 29.3 13.3 7.9 0 15.7 0.1 23.7 0.2-9.9-3.8-19.4-7.3-29.1-11q-12-1.3-23.9-2.5zm-13.4-14.1c1.4 0.5 2.8 1.1 4.2 1.6 1.8 0.4 3.7 0.8 5.6 1.1-3.3-0.9-6.5-1.8-9.8-2.7zm-1107.4 118.2c12.8 12.5 25.7 24.9 38.8 37.4 272.4-72.9 629.9-130.7 1075.6-128.6-11-5.8-21.6-10.9-32.5-16.5-462-41.5-817.8 17.5-1081.9 107.7zm-41.2-40.2q19.4 19.2 39.3 38.4c263.5-90.1 618-149.4 1078.2-108.8-10-5.2-20.1-10.4-30-15.3-477.7-80.6-831.6-21-1087.5 85.7zm1619.2 229.7c12.6 8.6 25 17 37.8 25.9 6-12.5 12.2-24.7 18.1-37.8q-18.5-11.6-36.7-22.8c-6.3 12-12.8 23.2-19.2 34.7zm-39.7-27c12.4 8.5 24.8 16.8 37.4 25.4 6.4-11.4 12.9-22.5 19.1-34.5-12.3-7.6-24.4-14.8-36.6-22.2-6.6 10.8-13.3 21-19.9 31.3zm-39.3-26.5c12.2 8 24.7 16.7 37 25 6.7-10.3 13.4-20.4 19.9-31.2-12.1-7.3-24.3-14.8-36.3-21.9-6.7 9.7-13.7 18.9-20.6 28.1zm-39.2-25.4c12.4 8.1 24.5 15.6 37 23.9 6.9-9.2 13.8-18.3 20.6-27.9-12.2-7.3-24.1-14-36.2-21-7.1 8.6-14.3 16.8-21.4 25zm-38.7-25c12 7.7 24.3 15.6 36.5 23.6 7.1-8.2 14.3-16.3 21.3-24.9-12-6.9-23.9-13.8-35.8-20.6q-10.9 11.2-22 21.9zm-38.4-24.3c12 7.5 24.1 15.2 36.2 22.9 7.4-7.1 14.7-14.3 22-21.7-11.9-6.8-23.7-13.5-35.5-20.1-7.5 6.4-15.1 12.8-22.7 18.9zm-38.2-23.5c11.9 7.4 23.8 14.6 36 22.1 7.6-6.1 15.1-12.3 22.6-18.7-11.9-6.6-23.5-12.8-35.3-19.2-7.8 5.3-15.5 10.7-23.3 15.8zm-37.6-23c11.6 7 23.6 14.5 35.3 21.6 7.8-5.1 15.5-10.4 23.2-15.7-11.5-6.3-23.2-12.8-34.6-18.8-7.9 4.3-15.9 8.7-23.9 12.9zm-37.6-22c11.8 6.9 23.3 13.4 35.3 20.6 7.9-4.2 15.8-8.6 23.8-12.9-11.7-6.2-23.1-11.9-34.7-17.9-8.1 3.4-16.3 6.9-24.4 10.2zm-37.1-21.6c11.4 6.6 22.9 13.3 34.5 20.1 8.1-3.3 16.2-6.7 24.3-10.1-11.3-5.8-22.6-11.7-33.8-17.3-8.4 2.5-16.7 4.9-25 7.3zm-36.5-20.8c11.1 6.2 22.4 12.8 33.6 19.2 8.3-2.4 16.6-4.8 24.8-7.3-11.1-5.5-22.2-11.1-33.1-16.5-8.5 1.5-16.9 3.1-25.3 4.6zm-36.6-19.9c11.1 6 22 11.9 33.3 18.1 8.3-1.5 16.6-3 25-4.6-11-5.4-21.9-10.4-32.7-15.6q-12.9 1-25.6 2.1zm-35.3-19.2c10.4 5.5 21 11.4 31.5 17.1 8.4-0.7 16.8-1.4 25.2-2.1-10.3-4.9-20.8-10.1-31-14.8q-12.9-0.2-25.7-0.2zm-35.3-18.4c10.3 5.3 20.5 10.4 31 16 8.2 0 16.6 0.1 24.9 0.2-10.5-4.9-20.7-9.2-31.1-13.9q-12.5-1.2-24.8-2.3zm-34.2-17.4q14.2 7.1 28.5 14.5c7.9 0.7 15.8 1.5 23.8 2.2-9.4-4.2-18.9-8.5-28.2-12.6q-12.1-2.1-24.1-4.1zm-31.5-15.9c8.1 3.9 16.3 8.2 24.4 12.3 7.5 1.2 14.9 2.5 22.4 3.8-8.9-3.8-17.6-7.4-26.5-11.1-6.7-1.7-13.5-3.3-20.3-5zm-30.8-14.6c6.7 3.2 13.3 6.2 20.1 9.5 5.4 1.3 10.9 2.7 16.3 4-7.1-3-14.3-5.9-21.4-8.8-5.1-1.7-10-3.1-15-4.7zm-19.8-9.4q2 1 4.1 2 2.6 0.8 5.2 1.6c-3.1-1.2-6.2-2.3-9.3-3.6zm-460.1 595.3c7.1 4.9 14.2 9.9 21.3 14.8 414.5 224.7 838.4 269.2 1081.3-228.1-12.7-8.9-25.2-17.4-37.8-26.1-255.8 456.2-666.6 431-1064.8 239.4zm-40-28.4c8.6 6.2 17.2 12.4 25.7 18.5 401.8 197.5 818.3 228.7 1076.8-231-12.7-8.7-25.1-17-37.6-25.5-272.1 419.9-677.8 405.1-1064.9 238zm-38.7-28.4c9.6 7.2 19.3 14.2 28.9 21.2 389.2 170.9 798.5 189.5 1072.4-232.3-12.3-8.4-24.9-17.1-37.1-25.1-288.1 383.1-688.4 378.7-1064.2 236.2zm-38.4-29.2c10.2 7.8 20.3 15.7 30.5 23.4 377.3 145.2 780.3 152.5 1069.9-231.9-12.6-8.3-24.8-15.9-37.2-24-304 345.3-698.8 350.5-1063.2 232.5zm-38.7-30.1c11 8.6 22 17.2 33 25.7 365.2 119.8 761.6 116.3 1066.7-229.5-12.3-8-24.6-16-36.7-23.7-320 307.5-709.7 321.7-1063 227.5zm-38.6-31c11.3 9.2 22.6 18.2 33.9 27.2 353.8 95.6 744.7 82.6 1065.5-225.1q-18.3-11.7-36.4-23c-336 269.3-720.7 291.9-1063 220.9zm4.8 35.8c-6.9-2.6-13.9-5.2-20.9-7.9 8.5 5.3 17.1 10.4 25.7 15.6 6.1 2.8 12.2 5.4 18.3 8-7.7-5.1-15.4-10.5-23.1-15.7zm-82.2-100.4c11.7 10.1 23.6 20 35.5 29.9 331.5 48.9 711.8 19.4 1064.2-211.2-11.9-7.3-23.9-14.8-35.5-21.8-367.8 192.3-743.2 229.2-1064.2 203.1zm-39.3-33.8c12 10.4 24.1 20.8 36.2 31.2 321 26.6 696.8-9.9 1064.9-202-12.1-7.2-23.7-13.7-35.7-20.7-383.5 153.4-754.7 196.3-1065.4 191.5zm-39.5-35c12.2 10.9 24.4 21.8 36.7 32.5 310.5 5.2 681.9-37.4 1065.6-190.5-11.6-6.9-23.3-13.7-34.8-20.2-399.3 114.4-766.7 162.4-1067.5 178.2zm-39.9-36q18.6 16.9 37.4 33.8c300.5-15.6 667.8-63.4 1067.2-177.7-11.5-6.5-23-13.1-34.3-19.4-415.2 75.5-779.1 127.7-1070.3 163.3zm-40.3-37c12.6 11.6 25.3 23.3 38 34.9 290.8-35.5 654.4-87.6 1069.3-163-11.4-6.3-22.6-12.3-33.9-18.5-430.8 36.5-791.6 91.9-1073.4 146.6zm-40.5-38.2c12.7 12.1 25.5 24.2 38.4 36.2 281.4-54.6 641.6-110 1071.8-146.6-10.7-5.8-21.7-12-32.2-17.6-446.8-2.5-805 55.2-1078 128zm1018.7-170.5c6.5 2.8 13.2 5.8 19.7 8.7 6.1 1.1 12.1 2.1 18.3 3.2-7.1-2.5-14-4.8-21.1-7.3-5.6-1.5-11.4-3.2-16.9-4.6zm-18.4-7.6c1 0.5 2 0.8 3 1.3q1 0.2 2 0.4c-1.7-0.5-3.3-1.1-5-1.7zm-1033.8 184.8c-12.9-11.6-25.6-23.4-38.2-35-8.6 3.1-17.1 6.2-25.5 9.4 12.5 11 25.1 22 37.9 33q12.7-3.7 25.8-7.4zm39.8 35.8c-12.7-11.3-25.3-22.6-37.8-33.9-8.6 2.4-17.2 4.8-25.7 7.3q18.6 15.9 37.4 31.7c8.6-1.7 17.4-3.4 26.1-5.1zm39.5 34.6c-12.5-10.9-25-21.8-37.3-32.7-8.7 1.7-17.4 3.5-26 5.2 12.2 10.2 24.6 20.4 37 30.6 8.7-1 17.5-2.1 26.3-3.1zm38.9 33.5q-18.4-15.7-36.6-31.5c-8.7 1.1-17.5 2.1-26.1 3.2q18.1 14.7 36.3 29.4 13.1-0.6 26.4-1.1zm38.3 32.4c-12-10-23.8-20.1-35.7-30.2q-13.1 0.6-26.2 1.1c11.8 9.4 23.6 18.8 35.5 28.2 8.8 0.3 17.6 0.6 26.4 0.9zm38.3 31.3c-11.8-9.6-23.6-19.2-35.3-28.9-8.8-0.3-17.5-0.6-26.2-0.9q17.4 13.6 34.9 26.9c8.8 1 17.7 2 26.6 2.9zm37.5 30c-11.4-9.1-22.9-18.2-34.2-27.4-8.9-0.8-17.6-1.8-26.3-2.7 11.3 8.6 22.8 17.1 34.2 25.6q13.1 2.3 26.3 4.5zm36.5 28.7c-10.9-8.4-21.7-17-32.6-25.6-8.7-1.4-17.3-3-25.9-4.5q16.5 12.2 33.1 24.2c8.4 2.1 16.9 4 25.4 5.9zm36.6 27.7c-10.7-8-21.3-16-31.9-24.1-8.3-1.9-16.7-3.8-25-5.8 10.5 7.5 21 15 31.5 22.4 8.4 2.6 16.9 5 25.4 7.5zm35.5 26.4c-10-7.3-20.1-14.7-30.1-22.2-8.1-2.4-16.2-4.7-24.3-7.1 10 6.9 20.1 13.7 30.2 20.5 8 3 16.1 5.9 24.2 8.8zm34.3 24.9c-9.1-6.5-18.2-13.2-27.3-19.9-7.5-2.6-15.1-5.2-22.5-7.9q13.4 9.1 26.9 17.9c7.6 3.3 15.3 6.7 22.9 9.9zm32.7 22.7c-8-5.5-16-10.9-23.9-16.5q-9.6-3.9-19.1-7.9c7.5 4.9 15 9.8 22.5 14.6 6.8 3.3 13.6 6.6 20.5 9.8zm26.4 18.3c-4.4-3-8.8-6.1-13.3-9.2-4.7-2.1-9.3-4.4-14-6.7 5.7 3.6 11.4 7 17.1 10.5 3.4 1.8 6.8 3.6 10.2 5.4zm1215.8-144.4c-219.7 517.3-629.8 481.3-1043 251.2 436.9 274.9 871.2 343.1 1081.4-224-12.9-9.3-25.6-18.1-38.4-27.2zm18.1-43.8c-5.5 14.4-11.4 27.9-17.1 41.6 12.7 9 25.4 17.8 38.2 27.1 5.5-14.8 10.9-29.6 16-45.2-12.5-8-24.7-15.6-37.1-23.5zm16.3-46.4c-5.1 14.9-10.1 30.1-15.4 44.2 12.4 7.9 24.5 15.4 37 23.4 5-15.2 9.6-31.4 14.3-47.5-12.1-6.9-24-13.4-35.9-20.1zm16-48.1c-4.9 15.8-10.1 30.7-15.3 45.8 12 6.7 23.8 13.2 35.9 20 4.7-16.3 9.6-32.3 14-49.4-11.5-5.5-23.1-11-34.6-16.4zm14.3-50.6c-4.5 16.4-8.9 32.8-13.7 48.3 11.5 5.4 23 10.8 34.6 16.3 4.3-16.7 8.2-34.5 12.1-52.2-11-4.1-22.1-8.4-33-12.4zm13.7-52.4c-4.2 17.1-8.6 33.8-13.1 50.2 10.9 4 22 8.2 32.9 12.3 4-17.8 8-35.7 11.7-54.3-10.5-2.7-21.1-5.6-31.5-8.2zm12.5-54.5q-5.8 26.6-12 52.2c10.4 2.6 21 5.5 31.4 8.2 3.6-18.5 7.1-37.4 10.4-56.7-9.9-1.2-19.9-2.5-29.8-3.7zm11.5-56.6c-3.6 18.4-7.1 36.7-10.9 54.3 9.8 1.2 19.8 2.5 29.6 3.7 3.3-19.1 6.3-38.9 9.3-58.9-9.4 0.3-18.8 0.6-28 0.9zm10.8-58.7c-3.3 19.3-6.9 37.7-10.4 56.3 9.3-0.3 18.6-0.6 27.9-0.9 2.9-20.1 5.9-40.1 8.6-61-8.7 1.8-17.4 3.7-26.1 5.6zm9.2-60.7c-2.9 19.5-5.6 39.4-8.7 58.1 8.6-1.8 17.3-3.7 25.9-5.5 2.5-20.4 4.7-41.8 6.9-63-8.1 3.5-16.1 7-24.1 10.4zm9.1-63.2c-2.7 20.8-5.8 40.4-8.7 60.5 8-3.5 16-6.9 23.9-10.4 2.3-21.7 4.8-42.8 6.7-65.3q-10.9 7.7-21.9 15.2zm7-64.4c-2.2 20.6-4.2 41.6-6.7 61.3q11-7.5 21.9-15.1c1.8-21.3 3.1-44 4.5-66.2-6.6 6.8-13.1 13.4-19.7 20zm6.9-67.3c-1.9 21.7-4.3 42.5-6.5 63.5 6.5-6.5 13.1-13.1 19.6-19.8 1.5-22.7 3.1-44.9 4.3-68.3-5.7 8.4-11.5 16.4-17.4 24.6zm5.2-68.2c-1.5 21.4-3 43-4.8 63.6 5.2-7.3 10.4-14.5 15.6-22.1l0.1-0.1v-0.1l1.5-1.4c1.1-22 1.8-44.9 2.6-67.7l-2.2 3.1c-4.2 8.5-8.5 16.5-12.8 24.7zm4.9-71.3c-1.3 22.2-2.9 43.7-4.4 65.3 3.4-6.6 6.9-13 10.2-19.8l0.1-0.1v-0.1q2.2-3 4.4-6.1c0.7-22.9 1.7-45.6 2.2-69.2q-2.3 4.5-4.5 9.1c-2.6 7.1-5.3 14-8 20.9zm3.3-71.8c-0.9 21.7-1.8 43.3-3 64.2 1.9-4.7 3.7-9.3 5.5-14.2v-0.1-0.1q3.4-6.6 6.8-13.3c0.4-22.2 0.6-45.1 0.7-68l-5.3 14.8c-1.5 5.7-3.1 11.2-4.7 16.7zm2.8-74.7c-0.6 21.7-1.4 43.1-2.3 64.2 0.7-2.3 1.3-4.5 1.9-6.9h0.1v-0.1q3.8-10.6 7.6-21.2c0.2-22.8 0.5-45.3 0.4-68.6q-2.9 11.5-5.8 23.1c-0.6 3.2-1.2 6.3-1.9 9.5zm1.6-74.2c-0.4 20.6-0.7 41.3-1.3 61.4q3.7-14.6 7.3-29.1c-0.1-20.9-0.5-42.5-0.9-64.1l-4.8 28.9c-0.1 1-0.2 1.9-0.3 2.9zm0.8-75.4c0 19.8-0.2 39.1-0.5 58.2l4.6-28c-0.4-21.1-0.5-41.4-0.9-62.7zm-0.3-68.2c0 14.8 0.2 29.9 0.2 44.5l2.5-26.8c-0.4-14.7-1-30-1.6-45.2zm-0.2-61.9c0 2.7 0 5.2 0 7.9l0.2-4.4c-0.1-2.1-0.2-4.2-0.2-6.3zm-1.9 129.9c0-2.2 0-4.5 0-6.7-0.2 3.6-0.3 7.2-0.4 10.8zm-0.9 75.4c0.3-16 0.8-31.4 1-47.7-0.7 9.9-1.6 19.3-2.3 29.1q-0.8 21.7-1.9 42.8c1.1-8 2.2-15.9 3.2-24.2zm-1.5 74.1c0.5-17.2 0.8-35 1.1-52.8-1.5 12.2-3.2 24-4.8 36-1 17-1.9 34.3-3 51 2.2-11.3 4.5-22.5 6.7-34.2zm-2.8 74.7c0.9-20.3 1.8-40.3 2.5-61.1-2.4 12.9-5 25.5-7.5 38.2-1.4 19.3-3 38.1-4.5 57 3.2-11.3 6.4-22.5 9.5-34.1zm-3.4 71.6c1.2-19.8 2-40.5 2.9-61-3.3 12.3-6.7 24.4-10.1 36.4-1.6 19.2-3.2 38.3-5.1 56.9 4.2-10.7 8.3-21.4 12.3-32.3zm-4.8 71.2c1.5-21.1 3.2-42 4.5-63.6-4.2 11.2-8.5 22.3-12.7 33.3-2.1 20.1-4.4 39.4-6.7 59q7.5-14.3 14.9-28.7zm-5.2 68c1.8-20.1 3.2-41.2 4.7-62-5 9.8-10.1 19.6-15.2 29.4-2.2 19.2-4.4 38.5-6.8 57.1 5.8-8.1 11.5-16.3 17.3-24.5zm-6.9 67.1c2.2-20.8 4.6-41.2 6.6-62.6-5.9 8.3-11.7 16.7-17.6 24.9-2.7 19.7-5.8 38.5-8.7 57.6 6.5-6.5 13.1-13.3 19.7-19.9zm-7 64.1c2.5-19.4 4.4-40.1 6.5-60.4-6.6 6.7-13.2 13.6-19.9 20.2-2.8 18.6-5.4 37.5-8.5 55.4 7.3-5 14.6-10.2 21.9-15.2zm-9.1 62.9c2.9-19.8 6-39.2 8.7-59.7-7.4 5-14.7 10.2-22.1 15.2-3.3 18.8-7 36.5-10.6 54.7 8-3.3 16-6.8 24-10.2zm-9.1 60.3c3.1-18.6 5.9-38.2 8.7-57.6-8 3.4-16.1 6.9-24.1 10.3-3.4 17.8-6.8 35.7-10.5 52.8q12.9-2.8 25.9-5.5zm-10.8 58.3c3.5-18.3 7.1-36.7 10.3-55.8q-13 2.8-26 5.5c-3.9 17.6-8 34.4-12.1 51.3q13.8-0.5 27.8-1zm-11.3 56.3c3.8-17.5 7.4-35.6 10.9-53.9q-14.1 0.5-28 1c-4.1 16.8-8.2 33.4-12.5 49.5 9.8 1.1 19.7 2.2 29.6 3.4zm-12.5 54.2c4.1-16.9 8.1-34.2 12-51.9-10-1.2-19.9-2.3-29.7-3.4-4.5 16.3-9 32.1-13.7 47.6 10.5 2.6 20.8 5 31.4 7.7zm-13.6 52.2c4.5-16.3 8.9-32.8 13.1-49.9-10.6-2.7-21-5.1-31.5-7.7-4.7 15.7-9.5 30.9-14.4 45.8 10.9 3.9 21.8 7.7 32.8 11.8zm-14.2 50.3c4.7-15.4 9.1-31.8 13.6-48-11.1-4.1-22-7.9-33-11.9-4.9 15-9.8 29.8-15 44 11.5 5.3 22.9 10.5 34.4 15.9zm-15.9 47.9c5.1-15 10.4-29.8 15.2-45.6-11.5-5.4-23-10.6-34.5-15.9-5.2 14.4-10.8 28.1-16.3 41.9 11.8 6.5 23.7 13 35.6 19.6zm-16.1 46.3c5.3-14.1 10.3-29.2 15.3-44-11.9-6.7-23.8-13.2-35.7-19.7-5.4 13.6-10.7 27.5-16.4 40.4 12.2 7.7 24.5 15.5 36.8 23.3zm-18 43.6c5.7-13.6 11.5-27.1 17-41.4-12.3-7.8-24.5-15.6-36.7-23.3-5.9 13.2-12.1 25.4-18.2 37.9 12.5 8.8 25.3 17.9 37.9 26.8zm-1085.3 226.8c426.7 251.3 857.2 309 1084.4-224.5-12.7-9-25.5-18.1-38-26.9-239.2 491-654.1 455.8-1062.7 240.7 5.4 3.6 10.8 7.1 16.3 10.7zm-85.9-53.2c4.3 2.8 8.6 5.7 12.9 8.4 5 2.9 10 5.9 15 8.7q-8.2-5.7-16.4-11.4c-3.8-1.9-7.7-3.8-11.5-5.7zm-43.7-28.7c8.2 5.5 16.4 10.8 24.7 16.3q8.4 4.3 16.8 8.4c-7.2-5.2-14.5-10.6-21.7-15.9-6.6-3-13.2-5.9-19.8-8.8zm-39.1-27.1q13.8 9.7 27.6 19.1c7.2 3.3 14.3 6.4 21.5 9.6-9-6.6-18.1-13.2-27.1-19.9q-11-4.4-22-8.8zm-38.5-27.4c9.7 7 19.4 14.1 29.2 21 8 3.3 16 6.4 24 9.5-9.6-7.2-19.2-14.7-28.8-22.1-8.2-2.7-16.3-5.6-24.4-8.4zm-38.6-28.2c10.5 7.8 21.1 15.5 31.7 23.1 8.3 3 16.7 5.9 25.1 8.7-10.5-8.1-20.9-16.4-31.4-24.7-8.5-2.3-16.9-4.7-25.4-7.1zm-38-28.8c10.8 8.3 21.7 16.5 32.6 24.7 8.7 2.5 17.4 5.1 26.1 7.5-11.1-8.9-22.3-17.7-33.3-26.7q-12.8-2.7-25.4-5.5zm-38.2-29.8c11.1 8.8 22.3 17.6 33.5 26.2q13 3 26 5.8c-11.3-9.3-22.5-18.7-33.7-28.1-8.6-1.3-17.3-2.5-25.8-3.9zm-38.9-30.9c11.6 9.4 23.3 18.6 35 27.8 8.7 1.5 17.4 2.8 26.2 4.1q-17.6-14.7-35-29.6c-8.8-0.7-17.5-1.5-26.2-2.3zm-39-31.9q17.8 14.7 35.8 29.2c8.7 0.9 17.5 1.6 26.4 2.4-12-10.3-24-20.6-35.9-31-8.8-0.1-17.6-0.4-26.3-0.6zm-39.1-32.8c12 10.1 24.1 20.3 36.2 30.4q13.1 0.4 26.4 0.6c-12.2-10.7-24.2-21.5-36.3-32.3-8.8 0.5-17.5 0.9-26.3 1.3zm-39.5-33.9q18.3 15.9 36.9 31.6c8.8-0.4 17.5-0.7 26.4-1.2q-18.6-16.7-37.1-33.6-13.2 1.6-26.2 3.2zm-39.9-34.9c12.4 11 25 21.9 37.5 32.8 8.7-1 17.5-2.1 26.3-3.2-12.6-11.5-25.3-23.1-37.7-34.7-8.8 1.7-17.5 3.4-26.1 5.1zm-40.2-36.1q18.9 17.1 38 34.1c8.6-1.7 17.4-3.4 26.2-5.1-12.9-12-25.6-24-38.2-36-8.7 2.4-17.5 4.7-26 7zm-40.4-37c12.7 11.7 25.4 23.5 38.4 35.2 8.5-2.4 17.2-4.7 26-7-13.1-12.4-25.9-24.8-38.7-37.2q-13 4.4-25.7 9zm-40.8-38.1q19.2 18.2 38.9 36.3 12.7-4.5 25.7-9-19.7-19.2-39.1-38.3c-8.7 3.6-17.1 7.3-25.5 11zm427.2 371.6c-4.7-2-9.3-4-13.9-6 5.1 3 10.3 6.2 15.5 9.3 5.5 2.8 11 5.7 16.6 8.4-6.1-3.9-12.2-7.8-18.2-11.7z"/>
		</g>
	</g>
</svg>