<svg version="1.2" xmlns="http://www.w3.org/2000/svg" viewBox="0 0 4304 2916" width="4304" height="2916">
	<title>indr29-ai</title>
	<style>
		.s0 { fill: #b3b3b3 } 
	</style>
	<g id="Layer 1">
		<g id="&lt;Group&gt;">
			<path id="&lt;Compound Path&gt;" fill-rule="evenodd" class="s0" d="m2744 0h23.1c-456.2 1706.8 350.4 2176.2 1018 2564.5 183.6 106.8 356.9 207.5 491.4 326.4 9.4 8.2 18.5 16.6 27.5 25.1h-32.6c-3.2-2.9-6.3-5.8-9.5-8.6-132.8-117.3-305.1-217.5-487.9-323.8-673.9-391.9-1488.1-865.8-1030-2583.6zm-100.6 0h23.2c-508.2 1774.5 318.4 2232.3 998.2 2608.7 181.2 100.4 352.1 195 485.4 307.3h-34.7c-128.6-103.7-290.4-193.2-461.5-288-686.3-380-1520.7-842.2-1010.6-2628zm-98.7 0h23.3c-561.7 1843.7 284.8 2289 976.5 2652.8 164.3 86.4 320 168.2 446.7 263.2h-37.4c-120.8-86.5-266.4-163.1-419.6-243.7-698.5-367.3-1553.3-816.9-989.5-2672.3zm-97 0h23.4c-616.5 1914.5 249.8 2346.3 953.2 2696.7 145.4 72.4 283.9 141.4 401.5 219.3h-40.7c-110.1-69.8-237.5-133.2-370.7-199.5-710.5-353.9-1585.4-790-966.7-2716.5zm-95.5 0h23.5c-672.7 1987 213.5 2404.3 928.5 2740.4 124.1 58.4 243 114.3 348.1 175.6h-44.5c-95.9-53.5-202.4-103.6-313-155.6-722.3-339.6-1617.6-761.2-942.6-2760.4zm-94 0h23.5c-730.2 2061.2 176.2 2462.7 902.5 2784 99.8 44.1 196.1 86.8 284.6 132h-49.4c-77-37.8-159.3-74.2-244.1-111.7-734-324.7-1650-730.5-917.1-2804.3zm-92.7 0h23.6c-789.1 2137.1 137.8 2521.7 875.3 2827.5 71.7 29.7 141.6 58.7 208.1 88.5h-54.8c-52.3-22.7-106.5-45.2-161.8-68.1-745.5-309.1-1682.4-697.8-890.4-2847.9zm-91.3 0h23.6c-849.4 2214.7 98.3 2581.3 846.8 2870.8 39.3 15.2 78.1 30.2 116 45.2h-60.4q-31.5-12.3-63.6-24.6c-756.8-292.8-1714.9-663.4-862.4-2891.4zm-89.8 0h23.7c-910.4 2293.4 57.6 2641.3 816.8 2913.9l6 2.1h-65.2c-758.9-273.8-1674.6-660.4-781.3-2916zm-88.9 0h23.9c-766.4 1869.6-316.9 2469.9 284.3 2764.7 123.1 60.3 252.8 108 379.9 151.3h-67.8c-107.9-38-217-80.1-321.8-131.5-609.6-298.9-1066.6-904.9-298.5-2784.5zm-87.5 0h23.8c-800.6 1897.4-381.2 2511.7 210.4 2801.8 90.7 44.4 185.6 81.4 280.8 114.2h-66.1c-76-27.8-151.5-58.7-224.4-94.4-600.1-294.3-1027-914.5-224.5-2821.6zm-86.5 0h24c-835.4 1927.7-444 2555.9 138.5 2841.5 56.6 27.7 115 52.3 174.4 74.5h-61c-41.7-16.8-82.8-35-123.1-54.7-591.2-289.9-990.1-924-152.8-2861.3zm-85.4 0h24.1c-870.7 1960.3-505.5 2602.1 68.4 2883.5 23.2 11.4 46.9 22.2 70.8 32.5h-53.9q-13.4-6.2-26.6-12.7c-582.7-285.7-955.4-933.5-82.8-2903.3zm-84.5 0h24.2c-894.1 1968.1-574.9 2632.2-23 2916h-46.8c-537.8-298.8-830.8-982.3 45.6-2916zm-83.6 0h24.3c-882.4 1902.2-660.7 2609.2-171 2916h-40.7c-477.4-320.9-679.5-1043 187.4-2916zm-82.8 0h24.5c-871.6 1843-733.7 2585.1-304.4 2916h-35.7c-418.9-343.9-542.4-1097.8 315.6-2916zm-81.9 0h24.5c-861.7 1790-795.7 2561-424.2 2916h-31.8c-363-366.9-418.3-1147.4 431.5-2916zm-81.1 0h24.5c-852.6 1742.3-849.1 2537.5-531.9 2916h-28.8c-310.3-389.4-306-1192.1 536.2-2916zm-81.7 0h24.5c-12.6 26.3-24.7 52.6-37.7 79-807.1 1646.2-852.1 2442.3-589.7 2837h-26.6c-257.4-405.2-206.1-1209.6 596.5-2846.7 11.4-23.2 22-46.2 33-69.3zm-81.9 0h24.4c-25.9 56.1-52.6 112.2-80.2 168.4-759.8 1549.7-844.1 2339.6-632.4 2747.6h-24.8c-207.9-417.4-119.1-1214.4 637.4-2757.3 26-52.9 51.1-105.8 75.6-158.7zm-84.4 0h24.2c-38.3 85.9-77.9 171.9-120.1 257.9-715.5 1459.4-832 2239.3-666.2 2658.1h-23.4c-163-427.3-43.3-1213.3 669.8-2667.8 40.6-82.8 78.7-165.5 115.7-248.2zm-60.9 0c-49.7 115.8-102.7 231.6-159.5 347.3-674 1374.7-816.3 2141.4-691.9 2568.7h-22.5c-122.4-435 22.3-1207.2 694.6-2578.4 55.2-112.5 106.8-225.1 155.2-337.6z"/>
		</g>
	</g>
</svg>