<?xml version="1.0" encoding="utf-8"?>
<!-- Generator: Adobe Illustrator 23.0.6, SVG Export Plug-In . SVG Version: 6.00 Build 0)  -->
<svg version="1.1" baseProfile="tiny" id="Layer_1" xmlns="http://www.w3.org/2000/svg" xmlns:xlink="http://www.w3.org/1999/xlink"
	 x="0px" y="0px" viewBox="0 0 614 286" xml:space="preserve">
<title>line art</title>
<desc>Created with Sketch.</desc>
<g id="Pages">
	<g transform="translate(-668.000000, -103.000000)">
		<g id="Intro" transform="translate(-10.000000, 0.000000)">
			<g id="BG">
				<g id="line-art" transform="translate(679.000000, 103.494247)">
					<g id="heart" transform="translate(371.000000, 37.505753)">
						<path id="Stroke-7" fill="none" stroke="#92CCE1" stroke-width="1.5" d="M14.7,3.9L13,2.2c-2.8-2.9-7.4-2.9-10.2,0
							C0,5.1,0,9.8,2.8,12.7L14.7,25l11.9-12.3c2.8-2.9,2.8-7.6,0-10.5c-2.8-2.9-7.4-2.9-10.2,0L14.7,3.9z"/>
						<path id="Stroke-9" fill="none" stroke="#92CCE1" stroke-width="1.5" d="M25.7,8c0-2.2-1.8-4-4-4"/>
					</g>
					<g id="chart" transform="translate(391.000000, 253.505753)">
						<polygon id="Stroke-13" fill="none" stroke="#92CCE1" stroke-width="1.5" points="16.5,30 22.5,30 22.5,0 16.5,0 						"/>
						<polygon id="Stroke-14" fill="none" stroke="#92CCE1" stroke-width="1.5" points="27.5,30 33.5,30 33.5,10 27.5,10 						"/>
						<path id="Stroke-15" fill="none" stroke="#92CCE1" stroke-width="1.5" d="M1,30.5h37"/>
						<polygon id="Stroke-11" fill="none" stroke="#92CCE1" stroke-width="1.5" points="5.5,30 11.5,30 11.5,16 5.5,16 						"/>
					</g>
					<g id="pen" transform="translate(229.000000, 106.505753)">
						<path id="Stroke-22" fill="none" stroke="#92CCE1" stroke-width="1.5" d="M20.7,0L20.7,0c2.7,0,4.8,2.2,4.8,4.8
							c0,1.3-0.5,2.5-1.4,3.4L10.5,21.8c-0.6,0.6-1.3,1-2.1,1.2l-7.9,2l2-7.9c0.2-0.8,0.6-1.5,1.2-2.1L17.3,1.4
							C18.2,0.5,19.4,0,20.7,0z"/>
						<path id="Stroke-23" fill="none" stroke="#92CCE1" stroke-width="1.5" d="M14.5,5l7,7"/>
						<polyline id="Stroke-24" fill="none" stroke="#92CCE1" stroke-width="1.5" points="1.5,20 4.5,21 5.5,24 						"/>
					</g>
					<g id="bulb-copy-4" transform="translate(104.000000, 171.505753)">
						<path id="Stroke-82" fill="none" stroke="#92CCE1" stroke-width="1.5" d="M9,36h11"/>
						<path id="Stroke-83" fill="none" stroke="#92CCE1" stroke-width="1.5" d="M14,3V0"/>
						<path id="Stroke-84" fill="none" stroke="#92CCE1" stroke-width="1.5" d="M27,9l2-3"/>
						<path id="Stroke-85" fill="none" stroke="#92CCE1" stroke-width="1.5" d="M0,6l2,3"/>
						<path id="Stroke-86" fill="none" stroke="#92CCE1" stroke-width="1.5" d="M14,32V22"/>
						<path id="Stroke-87" fill="none" stroke="#92CCE1" stroke-width="1.5" d="M15,22l3-3"/>
						<path id="Stroke-88" fill="none" stroke="#92CCE1" stroke-width="1.5" d="M14,22l-3-3"/>
						<path id="Stroke-89" fill="none" stroke="#92CCE1" stroke-width="1.5" d="M14.5,7C8.2,7,3,12,3,18.2c0,2.6,0.7,4.8,2.1,6.4
							c0.5,0.5,1,1,1.4,1.4c1.6,1.5,3.1,2.9,3.6,6h8.8c0.5-3,2-4.5,3.6-6c0.5-0.4,1-0.9,1.4-1.4c1.5-1.7,2.1-3.7,2.1-6.4
							C26,12,20.8,7,14.5,7z"/>
						<path id="Stroke-90" fill="none" stroke="#92CCE1" stroke-width="1.5" d="M10,38.2h1.6c0.4,0.6,1.2,1.6,2.4,1.6
							c1.2,0,2.1-1,2.4-1.6H18"/>
					</g>
					<g id="book" transform="translate(0.000000, 0.505753)">
						<path id="Stroke-71" fill="none" stroke="#92CCE1" stroke-width="1.5" d="M14.3,28L1.4,24.6c-0.8-0.2-1.4-1-1.4-1.8v-21
							c0-1.2,1.2-2.1,2.4-1.8l11.9,3.1V28z"/>
						<path id="Stroke-72" fill="none" stroke="#92CCE1" stroke-width="1.5" d="M13.7,28l12.9-3.4c0.8-0.2,1.4-1,1.4-1.8v-21
							c0-1.2-1.2-2.1-2.4-1.8L13.7,3.2V28z"/>
					</g>
					<g id="gear" transform="translate(587.000000, 165.505753)">
						<path id="Stroke-136" fill="none" stroke="#92CCE1" stroke-width="1.5" stroke-linecap="round" stroke-linejoin="round" d="
							M22.2,13c0-0.8-0.1-1.6-0.3-2.3l2.6-1.5C25,8.9,25.1,8.4,24.9,8l-1.8-3c-0.2-0.4-0.8-0.6-1.2-0.3l-2.6,1.5
							c-1.1-1.1-2.5-1.9-4.1-2.3v-3c0-0.5-0.4-0.9-0.9-0.9h-3.5c-0.5,0-0.9,0.4-0.9,0.9v3c-1.6,0.4-3,1.2-4.1,2.3L3.1,4.7
							C2.7,4.4,2.1,4.6,1.9,5L0.1,8C-0.1,8.4,0,8.9,0.4,9.2l2.6,1.5c-0.2,0.7-0.3,1.5-0.3,2.3c0,0.8,0.1,1.6,0.3,2.3l-2.6,1.5
							C0,17.1-0.1,17.6,0.1,18l1.8,3c0.2,0.4,0.8,0.6,1.2,0.3l2.6-1.5c1.1,1.1,2.6,1.9,4.1,2.3v3c0,0.5,0.4,0.9,0.9,0.9h3.5
							c0.5,0,0.9-0.4,0.9-0.9v-3c1.6-0.4,3-1.2,4.1-2.3l2.6,1.5c0.4,0.2,1,0.1,1.2-0.3l1.8-3c0.2-0.4,0.1-0.9-0.3-1.2l-2.6-1.5
							C22.1,14.6,22.2,13.8,22.2,13z"/>
						<path id="Stroke-137" fill="none" stroke="#92CCE1" stroke-width="1.5" stroke-linecap="round" stroke-linejoin="round" d="
							M17,13.5C17,11,15,9,12.5,9S8,11,8,13.5C8,16,10,18,12.5,18S17,16,17,13.5z"/>
					</g>
				</g>
			</g>
		</g>
	</g>
</g>
</svg>
