<svg version="1.2" xmlns="http://www.w3.org/2000/svg" viewBox="0 0 434 10" width="434" height="10">
	<title>821820_file-ai</title>
	<style>
		.s0 { fill: #ffcc70 } 
	</style>
	<path id="&lt;Path&gt;" class="s0" d="m433.3 3.4v4.7c-1.2 0.8-3 1.7-5 1.6-4.4-0.1-7.9-4.9-12.6-4.8-4.4 0.1-8 4.8-12.2 4.8-4.7 0.1-8.1-4.8-12.7-4.8-4.8 0-8 4.8-12.5 4.8-4.7 0-7.9-4.7-12.5-4.8-4.6 0-8 4.8-12.5 4.8-4.4 0.1-8.4-4.9-12.9-4.8-4.3 0.1-8.2 4.8-12.3 4.8-4.3 0-8.3-4.8-12.7-4.8-4.6 0.1-8.2 5.2-13.2 4.7-3.7-0.3-6.6-3.7-10.1-4.5-5.7-1.3-9.4 4.6-14.3 4.6-4.4 0-8-4.7-12.5-4.8-4.5 0-8.2 4.8-12.7 4.8-4.4 0-8.1-4.8-12.6-4.8-4.4 0.1-8.1 4.8-12.5 4.8-4.3 0-8-4.7-12.4-4.8-4.4 0-8.2 4.8-12.7 4.8-4.2 0-8.3-4.8-12.5-4.8-4.3 0-8.4 4.8-12.6 4.8-3.9 0-7.1-3.8-11-4.6-1.4-0.3-2.7-0.2-4.1 0.3-3 1-5.6 3.8-9 4.2-5 0.8-8.9-4.8-13.7-4.7-5.5 0.1-9.1 6.8-15.6 4.1-3.2-1.3-5.7-4-9.3-4.1-4.4 0-8.2 4.8-12.5 4.8-4.4 0.1-8.4-4.9-12.9-4.8-4.8 0.2-8.4 5.6-13.5 4.7-4-0.6-7.1-4.8-11.6-4.7-4.2 0.1-8.3 4.8-12.4 4.8-4.3 0-8.1-4.7-12.4-4.8-4.3 0-8.2 4.8-12.6 4.8-4.9 0.1-7.5-4.8-12.7-4.8-5.5 0-7.9 5.6-13.7 4.7-0.5-0.2-0.2-0.7-0.3-1 0-2.4 0.1-1.3 0-3.7 0.3-0.4 1-0.1 1.7-0.1 2.7-0.1 4.6-1.5 6.3-2.6 1.5-0.8 3.1-1.9 5-2.1 5.8-0.7 8.2 4.6 13.6 4.7 4.5 0.1 7-3.9 11.1-4.7 3.5-0.6 5.8 1.1 7.9 2.4 1.8 1.1 3.7 2.3 6.1 2.3 5 0 7.8-5.1 13.2-4.7 4.4 0.3 7.2 4.6 11.9 4.7 4.4 0 7.7-4.4 11.8-4.7 0.5-0.1 1.3-0.1 1.9 0 3.2 0.3 6 3.4 9.2 4.3 5.3 1.6 8.5-2.7 12.5-4 6.2-1.9 9.4 4.3 14.8 4.4 4.2 0.1 7.8-4.3 11.6-4.7 0.6-0.1 1.2-0.1 1.7 0 4.4 0.3 7.5 4.7 11.9 4.7 3.6 0 6.5-3 9.8-4.2 0.8-0.3 1.9-0.6 3.3-0.5 3.7 0.2 6.7 3.7 10.5 4.5 6.4 1.3 9-5.7 15.6-4.4 4.3 0.9 7.6 5.6 12.7 4.4 3.4-0.8 6.4-4.2 10.1-4.5 5.4-0.5 8.5 4.7 13.3 4.7 3.4 0 6.1-2.6 9.2-4 1-0.4 2.3-0.9 4.1-0.7 4.1 0.2 7.5 4.8 12.1 4.7 4-0.1 7.6-4.4 11.6-4.7 5.5-0.5 8.4 4.8 13.5 4.7 3.9-0.1 7.6-4.4 11.5-4.7 5.3-0.5 8.6 4.6 13.4 4.7 5.1 0 8.6-6.2 14.7-4.5 4 1.1 6.7 5.4 11.9 4.3 3.3-0.7 6.2-3.9 9.7-4.5 0.9-0.1 1.8-0.1 2.5 0 4.6 0.7 7.7 5.8 13.1 4.5 4.1-0.9 7.1-4.9 11.6-4.5 4.5 0.3 7.4 4.8 12.1 4.7 5.2-0.2 8.9-6.5 15-4.2 3.9 1.4 7.2 5.4 12.2 3.8 3.3-1 6-4.1 9.6-4.3 4.8-0.4 8.3 4.5 13 4.7 1.8 0 2.9-0.5 5-1.4z"/>
</svg>