<svg xmlns="http://www.w3.org/2000/svg" width="173.274" height="156.715" viewBox="0 0 173.274 156.715">
  <g id="Group_2620" data-name="Group 2620" transform="translate(75.073 -226.083)" opacity="0.25">
    <g id="Group_2619" data-name="Group 2619" transform="translate(-75.073 226.082)">
      <path id="Path_7634" data-name="Path 7634" d="M59.573,342.292c1.408-9.914-1.948-19.971-7.261-28.261l0,0a202.354,202.354,0,0,0,16.829-16.449,148.571,148.571,0,0,0,14.866-19.294c.007,0,.005-.006.007-.008a1.237,1.237,0,0,0,.378-.593l.007-.01.008-.009a119.45,119.45,0,0,0,6.349-11.221,89.249,89.249,0,0,0,6.786-17.359c1.337-5.319.761-11.931-2.946-16.208-3.845-4.43-10.012-5.928-15.615-6.466a76.756,76.756,0,0,0-16.652.278,99.694,99.694,0,0,0-31.689,9.786A140.012,140.012,0,0,0,1.53,256.1l0,0a30.712,30.712,0,0,0-4.188-4.812,1.448,1.448,0,0,0-.535-.475,31.43,31.43,0,0,0-19.631-7.852c-10.044-.42-20,3.48-28.007,9.359-9.338,6.857-16.676,16.559-22.13,26.706-1.813,3.374-3.395,8.109-.554,11.391,3.529,4.078,9.2,1.855,13.055-.349a20.279,20.279,0,0,1,7.158-2.837,18.254,18.254,0,0,1,6.962.355,17.708,17.708,0,0,1,10.983,7.9,15.989,15.989,0,0,0,.71,7.621l0,.012c-3.761.574-6.428,4.216-6.736,7.929a10.629,10.629,0,0,0-.012,1.475,26.154,26.154,0,0,0-7.982-1.25c-2.756.016-6.61.217-8.755,2.18-2.485,2.275-.611,5.216,1.412,6.972a44.9,44.9,0,0,0,5.781,4.2,61.835,61.835,0,0,0-8.023,5.158c-1.634,1.236-3.222,2.53-4.806,3.829a29.352,29.352,0,0,0-4.162,3.613,4.7,4.7,0,0,0-1.3,3.877,3.607,3.607,0,0,0,3.324,2.706,33.377,33.377,0,0,0,6.333-.36l4.684-.385-4.969,8.839c-1.474,2.623-3.74,5.894-2.047,8.955,1.537,2.778,5.133,3.478,7.968,2.578,3.253-1.034,5.518-3.736,8.581-5.1.45-.2,1.965-.915,2.431-.556.438.338.191,1.167.114,1.657-.248,1.593-.552,3.165-.647,4.777-.166,2.79.291,5.962,2.107,8.2,2.674,3.3,6.885-.318,8.98-2.393A60.922,60.922,0,0,0-23.777,358.9c.264.618.48,1.266.7,1.8a26.745,26.745,0,0,0,1.78,3.892c1.894,3.052,5.121,3.87,7.9,1.435,2.436-2.135,3.941-5.434,5.059-8.419a31.95,31.95,0,0,0,1.78-8.858,8.213,8.213,0,0,0,3.623-.452,9.4,9.4,0,0,0,5.263-4.231l.01,0a11.926,11.926,0,0,0,3.06.9h0a12.963,12.963,0,0,1,5.681,10.34c.171,5.038-3.552,9.454-5.7,13.737-1.761,3.519-2.867,8.02.143,11.2,3.327,3.518,8.559,2.781,12.694,1.437,4.7-1.529,9.183-4.192,13.492-6.584a75.639,75.639,0,0,0,12.646-8.651C51.607,360.224,58.191,352.017,59.573,342.292Zm-49.981,2.54.035-.006c5.06-1.043,9.287-4.626,13.325-7.6,5.515-4.053,10.995-8.152,16.37-12.39,3.654-2.888,7.279-5.847,10.81-8.9a50.751,50.751,0,0,1,3.131,5.762A365.744,365.744,0,0,1,12.55,349.354,15.826,15.826,0,0,0,9.592,344.833Zm41.556-113.1c10.032-2.653,21.315-4.009,31.59-1.9,5.467,1.119,10.765,3.9,12.111,9.734,1.366,5.912-.7,11.555-2.823,17a111.6,111.6,0,0,1-8.72,17.5l-.009.015a94.907,94.907,0,0,0-32.732-42.178l.013,0C50.767,231.832,50.949,231.781,51.148,231.73Zm-4,1.16a1.535,1.535,0,0,0,.232.2,92.31,92.31,0,0,1,34.015,44l-.005.008c-1.028,1.6-2.1,3.162-3.194,4.717l0,0a109.324,109.324,0,0,0-27.684-38.947,106.309,106.309,0,0,0-9.752-7.742l.021-.008Q43.923,233.9,47.151,232.89Zm-99.684,51.393a18.611,18.611,0,0,0-5.648,1.39c-2.252.965-4.239,2.45-6.491,3.4-1.948.824-4.671,1.354-6.416-.21-1.493-1.338-1.262-3.516-.753-5.256a25.717,25.717,0,0,1,2.782-5.683c1.451-2.466,2.98-4.888,4.627-7.228a74.954,74.954,0,0,1,11.013-12.624c7.052-6.351,15.975-11.082,25.5-12.09a29.626,29.626,0,0,1,21.934,6.208A194.349,194.349,0,0,0-40.215,287,21.347,21.347,0,0,0-52.533,284.282Zm14.7,4.28A191.56,191.56,0,0,1-3.843,254.106a27.939,27.939,0,0,1,3.2,3.87,322.913,322.913,0,0,0-27.362,27.935q-2.612,2.933-5.206,5.9a1.1,1.1,0,0,0-1.008.291v0A19.716,19.716,0,0,0-37.835,288.562Zm27.008,67.615a21.59,21.59,0,0,1-3.843,7.131c-.832.912-1.952,1.9-3.142,1.028a6.675,6.675,0,0,1-1.885-2.9c-.875-2.061-1.551-4.649-3.168-6.276a1.44,1.44,0,0,0-2.223.433,70.873,70.873,0,0,1-7.575,10.579,21.324,21.324,0,0,1-4.31,4.029,4.77,4.77,0,0,1-1.489.687.642.642,0,0,1-.6-.151c-1.806-1.912-1.732-5.364-1.431-7.759.271-2.164,1.617-5.7-.479-7.365-2.243-1.777-5.7.032-7.7,1.334-2.413,1.568-5.149,4.445-8.294,4-1.509-.213-2.835-1.227-2.664-2.86.182-1.722,1.514-3.468,2.334-4.928q3.123-5.553,6.243-11.107a1.434,1.434,0,0,0-1.359-2.05q-5.628.462-11.257.925c-.9.073-3.349.445-2.595-1.128.609-1.267,2.039-2.148,3.084-3.007,5.013-4.123,10.064-8.047,15.935-10.887,1.056-.511.688-2-.143-2.472a45.91,45.91,0,0,1-5.954-3.9,19.311,19.311,0,0,1-2.474-2.146c-.977-1.106-.7-1.9.633-2.42,4.192-1.649,9.709-.98,13.82.518a1.515,1.515,0,0,0,.538.09c1.025,3.237,3.216,6.163,5.219,8.819a110.628,110.628,0,0,0,11.753,13.415,76.191,76.191,0,0,0,6.613,5.662,29.909,29.909,0,0,0,7.306,4.441c.2.074.391.139.587.205A29.078,29.078,0,0,1-10.826,356.178ZM-.176,342.726a6.515,6.515,0,0,1-3.817,2.925,5.846,5.846,0,0,1-2.808.215,1.414,1.414,0,0,0-1.214-.281,13.86,13.86,0,0,1-1.348-.5c-4.345-1.855-8.174-5.289-11.608-8.466a97.547,97.547,0,0,1-9.9-10.743c-2.642-3.305-5.8-6.862-7.162-10.943-1.156-3.471-.113-8.959,4.442-9.053.032,0,.059-.008.089-.01.291.562.6,1.123.925,1.66a50.907,50.907,0,0,0,6.138,7.693c1.507,1.646,3,3.285,4.51,4.916-.213.221-.418.451-.63.673l-.023.025a7.2,7.2,0,0,0-.978,9.145,8.2,8.2,0,0,0,8.73,3.43,13.192,13.192,0,0,0,3.571-1.562q2.881,3.185,5.832,6.307a30.264,30.264,0,0,0,5.255,4.558l0,0ZM-9.7,327.051c-.377.321-.769.658-1.178.98a18.457,18.457,0,0,1-2.38,1.646c-1.952,1.113-4.091,1.632-6.222.344a4.529,4.529,0,0,1-.956-7.315l.03-.034c.129-.145.266-.282.4-.426.646-.691,1.291-1.382,1.944-2.064A171.512,171.512,0,0,1-5.371,307.947c2.981-2.559,6.065-5,9.2-7.37,3-2.27,5.717-4.605,9.587-5.03a3.965,3.965,0,0,1,3.627,1.234c.9.907,1.736,2.262,1.376,3.573-1.069,3.957-5.308,6.919-8.21,9.458-3.394,2.954-6.839,5.831-10.25,8.754C-3.3,321.35-6.433,324.29-9.7,327.051ZM3.962,341.719a18.434,18.434,0,0,1-6.529-4.686c-2.167-2.189-4.2-4.523-6.288-6.789-.026-.023-.052-.062-.078-.085,1.588-1.269,3.037-2.707,4.462-3.984,4.033-3.62,8.194-7.095,12.321-10.616,1.974-1.686,3.95-3.374,5.9-5.1a33.756,33.756,0,0,0,5.19-5.211c1.167-1.584,2.47-3.579,2.432-5.624a7.28,7.28,0,0,0-2.072-4.59c-2.678-2.934-6.228-2.7-9.73-1.485a19.047,19.047,0,0,0-5.177,3.057c-2.08,1.548-4.142,3.111-6.178,4.729a178.739,178.739,0,0,0-18.19,16.745q-1.149-1.252-2.3-2.5c-3.959-4.319-8.6-8.759-10.064-14.65a11.7,11.7,0,0,1-.082-5.712l.038-.043c16.377-18.681,33.244-37.672,54.6-50.794a116.48,116.48,0,0,1,15.424-7.989h0A106.481,106.481,0,0,1,76.233,284.5q-1.122,1.493-2.271,2.962C58.321,307.3,37.986,322.944,17.6,337.615c-3.279,2.364-7.189,4.943-11.3,4.607a1.141,1.141,0,0,0-.582-.062H5.705a.011.011,0,0,1-.016,0A9.021,9.021,0,0,1,3.962,341.719Zm40.221,21.1A67.8,67.8,0,0,1,32.4,371.436a115.359,115.359,0,0,1-12.5,6.577c-3.535,1.534-9.673,3.7-12.607-.063-2.567-3.289.968-8.292,2.6-11.175,2.467-4.345,4.728-8.782,3.753-13.9-.051-.27-.129-.535-.194-.8a1.58,1.58,0,0,0,.324-.141A365.9,365.9,0,0,0,54.41,324.39a36.433,36.433,0,0,1,2.613,14.845C56.573,348.651,50.878,356.594,44.183,362.819Z" transform="translate(75.073 -226.082)" fill="#1a3869"/>
      <path id="Path_7635" data-name="Path 7635" d="M94.312,295.553c2.709-5.33,2.629-12.166.577-17.713A28.343,28.343,0,0,0,83.432,264.3a23.455,23.455,0,0,0-26.37.764,24.252,24.252,0,0,0-8.583,25.814,24.948,24.948,0,0,0,21.269,17.51C79.459,309.228,89.792,304.438,94.312,295.553ZM72.64,305.65a22.022,22.022,0,0,1-20.4-12.841,21.3,21.3,0,0,1,4.293-23.514c6.682-6.819,17.771-7.634,25.642-2.439C90.3,271.771,95.582,282.2,92.849,291.6,90.355,300.168,81.167,305.415,72.64,305.65Z" transform="translate(42.66 -235.212)" fill="#1a3869"/>
      <path id="Path_7636" data-name="Path 7636" d="M88.434,278.717a19.548,19.548,0,0,0-9.778-7.49,16.547,16.547,0,0,0-17.446,5.665c-4.281,5.593-5.466,13.39-1.467,19.446s11.43,8.546,18.432,7.529a17.522,17.522,0,0,0,10.17-4.7,14.212,14.212,0,0,0,3.983-9.888A17.946,17.946,0,0,0,88.434,278.717Zm-9.087,22.06c-5.751,1.288-12.277-.013-16.216-4.644s-3.728-10.771-.777-15.872a13.786,13.786,0,0,1,15.74-6.243,15.933,15.933,0,0,1,7.551,5.715,17.157,17.157,0,0,1,3.7,7.684,11.62,11.62,0,0,1-1.879,8.386A13.1,13.1,0,0,1,79.348,300.777Z" transform="translate(40.081 -237.855)" fill="#1a3869"/>
      <path id="Path_7637" data-name="Path 7637" d="M79.387,286.834a1.463,1.463,0,0,0-1.969-.422l-5.309,2.751a1.43,1.43,0,0,0-.422,1.969,1.462,1.462,0,0,0,1.968.422l5.31-2.752A1.43,1.43,0,0,0,79.387,286.834Z" transform="translate(36.335 -241.976)" fill="#1a3869"/>
      <path id="Path_7638" data-name="Path 7638" d="M88.278,295.7a1.437,1.437,0,0,0-.723-.836,1.366,1.366,0,0,0-1.07-.077l-5.254,2.471a1.565,1.565,0,0,0-.836.724,1.425,1.425,0,0,0,.647,1.907,1.372,1.372,0,0,0,1.07.077l5.253-2.472a1.56,1.56,0,0,0,.836-.724A1.452,1.452,0,0,0,88.278,295.7Z" transform="translate(34.012 -244.224)" fill="#1a3869"/>
    </g>
  </g>
</svg>
