<svg version="1.2" xmlns="http://www.w3.org/2000/svg" viewBox="0 0 56 60" width="56" height="60">
	<title>New Project</title>
	<style>
		.s0 { fill: #f9da55 } 
	</style>
	<g id="&lt;Group&gt; copy 2">
		<path id="&lt;Path&gt;" class="s0" d="m26.2 27c-6.7-6.8-15.4-13.1-23.5-17.9-1.8-1-3.4 1.6-2 2.9 6.9 6.6 15.4 13.1 23.7 17.8 1.8 1 3.1-1.5 1.8-2.8z"/>
		<path id="&lt;Path&gt;" class="s0" d="m19.3 39.5c-5.2 5.6-9.8 11.8-15 17.5-1.6 1.8 1.1 4 2.8 2.4 5.5-5.5 11-11.3 15.1-18 1-1.8-1.6-3.3-2.9-1.9z"/>
		<path id="&lt;Path&gt;" class="s0" d="m53.1 1.2c-7 6.8-12.9 14.7-19 22.3-1.4 1.7 1.1 3.9 2.6 2.2 6.4-7.3 13.2-14.5 18.7-22.5 1-1.6-0.9-3.4-2.3-2z"/>
		<path id="&lt;Path&gt;" class="s0" d="m54.5 53.1c-6.4-6.3-14-11.8-21.2-17.1-1.8-1.4-4.1 1.1-2.3 2.6 6.9 6.1 14 12.3 21.7 17.3 1.7 1.1 3.1-1.5 1.8-2.8z"/>
	</g>
</svg>