<svg version="1.2" xmlns="http://www.w3.org/2000/svg" viewBox="0 0 177 177" width="177" height="177"><style>.a{fill:#fff;stroke:#000;stroke-miterlimit:2.613;stroke-width:3.6}.b{fill:#369754}</style><path fill-rule="evenodd" class="a" d="m2 88.4c0-47.7 38.7-86.4 86.4-86.4 47.7 0 86.3 38.7 86.3 86.4 0 47.7-38.6 86.3-86.3 86.3-47.7 0-86.4-38.6-86.4-86.3z"/><path fill-rule="evenodd" class="b" d="m50.3 88.6v-0.8h20.5v0.8c0 9.5 7.7 17.1 17.2 17.1 9.5 0 17.1-7.6 17.1-17.1v-0.8h20.6v0.8c0 17-11.2 31.4-26.7 36.1q-0.6-1.7-1.7-3.2-1.1-1.4-2.6-2.4-1.4-1.1-3.2-1.6-1.7-0.6-3.5-0.6c-5.1 0-9.4 3.2-11 7.8-15.4-4.7-26.7-19.1-26.7-36.1z"/><path fill-rule="evenodd" class="b" d="m25.8 88.6c0-34.4 27.8-62.3 62.2-62.3 31.7 0 57.9 23.8 61.8 54.5h-20.9c-3.6-19.3-20.5-33.9-40.9-33.9-23 0-41.7 18.6-41.7 41.7 0 18.9 12.7 34.9 30 40 0 6.4 5.3 11.7 11.7 11.7 6.5 0 11.7-5.3 11.7-11.7 17.3-5.1 30-21.1 30-40l-0.1-0.8h20.6v0.8c0 34.3-27.8 62.2-62.2 62.2-34.4 0-62.2-27.9-62.2-62.2z"/><path fill-rule="evenodd" class="b" d="m71.2 86.6h14.8v-26.3h-14.8zm18.6 0h14.8v-26.2h-14.8z"/><path fill-rule="evenodd" d="m9.9 88.3q0.4-1 0.4-1.2 0 0 0-0.1 0-0.1-0.1-0.1 0-0.1 0-0.2-0.1 0-0.1 0-0.1-0.1-0.1-0.1-0.1-0.1-0.2-0.1 0 0-0.1-0.1-0.1 0-0.2 0v-0.5l4-0.1v0.5c-0.9 0.4-1.5 0.8-2 1.3-0.9 0.8-1.4 1.7-1.4 2.7q0.1 1.7 1.6 2.4c1 0.5 2.3 0.7 4 0.7q1.8 0 2.9-0.5c1.5-0.6 2.3-1.6 2.2-3 0-0.9-0.3-1.7-0.8-2.4q-0.4-0.7-1.4-1.5l0.4-0.5c0.8 0.6 1.3 1.2 1.7 1.7 0.6 0.9 0.9 1.8 1 3q0 0.1-0.1 0.3l0.8 0.4c0-0.2 0-0.3 0-0.3 0-0.1-0.1-0.2-0.1-0.3q0-0.9 0.4-1.2 0.3-0.3 0.8-0.3 0.9-0.1 1.2 0.6 0.4 0.7 0.4 1.6c0 0.3 0 0.6-0.1 0.8q0 0.1 0 0.2-0.1 0.1-0.1 0.2 0 0.1-0.1 0.2 0 0.1 0 0.2l-0.7-0.3c0.1-0.2 0.2-0.5 0.2-0.6 0.1-0.1 0.1-0.3 0.1-0.4 0-0.3-0.1-0.5-0.2-0.7q-0.1 0-0.1-0.1-0.1-0.1-0.1-0.1-0.1 0-0.2 0-0.1-0.1-0.1-0.1c-0.2 0-0.4 0.1-0.5 0.3q-0.1 0-0.1 0.1 0 0.1 0 0.1-0.1 0.1-0.1 0.2 0 0.1 0 0.1c0.1 0.2 0.1 0.2 0.1 0.3 0 0 0 0.2 0 0.2l-0.1 0.2-1.4-0.6c-0.1 1.4-0.6 2.6-1.6 3.6-0.9 1-2.4 1.5-4.2 1.6q-2.7 0-4.5-1.8c-1.1-1.1-1.7-2.4-1.7-4.1q0-1 0.3-2.2zm0.9-11.9h0.4c-0.1 0.7-0.1 1.2 0 1.4 0.2 0.2 0.6 0.5 1.3 0.5l5.6 1c0.8 0.2 1.5 0.2 2 0.1 0.9-0.2 1.5-0.9 1.6-1.9 0.3-1.3-0.1-2.2-1-2.9q-0.7-0.5-2.1-0.7l-5.1-0.9c-0.6-0.1-1-0.1-1.3 0.1q-0.4 0.2-0.6 1.2l-0.5-0.1 0.7-3.6h0.4q0 0.9 0.2 1.1c0.1 0.3 0.5 0.4 1 0.5l5.4 0.9c1.4 0.3 2.4 0.8 3.1 1.7 0.6 0.8 0.8 1.9 0.6 3.4q-0.5 2.9-2.5 3.7-1 0.3-2.4 0.1l-5.6-1c-0.7-0.1-1.1-0.1-1.3 0.1q-0.3 0.1-0.5 1l-0.4-0.1zm12.2-4.7q0.2-0.8 0.1-1c0-0.4-0.3-0.7-0.8-0.8l-7.7-2.7c-0.5-0.2-0.9-0.1-1.1 0.1q-0.3 0.2-0.6 0.9l-0.4-0.2 1.9-5.4 0.4 0.1c-0.1 0.6-0.2 1-0.1 1.3q0.1 0.3 1.1 0.7l3.4 1.1-2.3-4.6q-0.2-0.5-0.3-0.7c-0.1-0.1-0.2-0.2-0.3-0.2q-0.4-0.1-0.6 0.2-0.1 0.2-0.5 1l-0.4-0.2 1.6-4.6 0.4 0.1q-0.3 1.3 0 2.3c0.3 0.7 0.9 2.1 1.9 4.2l7.8-2.9q0.2-0.1 0.3-0.2c0.1-0.1 0.2-0.3 0.3-0.4l0.4 0.1-1.8 5.4-0.5-0.2c0.2-0.4 0.3-0.8 0.3-1q0.1-0.2-0.2-0.3c-0.1-0.1-0.1-0.1-0.3 0q-0.2 0-0.5 0.1l-4.7 1.7 0.3 0.5 3.2 1.1c0.4 0.2 0.8 0.1 1.1-0.1 0.1-0.2 0.3-0.5 0.4-0.9l0.4 0.2-1.8 5.4zm-2.1-23.1l0.4 0.2c-0.2 0.5-0.4 1-0.4 1.3 0.1 0.2 0.4 0.6 1 0.9l4.9 2.8c0.7 0.4 1.4 0.7 1.9 0.8q1.4 0.2 2.2-1.2c0.7-1.1 0.7-2.1 0.1-3.1q-0.6-0.7-1.8-1.4l-4.5-2.6c-0.5-0.3-1-0.4-1.3-0.3q-0.4 0.1-1 0.9l-0.4-0.2 1.9-3.2 0.4 0.2q-0.3 0.8-0.2 1.1c0 0.2 0.3 0.5 0.7 0.8l4.8 2.6c1.3 0.8 2 1.7 2.4 2.7 0.3 0.9 0.1 2.1-0.7 3.4-0.9 1.7-2.1 2.6-3.5 2.6-0.7 0-1.5-0.2-2.4-0.7l-4.9-2.9q-0.8-0.4-1.2-0.3c-0.2 0-0.5 0.3-0.8 0.8l-0.4-0.3zm13.2-0.3q0.5-0.6 0.5-1.1 0-0.4-0.7-1l-5.6-5c-0.5-0.5-0.9-0.7-1.2-0.6-0.2 0-0.5 0.2-1 0.6l-0.3-0.3 3.7-4c0.8-0.9 1.5-1.5 2.1-1.9 1.3-0.7 2.3-0.5 3.3 0.3 0.7 0.6 1 1.3 1 2.2q-0.1 1-0.6 1.7l5.9 0.7c0.1 0 0.3 0 0.4 0q0.2-0.1 0.3-0.2l0.3 0.2-2.3 2.6-6.3-0.9-0.4 0.3 2.6 2.2c0.4 0.5 0.8 0.6 1.1 0.6q0.4 0 1-0.6l0.3 0.3-3.8 4.2zm0-8.8q0.2-0.9-1-2c-0.6-0.4-1-0.7-1.4-0.8-0.7-0.2-1.3 0-1.8 0.6-0.4 0.4-0.5 0.7-0.6 0.8q0 0.3 0.3 0.6l3.2 2.8c0.8-0.8 1.2-1.5 1.3-2zm10.7-14.7c1.6 0.2 3 1 4.1 2.4 1 1.4 1.5 2.9 1.3 4.6-0.2 1.5-1 2.8-2.4 3.9-1.4 1.2-3 1.6-4.6 1.3q-2.4-0.3-3.8-2.3c-1.1-1.4-1.6-2.9-1.4-4.4 0.1-1.7 1-3 2.4-4.1 1.3-1.1 2.8-1.5 4.4-1.4zm3.3 7c-0.3-0.8-0.8-1.7-1.6-2.7-1.1-1.5-2.2-2.3-3.2-2.8-1-0.4-1.8-0.2-2.6 0.3-1 0.8-1.2 2-0.6 3.5 0.3 0.7 0.8 1.7 1.6 2.7q1.2 1.5 2.3 2.3 2 1.3 3.5 0.2c1-0.8 1.2-2 0.6-3.5zm5.3-13.3l0.1 0.4c-0.5 0.3-0.8 0.5-0.9 0.6-0.2 0.2-0.2 0.4-0.1 0.6q0.1 0.2 0.2 0.2c0 0.1 0.1 0.2 0.2 0.2l5.1 4.4h0.1l-0.6-6.1c0-0.2-0.1-0.3-0.1-0.4q0-0.1 0-0.2 0 0 0-0.1-0.1-0.1-0.1-0.1 0-0.1 0-0.2-0.2-0.4-0.6-0.4c-0.1 0.1-0.5 0.2-1.1 0.4l-0.1-0.4 3.2-1.6 0.1 0.3c-0.3 0.3-0.5 0.5-0.6 0.8-0.1 0.3-0.1 0.6-0.1 1.2l1.1 10.7-0.4 0.2-8.5-7.1q-0.6-0.5-0.9-0.6-0.1 0-0.2 0-0.2 0-0.3 0-0.1 0-0.2 0.1-0.1 0-0.2 0l-0.2-0.3zm9.3 7.6c0.4-0.1 0.7-0.4 0.8-0.8 0.1-0.2 0.1-0.7 0.3-1.6l1-9.9 0.5-0.1 6.1 7.5c0.7 0.9 1.2 1.4 1.5 1.6 0.3 0.2 0.5 0.2 1 0.1l0.1 0.4-5.3 1.6-0.2-0.5c0.6-0.1 0.9-0.2 1-0.4 0.2-0.1 0.2-0.3 0.2-0.5-0.1-0.2-0.2-0.4-0.3-0.6-0.2-0.1-0.3-0.3-0.4-0.5l-0.7-0.9-3.7 1.1q-0.1 1-0.1 1.4c0 0.4 0 0.7 0 1 0.1 0.2 0.3 0.3 0.7 0.3q0.2 0 0.8-0.1l0.2 0.4-3.4 0.9zm5.2-5.1l-2.7-3.4h-0.1l-0.4 4.2zm15.1-10.2l0.1 0.4c-0.7 0-1.1 0.2-1.4 0.4-0.1 0.2-0.2 0.6-0.2 1.3l0.4 5.6c0.1 0.9 0.2 1.5 0.5 2 0.4 0.9 1.1 1.2 2.2 1.2 1.3-0.1 2.2-0.7 2.5-1.7 0.2-0.5 0.4-1.2 0.2-2.2l-0.3-5.2q-0.1-0.9-0.4-1.2c-0.3-0.2-0.7-0.3-1.4-0.3v-0.5l3.7-0.2 0.1 0.4c-0.6 0.1-0.9 0.3-1.1 0.4q-0.2 0.3-0.2 1.1l0.4 5.5c0.1 1.4-0.2 2.5-0.8 3.3q-1 1.3-3.2 1.4c-2 0.2-3.4-0.3-4.1-1.4-0.5-0.6-0.7-1.4-0.8-2.3l-0.4-5.8q-0.1-0.9-0.3-1.1c-0.2-0.2-0.6-0.3-1.2-0.3v-0.4zm-2.2-3.1q0.1-0.1 0.2-0.2 0.1 0 0.2-0.1 0 0 0.1 0 0.1-0.1 0.2-0.1c0.3 0 0.6 0.1 0.9 0.3q0.3 0.3 0.3 0.7c0.1 0.3 0 0.6-0.2 0.8q-0.4 0.4-0.8 0.4c-0.3 0.1-0.5-0.1-0.7-0.2-0.3-0.2-0.4-0.5-0.4-0.8 0-0.3 0-0.6 0.2-0.8zm5.2 1.2q-0.3 0.4-0.7 0.4-0.1 0-0.2 0-0.1 0-0.2-0.1-0.1 0-0.2 0-0.1-0.1-0.2-0.2c-0.2-0.2-0.4-0.4-0.4-0.7 0-0.4 0.1-0.6 0.3-0.8 0.2-0.3 0.4-0.4 0.8-0.5 0.2 0 0.5 0.1 0.7 0.3 0.3 0.2 0.4 0.5 0.4 0.8 0 0.3-0.1 0.6-0.3 0.8zm4.5 12.3q1 0.1 1.3-0.2c0.2-0.2 0.3-0.5 0.4-1l1-7.9c-0.5-0.7-0.7-1-0.9-1.2q0 0-0.1 0 0-0.1-0.1-0.1 0-0.1-0.1-0.1-0.1 0-0.1 0v-0.5l3.6 0.5 4.9 7.8h0.1l0.6-5q0.1-0.8-0.1-1.3-0.3-0.4-1.3-0.6l0.1-0.4 3.6 0.5v0.4q-0.8 0-1.1 0.2c-0.2 0.2-0.3 0.5-0.4 1l-1.2 10-0.5-0.1-6.3-10h-0.1l-0.8 6.7c-0.1 0.4-0.1 0.9 0 1.1q0.3 0.5 1.4 0.7l-0.1 0.5-3.8-0.5zm12.3 1.8q0.7 0.2 1 0.1c0.4 0 0.7-0.3 0.8-0.8l2.3-7.9c0.1-0.5 0.1-0.9-0.2-1.1-0.2-0.2-0.5-0.3-0.9-0.5l0.1-0.4 5.7 1.6-0.1 0.4c-0.6-0.1-1-0.2-1.1-0.1-0.4 0.1-0.7 0.4-0.8 0.8l-2.3 8q-0.2 0.6 0.1 1c0.2 0.2 0.6 0.4 1.1 0.5l-0.1 0.4-5.7-1.6zm6-13.2c0.3-0.2 0.6-0.2 0.9-0.1q0.5 0.2 0.6 0.6c0.2 0.3 0.2 0.6 0.2 0.9q-0.1 0.1-0.1 0.2-0.1 0.1-0.2 0.2 0 0-0.1 0.1-0.1 0.1-0.2 0.2c-0.2 0.1-0.5 0.1-0.9 0.1-0.3-0.1-0.5-0.3-0.6-0.6q-0.1-0.1-0.1-0.2-0.1-0.1-0.1-0.2 0-0.1 0-0.3 0-0.1 0-0.2 0.1-0.4 0.6-0.7zm10.4 7l-0.2 0.4c-0.5-0.3-0.9-0.4-1.1-0.4-0.2 0-0.3 0.1-0.4 0.4-0.1 0.1-0.1 0.1-0.2 0.2v0.3l-0.1 6.8 4.4-4.4 0.3-0.3c0.2-0.1 0.2-0.2 0.3-0.4 0.1-0.3 0.1-0.5 0-0.7-0.2-0.1-0.5-0.3-1-0.6l0.2-0.4 3.3 1.5-0.2 0.4q-0.1-0.1-0.2-0.1-0.2 0-0.3 0-0.1 0-0.3 0-0.1 0-0.2 0c-0.3 0.1-0.6 0.3-1 0.7l-7.6 7.6-0.4-0.2 0.2-11.1q0-0.7-0.2-1c-0.1-0.3-0.3-0.5-0.7-0.7l0.2-0.4zm1.4 13.6l0.3-0.4c0.4 0.3 0.7 0.4 0.9 0.4 0.4 0 0.7-0.2 1-0.6l4.5-6.9c0.2-0.4 0.3-0.8 0.1-1.1-0.1-0.2-0.4-0.4-0.8-0.7l0.3-0.4 8.2 5.4-1.9 2.9-0.3-0.3c0.4-1 0.5-1.8 0.3-2.5-0.2-0.6-0.9-1.3-2.1-2-0.4-0.3-0.7-0.4-0.9-0.4-0.1 0-0.3 0.1-0.5 0.4l-2.1 3.3q1.2 0.8 1.9 0.6 0.7-0.1 1.7-1.2l0.4 0.2-3.2 4.9-0.3-0.2c0.5-1 0.6-1.7 0.5-2.2q-0.2-0.8-1.4-1.6l-2.2 3.5c-0.2 0.3-0.3 0.5-0.2 0.7 0.1 0.3 0.4 0.5 0.8 0.8q1.4 0.9 2.7 0.9c0.7 0.1 1.7-0.3 2.8-1l0.4 0.3-2.5 2.6zm9.8 6.2c0.4 0.4 0.8 0.5 1.1 0.5q0.3 0 1-0.7l5-5.6q0.7-0.7 0.6-1.2c0-0.2-0.2-0.5-0.6-0.9l0.3-0.4 4.1 3.7q1.2 1.2 1.8 2.1c0.7 1.3 0.5 2.4-0.3 3.3-0.6 0.7-1.3 1-2.2 1q-0.2 0-0.4-0.1-0.3 0-0.5-0.1-0.2-0.1-0.4-0.2-0.2 0-0.4-0.2l-0.7 5.9c0 0.2 0 0.3 0 0.4 0.1 0.1 0.1 0.2 0.3 0.3l-0.3 0.3-2.6-2.3 0.9-6.3-0.3-0.3-2.2 2.5c-0.4 0.4-0.6 0.8-0.6 1.1q0 0.4 0.6 1l-0.3 0.4-4.2-3.9zm8.8 0.1q0.9 0.1 2-1.1c0.4-0.4 0.7-0.9 0.8-1.3 0.2-0.7 0-1.3-0.6-1.9-0.4-0.3-0.6-0.5-0.8-0.5-0.2 0-0.4 0.1-0.5 0.3l-3 3.2c0.9 0.7 1.6 1.2 2.1 1.3zm3.6 7l0.2 0.4c-0.8 0.9-1.3 1.8-1.4 2.7q-0.1 0.3-0.1 0.5 0 0.3 0.1 0.6 0.1 0.3 0.2 0.6 0.1 0.2 0.2 0.5 0.7 0.9 1.5 1 0.8 0.1 1.3-0.3c0.4-0.3 0.7-0.7 0.7-1.1q0.1-0.5-0.1-1.6l-0.2-1.2q-0.2-1.8 0-2.9 0.3-1 1.3-1.7c0.6-0.4 1.4-0.6 2.4-0.6 0.9 0.1 1.7 0.7 2.4 1.7 0.4 0.5 0.7 1 0.8 1.6q0.3 0.9 0.4 1 0.2 0.2 0.3 0.2c0.1 0 0.3 0 0.5-0.1l0.3 0.4-3 2.2-0.3-0.4c0.5-0.7 0.9-1.4 1.1-2.3 0.2-0.8 0-1.6-0.4-2.2-0.4-0.5-0.7-0.8-1.2-0.9q-0.7-0.1-1.2 0.2-0.7 0.6-0.7 1.1-0.1 0.7 0.1 2.4l0.3 1.4q0.2 1 0 1.7c-0.2 0.9-0.6 1.6-1.4 2.1q-1 0.7-2.6 0.6-1.5-0.2-2.8-2-0.2-0.4-0.5-1-0.2-0.4-0.4-1v-0.3c-0.1-0.1-0.1-0.2-0.1-0.2 0-0.1-0.1-0.2-0.1-0.2q-0.2-0.2-0.3-0.2c-0.2 0-0.3 0-0.5 0.1l-0.3-0.4zm2.3 9.5c0.2 0.4 0.4 0.7 0.6 0.8 0.4 0.2 0.7 0.2 1.2-0.1l7.1-4c0.5-0.3 0.6-0.6 0.6-1q0-0.3-0.3-1l0.3-0.2 3 5.1-0.3 0.3q-0.5-0.7-0.7-0.9c-0.4-0.2-0.7-0.2-1.2 0l-7.1 4.2c-0.4 0.2-0.7 0.5-0.7 0.8 0 0.3 0.2 0.7 0.4 1.2l-0.4 0.2-2.9-5.2zm13.4-5.3q0.5 0.2 0.7 0.5c0.2 0.3 0.2 0.6 0.2 1q-0.1 0.4-0.6 0.7-0.4 0.1-0.8 0.1-0.6-0.2-0.7-0.6-0.1-0.1-0.2-0.2 0-0.1 0-0.2 0-0.1 0-0.2 0-0.1 0-0.2 0.1-0.1 0.1-0.3 0-0.1 0.1-0.2 0.1-0.1 0.2-0.1 0.1-0.1 0.2-0.2 0.4-0.2 0.8-0.1zm0.4 7.4l3.9 9.5-3.2 1.3-0.1-0.5q1.5-0.9 1.7-2.2 0.1-0.7-0.3-1.9l-8.3 3.4q-0.9 0.3-1.1 0.7-0.2 0.5 0.3 1.4l-0.4 0.2-2.3-5.6 0.4-0.2c0.2 0.6 0.5 1 0.8 1.1 0.2 0.2 0.7 0.1 1.2-0.1l8.4-3.4c-0.4-0.8-0.7-1.3-1.1-1.6q-1.1-0.9-2.8-0.4l-0.2-0.4zm-6.7 14.9l0.4-0.1c0.1 0.5 0.3 0.8 0.5 1q0.3 0.4 1 0.2l8.1-1.8q0.7-0.2 0.8-0.7 0.1-0.3 0-1.1h0.4l2.2 9.5-3.3 0.8-0.1-0.4q1.5-0.7 1.9-1.6c0.3-0.6 0.3-1.6 0-2.9-0.1-0.5-0.2-0.8-0.4-0.9-0.1-0.2-0.4-0.2-0.7-0.1l-3.8 0.9c0.2 1 0.5 1.5 0.9 1.8q0.7 0.4 2.2 0.3v0.4l-5.6 1.3-0.1-0.4c1-0.3 1.6-0.7 1.9-1.2q0.4-0.7 0.1-2.1l-4 1c-0.4 0-0.6 0.1-0.7 0.4-0.1 0.2 0 0.6 0.1 1.2q0.3 1.5 1.2 2.4 0.9 0.9 2.7 1.2l0.1 0.5-3.6 0.1zm6.6 11.4v0.5c-1.3 0.3-2.2 0.8-2.7 1.4-0.6 0.6-0.9 1.4-0.9 2.1 0 0.8 0.2 1.4 0.6 1.7 0.4 0.3 0.8 0.5 1.3 0.5 0.5 0 0.9-0.3 1.2-0.6 0.3-0.2 0.5-0.7 0.8-1.4l0.6-1.1q0.8-1.6 1.5-2.4 0.8-0.7 2-0.7c0.8 0 1.6 0.3 2.4 0.9 0.7 0.6 1.1 1.5 1.1 2.7 0 0.6-0.1 1.3-0.3 1.9-0.1 0.6-0.3 0.9-0.3 1q0 0.2 0.2 0.4 0.1 0 0.1 0 0.1 0 0.1 0.1 0.1 0 0.1 0 0.1 0 0.1 0l0.1 0.5-3.7 0.1v-0.5q0.3-0.1 0.6-0.2 0.3-0.1 0.5-0.3 0.3-0.1 0.6-0.3 0.2-0.2 0.5-0.4 0.2-0.2 0.3-0.5 0.2-0.2 0.3-0.5 0.1-0.3 0.2-0.5 0.1-0.3 0-0.6 0-0.9-0.5-1.4-0.1-0.1-0.2-0.2-0.1-0.1-0.3-0.2-0.1 0-0.3-0.1-0.1 0-0.3 0c-0.6 0-0.9 0.2-1.2 0.5-0.2 0.3-0.7 1-1.2 2.1l-0.6 1.3c-0.3 0.6-0.5 1-0.9 1.4-0.6 0.6-1.4 1-2.3 1-0.8 0-1.7-0.3-2.5-1-0.7-0.7-1.1-1.7-1.1-3.2q-0.1-0.6 0-1.1 0.1-0.5 0.3-1l0.1-0.4c0-0.1 0-0.1 0.1-0.2v-0.2q0-0.3-0.2-0.4 0 0-0.1 0 0 0-0.1-0.1 0 0-0.1 0 0 0-0.1 0v-0.5zm-3.4 9.3c0 0.5 0 0.9 0.1 1.1 0.1 0.3 0.5 0.5 1 0.6l8.2 0.6c0.5 0 0.9-0.2 1-0.5q0.2-0.3 0.3-1h0.4l-0.4 5.9h-0.4c0-0.5 0-0.9-0.1-1.1-0.2-0.3-0.5-0.5-1-0.5l-8.2-0.6q-0.7-0.1-1 0.3-0.3 0.4-0.4 1.2l-0.4-0.1 0.4-5.9zm14.2 3.1c0.2 0.3 0.3 0.6 0.3 0.8 0 0.4-0.2 0.6-0.4 0.9q-0.1 0-0.2 0.1-0.1 0-0.2 0.1-0.1 0-0.2 0-0.2 0-0.3 0.1-0.1-0.1-0.2-0.1-0.1 0-0.2-0.1-0.1 0-0.2-0.1-0.1-0.1-0.2-0.2-0.1-0.1-0.1-0.2-0.1-0.1-0.1-0.2 0-0.1-0.1-0.2 0-0.1 0-0.2 0-0.1 0.1-0.2 0-0.1 0.1-0.2 0-0.1 0.1-0.2 0.1-0.1 0.1-0.2c0.3-0.2 0.6-0.3 0.9-0.3 0.3 0 0.6 0.2 0.8 0.4zm-102.8 71.1c0.9 0.2 1.4 0.3 1.7 0.1q0.4-0.3 0.7-1.2l1.4-6.4c0.1-0.5 0.1-0.7 0.1-1-0.1-0.2-0.2-0.3-0.5-0.3q-0.2-0.1-0.6 0c-0.2 0-0.5 0-0.8 0l0.1-0.4 4.6-0.8 0.3 0.1-2.2 9.4c-0.1 0.6-0.1 1.1 0 1.3 0.1 0.3 0.6 0.5 1.4 0.7l-0.1 0.3-6.2-1.4zm11.4 2.6q1.4-0.2 2.4-0.7c1.1-0.7 1.9-1.7 2.4-3.3h-0.1q-0.3 0.1-0.5 0.1-0.4 0.1-0.9 0.1c-0.9-0.1-1.6-0.4-2.1-1.1-0.6-0.7-0.9-1.6-0.7-2.6 0-1.2 0.5-2.2 1.3-2.8q0.2-0.3 0.5-0.5 0.3-0.1 0.7-0.3 0.3-0.1 0.7-0.1 0.4 0 0.7 0c1.1 0.1 2.1 0.6 2.7 1.5q1.1 1.4 0.9 3.6c-0.1 2.1-1.1 3.8-2.9 5.1-1.5 1-3.2 1.5-5.1 1.5zm4.7-4.6c0.2-0.1 0.3-0.1 0.4-0.1 0-0.1 0-0.3 0.1-0.6 0.1-0.4 0.1-0.8 0.2-1.3 0-0.6 0-1.1 0-1.5 0-0.4 0-0.8 0-1.2q-0.1-0.5-0.3-0.9c-0.1-0.4-0.4-0.6-0.7-0.6q-0.6 0-1 0.6c-0.1 0.3-0.3 0.9-0.3 1.7-0.1 1.2-0.1 2.2 0.1 2.9 0.2 0.6 0.6 1 1.1 1 0.1 0 0.3 0 0.4 0zm7.3-6l7-0.5-3.2 11.7-1.6 0.1 2.7-9.2c0-0.1 0-0.1 0-0.2l-3.3 0.3q-0.8 0.1-1.1 0.3c-0.2 0.2-0.5 0.6-0.6 1.3h-0.4zm14.7 8.2c0.7 0.4 1.2 0.6 1.5 0.5q0.9-0.2 1.2-0.9c0.1-0.4 0.2-0.9 0-1.4q-0.3-1.4-1.7-2.1-0.8-0.3-2.4-0.5l-0.1-0.3c0.7-0.3 1.1-0.7 1.3-1 0.4-0.4 0.5-1 0.4-1.7-0.1-0.5-0.4-0.9-0.8-1.1-0.4-0.2-0.8-0.3-1.3-0.2q-0.2 0.1-0.4 0.2-0.1 0-0.3 0.2-0.1 0.1-0.3 0.2-0.1 0.1-0.2 0.3-0.3 0.3-0.5 1l-0.4-0.1q0.2-1 0.8-1.8 0.9-1.3 2.4-1.6 0.3-0.1 0.5-0.1 0.3 0 0.5 0 0.3 0 0.5 0.1 0.3 0.1 0.5 0.2 0.9 0.4 1.2 1.3c0.2 0.5 0.2 0.9 0 1.3q-0.1 0.2-0.1 0.3-0.1 0.2-0.2 0.3-0.1 0.2-0.2 0.3-0.1 0.1-0.3 0.2l0.1 0.1q1 0.2 1.7 0.9 0.7 0.7 0.9 1.6 0.4 1.8-0.8 3.4-1.1 1.6-3.3 2.1-1 0.3-1.8 0c-0.6-0.1-0.9-0.4-1-0.9q0-0.1 0-0.2 0-0.1 0-0.2 0-0.1 0-0.1 0-0.1 0.1-0.2 0.2-0.4 0.8-0.5c0.5-0.1 1.1 0 1.7 0.4z"/></svg>