<svg version="1.2" xmlns="http://www.w3.org/2000/svg" viewBox="0 0 169 179" width="169" height="179"><style>.a{fill:#1a3b73}.b{fill:#fae17c}</style><path fill-rule="evenodd" class="a" d="m0.4 0h168v158.1h-168z"/><path fill-rule="evenodd" class="b" d="m156.5 142.3c0 3.2 0.3 3.5 4.2 4.2v1.6h-14.9v-1.6c3.9-0.7 4.2-1 4.2-4.2v-31c0-3.5-0.3-3.5-4.2-3.9v-1.6c2.6-0.6 7.4-1.6 10.7-2.2zm-11 0c-3.5 5.5-8.1 6.4-10 6.4-8.1 0-12.9-5.8-13.2-12.9 0-8 5.8-15.8 14.2-15.8 5.1 0 9.3 4.5 9.3 9 0 2.3-0.3 2.6-1.3 2.6-0.9 0.3-9 1-15.8 1.3-0.3 7.8 4.5 11 9.4 11 2.2 0 4.2-0.7 6.8-2.6zm-7.5-12.3c1 0 1.3-0.3 1.3-1.6 0-2.5-1.9-5.8-4.8-5.8-2.6 0-5.2 2.9-5.8 7.8zm-26.8-9.1h11.6v1.6c-3.8 0.4-4.8 0.7-7.4 3.9-0.6 0.7-2.3 2.9-4.5 5.8l6.1 9.7c2.6 3.9 3.6 3.9 6.8 4.5v1.6h-14.8v-1.6l1.9-0.3c1-0.3 1-1 0.3-2.3l-4.2-6.1c-1.3 1.9-2.6 3.9-3.9 6.1-0.9 1.7-0.9 2 0 2.3l2 0.3v1.6h-11.6v-1.6c3.5-0.6 4.5-0.6 7.1-4.2 1.3-1.6 3.2-4.2 5.1-6.7l-5.8-9.1c-2.2-3.2-2.6-3.5-6.1-3.8v-1.7h13.9v1.7l-1.7 0.3c-0.9 0-0.9 0.6-0.3 1.9l3.6 5.5c1.3-1.9 2.6-3.6 3.5-5.2 1-1.6 1.3-2.2 0-2.2l-1.6-0.3zm-17.1 21.2c-3.5 5.5-8.4 6.5-10 6.5-8.4 0-13.2-5.8-13.2-12.9-0.3-8.1 5.5-15.8 13.9-15.8 5.1 0 9.3 4.5 9.3 9 0 2.3 0 2.6-1.3 2.6-0.9 0.3-9 1-15.8 1.3 0 7.7 4.9 11 9.7 11 1.9 0 3.9-0.7 6.4-2.6zm-7.4-12.3c1 0 1-0.3 1-1.6 0-2.6-1.9-5.8-4.5-5.8-2.6 0-5.2 2.9-5.8 7.7zm-26.5-10q0 0 0 0zm0 0v6.5c1.6-2.6 4.2-6.5 7.1-6.5 2.3 0 3.9 2 3.9 3.6 0 1.6-1 3.5-2.3 3.9q-1.4 0.4-1.9 0c-1-1-1.9-1.7-2.9-1.7-1 0-2.6 1-3.9 3.6v12.9c0 3.2 0.3 3.5 4.9 4.2v1.6h-15.5v-1.6c3.9-0.7 4.2-1 4.2-4.2v-14.2c0-3.9-0.3-3.9-4.2-4.2v-1.6c3.2-0.3 7.4-1.3 10.6-2.3zm-35.5-12.5c7.1 0 13.6 1.3 17.8 5.4 2.9 2.9 5.1 7.5 5.1 12.9 0 15.5-11.9 22.3-26.4 22.3h-15.5v-1.6c5.2-0.7 5.5-1 5.5-7.8v-21.9c0-6.8-0.3-7.4-5.2-7.7v-1.6zm-6.4 5.8v25.1c0 5.8 0.6 7.1 5.5 7.1 10.3 0 15.8-7.4 15.8-17.7 0-13.6-6.8-18.1-16.8-18.1-1.9 0-3.5 0.3-4.2 0.7-0.3 0.3-0.3 1.3-0.3 2.9z"/><path fill-rule="evenodd" class="a" d="m23.3 165.8v7.8c0 3.5-2.6 5.1-5.5 5.1-3.3 0-5.5-1.6-5.5-5.1v-7.8h2.6v6.8c0 2.2 0.3 4.2 2.9 4.2 2.6 0 2.6-2 2.6-4.2v-6.8zm14.5 12.6l-5.2-10.6v10.6h-2.6v-12.6h4.2l4.9 10v-10h2.5v12.6zm13.3 0h-2.9v-12.6h2.9zm5.8-12.6h2.9l3.2 10 3.2-10h2.9l-4.8 12.6h-2.9zm17.7 0h8.7v2h-5.8v2.9h5.2v2.2h-5.2v3.2h5.8v2.3h-8.7zm18.1 7.4v5.2h-2.6v-12.6h5.2c2.2 0 4.5 0.6 4.5 3.2 0 1.6-1.3 2.6-2.6 2.9v0.3c1.9 0 1.9 1.3 2.3 3.3 0 0.6 0 2.2 0.6 2.9h-2.9c-0.3-1.3-0.3-2.3-0.6-3.6 0-0.6 0-1.6-1-1.6zm0-1.9h2.2q2 0 2-2c0-0.9-0.7-1.6-2-1.6h-2.2zm22.9-1.9h-2.6q0-1.9-1.9-1.9c-1.3 0-2.3 0.6-2.3 1.6 0 1.3 1.3 1.6 2.3 1.9 1.9 0.3 4.8 1 4.8 3.6 0 2.9-2.6 4.2-5.5 4.2-2.9 0-4.8-1.3-4.8-4.6h2.9c0 1.6 0.6 2.6 1.9 2.6 1.3 0 2.6-0.3 2.6-1.9 0-1.3-1.6-1.3-2.9-1.6-1.6-0.7-4.2-1.3-4.2-3.6 0-2.9 2.9-4.2 5.5-4.2 2.3 0 4.2 1.3 4.2 3.9zm9.3 9h-2.5v-12.6h2.5zm5.9-12.5h10.3v1.9h-3.9v10.6h-2.6v-10.6h-3.8zm19.6 8.4l-4.5-8.4h3.2l2.6 5.8 2.9-5.8h2.6l-4.2 8.4v4.2h-2.6z"/><path fill-rule="evenodd" class="b" d="m60.7 100.3v0.4c1.3 1.6 3.8 1.6 5.8 1.3 1.6-0.4 3.2-1 4.5-1.7 2.6-1.2 4.8-2.9 7.4-3.5 2.6-0.3 5.2 0.3 6.5 2.9 0.3 0 0.3 0.3 0.6 0.6 0.3 1 0.3 1.7 0 2.6-0.3 1.3-1.3 2.3-2.3 2.9-0.6 0.3-1.6 0.3-2.2 0 1-0.3 1.9-0.9 2.2-1.9 0.4-1 0-2.3-0.6-2.9-0.3-0.3-0.6-0.3-1-0.7-0.6-0.3-1.3-0.3-1.9-0.3l0.3 0.3q1 1 1 2.9c-0.3 2-1.9 3.6-3.6 4.2-0.9 0.4-1.9 0-2.9-0.6-0.6-0.7-0.9-1.3-1.2-1.9 0.3 0.3 0.9 0.9 1.9 0.6 1 0 1.6-0.6 1.9-1.6 0.3-0.7 0.3-1.6 0-2.3-0.3-0.6-1.3-0.9-1.9-0.6-2.9 0.6-3.6 4.8-6.5 5.5-3.5 0.3-7.4 0-11.3 0.3l-11.6 0.3c-0.6-0.3-1.6-0.6-1.9-1.3-1-1.9 1-3.8 0.3-5.5l-0.9-0.9c-4.6-2.9-9.1-5.8-13.3-9.7-2.2-2.3-4.5-4.8-6.4-7.7-0.3-1-1-2-1.6-2.9-2.9-6.5-5.2-14.9-1.6-21.3 0.3-0.4 0.6-1 0.9-1.3 2.6-3.9 7.4-6.2 12.3-5.5 3.8 0.6 6.8 3.2 8 6.8 0.4 0.3 0.4 0.6 0.7 0.9v1.3c-0.3-0.6-1-1.6-1.6-2.2-1.3-2-3.3-3.6-5.5-4.2 0.3 0.9 0 1.9 0 2.9-0.7-1.3-2.3-2.6-3.9-2.9 1 0.9 1.6 2.6 1.3 3.8-1-0.9-2.6-2.2-4.2-1.6q1 0.5 2 2c0.3 0.6 0.9 1.3 0.9 1.9-0.9-0.6-2.9-1.6-4.5-1 1.3 1 3.9 1.6 3.9 4.2-0.7-0.6-1.6-0.9-2.6-0.6l-1 0.6c1 0.4 2.6 0.7 3.3 2l0.6 0.9c-1.3 0-2.9 0.4-4.2 1.3 1.6 0.3 3.6 0.7 4.5 2.3-1.3 0.3-2.9 0.9-3.5 2.9 1.6-1 3.5-1 4.8 0.3-1.6 0.7-3.2 2.6-2.9 4.5 1.6-0.9 3.6-1.9 5.5-0.9-1.3 0.6-2.6 1.6-2.9 2.9-0.3 0.6-0.7 1.2-0.7 1.9v0.6c1.7-1.6 3.6-2.9 5.9-2.2-2 0.9-3 2.9-2.6 5.1l0.9-0.9c1.3-1 2.9-2 4.6-2-1.3 1.6-2.6 3.6-2 5.5 1-1.9 2.9-3.9 5.2-4.2-1.3 1.6-1.6 3.3-1.6 5.2 1.6-1.9 3.8-4.5 6.4-5.5-1 1.6-1.6 4.2-0.6 6.5 0.6-2.6 2.2-5.2 3.8-6.8-0.3 2.2 0.4 4.2 2 5.5h0.3c-0.3-2.9 1-5.2 2.3-7.1-0.4 1.6 0.6 3.5 2.2 4.2l0.7 0.3c-0.7-1.6-1.3-3.9-1-6.1 1.3 1.2 3.2 2.9 5.5 2.5-1-0.6-2-1.6-2.9-2.5-2.3-2.3-3.9-4.6-4.9-7.1 1.3 1.3 3.3 2.2 5.5 1.9-4.2-2.6-7.7-7.7-8-12.6 0.9 2 2.9 3.6 4.8 4.2-1.6-2.2-3.2-4.8-3.9-7.7-0.6-2.3-0.9-4.5-0.3-6.8 0.6 2.6 1.9 5.8 4.8 6.4-1.6-2.9-3.5-5.8-3.2-9.6 0.3-2.3 1-4.5 2.3-6.2-1 2-1 5.2 0.9 7.1-0.5-5.7 1.8-11.3 6.5-13.8l1.9-1c-1.3 1.9-2.6 3.9-2.6 6.5 2.3-4.6 7.1-9.4 12.9-9.1 1 0 1.7 0 2.6 0.3-2.6 1-5.5 2.9-5.8 5.8 3.9-3.5 9.4-5.4 14.9-3.5 1.2 0.6 2.5 1.3 3.5 2.3-1.9-1-4.2-0.4-5.8 0.9-0.6 0.3-1.6 1.3-1.9 2 3.5-1.3 9.3-2.3 12.2 1.6l2 2.9c-2-1.6-4.2-2.6-6.8-2-0.7 0-1 0.4-1.6 0.7 4.2 0 8.4 2.2 10 6.1l0.6 2.3c-1.3-2.3-3.2-4.2-5.8-4.2 1.6 1.6 3.6 2.9 4.2 5.1 1 2 1.3 4.2 2.6 6.2 0.6 0.9 1.3 1.9 2.6 2.5 1.3 0.7 2.9 1 4.2 1.3-2-0.6-3.6-2.2-4.6-3.8-1.6-2.9-2.5-6.5-2.5-9.7 0.9 1.6 2.9 3.2 4.5 3.9-1-1.3-1.6-2-2.6-3.3-3.2-3.5-4.8-8-3.9-12.9 1-2.9 2.9-5.4 4.9-8-1.7 3.2-2 7.7 0.3 10.6 1 1.6 2.2 2.9 3.5 3.9-2.5-3.6-3.8-8.4-2.2-12.9 2.2-6.1 8.4-9.4 14.2-9.7h1.6c-2.9 0.3-5.2 2.3-6.8 4.5-1.3 2.6-1.6 6.2 0 8.4 1 1.3 2.3 2.3 3.9 2.3 3.8-0.7 6.4-4.9 10.3-5.5 2.3-1 4.5 0.3 6.1 1.9 1.3 0.7 3.3 0.7 4.5-0.3-4.2 3.2-6.7 8.4-7.4 13.9-0.6-2.6-1.9-5.5-4.5-6.5-2.9-0.9-5.2 1-7.1 2.6-1.9 1.9-2.6 4.2-3.5 6.5 1.3-1 2.9-2.6 4.8-3 2.6-0.9 4.8 0 6.8 1.3 0.9 0.7 1.6 1.3 1.9 2.6-2.6 1.6-3.2 4.5-3.2 7.4-0.7-2.2-1.6-5.1-4.5-6.1-1.6-1-3.9-0.6-5.2 1-1.3 1.3-1.3 3.2-1 4.8 0 0.7 0.4 1.6 0.7 2.3 1.9 3.5 5.5 5.5 9 6.7 4.2 1.7 8.4 5.5 8.7 10.4 0.7 0 2-0.7 2.6 0 0.6-2.3 1.6-5.2 4.2-5.8 1.9-0.7 3.9 0 5.5 1.2 1.3 2 2.2 3.9 1.6 6.5 0 0.6-0.3 1.6-1 2.3 0-1.3 0-2.6-0.6-3.6-0.7-1-1.3-1.3-2.3-1.3-0.6-0.3-1.3 0.3-1.6 0.7-0.3 1.9 0.3 2.9 1.3 4.2 1.3 0.9 2.6 2.2 2.6 3.8 0 2-0.7 3.6-2.3 4.5-1.9 0.7-3.9 0-4.8-1.2-1-0.7-1.3-1.3-1.6-2 1.3 0.7 3.8 1.3 5.1 0 0.7-0.6 1-1.3 1-2.2 0-1.3-0.6-2.3-1.6-2.9 0 0 0-0.4-0.3-0.4-0.7-0.6-1.6-0.9-2.6-0.9 0.3 0.3 0.3 0.6 0.3 1.3 0 0.9 0 1.6-0.6 2.2-1.3 2-3.6 2-5.8 1.6-1 2.9-3.3 5.2-5.9 6.8-2.5 1.6-5.1 2.6-7.7 3.2l-4.2 0.3c2.6 1.7 5.2 3 8.1 3.9 1.3-2.2 3.2-5.1 6.1-5.8 2.3-0.3 4.5 0.3 5.5 2.3 1.3 1.9 1.9 4.2 1 6.4l-0.4 0.3-0.6 1.7c0-0.7 0.3-1 0-1.7 0-1.2-0.3-2.5-1.6-3.5-0.7-0.6-1.6-0.6-2.6-0.6-0.6 0-1.6 0.6-1.9 1.6-0.4 0.9 0 1.9 0.3 2.5 1.3 2.3 4.8 2.9 4.5 6.5-0.3 1-0.6 1.9-1.9 2.9-1.3 1.3-4.2 1.3-6.2 0.3-0.9-0.3-2.2-1.3-2.9-2.2-1.6 0.9-3.8 0.9-5.1-0.4-2-1.6-2.3-3.8-2.9-6.1-1-0.3-1.6-0.6-2.3-1-6.1-2.5-11.6-6.1-16.8-10.6-0.9-1-1.9-1.9-2.9-3.2-2.2-2-3.5-4.5-4.5-7.4-1.3-3.3-1.6-7.1-0.9-10.7 0.6-3.5 0.6-7.4-0.4-10.6-0.9-2.6-2.2-4.9-4.5-6.5-2.6-1.3-5.8-1.9-8.7-1-2.6 1.3-4.5 4.2-4.8 7.5 0.3 5.4 3.2 10.3 5.8 15.1 0.9 2 1.3 3.9 1.3 6.2 0 3.8-1.6 7.7-4.2 10.6h-0.3c-3.3 4.2-8.4 5.5-12 9-0.6 0.4-0.6 1-0.6 1.6zm-2-51.6q0 0.2 0 0.4v-0.4q0 0 0 0zm55.3-14.2c0.1 1.9-0.3 4.4 1.2 5.5 1.9 0.4 3.2-1.9 4.2-3.2 0 0-0.3 0.3-0.7 0.3-1.3 0.7-2.6 0-3.5-0.6-0.5-0.5-1.1-1.3-1.2-2zm-0.1-0.6q0 0.3 0.1 0.6-0.1-0.3-0.1-0.6zm15.8-2.3c-0.7 0.7-0.3 1.3 0 2 1 0.6 2.3 0.6 3.5 0.3 0.7 0 1-1 1-1.6-1-1.6-3.5-1.9-4.5-0.7zm7.4 47.5c-0.3-0.7-0.6-1-1.3-1.3v1.3c0 0.9 0 1.6-0.3 2.2 1-0.3 1.9-0.6 1.9-1.9 0 0 0-0.3-0.3-0.3zm-24.8 0l0.6-0.7c2.3-2.6 1-6.4 0-9-0.6 0.9-2.2 1.9-3.5 2.2-3.3 0-5.2-3.5-6.2-6.1 0.4 2.3 0.4 4.5 1 6.8 1 2.6 1.9 5.5 4.5 6.8 0.7 0.3 1 0.3 1.6 0.3 1 0 1.3 0 2-0.3zm16.1 23.2c-0.3 1.6-1 2.9-2.3 4.2 1.3 0.9 3.3 1.3 4.6 0.6 0.6-0.3 1.6-1 1.6-1.9 0-1-0.3-1.6-1-2.3-1-0.6-1.9-0.9-2.9-0.6zm-9.3 0v0.9c0.3 0.7 0.6 1.3 1.2 1.3 1 0 1.3-0.6 1.3-1.3z"/></svg>