<svg version="1.2" xmlns="http://www.w3.org/2000/svg" viewBox="0 0 304 304" width="304" height="304"><style>.a{fill:#2b2867}.b{fill:none;stroke:#fff;stroke-width:3.1}.c{fill:#fff}.d{stroke:#fff;stroke-width:.5}.e{fill:none;stroke:#000fff;stroke-width:.5}.f{fill:none;stroke:#000fff}</style><path class="a" d="m301.6 151.6c0 82.8-67.2 150-150 150-82.8 0-150-67.2-150-150 0-82.8 67.2-150 150-150 82.8 0 150 67.1 150 150z"/><path fill-rule="evenodd" class="b" d="m301.6 151.6c0 82.8-67.2 150-150 150-82.8 0-150-67.2-150-150 0-82.8 67.2-150 150-150 82.8 0 150 67.1 150 150z"/><path class="a" d="m295.8 151.6c0 79.7-64.6 144.2-144.2 144.2-79.7 0-144.2-64.6-144.2-144.2 0-79.6 64.5-144.3 144.2-144.3 79.6 0 144.2 64.6 144.2 144.3z"/><path class="b" d="m151.6 295.8c-79.7 0-144.2-64.5-144.2-144.2 0-79.7 64.5-144.2 144.2-144.2 79.7 0 144.2 64.5 144.2 144.2 0 79.7-64.5 144.2-144.2 144.2z"/><path class="a" d="m246 151.6c0 52.2-42.3 94.4-94.4 94.4-52.1 0-94.4-42.3-94.4-94.4 0-52.1 42.3-94.4 94.4-94.4 52.1-0.1 94.4 42.2 94.4 94.4z"/><path fill-rule="evenodd" class="b" d="m246 151.6c0 52.2-42.3 94.4-94.4 94.4-52.1 0-94.4-42.3-94.4-94.4 0-52.1 42.3-94.4 94.4-94.4 52.1-0.1 94.4 42.2 94.4 94.4z"/><path class="c" d="m32.8 173.3l10.1-11.8c1.4-1.7 2.3-3 2.7-4.1 0.3-0.8 0.4-1.6 0.2-2.4l0.7-0.1 2.7 14.1-0.7 0.1c-0.2-0.9-0.5-1.4-0.7-1.6-0.2-0.2-0.5-0.3-0.8-0.2-0.6 0.1-1.5 0.9-2.8 2.4l-6.6 7.7 1 0.8 7.4-1.4c1.4-0.3 2.3-0.5 2.6-0.7 0.3-0.2 0.6-0.6 0.7-1.1 0.2-0.5 0.1-1.2 0-2.2l0.7-0.1 2.6 13.6-0.7 0.1-0.2-0.9c-0.2-0.8-0.4-1.4-0.8-1.8-0.3-0.3-0.6-0.5-1.1-0.6-0.3-0.1-1.2 0-2.5 0.3l-17.8 3.4c-1.4 0.3-2.2 0.5-2.5 0.7-0.3 0.2-0.6 0.6-0.7 1.1-0.2 0.5-0.2 1.1 0 1.9l0.2 0.9-0.7 0.1-2.8-13.6 0.7-0.1c0.2 0.9 0.4 1.6 0.8 2 0.3 0.3 0.6 0.5 1.1 0.6 0.4 0.1 1.2 0 2.6-0.2l8.4-1.6-10-8.5c-1.4-1.2-2.4-1.7-3.1-1.6-0.5 0.1-0.9 0.5-1 1.1-0.1 0.3 0 1.1 0.1 2.2l-0.7 0.1-2-10.5 0.7-0.1c0.2 0.9 0.6 1.6 0.9 2.1 0.4 0.5 1.5 1.5 3.5 3.2z"/><path fill-rule="evenodd" class="c" d="m22.2 143.5l11.2 0.9v-0.5c0.1-1.7-0.3-3-1.3-3.9-1-0.9-2.6-1.5-4.7-1.9l0.1-0.8 14.3 1.2-0.1 0.8c-1.6 0-2.9 0.3-3.9 0.7-1 0.4-1.8 1-2.2 1.6-0.4 0.7-0.7 1.6-0.8 2.9l7.7 0.6c1.5 0.1 2.4 0.1 2.8 0q0.5-0.2 0.9-0.6c0.2-0.3 0.4-0.9 0.5-1.7l0.1-1.6c0.2-2.6-0.2-4.7-1.3-6.3-1.1-1.6-2.8-2.9-5.1-3.8l0.1-0.8 8.6 1.9-2 23.8-0.7-0.1 0.1-0.9c0.1-0.8 0-1.4-0.3-2q-0.3-0.6-0.9-0.9c-0.3-0.2-1.2-0.3-2.5-0.4l-18-1.5c-1.2-0.1-2-0.1-2.3-0.1-0.5 0.1-0.9 0.3-1.1 0.7-0.4 0.5-0.7 1.2-0.7 2.1l-0.1 0.9-0.8-0.1 1.9-22.9 8.1 0.7-0.1 0.8c-2 0.2-3.5 0.7-4.4 1.3-0.9 0.6-1.6 1.6-2.1 2.8-0.3 0.7-0.5 2.1-0.7 4.2zm30.8-27.4l0.7 0.2-3.9 13.8-0.7-0.2 0.3-0.9c0.2-0.8 0.3-1.4 0.1-2-0.1-0.4-0.3-0.7-0.7-1q-0.5-0.3-2.4-0.9l-17.4-4.9c-1.4-0.4-2.2-0.6-2.6-0.5-0.4 0-0.8 0.3-1.1 0.6-0.4 0.4-0.7 0.9-0.9 1.7l-0.2 0.9-0.7-0.2 3.9-13.8 0.6 0.1-0.2 0.9c-0.2 0.8-0.3 1.4-0.1 2 0.1 0.4 0.3 0.7 0.7 1.1q0.5 0.3 2.4 0.9l17.4 4.9c1.4 0.4 2.2 0.6 2.6 0.5 0.4-0.1 0.8-0.3 1.1-0.6 0.4-0.4 0.7-0.9 0.9-1.7zm-16.7-29.1l8.3 3.8-0.4 0.7c-2.2-0.7-4.3-0.6-6.3 0.2-1.9 0.8-3.3 2-4.1 3.6-0.6 1.2-0.7 2.4-0.4 3.4 0.3 1 0.9 1.8 1.8 2.2 0.5 0.3 1.1 0.4 1.6 0.3 0.7-0.1 1.6-0.4 2.5-0.9 0.7-0.4 2-1.4 4.1-2.9q4.2-3.3 6.9-3.9c1.8-0.4 3.4-0.2 5.1 0.6 2.1 1 3.5 2.7 4.2 5 0.7 2.3 0.5 4.7-0.7 7.2-0.4 0.8-0.8 1.5-1.3 2.1-0.5 0.6-1.2 1.3-2.2 2.2-0.5 0.5-0.9 0.9-1.1 1.3-0.2 0.3-0.2 0.7-0.1 1.2 0.1 0.5 0.3 0.9 0.7 1.4l-0.3 0.7-9.3-4.5 0.3-0.7c2.9 0.7 5.4 0.7 7.5-0.2q3.2-1.4 4.5-3.9c0.7-1.4 0.8-2.6 0.5-3.8-0.3-1.2-1-2-2-2.5-0.6-0.3-1.2-0.4-1.9-0.4-0.7 0-1.4 0.3-2.2 0.7-0.8 0.4-2 1.2-3.5 2.4-2.2 1.7-3.9 2.9-5.2 3.5-1.3 0.6-2.5 0.9-3.7 1-1.2 0.1-2.4-0.2-3.6-0.7-2-1-3.3-2.5-4-4.6-0.7-2.1-0.5-4.3 0.6-6.5 0.4-0.8 0.9-1.5 1.4-2.2 0.4-0.5 1-1.1 1.8-1.7 0.8-0.6 1.3-1.1 1.4-1.4 0.2-0.3 0.2-0.6 0.1-0.9q-0.2-0.5-1.2-1.2zm12.8-14.9l8.7 7 0.3-0.4c1.1-1.4 1.5-2.7 1.1-4-0.4-1.3-1.3-2.7-2.8-4.2l0.5-0.6 11.2 9-0.5 0.6c-1.3-0.9-2.5-1.4-3.6-1.6-1.1-0.2-2-0.2-2.7 0.1-0.7 0.3-1.5 1-2.3 2l6 4.9c1.2 0.9 1.9 1.5 2.3 1.6 0.3 0.1 0.7 0.1 1.1 0 0.4-0.1 0.8-0.5 1.3-1.1l1-1.3c1.6-2 2.4-4 2.5-5.9 0-1.9-0.7-4-2.1-6l0.5-0.6 6 6.5-14.9 18.4-0.6-0.5 0.6-0.7q0.7-0.9 0.9-1.8 0.1-0.6-0.3-1.2-0.3-0.5-1.8-1.8l-14.1-11.3c-1-0.8-1.6-1.2-1.8-1.4-0.4-0.2-0.9-0.2-1.3-0.1-0.6 0.2-1.2 0.6-1.8 1.3l-0.6 0.7-0.6-0.5 14.5-17.9 6.3 5.1-0.5 0.6c-1.8-0.9-3.2-1.4-4.4-1.4-1.1 0-2.2 0.4-3.4 1.1-0.7 0.4-1.7 1.5-3 3.1zm30.8-12.1l4.5 6.2c0.9 1.2 1.5 1.9 1.9 2.1 0.4 0.2 0.8 0.3 1.3 0.2 0.5-0.1 1.3-0.5 2.3-1.2l0.4 0.6-11.3 8.2-0.4-0.6c1-0.8 1.6-1.4 1.9-1.8 0.2-0.5 0.3-0.9 0.2-1.3-0.1-0.4-0.5-1.2-1.4-2.4l-10.6-14.4c-0.9-1.2-1.5-1.9-1.9-2.1-0.4-0.2-0.8-0.3-1.3-0.2-0.5 0.1-1.3 0.5-2.3 1.2l-0.4-0.6 10.3-7.5c2.7-2 4.8-3.2 6.3-3.7 1.5-0.5 3-0.6 4.5-0.2 1.5 0.4 2.8 1.3 3.7 2.7 1.2 1.6 1.6 3.4 1.2 5.3-0.3 1.2-0.9 2.5-2 3.8l10.8 3.6c1.4 0.5 2.3 0.7 2.8 0.7 0.7 0 1.3-0.2 2-0.6l0.4 0.6-7 5.1-14.5-4.9zm-8-10.9l7.1 9.7 0.9-0.7c1.5-1.1 2.6-2.1 3.1-2.9 0.5-0.8 0.8-1.8 0.7-2.8-0.1-1-0.6-2.1-1.4-3.3-1.2-1.7-2.5-2.7-3.9-2.9-1.4-0.2-3 0.3-4.7 1.6zm30.8-20.1l13.7-3.8 0.2 0.7-0.7 0.2c-1 0.3-1.7 0.6-2 0.9-0.3 0.3-0.5 0.7-0.6 1.1-0.1 0.4 0.1 1.4 0.5 2.9l3.6 13c0.7 2.4 1.3 3.9 1.8 4.6 0.6 0.7 1.3 1.1 2.3 1.4 1 0.3 2.1 0.2 3.3-0.1 1.4-0.4 2.6-1.1 3.4-2q1.2-1.4 1.5-3.3c0.2-1.3-0.1-3.3-0.9-6.1l-3-10.8c-0.3-1.2-0.7-2-1.1-2.4-0.4-0.4-0.8-0.7-1.2-0.8-0.7-0.1-1.5-0.1-2.6 0.2l-0.2-0.7 9.2-2.6 0.2 0.7-0.5 0.2c-0.7 0.2-1.3 0.5-1.7 1-0.4 0.4-0.6 1-0.7 1.6-0.1 0.5 0.1 1.2 0.4 2.3l2.8 10.1c0.9 3.1 1.3 5.4 1.3 6.9 0 1.5-0.7 3-1.9 4.6-1.3 1.6-3.3 2.8-6 3.5-2.3 0.6-4.1 0.8-5.6 0.6-1.9-0.4-3.4-1.1-4.5-2.2-1.1-1.1-1.9-2.8-2.5-5l-3.6-13c-0.4-1.5-0.8-2.4-1-2.8-0.3-0.3-0.6-0.5-1.1-0.6q-0.8-0.2-2.4 0.3zm44.7-8.7l13.3 17.3 0.2-11.8c0-1.6-0.2-2.8-0.7-3.4-0.6-0.8-1.7-1.2-3.2-1.2v-0.7l9.1 0.1v0.7c-1.2 0.1-1.9 0.3-2.4 0.5-0.4 0.2-0.7 0.6-0.9 1.1-0.2 0.5-0.4 1.4-0.4 2.7l-0.4 23h-0.7l-18.2-23.2-0.3 17.5c0 1.6 0.3 2.7 1 3.2 0.7 0.5 1.5 0.9 2.5 0.9h0.6v0.8l-9.8-0.2v-0.8c1.5 0 2.6-0.3 3.2-0.9 0.6-0.6 0.9-1.6 0.9-3.1l0.3-19.4-0.6-0.7q-0.9-1.1-1.5-1.5c-0.4-0.2-1.1-0.4-1.9-0.4v-0.7zm32.6 30.5l-0.2 0.7-14.1-2.9 0.2-0.7 0.9 0.2c0.8 0.2 1.4 0.2 2 0 0.4-0.1 0.7-0.4 1-0.8 0.2-0.3 0.5-1.1 0.7-2.5l3.7-17.7c0.3-1.4 0.4-2.3 0.3-2.6-0.1-0.4-0.3-0.7-0.7-1.1-0.4-0.4-1-0.6-1.7-0.8l-0.9-0.2 0.1-0.7 14.1 2.9-0.2 0.7-0.9-0.2c-0.8-0.2-1.4-0.2-2 0-0.4 0.1-0.7 0.4-1 0.8-0.2 0.3-0.5 1.1-0.7 2.5l-3.6 17.7c-0.3 1.4-0.4 2.3-0.3 2.6 0.1 0.4 0.3 0.7 0.7 1.1 0.4 0.3 1 0.6 1.7 0.8zm37.6-13.6l-0.3 0.7c-1-0.3-2-0.1-3.1 0.4q-1.2 0.6-4.2 3.3l-17.1 15.4-0.6-0.3 0.1-23.8c0-2.9-0.1-4.6-0.2-5.2-0.2-0.6-0.7-1.1-1.6-1.7l0.3-0.7 12.1 5.3-0.3 0.7-0.4-0.2q-1.7-0.8-2.4-0.6c-0.4 0.1-0.6 0.3-0.8 0.6-0.1 0.2-0.2 0.5-0.2 0.9 0 0.3-0.1 1.3-0.1 2.9l-0.2 15.1 9.9-9c1.2-1.1 1.9-1.8 2.3-2.2 0.3-0.4 0.6-0.8 0.7-1.1 0.2-0.4 0.2-0.7 0.1-1.1-0.1-0.4-0.3-0.7-0.6-1-0.4-0.4-1.1-0.9-2-1.2l0.3-0.7zm13 11.6l-7 8.7 0.4 0.3c1.4 1.1 2.7 1.5 4 1.1 1.3-0.4 2.7-1.3 4.2-2.8l0.6 0.5-9 11.2-0.6-0.5c0.9-1.3 1.4-2.5 1.6-3.6 0.2-1.1 0.2-2-0.2-2.7-0.3-0.7-1-1.5-2-2.3l-4.8 6c-0.9 1.2-1.5 1.9-1.6 2.3-0.1 0.3-0.1 0.7 0 1.1 0.1 0.4 0.5 0.8 1.1 1.3l1.3 1c2 1.6 4 2.4 5.9 2.5 2 0 3.9-0.7 6-2.2l0.6 0.5-6.4 6-18.5-14.9 0.5-0.6 0.7 0.6q0.9 0.7 1.8 0.9 0.6 0.1 1.2-0.3c0.3-0.2 0.9-0.8 1.8-1.9l11.3-14.1c0.8-1 1.2-1.6 1.4-1.9 0.2-0.5 0.2-0.9 0.1-1.3-0.2-0.6-0.6-1.2-1.3-1.8l-0.7-0.6 0.5-0.6 18 14.4-5.1 6.3-0.6-0.5c0.9-1.8 1.4-3.3 1.4-4.4 0-1.1-0.4-2.2-1.2-3.4-0.4-0.7-1.5-1.6-3.1-2.9zm12.3 30.7l-6.2 4.6c-1.2 0.9-1.9 1.5-2.1 1.9-0.2 0.4-0.3 0.8-0.2 1.3 0.1 0.5 0.5 1.3 1.2 2.3l-0.6 0.4-8.3-11.3 0.6-0.4c0.8 1 1.4 1.6 1.8 1.9 0.5 0.2 0.9 0.3 1.3 0.2 0.4-0.1 1.2-0.6 2.4-1.4l14.4-10.6c1.2-0.9 1.9-1.5 2.1-1.9 0.2-0.4 0.3-0.8 0.2-1.3-0.1-0.5-0.5-1.3-1.3-2.3l0.6-0.4 7.6 10.3c2 2.7 3.2 4.8 3.8 6.3 0.5 1.5 0.6 3 0.2 4.5-0.4 1.5-1.3 2.8-2.6 3.8-1.6 1.2-3.4 1.6-5.3 1.2-1.2-0.3-2.5-0.9-3.8-2l-3.7 10.7c-0.5 1.4-0.7 2.3-0.7 2.8 0 0.7 0.2 1.3 0.6 2l-0.6 0.4-5.1-7 4.8-14.6zm10.8-8l-9.7 7.1 0.7 0.9c1.1 1.5 2.1 2.5 2.9 3.1 0.8 0.5 1.8 0.8 2.8 0.7 1-0.1 2.1-0.6 3.3-1.4 1.7-1.2 2.6-2.6 2.9-3.9 0.2-1.4-0.3-2.9-1.6-4.7zm22.7 36.8l-8.4 3.7-0.3-0.8c2-1.2 3.3-2.8 4-4.8q1.1-3 0-5.4c-0.5-1.3-1.3-2.1-2.3-2.6-1-0.5-1.9-0.5-2.8-0.1-0.6 0.2-1 0.6-1.3 1-0.4 0.6-0.8 1.4-1 2.5-0.2 0.8-0.3 2.4-0.5 5-0.2 3.6-0.8 6.2-1.6 7.7-0.9 1.6-2.1 2.7-3.8 3.4-2.1 0.9-4.3 0.8-6.5-0.2-2.2-1-3.9-2.8-4.9-5.3-0.3-0.8-0.6-1.6-0.7-2.4-0.1-0.8-0.2-1.8-0.2-3.1 0-0.7-0.1-1.2-0.2-1.6-0.1-0.3-0.4-0.6-0.8-0.9-0.4-0.3-0.9-0.4-1.5-0.4l-0.3-0.7 9.6-4 0.3 0.7q-3.8 2.5-4.8 5.7c-0.8 2.2-0.8 4.1 0 5.9 0.6 1.4 1.4 2.4 2.5 2.9 1.1 0.5 2.2 0.6 3.2 0.1q0.9-0.5 1.5-1.2c0.4-0.6 0.8-1.3 1-2.1 0.2-0.9 0.4-2.3 0.5-4.3 0.2-2.8 0.5-4.8 0.8-6.2 0.4-1.3 0.9-2.5 1.7-3.4 0.8-1 1.7-1.7 2.9-2.2 2-0.8 4-0.8 6.1 0.1 2 0.9 3.5 2.5 4.5 4.7 0.3 0.8 0.6 1.7 0.7 2.5 0.1 0.6 0.1 1.5 0.1 2.5-0.1 1 0 1.7 0.1 2q0.2 0.4 0.6 0.6c0.3 0.1 0.8 0.1 1.7-0.1zm-21.4 27.3l-0.7 0.2-3.1-14 0.7-0.2 0.2 0.9c0.2 0.8 0.4 1.4 0.8 1.8 0.3 0.3 0.6 0.5 1.1 0.6 0.3 0.1 1.2 0 2.5-0.3l17.6-3.9c1.4-0.3 2.2-0.6 2.5-0.8 0.3-0.2 0.5-0.6 0.7-1.1 0.2-0.5 0.2-1.1 0-1.9l-0.2-0.9 0.7-0.2 3.1 14-0.7 0.2-0.2-0.9c-0.2-0.8-0.5-1.4-0.8-1.8-0.3-0.3-0.6-0.5-1.1-0.6-0.4-0.1-1.2 0-2.5 0.3l-17.6 3.9c-1.4 0.3-2.2 0.6-2.5 0.8-0.3 0.2-0.5 0.6-0.7 1.1-0.2 0.5-0.1 1.1 0 1.9zm28 24.9l-7.4 0.2v-0.7c1.7-0.5 2.9-1 3.7-1.5 0.7-0.5 1.3-1.3 1.7-2.2q0.3-0.8 0.3-2.7l-0.1-2-21.2 0.4c-1.4 0-2.3 0.1-2.6 0.3-0.4 0.2-0.6 0.5-0.9 0.9-0.3 0.5-0.4 1.1-0.3 1.9v0.9h-0.8l-0.4-14.4h0.8v0.9c0 0.8 0.2 1.4 0.5 1.9 0.2 0.4 0.5 0.6 1 0.8 0.3 0.1 1.2 0.2 2.6 0.2l21.2-0.5-0.1-2c0-1.9-0.5-3.2-1.3-4-1.1-1.1-2.7-1.8-4.7-2.1v-0.8l7.4-0.2zm-7.2 35.9l-0.7-0.2c0.1-0.9 0-1.6-0.3-2.2-0.4-0.8-1.6-2.2-3.8-4.2l-8.3-8.1-6.5-1.6c-1.4-0.3-2.2-0.5-2.6-0.4-0.4 0.1-0.7 0.3-1.1 0.6-0.4 0.4-0.6 0.9-0.8 1.6l-0.4 1.5-0.7-0.2 3.6-15 0.7 0.2-0.3 1.4c-0.2 0.8-0.2 1.4 0 2 0.1 0.4 0.3 0.7 0.8 1 0.3 0.2 1.1 0.5 2.4 0.8l5.4 1.3 13-3.5c2.6-0.7 4.1-1.3 4.6-1.7 0.5-0.4 0.9-1 1.1-1.9l0.7 0.2-3.1 12.8-0.7-0.2 0.1-0.6c0.2-0.8 0.2-1.3 0.1-1.7-0.1-0.4-0.4-0.6-0.6-0.6-0.5-0.1-1.8 0.1-3.9 0.7l-10 2.7 6.9 6.7c1.7 1.7 2.8 2.6 3.5 2.7 0.4 0.1 0.7 0 1-0.3 0.4-0.4 0.8-1.1 1.2-2.3l0.7 0.2zm-230 13.7l1.6 3.1-3.1-1.5-2.4 2.5 0.5-3.4-3.1-1.4 3.4-0.6 0.5-3.5 1.6 3 3.3-0.6z"/><path  d="m48 223.5l-0.7-1 7.4-5.1 0.7 1z"/><path  d="m54.6 232.2l-0.9-1.1 3.1-8.5-0.5 0.4-0.8 0.7-4.7 3.6-0.7-0.8 7.1-5.5 0.9 1.1-3.1 8.5q0.9-0.8 1.4-1.1l4.6-3.6 0.7 0.8z"/><path  d="m66 233.1l-2-2.3-5.9 5.3-0.8-0.9 5.9-5.3-2.1-2.3 0.8-0.6 4.9 5.5z"/><path  d="m66.4 244.6l-5.1-5 6.3-6.4 4.8 4.8-0.7 0.7-3.9-3.9-2.1 2 3.8 3.7-0.7 0.7-3.7-3.7-2.2 2.3 4.2 4.1z"/><path  d="m70 241.8q1.4-1.7 3.1-1.9 1.6-0.1 3.2 1.3 1.2 0.9 1.6 1.9 0.3 1 0 2.1l-1.1-0.4q0.2-0.9-0.1-1.6-0.3-0.7-1-1.3-1.2-1-2.4-0.8-1.3 0.2-2.4 1.5-1.1 1.2-1 2.6 0 1.3 1.2 2.3 0.6 0.5 1.4 0.8 0.7 0.3 1.4 0.3l1-1.3-2-1.7 0.7-0.8 2.8 2.5-2 2.3q-1 0.1-2-0.2-1.1-0.4-2-1.2-1-0.9-1.5-2-0.4-1.1-0.1-2.2 0.3-1.2 1.2-2.2z"/><path  d="m81.1 256.2l-1.2-0.8 0.3-4.4-2.2-1.6-2.2 3-1-0.8 5.3-7.2 3.4 2.5q1.2 0.9 1.5 1.9 0.2 1-0.5 2-0.6 0.8-1.4 1-0.9 0.2-1.8-0.2zm2.5-6.1q0.4-0.6 0.2-1.3-0.2-0.6-1-1.2l-2.3-1.7-1.9 2.7 2.3 1.7q0.8 0.6 1.5 0.5 0.7 0 1.2-0.7z"/><path  d="m83.2 257.6l-1-0.7 4.9-7.5 1 0.6z"/><path  d="m95.9 255.9l-2.7-1.6-3.9 6.9-1.1-0.6 4-6.9-2.7-1.5 0.5-0.9 6.4 3.7z"/><path  d="m99.4 266.4l-1.1-0.5 0.2-2.8-3.6-1.8-2.1 1.9-1.2-0.6 7.3-6.4 1.2 0.6zm-0.3-8.5l0.1-0.6-0.2 0.2q-0.3 0.4-1 1l-2.3 2.1 3 1.5 0.3-3.2q0-0.4 0.1-1z"/><path  d="m108 267.4q-0.5 1.1-1.6 1.4-1.2 0.2-2.8-0.5-3-1.2-2.6-3.5l1.2 0.2q-0.2 0.8 0.3 1.4 0.5 0.6 1.5 1.1 1.1 0.4 1.8 0.3 0.8-0.1 1.1-0.8 0.2-0.4 0.1-0.8-0.1-0.3-0.4-0.6-0.2-0.3-0.6-0.6-0.5-0.3-1-0.7-0.9-0.6-1.3-1-0.4-0.5-0.6-0.8-0.1-0.4-0.2-0.9 0-0.4 0.2-0.8 0.5-1.1 1.5-1.3 1.1-0.3 2.6 0.4 1.4 0.6 2 1.3 0.5 0.7 0.4 1.9l-1.2-0.3q0.1-0.7-0.3-1.2-0.4-0.5-1.3-0.9-1-0.4-1.6-0.3-0.7 0.1-0.9 0.8-0.2 0.3-0.1 0.7 0.1 0.3 0.4 0.6 0.3 0.4 1.3 1.1 0.4 0.2 0.7 0.5 0.4 0.2 0.6 0.5 0.3 0.3 0.6 0.6 0.2 0.3 0.3 0.6 0.1 0.4 0.1 0.7 0 0.4-0.2 0.9z"/><path class="c" d="m119.1 268l3.3 1-3.2 1.2 0.1 3.5-2.1-2.7-3.2 1.1 2-2.8-2.2-2.8 3.3 1 1.9-2.8z"/><path  d="m137.3 267.9l-5 8.3-1.3-0.2-2.2-9.4 1.3 0.2 1.4 6.6 0.3 1.6 0.8-1.5 3.4-5.8z"/><path  d="m144.3 277.5l-7-0.6 0.8-8.9 6.8 0.6-0.1 1-5.6-0.5-0.2 2.8 5.2 0.5-0.1 1-5.2-0.5-0.3 3.1 5.8 0.5z"/><path  d="m147.7 267h-1.4l-2.3-3.8h-2.7l-0.1 3.7h-1.2l0.2-9 4.2 0.1q1.5 0.1 2.3 0.7 0.8 0.7 0.8 1.9-0.1 1-0.7 1.7-0.5 0.7-1.6 0.8zm-1.4-6.4q0-0.8-0.5-1.2-0.5-0.4-1.5-0.4l-2.9-0.1-0.1 3.3 2.9 0.1q1 0 1.5-0.4 0.6-0.5 0.6-1.3z"/><path  d="m155.7 277.1l-1.2 0.1-0.3-9h1.2z"/><path  d="m165.2 268.5l-3.1 0.3 0.7 7.9-1.2 0.1-0.7-7.9-3.1 0.2v-1l7.3-0.6z"/><path  d="m174.2 275.7l-1.2 0.2-1.4-2.5-4 0.6-0.7 2.7-1.2 0.2 2.3-9.3 1.4-0.2zm-5.2-6.9l-0.2-0.5-0.1 0.2q-0.1 0.6-0.2 1.4l-0.7 3.1 3.3-0.5-1.6-2.7q-0.2-0.5-0.5-1z"/><path  d="m181.8 271.4q0.3 1.2-0.5 2.1-0.8 0.9-2.6 1.2-3.2 0.7-4.1-1.4l1.1-0.5q0.3 0.7 1.1 1 0.7 0.2 1.8 0 1.1-0.3 1.7-0.8 0.5-0.5 0.4-1.3-0.1-0.4-0.4-0.6-0.2-0.3-0.6-0.4-0.4-0.1-0.9-0.1-0.5 0-1.2 0-1.1 0-1.6-0.1-0.6-0.1-1-0.4-0.4-0.2-0.6-0.5-0.3-0.4-0.4-0.9-0.2-1.1 0.5-1.9 0.8-0.8 2.4-1.1 1.5-0.3 2.3 0 0.9 0.3 1.5 1.3l-1.1 0.5q-0.4-0.7-1-0.9-0.6-0.2-1.6 0-1 0.2-1.5 0.7-0.5 0.5-0.3 1.1 0.1 0.4 0.3 0.7 0.3 0.2 0.7 0.3 0.5 0.1 1.7 0.1 0.5 0 0.9 0 0.4 0 0.8 0.1 0.4 0 0.8 0.1 0.3 0.2 0.6 0.4 0.3 0.2 0.5 0.5 0.2 0.3 0.3 0.8z"/><path class="c" d="m191.4 265.7l3.2-1.1-2 2.9 2.1 2.8-3.2-1.1-2 2.8v-3.4l-3.3-1.1 3.2-1.1v-3.4z"/><path  d="m211.7 259.7q0.6 1.1 0 2.1-0.6 1.1-2.1 1.9-2.9 1.5-4.4-0.3l0.9-0.8q0.6 0.7 1.3 0.7 0.8 0 1.8-0.5 1-0.5 1.4-1.2 0.4-0.6 0.1-1.3-0.2-0.4-0.5-0.6-0.3-0.1-0.7-0.1-0.5 0-1 0.1-0.5 0.1-1.1 0.3-1 0.3-1.6 0.3-0.6 0-1-0.1-0.4-0.1-0.8-0.4-0.3-0.2-0.5-0.7-0.5-1 0-1.9 0.5-1 1.9-1.7 1.4-0.7 2.3-0.7 1 0.1 1.7 0.9l-0.9 0.8q-0.5-0.6-1.2-0.6-0.6-0.1-1.5 0.4-0.9 0.5-1.3 1-0.3 0.6 0 1.2 0.2 0.4 0.5 0.6 0.3 0.1 0.8 0.1 0.4-0.1 1.7-0.4 0.4-0.1 0.8-0.2 0.4-0.1 0.8-0.1 0.4-0.1 0.8 0 0.3 0 0.7 0.1 0.3 0.1 0.6 0.4 0.3 0.3 0.5 0.7z"/><path  d="m219.3 258l-1.1 0.6-2.2-1.7-3.5 2 0.4 2.8-1 0.7-1.4-9.6 1.1-0.7zm-7.3-4.4l-0.4-0.3v0.1q0.1 0.6 0.3 1.5l0.5 3.1 2.9-1.7-2.5-2q-0.4-0.3-0.8-0.7z"/><path  d="m222.7 248.1q0.7 1.1 0.4 2.2-0.3 1.1-1.4 1.9l-2.2 1.4 2 2.9-1 0.7-5.1-7.4 3.1-2.1q1.3-0.8 2.4-0.7 1 0.1 1.8 1.1zm-1 0.7q-1-1.4-2.7-0.2l-2 1.3 2 3 2-1.4q1.7-1.2 0.7-2.7z"/><path  d="m227.8 252l-1 0.8-5.4-7.2 1-0.7z"/><path  d="m236 245.3l-5.4 4.5-5.8-6.8 5.2-4.4 0.7 0.8-4.3 3.6 1.8 2.1 4-3.3 0.6 0.7-3.9 3.4 2 2.4 4.4-3.8z"/><path  d="m242.1 239.4l-1 1-8.8-2.2 0.5 0.4 0.8 0.8 4.1 4.3-0.8 0.7-6.2-6.4 1-1 8.8 2.1q-0.9-0.8-1.3-1.2l-4.1-4.2 0.8-0.8z"/><path  d="m241.8 227.9l-2.1 2.3 6 5.3-0.9 0.9-5.9-5.3-2 2.2-0.8-0.6 5-5.5z"/><path  d="m249.6 230.8l-0.8 1-6.9-5.7 0.7-0.9z"/><path  d="m256.3 221.9l-0.7 1-2.8-0.7-2.3 3.3 1.5 2.3-0.8 1-5.1-8.2 0.8-1.1zm-8.5-1l-0.5-0.2 0.1 0.2q0.4 0.4 0.8 1.1l1.7 2.7 2-2.7-3.1-0.8q-0.4-0.1-1-0.3z"/><path class="c" d="m258.2 208.6l1.6-3 0.5 3.4 3.4 0.6-3.1 1.5 0.5 3.4-2.4-2.6-3.2 1.5 1.7-3-2.3-2.5z"/><path fill-rule="evenodd" class="b" d="m176.4 104.2l-54.2 99.8m42.5-106.1l-51.1 94.5"/><path class="c" d="m148.1 163.6c4.1 7.3 8.8 14.3 3.1 18.9-5.7 4.7-23.3 11.4-21.5 19.5 1.8 8 18.7 16.3 20.8 17.4 2.1 1-14.7-12.6-8.6-20.5 7.5-9.6 12.7-9.1 17.9-15.8 7.8-10.3-11.7-19.5-11.7-19.5z"/><path class="c" d="m158.2 166.7c7.3 6.5 9.9 14.3 2.9 20.8-5.5 5.1-13.5 4.5-16.3 13.7-2.6 8.6 6.5 16.6 8.6 17.6 2.1 1-6.4-7.2-0.3-15 7.5-9.6 15.7-9.6 19.7-17.1 7.5-14-14.6-20-14.6-20z"/><path class="c" d="m177.2 182.3c0.8 6.5 2.1 13-4.7 17.9-6.7 4.9-11.9 6.2-13.2 9.3-1.3 3.1 0.8 13-1.8 10.1-2.6-2.9-7-10.1-1-16.1 6-6 12.7-8.3 15.8-12.4 3-4.2 4.9-8.8 4.9-8.8z"/><path class="d" d="m162.6 133.7h41.8v15.3h-41.8z"/><path class="d" d="m161.4 133.2h44.3v16.6h-44.3z"/><path class="a" d="m163.9 133.6c3.6-2.4 7.2-3.7 10.3-3.4 3.1 0.3 9.7 2 9.7 3.2 0 1.6 0.1 15.5 0.1 15.5 0 0-5.8-3.4-10.2-3.1-4.4 0.3-9.9 3.3-9.9 3.3z"/><path class="d" d="m163.9 133.6c3.6-2.4 7.2-3.7 10.3-3.4 3.1 0.3 9.7 2 9.7 3.2 0 1.6 0.1 15.5 0.1 15.5 0 0-5.8-3.4-10.2-3.1-4.4 0.3-9.9 3.3-9.9 3.3z"/><path class="a" d="m203.5 133.6c-3.4-2.4-6.9-3.7-9.9-3.4-3 0.3-9.3 2-9.3 3.2 0 1.6 0.1 15.5 0.1 15.5 0 0 5.4-3.4 9.7-3.1 4.2 0.3 9.5 3.3 9.5 3.3z"/><path class="d" d="m203.5 133.6c-3.4-2.4-6.9-3.7-9.9-3.4-3 0.3-9.3 2-9.3 3.2 0 1.6 0.1 15.5 0.1 15.5 0 0 5.4-3.4 9.7-3.1 4.2 0.3 9.5 3.3 9.5 3.3z"/><path fill-rule="evenodd" class="e" d="m183.4 149.4c-1.6-0.9-7-2.1-9.3-2.1-2.3 0-5.9 1.3-8.2 2.3m36.7 0c-2.3-1-5.9-2.3-8.2-2.3-2.3 0-7.7 1.2-9.3 2.1z"/><path fill-rule="evenodd" class="f" d="m89.5 102.2v26.2m4.2-25.6v48.4m4.6-47v59.5m4.5-58.4v68.1m4.4-67.4v75.5m4.3-75.3v83.2m4.7-83.5v79.5m4.9-80.6v71.4m5.1-72.6v63.9m4.2-65.9v57.3m4.7-60.4v52.7m4.8-56.3v46.7m4.9-51.4v43.3m4.8-49.4v40.1m4.6-37.4v28.9m4.9-23.2v13.8"/><path fill-rule="evenodd" class="b" d="m149.7 233.6c-27.5-26.5-64.1-65.1-63.3-133.9 32.4 15.8 54.5-0.8 64.1-18.2 30.3 44.5 64.5 15.4 64.5 17.7 0 84.6-65.3 134.4-65.3 134.4z"/><path class="c" d="m123.3 182.4l1.4 2.9 3.2 0.5-2.3 2.2 0.5 3.2-2.8-1.5-2.9 1.5 0.6-3.2-2.3-2.2 3.2-0.5zm17.6-32.8l1.4 2.9 3.2 0.4-2.3 2.3 0.6 3.2-2.9-1.5-2.8 1.5 0.5-3.2-2.3-2.3 3.2-0.4zm16.6-29.8l1.5 2.9 3.1 0.5-2.3 2.2 0.6 3.2-2.9-1.5-2.8 1.5 0.5-3.2-2.3-2.2 3.2-0.5z"/><path fill-rule="evenodd" class="f" d="m149.8 154.1h54.7m-57.2 4h56.4"/><path class="c" d="m96.7 201.5c-1 1.8-2.6 0 0.3 4.1 2.9 4.1 0.5 4.4 4.1 6.5 3.6 2.1-1 4.7 2.6 4.9 3.6 0.3 6 3.6 10.4 5.2 4.4 1.6-0.3 5.6 4.2 5.7 4.5 0.1 4.7 4.9 8.6 3.1 3.9-1.8 7.8-3.4 1.8-6-6-2.6-11.4-6-12.7-8-1.3-2.1-2.9-0.5-7.5-4.9-4.7-4.4-6-8-7.8-9.6-1.9-1.6-4-1-4-1z"/><path class="a" d="m96.9 195c-1.4-2.9-3.9-4.8-4.8-4.3-0.8 0.4-0.2 3.7 1.1 7 1.3 3.4 3.7 6.9 5 5.9-0.1-0.1 0.4-4.9-1.3-8.6z"/><path class="d" d="m96.9 195c-1.4-2.9-3.9-4.8-4.8-4.3-0.8 0.4-0.2 3.7 1.1 7 1.3 3.4 3.7 6.9 5 5.9-0.1-0.1 0.4-4.9-1.3-8.6z"/><path class="a" d="m98.4 209c-2.7-0.4-5.4-0.2-5.8 0.7-0.3 0.8 2.3 2.1 5.1 3.3 2.9 1.2 6.1 1.7 6.6-0.5 0.5-1.8-2.7-3.1-5.9-3.5z"/><path class="d" d="m98.4 209c-2.7-0.4-5.4-0.2-5.8 0.7-0.3 0.8 2.3 2.1 5.1 3.3 2.9 1.2 6.1 1.7 6.6-0.5 0.5-1.8-2.7-3.1-5.9-3.5z"/><path class="a" d="m113 220.8c-2.6-0.9-5.3-1.2-5.8-0.4-0.4 0.7 1.9 2.5 4.4 4.2 2.6 1.7 5.7 2.8 6.6 0.7 0.7-1.7-2.2-3.5-5.2-4.5z"/><path class="d" d="m113 220.8c-2.6-0.9-5.3-1.2-5.8-0.4-0.4 0.7 1.9 2.5 4.4 4.2 2.6 1.7 5.7 2.8 6.6 0.7 0.7-1.7-2.2-3.5-5.2-4.5z"/><path class="a" d="m116.9 225.8c-2.5 0.1-5 0.8-5.2 1.8-0.2 0.8 2.3 1.6 5 2.2 2.7 0.6 5.8 0.5 6-1.8 0.2-1.8-2.8-2.3-5.8-2.2z"/><path class="d" d="m116.9 225.8c-2.5 0.1-5 0.8-5.2 1.8-0.2 0.8 2.3 1.6 5 2.2 2.7 0.6 5.8 0.5 6-1.8 0.2-1.8-2.8-2.3-5.8-2.2z"/><path class="a" d="m124.3 229c-2.8 0.2-5.5 1.1-5.7 2.2-0.2 0.9 2.5 1.8 5.5 2.4 3 0.6 6.3 0.4 6.6-2.2 0.2-2.1-3.2-2.7-6.4-2.4z"/><path fill-rule="evenodd" class="f" d="m124.3 229c-2.8 0.2-5.5 1.1-5.7 2.2-0.2 0.9 2.5 1.8 5.5 2.4 3 0.6 6.3 0.4 6.6-2.2 0.2-2.1-3.2-2.7-6.4-2.4z"/><path class="a" d="m103.4 215.1c-2.8 0.1-5.4 0.7-5.6 1.7-0.2 0.8 2.6 1.7 5.6 2.4 3 0.7 6.3 0.6 6.4-1.7 0.2-1.8-3.1-2.5-6.4-2.4z"/><path class="d" d="m103.4 215.1c-2.8 0.1-5.4 0.7-5.6 1.7-0.2 0.8 2.6 1.7 5.6 2.4 3 0.7 6.3 0.6 6.4-1.7 0.2-1.8-3.1-2.5-6.4-2.4z"/><path class="a" d="m94 202.2c-2.6-1-5.3-1.3-5.8-0.5-0.5 0.7 1.8 2.6 4.3 4.3 2.5 1.8 5.8 3 6.6 0.8 0.3-0.7-2-3.5-5.1-4.6z"/><path class="d" d="m94 202.2c-2.6-1-5.3-1.3-5.8-0.5-0.5 0.7 1.8 2.6 4.3 4.3 2.5 1.8 5.8 3 6.6 0.8 0.3-0.7-2-3.5-5.1-4.6z"/><path class="a" d="m107.6 207.2c-1.4-2.5-3.2-4.6-4.1-4.2-0.8 0.3-0.3 3.2 0.5 6.2 0.8 3.1 2.4 6 4.5 5 1.7-0.8 0.7-4.1-0.9-7z"/><path class="d" d="m107.6 207.2c-1.4-2.5-3.2-4.6-4.1-4.2-0.8 0.3-0.3 3.2 0.5 6.2 0.8 3.1 2.4 6 4.5 5 1.7-0.8 0.7-4.1-0.9-7z"/><path class="a" d="m102.9 201.3c-0.8-2.7-2.2-5.1-3.2-5-0.8 0.1-0.9 3.1-0.7 6.2 0.2 3.2 1.1 6.4 3.4 5.9 1.7-0.5 1.5-4 0.5-7.1z"/><path class="d" d="m102.9 201.3c-0.8-2.7-2.2-5.1-3.2-5-0.8 0.1-0.9 3.1-0.7 6.2 0.2 3.2 1.1 6.4 3.4 5.9 1.7-0.5 1.5-4 0.5-7.1z"/><path class="a" d="m117.5 210.4c-1.5-0.5-5.5 11-1.6 11.8 3.1 0.6 3.5-11.2 1.6-11.8z"/><path class="d" d="m117.5 210.4c-1.5-0.5-5.5 11-1.6 11.8 3.1 0.6 3.5-11.2 1.6-11.8z"/><path class="a" d="m112.6 211.2c-1.4-2.5-3.2-4.6-4.1-4.2-0.8 0.3-0.3 3.2 0.5 6.2 0.8 3.1 2.4 5.9 4.5 5 1.4-0.6 0.7-4.1-0.9-7z"/><path class="d" d="m112.6 211.2c-1.4-2.5-3.2-4.6-4.1-4.2-0.8 0.3-0.3 3.2 0.5 6.2 0.8 3.1 2.4 5.9 4.5 5 1.4-0.6 0.7-4.1-0.9-7z"/><path class="a" d="m119.3 215.1c-1.6 0.2-1.6 11.4 3.5 11.4 5.2 0-1.5-11.6-3.5-11.4z"/><path class="d" d="m119.3 215.1c-1.6 0.2-1.6 11.4 3.5 11.4 5.2 0-1.5-11.6-3.5-11.4z"/><path class="a" d="m123.6 216.8c-1.7 0.4-1.2 13.6 4.1 11.6 3.2-1.1-2-12.1-4.1-11.6z"/><path class="d" d="m123.6 216.8c-1.7 0.4-1.2 13.6 4.1 11.6 3.2-1.1-2-12.1-4.1-11.6z"/><path class="a" d="m128 219.7c-1.7 0.4-1.2 13.6 4.1 11.6 3.2-1.1-2-12.1-4.1-11.6z"/><path class="d" d="m128 219.7c-1.7 0.4-1.2 13.6 4.1 11.6 3.2-1.1-2-12.1-4.1-11.6z"/><path class="c" d="m204 201.5c1 1.8 2.6 0-0.3 4.1-2.8 4.1-0.5 4.4-4.1 6.5-3.6 2.1 1 4.7-2.6 4.9-3.6 0.3-6 3.6-10.4 5.2-4.4 1.6 0.4 5.6-4.1 5.7-4.5 0.1-4.7 4.9-8.6 3.1-3.9-1.8-7.8-3.4-1.8-6 6-2.6 11.4-6 12.7-8 1.3-2.1 2.9-0.5 7.5-4.9 4.7-4.4 6-8 7.8-9.6 1.9-1.6 3.9-1 3.9-1z"/><path class="a" d="m203.9 195c1.4-2.9 3.9-4.8 4.8-4.3 0.8 0.4 0.2 3.7-1.1 7-1.3 3.4-3.7 6.9-5 5.9 0-0.1-0.5-4.9 1.3-8.6z"/><path class="d" d="m203.9 195c1.4-2.9 3.9-4.8 4.8-4.3 0.8 0.4 0.2 3.7-1.1 7-1.3 3.4-3.7 6.9-5 5.9 0-0.1-0.5-4.9 1.3-8.6z"/><path class="a" d="m202.3 209c2.7-0.4 5.4-0.2 5.8 0.7 0.3 0.8-2.3 2.1-5.1 3.3-2.9 1.2-6.1 1.7-6.6-0.5-0.4-1.8 2.8-3.1 5.9-3.5z"/><path class="d" d="m202.3 209c2.7-0.4 5.4-0.2 5.8 0.7 0.3 0.8-2.3 2.1-5.1 3.3-2.9 1.2-6.1 1.7-6.6-0.5-0.4-1.8 2.8-3.1 5.9-3.5z"/><path class="a" d="m187.8 220.8c2.6-0.9 5.3-1.2 5.8-0.4 0.4 0.7-1.9 2.5-4.4 4.2-2.6 1.7-5.7 2.8-6.6 0.7-0.7-1.7 2.2-3.5 5.2-4.5z"/><path class="d" d="m187.8 220.8c2.6-0.9 5.3-1.2 5.8-0.4 0.4 0.7-1.9 2.5-4.4 4.2-2.6 1.7-5.7 2.8-6.6 0.7-0.7-1.7 2.2-3.5 5.2-4.5z"/><path class="a" d="m183.8 225.8c2.5 0.1 5 0.8 5.2 1.8 0.2 0.8-2.3 1.6-5 2.2-2.7 0.6-5.8 0.5-6-1.8-0.2-1.8 2.9-2.3 5.8-2.2z"/><path class="d" d="m183.8 225.8c2.5 0.1 5 0.8 5.2 1.8 0.2 0.8-2.3 1.6-5 2.2-2.7 0.6-5.8 0.5-6-1.8-0.2-1.8 2.9-2.3 5.8-2.2z"/><path class="a" d="m176.5 229c2.8 0.2 5.5 1.1 5.7 2.2 0.2 0.9-2.5 1.8-5.5 2.4-3 0.6-6.3 0.4-6.6-2.2-0.2-2.1 3.1-2.7 6.4-2.4z"/><path fill-rule="evenodd" class="f" d="m176.5 229c2.8 0.2 5.5 1.1 5.7 2.2 0.2 0.9-2.5 1.8-5.5 2.4-3 0.6-6.3 0.4-6.6-2.2-0.2-2.1 3.1-2.7 6.4-2.4z"/><path class="a" d="m197.3 215.1c2.8 0.1 5.4 0.7 5.6 1.7 0.1 0.8-2.6 1.7-5.6 2.4-3 0.7-6.3 0.6-6.4-1.7-0.1-1.8 3.2-2.5 6.4-2.4z"/><path class="d" d="m197.3 215.1c2.8 0.1 5.4 0.7 5.6 1.7 0.1 0.8-2.6 1.7-5.6 2.4-3 0.7-6.3 0.6-6.4-1.7-0.1-1.8 3.2-2.5 6.4-2.4z"/><path class="a" d="m206.7 202.2c2.6-1 5.3-1.3 5.8-0.5 0.4 0.7-1.8 2.6-4.3 4.3-2.5 1.8-5.8 3-6.6 0.8-0.2-0.7 2.1-3.5 5.1-4.6z"/><path class="d" d="m206.7 202.2c2.6-1 5.3-1.3 5.8-0.5 0.4 0.7-1.8 2.6-4.3 4.3-2.5 1.8-5.8 3-6.6 0.8-0.2-0.7 2.1-3.5 5.1-4.6z"/><path class="a" d="m193.2 207.2c1.4-2.5 3.2-4.6 4.1-4.2 0.8 0.3 0.3 3.2-0.5 6.2-0.8 3.1-2.4 6-4.5 5-1.7-0.8-0.7-4.1 0.9-7z"/><path class="d" d="m193.2 207.2c1.4-2.5 3.2-4.6 4.1-4.2 0.8 0.3 0.3 3.2-0.5 6.2-0.8 3.1-2.4 6-4.5 5-1.7-0.8-0.7-4.1 0.9-7z"/><path class="a" d="m197.9 201.3c0.8-2.7 2.2-5.1 3.2-5 0.8 0.1 0.9 3.1 0.8 6.2-0.2 3.2-1.1 6.4-3.4 5.9-1.9-0.5-1.6-4-0.6-7.1z"/><path class="d" d="m197.9 201.3c0.8-2.7 2.2-5.1 3.2-5 0.8 0.1 0.9 3.1 0.8 6.2-0.2 3.2-1.1 6.4-3.4 5.9-1.9-0.5-1.6-4-0.6-7.1z"/><path class="a" d="m183.3 210.4c1.5-0.5 5.5 11 1.6 11.8-3.1 0.6-3.5-11.2-1.6-11.8z"/><path class="d" d="m183.3 210.4c1.5-0.5 5.5 11 1.6 11.8-3.1 0.6-3.5-11.2-1.6-11.8z"/><path class="a" d="m188.2 211.2c1.4-2.5 3.2-4.6 4.1-4.2 0.8 0.3 0.3 3.2-0.5 6.2-0.8 3.1-2.4 5.9-4.5 5-1.4-0.6-0.7-4.1 0.9-7z"/><path class="d" d="m188.2 211.2c1.4-2.5 3.2-4.6 4.1-4.2 0.8 0.3 0.3 3.2-0.5 6.2-0.8 3.1-2.4 5.9-4.5 5-1.4-0.6-0.7-4.1 0.9-7z"/><path class="a" d="m181.5 215.1c1.6 0.2 1.6 11.4-3.5 11.4-5.2 0 1.5-11.6 3.5-11.4z"/><path class="d" d="m181.5 215.1c1.6 0.2 1.6 11.4-3.5 11.4-5.2 0 1.5-11.6 3.5-11.4z"/><path class="a" d="m177.1 216.8c1.7 0.4 1.2 13.6-4.1 11.6-3.2-1.1 2-12.1 4.1-11.6z"/><path class="d" d="m177.1 216.8c1.7 0.4 1.2 13.6-4.1 11.6-3.2-1.1 2-12.1 4.1-11.6z"/><path class="a" d="m172.8 219.7c1.7 0.4 1.2 13.6-4.1 11.6-3.3-1.1 2-12.1 4.1-11.6z"/><path class="d" d="m172.8 219.7c1.7 0.4 1.2 13.6-4.1 11.6-3.3-1.1 2-12.1 4.1-11.6z"/></svg>