<svg version="1.2" xmlns="http://www.w3.org/2000/svg" viewBox="0 0 188 153" width="188" height="153"><style>.a{fill:#f7dfab}.b{fill:#a5333a}.c{fill:#fff}.d{fill:#1d7f67}.e{fill:#ecb73b}</style><path fill-rule="evenodd" class="a" d="m66.8 24.1h53.6v9c0 0.8-0.1 2.6-0.4 4.8l-52.8-0.3c-0.3-2.1-0.4-3.7-0.4-4.5z"/><path fill-rule="evenodd" class="a" d="m120.4 24.2h-53.6v-0.1h53.6zm-53.2 13.3l52.8 0.3q0 0.1-0.1 0.1l-52.6-0.3z"/><path fill-rule="evenodd" class="b" d="m66.8 0.6h53.6v23.5h-53.6z"/><path fill-rule="evenodd" class="c" d="m81.4 38c0 0-0.5-2-0.5-3 0-0.7 0.4-17.5 0.4-17.5 0-6.7 5.5-12.2 12.3-12.2 6.8 0 12.2 5.5 12.2 12.2 0 0 0.5 16.8 0.5 17.5 0 1-0.5 3-0.5 3l14.3-0.9c-0.6 3.8-1.9 9.5-5 14.4l-21.5 4.1-21.3-3.8c-3.3-5.1-4.6-11.1-5.2-15z"/><path fill-rule="evenodd" class="b" d="m93.6 54.2c0 0 1.2-1.6 2.3-2.5 1.4-1.1 4.5-2 7.1-2 0.8 0 11 0 13.2 0-1.2 2.1-2.6 4.2-4.3 6-10 9.9-18.3 13-18.3 13 0 0-8.3-3.2-18.2-13.1-1.7-1.7-3.2-3.8-4.3-5.9 2.2 0 12.4 0 13.1 0 2.7 0 5.8 0.9 7.2 2 1.1 0.9 2.2 2.5 2.2 2.5z"/><path fill-rule="evenodd" class="c" d="m95.7 51.6h-0.1l-0.1 0.1-0.1 0.1-0.1 0.1-0.1 0.1-0.1 0.1-0.1 0.1-0.1 0.1-0.1 0.1-0.1 0.1-0.1 0.1-0.1 0.1-0.1 0.1v0.1l-0.1 0.1-0.1 0.1-0.1 0.1-0.1 0.1v0.1l-0.1 0.1-0.1 0.1v0.1h-0.1v0.1h-0.1v0.1l-0.1 0.1v0.1l0.3 0.2v-0.1h0.1v-0.1l0.1-0.1 0.1-0.1v-0.1l0.1-0.1h0.1v-0.1l0.1-0.1 0.1-0.1 0.1-0.1 0.1-0.1v-0.1l0.1-0.1 0.1-0.1 0.1-0.1 0.1-0.1 0.1-0.1 0.1-0.1 0.1-0.1 0.1-0.1 0.1-0.1 0.1-0.1 0.1-0.1 0.1-0.1h0.1z"/><path fill-rule="evenodd" class="c" d="m103 49.5h-0.2-0.3l-0.2 0.1h-0.3-0.2-0.3l-0.3 0.1h-0.2-0.3l-0.2 0.1h-0.3l-0.3 0.1h-0.2l-0.3 0.1h-0.2l-0.3 0.1-0.2 0.1h-0.2l-0.3 0.1-0.2 0.1-0.2 0.1-0.2 0.1h-0.3l-0.2 0.1-0.2 0.1-0.2 0.1-0.1 0.1-0.2 0.1-0.2 0.1-0.2 0.1-0.1 0.1-0.2 0.2 0.3 0.3 0.1-0.1 0.2-0.1 0.1-0.1 0.2-0.1 0.1-0.1 0.2-0.1 0.2-0.1 0.2-0.1 0.2-0.1 0.2-0.1 0.2-0.1h0.2l0.3-0.1 0.2-0.1 0.2-0.1h0.3l0.2-0.1h0.2l0.3-0.1 0.2-0.1h0.3 0.2l0.3-0.1h0.2l0.3-0.1h0.2 0.3 0.2l0.3-0.1h0.2 0.3 0.2z"/><path fill-rule="evenodd" class="c" d="m116.1 49.9h-13-0.1v-0.4h13.3q-0.1 0.2-0.2 0.4zm-31.9 0h-0.1-12.9l-0.2-0.4h13.2z"/><path fill-rule="evenodd" class="c" d="m91.5 51.6l-0.1-0.2-0.2-0.1-0.2-0.1-0.1-0.1-0.2-0.1-0.2-0.1-0.2-0.1-0.2-0.1-0.2-0.1h-0.2l-0.2-0.1-0.2-0.1-0.3-0.1-0.2-0.1h-0.2l-0.3-0.1-0.2-0.1h-0.3l-0.2-0.1h-0.3l-0.2-0.1h-0.3l-0.3-0.1h-0.2-0.3l-0.2-0.1h-0.3-0.3-0.2l-0.3-0.1h-0.2-0.3v0.4h0.3 0.2 0.3l0.2 0.1h0.3 0.2 0.3l0.2 0.1h0.3l0.2 0.1h0.3l0.2 0.1h0.3l0.2 0.1h0.3l0.2 0.1h0.2l0.3 0.1 0.2 0.1 0.2 0.1h0.2l0.3 0.1 0.2 0.1 0.2 0.1 0.1 0.1 0.2 0.1 0.2 0.1 0.2 0.1 0.1 0.1 0.2 0.1 0.1 0.1 0.2 0.1z"/><path fill-rule="evenodd" class="c" d="m93.5 54.1h0.3v-0.1h-0.1v-0.1h-0.1v-0.1l-0.1-0.1-0.1-0.1v-0.1l-0.1-0.1-0.1-0.1-0.1-0.1v-0.1l-0.1-0.1-0.1-0.1-0.1-0.1-0.1-0.1-0.1-0.1-0.1-0.1-0.1-0.1-0.1-0.1-0.1-0.1-0.1-0.1-0.1-0.1-0.1-0.1-0.1-0.1-0.1-0.1-0.1-0.1h-0.1l-0.2 0.3h0.1l0.1 0.1 0.1 0.1 0.1 0.1 0.1 0.1 0.1 0.1 0.1 0.1 0.1 0.1 0.1 0.1v0.1l0.1 0.1 0.1 0.1 0.1 0.1 0.1 0.1 0.1 0.1 0.1 0.1v0.1l0.1 0.1 0.1 0.1h0.1v0.1l0.1 0.1v0.1h0.1v0.1h0.1v0.1l0.1 0.1h0.3-0.3l0.1 0.2 0.2-0.2z"/><path fill-rule="evenodd" class="d" d="m93.6 51.4c0 0 1.4-1.9 3.2-3 2.2-1.4 5.3-1.7 6.8-1.7h20.3l-1.5-3.5h-18.6c-2.6 0-4.8 1.1-7.1 2.9-1.8 1.4-3.1 3.9-3.1 3.9 0 0-1.2-2.5-3-3.9-2.4-1.8-4.5-2.9-7.1-2.9h-18.6l-1.6 3.5h20.4c1.4 0 4.5 0.3 6.7 1.7 1.9 1.1 3.2 3 3.2 3z"/><path fill-rule="evenodd" class="d" d="m93.7 51.4l-0.1 0.1v-0.1c0 0-1.4-1.9-3.2-3-0.9-0.5-1.9-0.9-3-1.2q-0.4-0.1-0.9-0.1-0.5-0.1-0.9-0.2-0.5 0-1-0.1-0.4 0-0.9 0h-20.5l0.1-0.1 1.5-3.5h0.1 18.6c1.3 0 2.5 0.2 3.6 0.7 1.2 0.5 2.3 1.2 3.5 2.1 1.6 1.3 2.8 3.4 3 3.9 0.3-0.5 1.4-2.6 3.1-3.9 1.1-0.9 2.3-1.6 3.4-2.1 1.2-0.5 2.4-0.7 3.7-0.7h18.6l1.6 3.5v0.1h-20.4c-0.9 0-2.3 0.1-3.8 0.4-1 0.3-2.1 0.7-3 1.2-1.8 1.1-3.1 3-3.1 3zm-0.1-0.1c0.3-0.4 1.6-2 3.2-3 0.9-0.5 1.9-0.9 3-1.2q0.5-0.1 0.9-0.2 0.5 0 1-0.1 0.4-0.1 0.9-0.1 0.5 0 1 0h20.2l-1.5-3.4h-18.5c-1.3 0-2.5 0.2-3.6 0.7-1.2 0.5-2.3 1.2-3.5 2.1-1.8 1.4-3 3.9-3 3.9l-0.1 0.1v-0.1c0 0-1.2-2.5-3.1-3.9-1.1-0.9-2.3-1.6-3.4-2.1-1.2-0.5-2.3-0.7-3.6-0.7h-18.6l-1.5 3.4h20.3c0.8 0 2.3 0.1 3.8 0.4 1 0.3 2.1 0.7 3 1.2 1.6 1 2.9 2.7 3.1 3z"/><path fill-rule="evenodd" class="e" d="m84.8 35.2c0.1 5.2 4 7.6 5.8 8.3 2.7 1 3 3.4 3 3.4 0 0 0.3-2.4 3.1-3.4 1.8-0.7 5.6-3.1 5.7-8.3 0.1-4.7-0.3-16.1-0.3-17.7 0-4.7-3.8-8.6-8.5-8.5-4.7 0-8.5 3.8-8.5 8.5 0 1.6-0.3 13-0.3 17.7z"/><path fill-rule="evenodd" class="c" d="m88.4 10.8l-0.8 29.4-0.4-28.3q0.5-0.6 1.2-1.1zm2.8-1.5q0.1 0 0.3-0.1 0.2 0 0.3 0 0.2-0.1 0.3-0.1l-0.8 33.3-0.4-33q0.1 0 0.3-0.1zm8.9 2.6l-0.4 28.3-0.8-29.4q0.1 0.1 0.3 0.2 0.2 0.2 0.3 0.3 0.2 0.2 0.3 0.3 0.1 0.2 0.3 0.3zm-3.7-2.5l-0.4 33-0.9-33.3q0.7 0.1 1.3 0.3zm-3.9-3.8v-0.3l0.8-1.5 0.2-3.2h0.3l0.1 3.2 0.9 1.5v0.3zm-11.1 22.5h-0.3l-1.6-0.9-3.2-0.1v-0.3l3.2-0.2 1.6-0.8h0.3zm-0.1 5.7h-0.4l-1.5-0.9-3.2-0.1v-0.4l3.2-0.1 1.5-0.8h0.4zm0.2-11.6h-0.3l-1.5-1-3.2-0.4v-0.2l0.1-0.1 3.1 0.1 1.7-0.7h0.3l-0.1 1.2zm6.1-15l-0.2-0.3 0.1-1.8-1.2-2.9 0.2-0.1h0.1l1.5 2.8 1.4 1 0.1 0.3-1 0.5zm-4 3.6l-0.2-0.2-0.7-1.6-2.3-2.2 0.1-0.1 0.1-0.1 2.5 1.9 1.7 0.3 0.3 0.3-0.7 0.8zm-2.1 5.3l-0.3-0.1-1.2-1.3-3-1.1 0.1-0.2v-0.2l3.1 0.9 1.7-0.3 0.3 0.1zm24.3 9.8h0.3l1.6 0.8 3.1 0.1v0.4l-3.1 0.1-1.6 0.9h-0.3zm0.1 5.6h0.4l1.5 0.8 3.2 0.2v0.3l-3.2 0.2-1.5 0.8h-0.4zm-0.3-10.4l-0.1-1.2h0.3l1.7 0.7 3.1-0.1v0.1l0.1 0.2-3.2 0.4-1.5 1h-0.3zm-7-14.3l-1-0.5 0.1-0.3 1.4-1 1.5-2.9 0.1 0.1 0.2 0.1-1.2 2.9 0.1 1.8-0.2 0.3zm4.3 3.2l-0.7-0.9 0.2-0.2 1.7-0.4 2.6-1.9 0.1 0.1 0.1 0.2-2.4 2.1-0.6 1.6-0.3 0.3zm2.5 5l-0.4-1.1 0.3-0.1 1.7 0.3 3.1-0.9 0.1 0.2v0.2l-3 1.1-1.2 1.3-0.3 0.1z"/><path fill-rule="evenodd" class="d" d="m124.7 33.9l-1.7 4.1c0 0-1.9 0.8-5 0.8-3.2 0-2.9-0.2-6.1-0.2-7 0-10.1 2.4-10.1 2.4 0 0 1.6-3.3 5.7-5.1 2-0.8 3.6-0.9 4.8-0.9 1.2 0 4.7 0.5 6.8 0.5 2.4 0 5.6-1.6 5.6-1.6z"/><path fill-rule="evenodd" class="d" d="m124.7 33.8l0.1 0.1-1.7 4.1c0 0-2 0.9-5.1 0.9-1.6 0-2.3-0.1-3-0.1-0.8-0.1-1.5-0.2-3.1-0.2-7 0-10 2.4-10 2.4l-0.1-0.1c0 0 1.5-3.3 5.7-5q0.3-0.2 0.6-0.3 0.4-0.1 0.7-0.2 0.3-0.1 0.7-0.2 0.3-0.1 0.7-0.1 0.2-0.1 0.5-0.1 0.3 0 0.5-0.1 0.3 0 0.6 0 0.2 0 0.5 0c0.5 0 1.4 0.1 2.5 0.2 1.4 0.2 3.1 0.3 4.3 0.3 2.4 0 5.6-1.6 5.6-1.6zm-0.1 0.2c-0.7 0.4-3.4 1.6-5.5 1.6-1.2 0-2.9-0.2-4.3-0.3-1.1-0.2-2-0.3-2.5-0.3-0.6 0-1.3 0.1-2.1 0.2q-0.3 0.1-0.7 0.1-0.3 0.1-0.7 0.2-0.3 0.1-0.6 0.2-0.4 0.2-0.7 0.3c-3.4 1.4-5.1 4-5.5 4.8 0.8-0.6 4-2.3 9.9-2.3 1.6 0 2.3 0.1 3.1 0.1 0.7 0.1 1.4 0.2 3 0.2 2.9 0 4.8-0.8 5-0.9z"/><path fill-rule="evenodd" class="d" d="m62.5 33.9l1.7 4.1c0 0 2 0.8 5.1 0.8 3.1 0 2.9-0.2 6.1-0.2 7 0 10 2.4 10 2.4 0 0-1.5-3.3-5.6-5.1q-0.6-0.2-1.2-0.4-0.6-0.2-1.2-0.3-0.6-0.1-1.2-0.2-0.6 0-1.2 0c-1.2 0-4.7 0.5-6.9 0.5-2.4 0-5.6-1.6-5.6-1.6z"/><path fill-rule="evenodd" class="d" d="m62.5 33.9l0.1-0.1c0 0 3.1 1.6 5.5 1.6 1.3 0 2.9-0.1 4.4-0.3 1-0.1 2-0.2 2.5-0.2 0.6 0 1.3 0 2.1 0.2 0.8 0.1 1.7 0.3 2.7 0.8 4.2 1.7 5.7 5 5.7 5l-0.1 0.1c0 0-3.1-2.4-10-2.4-1.6 0-2.4 0.1-3.1 0.2-0.7 0-1.4 0.1-3 0.1-3.1 0-5.1-0.9-5.1-0.9zm0.1 0.1l1.6 3.9c0.3 0.1 2.2 0.8 5.1 0.8 1.5 0 2.2 0 3-0.1 0.7-0.1 1.4-0.1 3-0.1 6 0 9.1 1.7 9.9 2.2-0.4-0.7-2-3.3-5.5-4.7q-0.3-0.2-0.6-0.3-0.4-0.1-0.7-0.2-0.3-0.1-0.7-0.2-0.3-0.1-0.7-0.1-0.2-0.1-0.5-0.1-0.2 0-0.5 0-0.3-0.1-0.5-0.1-0.3 0-0.5 0c-0.5 0-1.5 0.1-2.5 0.2-1.5 0.2-3.2 0.4-4.4 0.4-2.1 0-4.8-1.3-5.5-1.6z"/><path fill-rule="evenodd" d="m8.6 82.2l8.1 17.3q0.2 0.4 0.3 0.4c0.1 0 0.1-0.2 0.2-0.4l7.5-17.3h6.5v1.3h-1.6c-0.6 0-0.7 0.2-0.7 0.8v15.8c0 4.2 0.1 5.8 1.9 5.8h1.4v1.3h-9.9v-1.3h1.6c0.8 0 0.8-0.3 0.8-1.2v-18.4l-8.6 19.7c-0.3 0.6-0.5 1-0.7 1-0.1 0-0.3-0.4-0.6-0.9l-8.5-19v11.7c0 5.3 0 7.1 1.8 7.1h2.2v1.3h-8.1v-1.3h1.4c1 0 1.1-0.6 1.1-2.5v-15.7c0-3.2-0.1-4.2-2.3-4.2h-1.2v-1.3zm34.3 1.3h-1.5c-0.7 0-0.8 0.2-0.8 0.8 0 0.2 0 0.5 0 0.9v13c0 5.4 2 7.9 6.5 7.9 5 0 7.7-2.9 7.7-8.6v-9q0-2.6-0.3-3.7c-0.3-1.2-0.5-1.3-1.4-1.3h-1.6v-1.3h7.4v1.3h-1.6c-0.9 0-0.9 0.2-0.9 1.1v12.9c0 6.9-3.7 10.4-10.6 10.4-6.5 0-9.6-3-9.6-9.3v-9.9c0-4.3-0.2-5.2-1.9-5.2h-1.2v-1.3h9.8zm27.8-1.2c6.1 0 9.2 2.6 9.2 7 0 2.9-2 5.2-5.5 5.9q0.6 1 1.2 1.9 0.6 0.9 1.2 1.8 0.6 1 1.3 1.9 0.6 0.9 1.3 1.8c1.7 2.3 2.1 3.4 3.6 3.4h0.8v1.3h-4.8c-0.9 0-1.4-0.1-2.3-1.3-0.7-1-2.9-4.3-6.2-10-0.2 0-0.5 0-0.9 0-0.5 0-1.1 0-1.8 0v4.8c0 4.1 0.1 5.2 1.8 5.2h1.6v1.3h-10v-1.3h1.5c0.8 0 0.8-0.3 0.8-1.4v-15.9c0-4.1-0.1-5.2-1.9-5.2h-1.1v-1.2h10.2zm-1.1 12.4c3.7 0 5.9-2.2 5.9-5 0-3.6-2.6-6-6.7-6-0.7 0-1 0.1-1 0.6v10.2q1.1 0.2 1.8 0.2zm14.6 11.3h1.5c0.8 0 0.8-0.3 0.8-1.4v-15.9c0-4.1-0.1-5.2-1.9-5.2h-1.1v-1.3c0.2 0.1 1.9 0.1 4.8 0.1 1.5 0 3.4-0.1 5.7-0.1 9.3 0 14.3 4.5 14.3 12 0 3.8-1.4 7.3-3.9 9.7-2.9 2.7-6.1 3.4-10.5 3.4-1.3 0-3-0.1-5.1-0.1-1.3 0-2.9 0-4.6 0.1zm6.7-20.8v16.1c0 3.8 0.1 4.6 1.9 4.6h1c6.4 0 9.9-3.6 9.9-10.3 0-7.1-4.4-11.8-10.7-11.8h-1.2c-0.8 0-0.9 0.3-0.9 1.4zm22.9 0.2c2.5-2.6 5.7-3.9 9.9-3.9 7.4 0 12.3 5 12.3 12.8 0 3.8-1.4 7.3-4 9.9-2.4 2.5-5.7 3.8-9.9 3.8-7.4 0-12.2-5-12.2-12.8 0-3.7 1.4-7.2 3.9-9.8zm0.6 8.3c0 7.8 3.9 12.8 9 12.8 4.9 0 8-3.8 8-10.6 0-7.9-3.9-12.9-8.9-12.9-5 0-8.1 3.9-8.1 10.7zm45.1-8c0 0.7-0.2 1-0.5 1-0.5 0-0.5-0.6-0.9-1.3-0.6-1.3-2.9-2.4-5.7-2.4-3.1 0-6.1 1.5-8 4.2-1.6 2.2-2.4 4.8-2.4 7.8 0 7 4.1 11.6 9.8 11.6 3.2 0 5.9-1.4 6.9-3.1 0.4-0.7 0.5-1.5 1-1.5 0.3 0 0.5 0.1 0.5 0.5 0 0.1 0 0.2 0 0.4l-0.3 3.3q-1.1 0.5-2.3 0.8-1.1 0.4-2.3 0.6-1.1 0.2-2.3 0.3-1.2 0.2-2.4 0.2c-8.3 0-13.3-4.7-13.3-12.1 0-4.1 1.5-7.6 4.3-10.3 3-2.6 6.8-4.1 10.7-4.1 2.3 0 4.8 0.5 7.6 1.4zm11.4-3.4v1.3h-1.5c-0.7 0-0.8 0.2-0.8 0.9v8.4h11v-4.2c0-4-0.1-5.1-1.9-5.1h-1.3v-1.3h9.9v1.3h-1.4c-0.9 0-0.9 0.2-0.9 1.1v16.2c0 4.1 0.1 5.1 1.8 5.1h1.4v1.3h-9.9v-1.3h1.4c0.8 0 0.9-0.3 0.9-1.4v-10.2h-11v6.5c0 4.1 0.1 5.1 1.8 5.1h1.5v1.3h-10.1v-1.3h1.5c0.8 0 0.9-0.3 0.9-1.4v-15.9c0-4-0.1-5.1-1.9-5.1h-1.2v-1.3zm-164.2 32v0.8h-0.9c-0.4 0-0.5 0.1-0.5 0.4q0 0.2 0.1 0.5v7.5c0 3 1.1 4.4 3.7 4.4 2.8 0 4.3-1.6 4.3-4.9v-5.1q0-1.5-0.1-2.1c-0.2-0.7-0.3-0.7-0.8-0.7h-1v-0.8h4.3v0.8h-0.9c-0.5 0-0.6 0.1-0.6 0.6v7.3c0 3.9-2.1 6-6 6-3.7 0-5.5-1.8-5.5-5.4v-5.6c0-2.4-0.1-2.9-1-2.9h-0.7v-0.8zm21.6 0l8.8 10.1v-6.3c0-2.2 0-3-1-3h-1v-0.8h4.3v0.8h-1c-0.3 0-0.4 0-0.4 0.3v13c0 0.2 0 0.3-0.1 0.3q-0.1 0-0.2-0.2l-10.4-11.5v8c0 2 0.2 2.8 0.9 2.8h1.4v0.8h-4.6v-0.8h0.9c0.4 0 0.5 0 0.5-0.6v-9.5c0-1.8-0.3-2.7-1.5-2.7h-0.5v-0.7h3.9zm25.6 0.7h-0.8c-0.5 0-0.5 0.2-0.5 0.5q0 0.2 0 0.5v8.9c0 2.4 0.1 2.9 1 2.9h0.9v0.8h-5.8v-0.8h0.9c0.4 0 0.5-0.1 0.5-0.4v-9.4c0-2.4-0.1-2.9-1.1-2.9h-0.7v-0.8h5.6zm13.4 0.1h-0.9q-0.4 0-0.4 0.2 0 0.1 0.1 0.4l3.8 9q0 0.2 0.1 0.1 0 0 0.1-0.1l3.2-7.9c0.2-0.5 0.3-0.9 0.3-1.2 0-0.4-0.2-0.5-0.8-0.5h-0.8v-0.8h4.3v0.8h-0.7c-0.5 0-0.6 0.1-0.8 0.6l-5.5 12.9c-0.1 0.2-0.1 0.2-0.2 0.2-0.2 0-0.2-0.1-0.3-0.2l-5.1-12c-0.4-1-0.7-1.5-1.4-1.5h-0.6v-0.8h5.6zm27.2-0.8l-0.3 1.9c0 0.3-0.1 0.4-0.2 0.4-0.3 0-0.4-0.6-0.8-0.9-0.4-0.3-1.6-0.5-3.4-0.5h-1.4c-0.5 0-0.5 0.1-0.5 0.5v4.6h1.8c2.1 0 2.7-0.1 2.7-1v-0.6h0.7v3.9h-0.7v-0.7c0-0.7-0.5-0.8-2.1-0.8h-2.4v3.8c0 2.3 0 2.9 1 2.9h1.2c1.4 0 2.5-0.3 3.3-0.6 0.8-0.3 1-1.1 1.5-1.1 0.1 0 0.2 0.2 0.2 0.3q0 0-0.1 0.3l-0.5 1.9h-10.5v-0.7h0.8c0.5 0 0.5-0.2 0.5-0.6v-9.3c0-2.3 0-2.9-1-2.9h-0.7v-0.8zm14.7 0c3.5 0 5.3 1.6 5.3 4.1 0 1.6-1.2 2.9-3.2 3.3q0.3 0.6 0.7 1.1 0.3 0.5 0.7 1 0.4 0.6 0.7 1.1 0.4 0.5 0.8 1c0.9 1.3 1.2 2 2.1 2h0.4v0.7h-2.8c-0.5 0-0.7-0.1-1.2-0.7-0.5-0.6-1.7-2.5-3.6-5.7-0.1 0-0.3 0-0.5 0q-0.4 0-1-0.1v2.8c0 2.3 0 2.9 1 2.9h0.9v0.8h-5.7v-0.8h0.8c0.5 0 0.5-0.1 0.5-0.7v-9.1c0-2.3 0-2.9-1-2.9h-0.7v-0.8zm-0.7 7.1c2.2 0 3.4-1.2 3.4-2.8 0-2-1.4-3.5-3.8-3.5-0.4 0-0.6 0.1-0.6 0.4v5.8q0.6 0.1 1 0.1zm23.6-5.4v0.1c0 0.3 0 0.4-0.2 0.4-0.3 0-0.4-0.2-0.6-0.6-0.4-0.7-1.3-1.1-2.4-1.1-1.7 0-2.9 1.1-2.9 2.4 0 1.2 1 1.9 3 2.7 2.7 1.2 4.2 2.3 4.2 4.5 0 2.5-2.3 4.6-5.8 4.6-1 0-2.3-0.2-3.6-0.7l-0.3-1.9q0-0.1 0-0.2c0-0.2 0.1-0.4 0.3-0.4 0.2 0 0.3 0.3 0.6 0.7 0.7 1.1 1.7 1.6 3.3 1.6 2 0 3.2-1 3.2-2.5 0-1.3-0.7-2.2-2.2-2.9-1.6-0.6-2.7-1.1-3.4-1.7-0.9-0.7-1.3-1.6-1.3-2.6 0-2.6 2.1-4.5 5.4-4.5q1.3 0 2.6 0.4zm15.3-0.9h-0.8c-0.4 0-0.5 0.1-0.5 0.4 0 0.2 0 0.3 0 0.5v9c0 2.4 0.1 2.9 1.1 2.9h0.8v0.7h-5.7v-0.7h0.8c0.5 0 0.5-0.1 0.5-0.5v-9.4c0-2.4-0.1-2.9-1.1-2.9h-0.7v-0.7h5.6zm20.4-0.7l0.6 1.9q0 0 0.1 0 0 0.1 0 0.1 0 0 0 0.1 0 0 0 0c0 0.2-0.1 0.3-0.3 0.3-0.3 0-0.5-0.6-1-0.9-0.8-0.5-2.1-0.7-3.9-0.7v9.7c0 2.4 0 3 1 3h1.2v0.7h-6.9v-0.7h1.6c0.5 0 0.5-0.2 0.5-0.8v-11.9c-1.8 0-3.2 0.2-4 0.7-0.5 0.4-0.6 0.9-0.9 0.9q-0.3 0-0.3-0.3 0-0.1 0.1-0.2l0.6-1.9h11.6zm12.7 0.7h-1q-0.3 0-0.3 0.2 0 0.1 0.1 0.3l3 5.5q0.1 0.2 0.1 0.2 0.1 0 0.2-0.2l1.9-3.7c0.6-1 0.8-1.8 0.8-2q0-0.3-0.8-0.3h-0.8v-0.7h4.2v0.7h-0.5c-0.7 0-0.8 0.3-1.1 0.8l-3.6 6.5v2.5c0 2.5 0.1 3 1.1 3h1.1v0.7h-6.5v-0.7h1.3c0.5 0 0.5-0.1 0.5-0.5v-4.8l-3.8-6.9q-0.3-0.6-1-0.6h-0.6v-0.7h5.7zm-176.4 26.9c1.8 0 2.8 0.9 2.8 2.3 0 1.2-1 2.2-2.8 2.2q-0.5 0-1.2-0.1v1.8c0 1.6 0.1 1.7 0.6 1.7h0.6v0.4h-3.1v-0.4h0.6c0.2 0 0.2-0.1 0.2-0.3v-5.6c0-1.4 0-1.6-0.6-1.6h-0.4v-0.4zm-0.2 4.1c1.1 0 1.9-0.7 1.9-1.8 0-1-0.9-1.9-2.4-1.9-0.3 0-0.5 0.1-0.5 0.2v3.4q0.5 0.1 1 0.1zm10.7-4.1l-0.2 1c0 0.2 0 0.2-0.1 0.2-0.2 0-0.1-0.2-0.5-0.5-0.3-0.1-0.9-0.3-1.9-0.3h-1.1c-0.3 0-0.3 0.1-0.3 0.3v2.8h1.3c1.3 0 1.7-0.1 1.7-0.6v-0.3h0.3v2.1h-0.3v-0.4c0-0.4-0.2-0.4-1.2-0.4h-1.8v2.3c0 1.6 0.1 1.7 0.7 1.7h0.9c0.9 0 1.6-0.2 1.9-0.4 0.5-0.2 0.6-0.5 0.8-0.5q0.1 0 0.1 0.1 0 0-0.1 0.2l-0.3 1h-5.8v-0.4h0.5c0.2 0 0.3-0.1 0.3-0.2v-5.7c0-1.4-0.1-1.6-0.7-1.6h-0.4v-0.4h6.2zm5 0c1.9 0 2.9 0.9 2.9 2.3 0 1.1-0.7 1.8-2 2.1q0.2 0.3 0.4 0.6 0.2 0.3 0.5 0.6 0.2 0.3 0.4 0.6 0.2 0.3 0.4 0.6c0.7 0.8 0.8 1.1 1.3 1.1h0.3v0.4h-1.4c-0.4 0-0.5-0.2-0.9-0.8q-0.2-0.3-2.1-3-0.1 0-0.2 0.1-0.3-0.1-0.7-0.1v1.7c0 1.6 0.1 1.7 0.6 1.7h0.6v0.4h-3.1v-0.4h0.6c0.2 0 0.2-0.1 0.2-0.3v-5.6c0-1.4 0-1.6-0.6-1.6h-0.4v-0.4zm-0.5 4.2c1.5 0 2.3-0.7 2.3-1.8 0-1.1-0.8-2-2.4-2-0.3 0-0.5 0.1-0.5 0.3v3.4q0.4 0.1 0.6 0.1zm11.8-4.2l0.3 1q0 0 0 0 0 0 0 0.1 0 0 0 0 0 0 0 0.1c0 0 0 0.1-0.1 0.1-0.2 0-0.2-0.4-0.8-0.6q-0.6-0.2-2.1-0.3v5.8c0 1.6 0 1.7 0.6 1.7h0.7v0.4h-3.6v-0.4h1c0.2 0 0.2-0.1 0.2-0.3v-7.2q-1.5 0.1-2.1 0.3c-0.6 0.2-0.6 0.6-0.8 0.6q0 0 0 0-0.1 0-0.1-0.1 0 0 0 0 0 0 0 0 0-0.1 0-0.2l0.3-1h6.5zm4.5 0v0.4h-0.6c-0.2 0-0.2 0.1-0.2 0.3v2.8h4.2v-1.5c0-1.4-0.1-1.6-0.7-1.6h-0.4v-0.4h2.9v0.4h-0.5c-0.3 0-0.3 0.1-0.3 0.3v5.5c0 1.6 0.1 1.7 0.6 1.7h0.5v0.4h-3v-0.4h0.6c0.2 0 0.2-0.1 0.2-0.3v-3.6h-4.1v2.2c0 1.6 0 1.7 0.6 1.7h0.5v0.4h-3v-0.4h0.5c0.3 0 0.3-0.1 0.3-0.3v-5.6c0-1.4-0.1-1.6-0.6-1.6h-0.5v-0.4zm8 10q0.8-0.6 0.8-1.2c0-0.3-0.1-0.5-0.3-0.5-0.1 0-0.2 0-0.3 0-0.2 0-0.4-0.2-0.4-0.5 0-0.3 0.2-0.6 0.6-0.6 0.4 0 0.9 0.5 0.9 1.2 0 0.8-0.4 1.4-1.1 1.9zm9.8-10v0.4h-0.7q-0.2 0-0.2 0.1 0 0 0 0.1l2.3 5.6q0.1 0.1 0.1 0.1 0 0 0-0.1l1.7-4.3-0.5-1.2c-0.2-0.3-0.3-0.3-0.6-0.3h-0.4v-0.4h3v0.4h-0.7q-0.2 0-0.2 0.1 0 0 0.1 0.2l2.2 5.7q0 0.1 0.1 0.1 0 0 0-0.1l1.8-4.6q0.3-0.8 0.3-1.2c0-0.2-0.1-0.2-0.5-0.2h-0.6v-0.4h2.4v0.4h-0.4c-0.2 0-0.3 0.1-0.4 0.4l-2.9 7.3c0 0.2-0.1 0.3-0.1 0.3 0 0-0.1-0.1-0.1-0.3l-2.2-5.6-2.2 5.6c-0.1 0.1-0.1 0.3-0.2 0.3 0 0-0.1-0.1-0.1-0.3l-2.9-7.2c-0.2-0.4-0.3-0.5-0.6-0.5h-0.4v-0.4zm16.8 0l-0.2 1c0 0.1 0 0.2-0.1 0.2-0.2 0-0.1-0.3-0.5-0.5-0.3-0.2-0.9-0.3-1.9-0.3h-1.1c-0.2 0-0.3 0-0.3 0.2v2.8h1.3c1.4 0 1.7 0 1.7-0.5v-0.4h0.3v2.2h-0.3v-0.4c0-0.4-0.2-0.4-1.2-0.4h-1.8v2.3c0 1.6 0.1 1.6 0.7 1.6h0.9c0.9 0 1.7-0.2 1.9-0.3 0.5-0.2 0.6-0.6 0.8-0.6q0.1 0 0.1 0.1 0 0-0.1 0.2l-0.3 1h-5.8v-0.4h0.5c0.2 0 0.3 0 0.3-0.2v-5.6c0-1.5-0.1-1.7-0.7-1.7h-0.4v-0.3h6.2zm6.3 0.8v0.1c0 0.2 0 0.2-0.1 0.2-0.1 0-0.1-0.2-0.3-0.4-0.2-0.3-0.7-0.5-1.4-0.5-1 0-1.7 0.7-1.7 1.5 0 0.8 0.6 1.2 1.8 1.7 1.5 0.6 2.3 1.2 2.3 2.4 0 1.4-1.2 2.7-3.1 2.7q-0.2 0-0.5-0.1-0.2 0-0.5 0-0.3-0.1-0.5-0.2-0.3 0-0.5-0.1l-0.2-1.1v-0.1q0-0.2 0.2-0.2c0.1 0 0.1 0.2 0.3 0.5 0.3 0.5 1 0.8 1.9 0.8 1.2 0 2-0.7 2-1.7 0-1-0.7-1.4-1.9-1.9-1.4-0.6-2.2-1.1-2.2-2.3 0-1.3 1.2-2.4 2.9-2.4 0.5 0 1 0.1 1.5 0.3zm8.7-0.9l0.3 0.9q0 0.1 0 0.1 0 0 0.1 0 0 0.1 0 0.1 0 0 0 0c0 0.1-0.1 0.2-0.1 0.2-0.2 0-0.2-0.4-0.8-0.6q-0.6-0.3-2.2-0.3v5.8c0 1.5 0.1 1.7 0.6 1.7h0.8v0.3h-3.7v-0.3h1c0.2 0 0.2-0.1 0.2-0.3v-7.2q-1.5 0.1-2.1 0.3c-0.6 0.2-0.6 0.6-0.8 0.6q0 0 0 0-0.1-0.1-0.1-0.1 0 0 0 0 0 0 0-0.1 0-0.1 0-0.1l0.3-1h6.5zm7.7 0l-0.1 1c0 0.1-0.1 0.2-0.2 0.2-0.2 0-0.1-0.3-0.4-0.5-0.3-0.2-1-0.3-1.9-0.3h-1.1c-0.3 0-0.3 0.1-0.3 0.3v2.8h1.2c1.4 0 1.7-0.1 1.7-0.6v-0.4h0.3v2.2h-0.3v-0.4c0-0.4-0.2-0.4-1.2-0.4h-1.7v2.3c0 1.6 0 1.6 0.6 1.6h0.9c0.9 0 1.7-0.2 2-0.3 0.4-0.2 0.5-0.6 0.7-0.6q0.1 0 0.1 0.1 0 0.1 0 0.2l-0.3 1h-5.9v-0.3h0.5c0.2 0 0.3-0.1 0.3-0.3v-5.6c0-1.5-0.1-1.6-0.6-1.6h-0.5v-0.4h6.2zm5 0c1.9 0 2.9 0.9 2.9 2.3 0 1-0.7 1.8-2 2q0.8 1.1 1.8 2.4c0.6 0.9 0.7 1.2 1.2 1.2h0.3v0.3h-1.3c-0.4 0-0.5-0.1-1-0.7q-0.2-0.3-2-3-0.2 0-0.3 0-0.3 0-0.7 0v1.7c0 1.5 0.1 1.7 0.7 1.7h0.5v0.3h-3v-0.3h0.5c0.3 0 0.3-0.1 0.3-0.3v-5.6c0-1.5-0.1-1.6-0.6-1.6h-0.5v-0.4zm-0.4 4.1c1.5 0 2.2-0.7 2.2-1.7 0-1.2-0.8-2-2.4-2-0.3 0-0.5 0-0.5 0.3v3.4q0.5 0 0.7 0zm7.2-4.1l5.3 6.4v-4.4c0-1.2 0-1.6-0.6-1.6h-0.6v-0.4h2.4v0.4h-0.5c-0.3 0-0.3 0.1-0.3 0.3v7.5q0 0.1 0 0.1 0 0-0.1-0.1l-5.9-6.9v4.7c0 1.3 0.1 1.9 0.5 1.9h0.8v0.3h-2.6v-0.3h0.5c0.2 0 0.3-0.1 0.3-0.4v-5.7c0-1.1 0-1.4-0.7-1.4h-0.3v-0.4h1.8zm17.1 8.2v-0.3h0.6q0.3 0 0.3-0.1 0-0.1-0.1-0.2l-0.8-2.5h-2.9l-0.7 1.7q-0.2 0.5-0.2 0.7c0 0.3 0.1 0.4 0.5 0.4h0.7v0.3h-2.6v-0.3h0.4c0.2 0 0.3-0.1 0.4-0.4l3.2-7.7 0.6-0.1q0.2 0 0.2 0 0.2 0 0.2 0.1c0 0.2-0.3 0.2-0.3 0.4q0 0.2 0.1 0.3l2.3 6.7c0.2 0.6 0.4 0.7 0.6 0.7h0.5v0.3zm-2.8-3.5h2.6l-1.2-3.4zm9.7-4.7v0.4h-0.5c-0.3 0-0.3 0.1-0.3 0.3v4.6c0 1.8 0.7 2.7 2.3 2.7 1.7 0 2.6-1 2.6-2.9v-2.9c0-1.7-0.1-1.8-0.6-1.8h-0.5v-0.4h2.4v0.4h-0.5c-0.3 0-0.3 0.1-0.3 0.4v4.3c0 1-0.1 1.7-0.8 2.4-0.5 0.6-1.5 1-2.6 1-1 0-1.8-0.3-2.3-0.8-0.7-0.6-0.8-1.3-0.8-2.3v-3.4c0-1.5 0-1.6-0.6-1.6h-0.4v-0.4zm11.8 0.9v0.1c0 0.1 0 0.1-0.1 0.1-0.2 0-0.1-0.1-0.3-0.3-0.2-0.3-0.7-0.6-1.4-0.6-1 0-1.8 0.7-1.8 1.5 0 0.8 0.7 1.2 1.9 1.7 1.4 0.7 2.3 1.2 2.3 2.5 0 1.4-1.3 2.6-3.1 2.6q-0.3 0-0.5 0-0.3 0-0.5-0.1-0.3 0-0.6-0.1-0.2-0.1-0.5-0.2l-0.1-1v-0.1q0-0.2 0.1-0.2c0.2 0 0.2 0.2 0.3 0.4 0.4 0.5 1.1 0.8 1.9 0.8 1.3 0 2.1-0.7 2.1-1.6 0-1-0.7-1.5-2-2-1.3-0.5-2.1-1.1-2.1-2.2 0-1.3 1.2-2.4 2.9-2.4 0.5 0 1 0 1.5 0.2zm8.7-0.9l0.3 1q0 0 0 0 0 0.1 0 0.1 0 0 0 0 0 0.1 0 0.1c0 0 0 0.1-0.1 0.1-0.2 0-0.2-0.4-0.8-0.6q-0.6-0.2-2.1-0.2v5.8c0 1.5 0 1.6 0.6 1.6h0.7v0.4h-3.6v-0.4h1c0.2 0 0.2-0.1 0.2-0.3v-7.1q-1.5 0-2.1 0.2c-0.6 0.2-0.6 0.6-0.8 0.6-0.1 0-0.1-0.1-0.1-0.1q0-0.1 0-0.2l0.3-1h6.5zm4.7 0c1.9 0 2.9 0.9 2.9 2.3 0 1.1-0.7 1.8-2 2.1q0.8 1 1.8 2.4c0.6 0.8 0.7 1.1 1.2 1.1h0.3v0.4h-1.3c-0.4 0-0.5-0.2-1-0.8q-0.2-0.3-2-2.9-0.2 0-0.3 0-0.3 0-0.7-0.1v1.8c0 1.5 0.1 1.6 0.7 1.6h0.5v0.4h-3v-0.4h0.5c0.2 0 0.3-0.1 0.3-0.3v-5.5c0-1.5-0.1-1.7-0.7-1.7h-0.4v-0.4zm-0.4 4.2c1.4 0 2.2-0.7 2.2-1.8 0-1.1-0.8-1.9-2.4-1.9-0.3 0-0.5 0-0.5 0.2v3.4q0.5 0.1 0.7 0.1zm9.9 4.1v-0.4h0.6q0.3 0 0.3-0.1-0.1 0-0.1-0.2l-0.8-2.4h-3l-0.6 1.6q-0.2 0.6-0.2 0.8c0 0.3 0.1 0.3 0.5 0.3h0.7v0.4h-2.6v-0.4h0.4c0.2 0 0.3-0.1 0.4-0.3l3.2-7.7 0.6-0.1q0.1-0.1 0.2-0.1 0.1 0 0.1 0.2c0 0.1-0.2 0.1-0.2 0.3q0 0.1 0 0.1 0 0.1 0 0.1 0 0 0 0.1 0 0 0 0l2.4 6.8c0.2 0.6 0.3 0.6 0.6 0.6h0.4v0.4zm-2.8-3.6h2.6l-1.1-3.4zm9.7-4.3h-0.6c-0.2 0-0.2 0.1-0.2 0.3v5.6c0 1.6 0.1 1.6 0.6 1.6h0.9c0.9 0 1.6-0.1 2-0.3 0.6-0.2 0.6-0.6 0.7-0.6q0.1 0 0.1 0.1 0 0.1 0 0.2l-0.3 1h-5.9v-0.4h0.5c0.3 0 0.3-0.1 0.3-0.3v-5.5c0-1.6-0.1-1.7-0.6-1.7h-0.4v-0.3h2.9zm7.5 0h-0.5c-0.2 0-0.3 0-0.3 0.2v5.6c0 1.6 0.1 1.6 0.7 1.6h0.5v0.4h-3v-0.4h0.5c0.2 0 0.3 0 0.3-0.2v-5.6c0-1.5-0.1-1.6-0.7-1.6h-0.4v-0.4h2.9zm6.5 7.9v-0.4h0.5q0.3 0 0.3-0.1 0-0.1 0-0.2l-0.8-2.5h-3l-0.6 1.7q-0.2 0.5-0.2 0.8c0 0.2 0.1 0.3 0.5 0.3h0.6v0.4h-2.6v-0.4h0.4c0.3 0 0.4-0.1 0.4-0.3l3.3-7.7 0.6-0.2q0.1 0 0.2 0 0.1 0 0.1 0.1c0 0.2-0.3 0.2-0.3 0.4q0.1 0.2 0.1 0.3l2.4 6.8c0.2 0.5 0.3 0.6 0.6 0.6h0.4v0.4zm-2.8-3.6h2.6l-1.2-3.4z"/><path class="b" d="m1 134.8l186-0.4v1.3l-186 0.4z"/></svg>