<svg version="1.2" xmlns="http://www.w3.org/2000/svg" viewBox="0 0 269 337" width="269" height="337"><style>.a{fill:#6a005f}</style><path fill-rule="evenodd" class="a" d="m0.1 0c17 9.9 39.4 16.9 66.3 17.2 27.5 0.3 50.8-5.1 67.7-15.7 17 10.6 40.6 16.1 67.8 15.7 26.3-0.3 49.5-7.2 66.3-17 0.3 39.5-0.6 77.2-0.6 116.6 0 39.1 2.1 79.6-7.9 109.5-4.9 14.7-12.2 26.9-20.5 38.5-8.1 11.4-18.2 21.4-29.1 29.7-11.3 8.6-24.3 14.7-37.6 21.4-11.4 5.7-22.8 11.6-33.8 17.6-1.5 0.9-3.4 1.4-4.5 2.9-6-4-12.4-7.2-18.9-10.6-6.5-3.3-13-6.7-19.5-10.1-6.7-3.4-13.4-6.4-19.8-9.7-6.4-3.4-12.1-7.3-17.8-11.6-22.3-17-39.4-39-49.6-68.3-5.2-15.1-6.7-32.4-7.6-51.2-0.9-18.5-0.4-38.2-0.4-57.4 0-39.3-0.6-77.7-0.6-117.1 0-0.2 0-0.4 0.1-0.4zm127.2 14c-23.4 10.4-60.3 13.4-90.2 7.3-9.4-1.9-17.9-4.4-25.3-7.8-1-0.5-2.1-1.3-3.3-1.2-0.3 36.4 0.7 74.1 0.7 109.1 0 18.2-0.9 36.8-0.2 54.2 0.8 17.3 2.7 33.6 7.5 47.7 4.7 13.8 10.9 25.7 18.7 36.6 11.6 16.2 25.6 29.7 43.4 39.3 6 3.2 12.3 6 18.7 9 12.4 5.8 24.9 11.9 37.3 18 12.3-6.1 24.9-12 37.2-18 6.3-3.1 12.7-5.7 18.6-8.9 11.8-6.3 21.9-14.7 30.8-24.2 13.4-14.1 24.3-31.6 30.9-51.9 9.3-28.6 7.3-64.8 7.3-101.4 0-36.9 0.1-73.2 0.4-109.5-1.1 0-2.2 0.7-3.3 1.2-7.7 3.4-16 6.2-25.2 8-21.7 4.2-48.4 3.6-68.8-0.9-10.5-2.3-19.9-5.8-28.1-10-1.9 1.3-4.4 2.3-7.1 3.4z"/><path fill-rule="evenodd" class="a" d="m137.1 25.5c11.5 1.2 20.2 7.3 25.4 15.8 0.7 1.1 1.8 2.9 1.7 3.8-0.2 0.9-0.9 1.7-1.7 1.6-1.1-0.1-1.5-1.6-2.3-3-4.4-7.7-11.5-13-21.7-14.8 0.5 2.3 1.5 4.6 2.4 7 0.9 2.4 1.8 4.9 2.6 7.2 0.4 0.4-0.1 1 0 1.6 1.8-0.1 3.9-0.1 3.6 2-0.4 2.6-8.3 0.6-11.2 1.3-0.3 2-0.1 4.7-0.1 7 1.6 1 9.2-0.8 10.7 0.3 0.5 0.3 0.6 1.2 0.6 1.7-0.4 2.9-8.1 0.5-11.2 1.3-0.5 2.4 0.7 5.7-1.7 5.9-2.3 0.1-1.6-3-1.7-5.8-2.9-1-10.7 1.5-11.3-1.2-0.8-3.9 8.4-1.1 11.2-2.2 0.3-1.9 0.3-4.9 0-6.9-2.6-1-10.6 1.3-11.2-1.3-0.4-2 1.6-2.3 3.5-2.1 0.4-0.4-0.2-0.9 0-1.4 1.9-4.6 3.4-9.6 5.3-14.2-12.3 1.7-20.1 9.1-23.9 19.6 1.3-0.1 3.4-0.8 6-1.3 2.8-0.5 8.5-1.8 6.9 2.2-2.3 0.7-4.9 0.7-7.3 1.2-2.3 0.5-4.5 1.3-6.4 2-0.4 0.7-0.5 1.7-0.6 2.7 2.1-0.3 4.3-1.2 7-1.7 2-0.3 7.9-1.8 7.3 1.4-0.3 1.4-2 1.2-3.3 1.3-3.8 0.2-8.6 1.5-11.1 2.8-0.1 0.5 0 1.7 0.2 2.3 2.3-0.6 4-1.1 7-1.6 1.9-0.2 6.3-1.5 6.8 0.6 0.6 3-4.6 2.1-7.2 2.6-2.7 0.5-4.4 1.3-6 1.8 0.6 1.4 0.6 3.2-0.7 3.5-2.9 0.6-3.2-6.1-3.3-8.9-0.1-4.2 0.5-7.9 1.3-10.8 3.8-13 13.9-21.3 28.7-23.5 1.1-1.6 1.1-4.7 3.1-4.5 1.7 0.3 1.5 3.3 2.6 4.7zm-1 6.7c-0.5-1.2-1-3.9-2.3-3.7-2.4 5-4 10.8-6.2 16.2 1.2 0.1 3.5-0.1 4.7 0-0.9-4.8 4.6-5.1 3.5 0h4.9c-1.4-3.7-3.2-8.4-4.6-12.5zm-69.6 5.8c0.7 0.6-0.2 1.4 0.1 2 2.1-0.4 4.7 1.2 4.9 2.3 0.3 1.4-1.3 3-0.9 4.9 3.5 2.2 4.4 7.1 8.4 8.9 1.7 3.3 2.9 8.2 2.1 12.7-0.6 3.4-4 3.8-3.3 8.3 0.3 1.9 1.5 5.8 2.9 6.5 0.9 0.4 2.1-0.1 3 0.6 0.7 0.9 0.4 2.8-0.2 3.6-2.8 0.5-3.8 3.4-7.2 2.3-1.3-0.5-3.5-1.9-4.2-3-0.4-0.7-0.4-1.7-0.7-2.4-0.7-1.6-2-2.6-2.7-3.8-2.1 0.6-8.5-0.4-7.4 2.9 0.5 1.5 5.5 0.7 3.9 4.6-0.6 1.3-4.9 3.2-6.6 3.6-0.6 0.1-1.6 0.2-2 0.1-0.5-0.1-1-0.6-1.7-0.7-1.4-0.3-3.2 0.3-4.7 0-0.9-0.2-3.4-1.9-4.3-2.7-0.6-0.5-1.8-2-2-2.6-0.7-1.6-0.2-2.9-1.9-3.6-0.7-0.3-1.7-0.2-2.5-0.4-1.5-0.4-3.2-1.6-4.4-0.7-1.6 1.7 0.9 2.5 1.7 4 0.8 1.4 0.3 2.5 0.5 4.6-0.5 0.7-1.6 1.9-2.9 2.2-1.7 0.3-4.1-1-6.5-1.6-1.6-0.4-3.9-0.4-4.3-2-0.2-1 0.8-1.6 1-2.5 0.3-1.1-0.3-2 0.4-3-1.1-1.7-0.6-4.3-0.7-7.3-0.1-3.3-0.1-5.5 0.7-7.9 0.3-0.9 0.3-1.8 0.6-2.3 0.4-1 3.4-3.4 4.6-4 2.7-1.5 7.2-2.7 12-2 1 0.1 1.9 1 2.9 1.1 1.8 0.3 4.3-0.2 6.2 0 0.6-0.3 1.1-0.7 1.4-1.3 0.2-3.1-1.6-4.3-2.4-6.5 0.4-3.1-0.5-6.7 0.6-9.7 0.3-0.8 1.7-3.2 2.5-4.1 0.7-0.8 2.2-2 3.1-2.2 1.6-0.3 4.4 0.6 6 1.2 0.8-0.6 2.8-0.6 4-0.1zm-8.4 6.5c1.4 0.3 2-1.4 2.6-2.3-0.4-0.7-0.2-2-1.2-2 0.1 2-0.9 2.9-1.4 4.3zm-5.3-0.7c0.2 0.2 0.6 0.2 1 0.2 0.4-0.9 0.5-2 1-2.7-1.3-0.4-2.1 1.5-2 2.5zm9 0.5c-1.3 1-3.8 2-3 4.2 0.1 0 0.3 0 0.3 0.1 1.6-0.5 2.1-2.2 3.3-3.3 1-0.9 2.9-1.4 2.7-3.4-1.7-0.6-2.3 1.5-3.3 2.4zm0 6.7c0 0.1 0.3 0.3 0.3 0.4 0.5 0.3 0.9-0.3 1.5-0.4 1.2-0.1 2 0.6 2.7 0.6 0.7-0.7 0.1-1.9-0.7-2-0.9 1.5-4.3-1.3-3.8 1.4zm9.2-1.4c-0.7-0.1-1 0.7-1 1.3 0.1 1 1.9 2.1 2.9 2-0.4-0.6-1.2-3.2-1.9-3.3zm-12.5 2.1c-1.2 0.5-1.8 1.5-2.1 2.8 1 0.4 1.1-1 2-1.1 1 0.5 1 2 2 2.4 0.3 0.4 1.5-0.2 1.6 0.4 0 0.8-1.2 0.8-2 1.2-0.9 0.4-2.4 1.7-3.7 2.5-2.3 1.3-5.3 3-1.9 4.5 0.4-0.3 0-1 0.2-1.4 0.3-0.7 3.1-2.7 3.4-2.7 0.6-0.1 1.2 0.3 1.8 0.2 1.5-0.2 1.8-1.6 3.1-2.2 0.8 0.2 1.7 0.3 2.8 0.3 1.3 0.5 0.6 2.9 2.1 3.2 0.7-1 0.2-2.3 1-3.2-0.1-0.9-1-1.2-0.9-2.3 0.2-0.6 0.9-0.7 1.4-0.9 1.4 1 1.1 3.6 2.4 4.6 1.2-0.7 1.5-3.3 0.7-4.6-0.6-1-2.6-1.4-3-2.2-3.3 0-5.9 0.8-8.5 1.6-1-0.6-1.4-2.1-2.4-3.1zm16.5 9.2c1.1-0.6 0.5-2.8-0.7-2.9-0.5 0.9-0.5 2.9 0.7 2.9zm-13.5 1.3c0.3 0.8 1.5 0.6 1.7 1.4-0.4 1.6 0.9 2.4 1.2 3.8-0.9 1.2-2.2 0.1-2.6-0.7-0.6 0.1-1 0.4-1 1.1 3.3 0.2 1.5 4-0.6 4.7-0.6 0.3-1.5 0-2.2 0.2-0.8 0.2-1.5 1.1-2.4 1.4-1.4 0.5-2.6 0.1-3.4 0.7-0.4 1.7-0.2 3.8 1 3.7 1.2-0.1 1.2-2.5 2.4-2.9 1.8 0.3 1.6-1.1 2.6-1.4 0.5-0.2 1.1 0.2 1.8 0 2-0.6 2.5-3.1 3.7-4.6 3.2 0.4 4-2.4 4.1-4.7-1.8 0.3-4 0.6-4.3-1-0.2-1.1 0.9-1.6 1.2-2.7-0.7-1.5-3-0.3-3.2 1zm-26.6 0.4c-0.6 0-0.5-0.8-1.3-0.6 0.1 1.1-0.9 1.1-1.2 1.7 0.2 0.8 1.2 0.8 1.4 1.5 2.3-0.1 2.9-1.7 4.8-2-0.3-2.7-2.3-1.4-3.7-0.6zm7-1c-0.5 0.8 0.1 2.2 0.8 2.6 1.4-0.6 0.9-2.8-0.8-2.6zm7.4 5.9c0.6-0.7 0.3-2.6-0.7-2.6-0.4 0.6-0.6 2.9 0.7 2.6zm-23.1 1.5c0.9 0.5 3 0.7 3.7-0.2-0.5-1-0.5-1.8-0.4-2.7-1.4 0.6-2.8 1.3-3.3 2.9zm23.8 0.6c1.2 0.2 3.5 0.5 3.8-0.7-0.6-1.4-4-1.3-3.8 0.7zm-16.2 2.8c-0.6 0.1-0.4-0.8-1-0.7-0.8 0-0.8 0.9-1.6 1-0.3-0.1-0.5-0.3-1-0.3-0.3 0.3-0.8 0.4-0.7 1.1 0.7-0.3 1-0.2 1.6 0.2 0.2-0.3 0.2-0.8 0.7-0.8-0.1 2.1-1.4 4.3-3.9 4.5-0.2 1.1-1 1.7-1.7 2.3-0.6 2.6 0.2 5.1 2.7 5.1 0.2-0.5 0.1-1.2 0.2-1.9-0.7-0.7-1.4-1.4-1.1-3.1 0.4-0.3 0.9-0.6 1.7-0.6 1.1-1 2-2.2 2.7-3.7-0.5-1.6 1.2-2.7 1.9-1.4 0 0.4-0.5 1.2 0.3 1.1 0.6-0.2 0-0.6 0-1 0.7-0.9 2.3-1 2.7-2.2-1.1-1.7-2.3-0.1-3.5 0.4zm-6.9 2.6c0.8-0.7 1.1-2.2 0.6-3.3-1.4 0-1.7 2.7-0.6 3.3zm18.4 0.4c0.1 0.5 1.2 0.3 1.6 0.2 0-0.2 0.1-0.3 0.2-0.4-0.2-0.3-0.6-0.6-1-0.7 0.1 0.6-0.8 0.3-0.8 0.9zm12.2 1.7c-0.6 0.3-1.1 0.4-1.4 1-0.2 1 0.4 2.7-0.5 3-1.4-1-2.4-0.2-3.3 0.7-0.7-0.1-0.9-0.8-2-0.6-0.1 0.5-0.5 2.2 0.3 2.3 0.8-0.2-0.4-1.5 0.6-1.5 0.3 0.7 0.7 1.1 1.1 1.6-0.1 1.1-0.4 3.2 0.2 4 1.7-0.5 0.1-4.3 2.2-4.5 0.7 0.4 0.5 1.7 0.6 2.7 0.6 0.3 1.4 1.2 2.4 1.3 1.2 0.1 3.3-0.3 3.7-1.1-0.7-0.6-2-0.6-2.6-1.3-0.2-0.2-0.2-0.7-0.2-1.1-1.4-1-2.1-3.3-1.4-5.5 0.2-0.7 1.6-1.7 0.4-2.4-0.2 0.4-0.1 1-0.1 1.4zm-26.7 8.3v0.4c1.3-0.1 1.6 1.4 2.6 1-0.3-0.9-1.5-1.6-2.6-1.4zm205.2-4.1c-1.4-0.9-3.2 0.4-4.6 0.7-1.7 0.4-3.3 0.4-4 1.9-0.3 0.7-0.2 1.5-0.4 2.1-1.2 2.8-3.9 3.5-6 5.3-1.4 0.3-3.1-0.3-4.9 0-1.2 0.2-1.7 1-3.6 0.6-2.7-0.5-6.3-2.2-6.9-3.7-1.1-2.9 2-3.3 3.9-4.1 0.5-2.9-1.6-2.4-4-2.7-1.2-0.2-2.5-0.6-3.2-0.5-0.6 0.2-2.4 2.4-3 3.8-0.3 0.7-0.3 1.6-0.6 2.3-0.9 1.7-4.1 3.5-6 3.4-2.4-0.1-2.8-2.2-5.5-2.5-0.6-1.2-0.8-2.9 0-3.6 0.7-0.6 2.5-0.3 3.3-0.9 1-0.7 3.2-6.4 2.4-9.2-0.5-1.8-2.8-3.3-3.2-4.7-0.1-0.5-0.2-1.7-0.2-2.5 0-3.5 0.1-8.2 2.2-10.7 0.9-1.1 2.4-1.6 3.5-2.7 1.9-2.1 2.2-5.4 5-6.1-0.1-2-0.6-3.4-1-5.1 1.1-1.3 2.2-2.6 4.9-2.3 0.5-0.6-0.6-1.4 0.1-2 1.1-0.4 3.2-0.5 4 0.2 1.5-0.6 3.2-0.9 4.9-1.2 3-0.5 4.6 2.5 5.7 4.5 0.8 1.4 1.5 2.2 1.7 4.4 0.1 1 0 2.3 0 3.6 0 1.1 0.1 2.5 0 3.3-0.5 2.8-4.6 6-1 7.9 1.9-0.2 4.1 0.4 6.1 0 1.1-0.2 2.1-1 2.7-1.1 2.2-0.4 4.8-0.2 6.5 0 4.2 0.6 7.5 3.3 10.2 5.7 0.1 1.7 1.3 3.1 1.6 5 0.4 3 0.3 7.7-0.1 10.6-0.2 1.5-0.8 2.9-0.3 5 0.2 1 1.1 1.5 1 2.3-0.1 1.9-2.5 1.9-4.6 2.4-3.6 1-7.4 2.8-9-0.8 0.1-2.1-0.2-3.2 0.6-4.6 0.9-1.6 3-2 1.8-4zm-23.1-36.8c0.1-0.9-1-1.1-1.3-2-0.3-0.8 0.3-1.8-0.5-2.5-1.7 1.3-0.2 4.8 1.8 4.5zm4.2-0.5c0.5 0.1 0.9-0.1 1.1-0.3-0.2-1.3-0.7-2.2-1.8-2.6-0.3 0.9 0.6 1.9 0.7 2.9zm-11.3-2c0.1 2.4 2.2 2.6 3.5 3.9 1 1.1 1.3 2.5 2.6 2.7 1.5-1.8-1.3-3.8-2.8-4.4-0.8-1-1.6-2.7-3.3-2.2zm-4.8 8.6c0-0.3-0.5-1.1-1.1-1-0.6 0.1-1.8 3-1.8 3.3 1.1 0.1 3-1.4 2.9-2.3zm6-0.4c-0.7 0.1-1.4-0.7-2-0.6-0.6 0.2-1.4 1.8-0.3 2 0.6-0.4 3-0.9 3.9 0 0.9-0.6 0.5-1.5-0.3-2-0.6 0-0.6 0.5-1.3 0.6zm5.7 1.5c-1.4 0.6-1.5 2.6-2.9 3.3-2.4-1-5.1-1.6-8.4-1.6-0.4 1-2.8 1.4-3.1 2.7-0.4 1.4 0 3.2 0.7 4.1 1.7-0.7 1.9-6.8 4.2-3.4-0.2 0.8-0.9 1.3-1 2.2 1 0.6 0.4 2 0.9 3 1.8 0 1-2.5 2.2-3 0.9-0.2 2.1-0.2 3-0.5 1.4 1 2.4 2.8 4.8 1.9 1.3 1.3 3.7 1.8 3.5 4.1 1.1 0 1.8-1.2 1.7-1.8-0.1-1.4-3-2.5-4.4-3.3-0.8-0.5-1.5-1.2-2.3-1.6-1-0.5-2.3-0.4-2.4-1.4 0.1-0.5 1-0.2 1.4-0.2 1.1-0.5 1.1-2.1 2.2-2.6 0.7 0.1 1.1 1.4 1.8 1.1-0.1-1.1-1-2.4-1.9-3zm-17.4 8.5c1 1.8 2.1-0.8 1.4-2.1-1.1 0-1.2 1.1-1.4 2.1zm10.8 1c0.4 1 1.2 1.6 1.2 2.8-0.6 1.6-3 0.9-4.4 1 0.3 2 0.7 5.1 4.1 4.5 1.1 1.7 2 3.6 3.8 4.7 2.5-1 2.3 1.5 4.4 1.4 1.3 0.4 1.2 2.8 2.4 2.9 1.4 0.1 1.5-2.5 1-3.9-1.2-0.5-2.3-0.1-3.6-0.6-0.6-0.2-1.1-1.1-1.7-1.3-1-0.3-2 0.1-2.9-0.3-1.2-0.5-2.2-2.3-2.2-3.9 0.3-0.7 1.6-0.3 1.8-1.2-0.1-0.5-0.4-0.7-0.9-0.8-0.5 0.8-1.9 2-2.7 0.6 0.6-1.2 1.5-1.9 1.3-3.9 0.4-0.5 1.4-0.3 1.6-1.1 0-1.3-2.4-2.2-3.2-0.9zm26 1.9c1.9 0.4 2.7 2 4.9 2.1 0.2-0.7 1.4-0.7 1.5-1.5-0.4-0.6-1.4-0.6-1.3-1.7-0.9-0.2-0.6 0.7-1.4 0.6-1.3-1-3.1-1.8-3.7 0.5zm-3.8 1.1c0.6-0.5 1.3-1.5 0.9-2.6-1.9-0.2-2.5 2.2-0.9 2.6zm-6.3 0.7c-0.6 0.4-1.1 1.9-0.4 2.6 1.4 0.3 1.5-2.4 0.4-2.6zm18.9 4.1c0.9 0.6 2.6 0.4 3.8 0.1-0.4-1.7-1.8-2.4-3.3-3 0 0.9-0.1 1.8-0.5 2.9zm-23.7 0.2c0.5 0.8 2.6 0.7 3.6 0.4 0.4-2.1-3.5-2.2-3.6-0.4zm16.4 2.9c0.7 0.9 2 1.2 2.7 2-0.1 0.3-0.3 0.7 0 1 0.9-0.1 0.4-0.7 0.3-1.3 2.2-1.6 1.9 2.2 2.8 3.6 0.6 0.9 1.4 1 1.8 1.7 0.5 0.1 1.1 0.2 1.6 0.3 1.2 2.2-2 3.2-0.7 5.3 3.2 0.4 3.7-5.3 1.3-6.2 0-0.5-0.2-0.7-0.3-1-2.4-0.3-4.1-2.8-3.9-4.7 0.5 1.1 1.4 0.2 2.3 0.7-0.1-0.6-0.5-0.9-1-1.1-0.4 0-0.6 0.3-1 0.3-0.4-0.3-0.6-0.8-1.3-1-0.6 0-0.5 0.8-1.3 0.7-0.9-0.8-2.5-2-3.3-0.3zm10.6 2.8c0.8-0.8 0.5-3.1-0.7-3.2-0.7 0.9-0.5 2.8 0.7 3.2zm-20.2 0.5c0.3 0.3 0.9 0.3 1.6 0.3 0-0.2 0-0.3 0.2-0.5-0.6-0.3-1.8-1.2-1.8 0.2zm-10.2 3c-0.3 1.4 0 2.5-0.2 4-0.7 0.7-1.5 1.2-1.4 2.4-0.7 0.7-2.3 0.6-2.7 1.6 1.8 1 5 1.1 6.2-0.5 0.2-1-0.2-2.6 0.9-2.7 1.8 0.4 0.2 4.1 2 4.5 0.5-0.9 0.3-3.2 0-4 0.7-0.4 0.7-1.4 1.6-1.6 0.1 0.5-0.3 1.5 0.3 1.5 0.6-0.3 0.5-1.8 0.2-2.3-1.2-0.3-1.2 0.6-2.2 0.6-0.5-1.4-2-1.5-3.3-0.7-0.5-0.9-0.2-1.8-0.3-3.1-1.1-0.4-1.4-1.5-1.8-2.2-0.6 1.1 0.3 1.9 0.7 2.5zm23.8 8.6c1-0.3 1.8-0.9 2.5-1.4-0.9-0.6-2.5 0.2-2.5 1.4z"/><path fill-rule="evenodd" class="a" d="m162.3 49c0.9-0.1 1.1-1.1 2.3-1 1.8 0.1 2.2 5 2.4 7.4 0.3 4.3-0.1 15.7-4.3 11.9-0.1-0.9 0.1-1.6 0.3-2.2-2-1.2-6.1-2.1-9.6-2.4-1.8-0.1-4.3 0.1-3.6-2.3 0.6-1.9 5.1-0.7 6.9-0.5 2.9 0.5 4.5 1 6.7 1.6 0.5-0.4 0.2-1.5 0.4-2.2-1.7-1.2-7.3-2.7-11-3-1.8-0.1-3.6 0.1-3.6-1.7 0-0.8 0.6-1.1 1.2-1.6 5.2 0.1 9.3 1.1 13.2 2.4 1.1-3.6-3.7-4.1-6.3-4.7-2.7-0.6-5.4-0.7-7.4-1-1.2-0.6-1.1-3 0.7-3 3.3 0.1 9.6 1.3 11.7 2.3zm-21.8 40.8c-3.2-4.2 7-3.7 8.3-5.9-1.4-0.7-3.4-1.1-5.3-1.3-1.9-0.3-3.9-0.5-5.7-0.5 0.1 2.9 1.4 7.8-1.7 8.6-2.2 0.6-8.9-0.1-9.2-1.6-0.7-3.5 5.1-1.2 7.7-1.6 0.7-1.5 0.1-4.1-0.4-5.5-5.1-0.4-10.1 0.6-14.3 1.5 1.3 2 5 1.5 5.3 3.4 0.7 4.3-6.7-0.1-7.7-0.7-4-2.3-7-5-9.9-8.9-1.1-1.5-3.5-4.4-3.3-6 0.2-1.5 3.5-2.4 5.7-3 12.9-3.5 27.8-4.8 42.1-1.9 1.9 0.4 4.2 1.1 6.4 1.9 1.9 0.6 5.4 1.4 5.6 2.7 0.3 1.8-3 6-3.8 7-3.3 4.4-6.6 7.1-11.7 9.4-2.3 1.2-5 2.4-8.1 2.4zm-32.3-17.4c1.9 3.7 4.7 6.5 7.8 9 2.1-0.7 4.3-1.4 6.8-1.7-1-0.9-2.2-1.4-3.5-2.4-1-0.7-2.8-1.8-2.7-3.3 0.1-1.6 3.5-2.4 5.7-2.9 7.5-1.7 16.4-1.5 23.5 0.1 2.2 0.5 6 1.1 6 2.9 0 1-1.7 2.5-2.6 3.1-1.2 1-2.6 1.1-3.4 2.4 2.7 0.2 4.7 1 6.9 1.7 3.2-2.3 5.7-5.3 7.4-9-13.6-5.6-38-5.2-51.9 0.1zm13.5 2.5c5.6 4.9 19.2 4.9 24.8 0-6.6-2.2-18.1-2.2-24.8 0zm-82.9 99.1c0-0.3-0.1-0.7-0.3-1.3-0.2-0.6-0.3-1-0.5-1.1-0.2-0.4-0.7-0.6-1.4-0.7-0.7-0.1-1.5-0.2-2.6-0.2h-15.1v-1.3l17-12.6h-10.8c-1.2 0-2.1 0.1-2.7 0.2-0.7 0.1-1.1 0.3-1.4 0.7-0.2 0.2-0.4 0.7-0.6 1.4-0.2 0.7-0.3 1.1-0.3 1.4h-1v-8.5h1c0.1 0.3 0.1 0.7 0.3 1.3 0.2 0.6 0.3 1 0.4 1.2 0.3 0.4 0.7 0.6 1.2 0.7 0.6 0.1 1.5 0.2 2.9 0.2h10.2c0.4 0 0.9-0.1 1.3-0.3 0.5-0.2 0.8-0.3 1.1-0.6 0.3-0.4 0.6-0.9 0.8-1.4 0.2-0.6 0.3-1.1 0.4-1.5h1v6l-15.7 11.5h9.9c1.2 0 2.2 0 2.8-0.2 0.7-0.1 1.1-0.4 1.3-0.7 0.2-0.3 0.4-0.7 0.5-1.3 0.1-0.6 0.3-1.1 0.3-1.4h1v8.5zm-18 23.7l-0.9-8.6 1-0.1c0.1 0.7 0.3 1.4 0.5 1.9 0.2 0.5 0.4 0.7 0.6 0.7 0.1 0 0.2 0 0.3-0.1 0.1 0 0.2-0.1 0.3-0.1l4.5-2.2-0.7-7.3c-0.7-0.2-1.3-0.4-1.8-0.5-0.5-0.1-1-0.3-1.4-0.3-0.5-0.1-0.8-0.1-1.1-0.2h-0.6c-0.4 0.1-0.6 0.3-0.8 1-0.1 0.6-0.2 1.3-0.2 2.1l-1 0.1-0.8-7.8 1-0.1c0.1 0.2 0.1 0.6 0.3 1 0.1 0.3 0.3 0.6 0.5 0.9 0.3 0.4 0.6 0.6 0.9 0.9 0.3 0.2 0.7 0.3 1.2 0.5 2.7 0.8 5.7 1.6 9.1 2.6 3.4 0.9 6.3 1.7 9 2.5l0.1 1.1-17.2 8.7c-0.3 0.1-0.7 0.3-0.9 0.6q-0.3 0.3-0.6 0.9c-0.1 0.2-0.2 0.5-0.2 0.9-0.1 0.4-0.1 0.7-0.1 0.9zm7.6-9.1l7.7-3.9-8.3-2.3zm17.1 30.8c-0.1-0.2-0.2-0.7-0.5-1.2-0.3-0.5-0.5-0.9-0.7-1.1-0.3-0.3-0.8-0.4-1.5-0.4-0.7 0-1.6 0.2-2.6 0.4l-14.9 3.3-0.3-1.2 13.9-16-10.5 2.3c-1.2 0.2-2 0.5-2.6 0.8-0.6 0.3-1 0.6-1.2 1q-0.3 0.5-0.3 1.5c-0.1 0.8-0.1 1.2 0 1.4l-1 0.3-1.9-8.3 1-0.2q0.1 0.5 0.6 1.2c0.3 0.6 0.5 0.9 0.7 1 0.3 0.3 0.8 0.4 1.4 0.4 0.6 0 1.5-0.1 2.9-0.4l10-2.2c0.5-0.1 0.9-0.3 1.3-0.5 0.4-0.3 0.7-0.6 0.8-0.8 0.3-0.4 0.4-1 0.5-1.6q0.1-1 0-1.5l1-0.2 1.3 5.8-12.9 14.8 9.6-2.2c1.2-0.3 2.1-0.5 2.7-0.8 0.6-0.3 1-0.6 1.1-0.9 0.1-0.3 0.2-0.8 0.2-1.4v-1.4l1-0.3 1.8 8.3zm6.5 12.2c-0.2-0.2-0.4-0.5-0.6-0.8l-0.7-0.7c-0.3-0.2-0.6-0.4-0.8-0.3q-0.5 0-0.9 0.3l-10.7 6.1c-0.6 0.3-1.2 0.6-2 0.7-0.7 0.1-1.5 0.1-2.2 0-0.8-0.2-1.6-0.5-2.4-1-0.7-0.5-1.3-1.3-1.8-2.1-0.8-1.3-1.1-2.7-0.8-4 0.3-1.3 1.1-2.3 2.4-3.1 0.5-0.3 1.1-0.5 1.8-0.5 0.6 0.1 1.1 0.4 1.4 1 0.2 0.5 0.3 1 0.2 1.4-0.1 0.5-0.4 0.9-0.8 1.1q-0.5 0.3-0.9 0.3c-0.3 0.1-0.6 0.1-0.9 0.1h-1.9c-0.2 0.3-0.3 0.7-0.3 1.3 0 0.5 0.2 1 0.5 1.7 0.4 0.6 0.9 1 1.3 1.3 0.5 0.2 1.1 0.3 1.6 0.2 0.5-0.1 1.2-0.2 1.9-0.5 0.7-0.3 1.4-0.6 2.2-1.1l9.5-5.5c0.3-0.2 0.5-0.4 0.6-0.5 0.2-0.2 0.2-0.5 0.2-0.9q0-0.5-0.3-1.2c-0.2-0.4-0.3-0.7-0.5-1l0.9-0.5 4.6 7.9zm-7.3 23.8l-5.7-7.4 0.8-0.6c0.2 0.2 0.5 0.5 0.8 0.9 0.3 0.3 0.6 0.6 0.8 0.7 0.3 0.2 0.6 0.2 0.8 0.2 0.3-0.1 0.6-0.2 0.9-0.4l12-9.2q0.4-0.3 0.6-0.6c0.1-0.2 0.1-0.5 0-1-0.1-0.3-0.2-0.7-0.4-1.1-0.2-0.4-0.4-0.7-0.5-1l0.8-0.6 5.7 7.4-0.8 0.6c-0.2-0.2-0.4-0.5-0.7-0.8-0.3-0.3-0.6-0.6-0.9-0.7-0.3-0.2-0.6-0.3-0.9-0.2-0.3 0.1-0.6 0.2-0.8 0.4l-11.9 9.2c-0.2 0.2-0.4 0.4-0.6 0.7-0.1 0.3-0.1 0.6-0.1 1 0.1 0.2 0.2 0.5 0.4 0.9 0.2 0.4 0.4 0.8 0.6 1zm35.7 7.4c-0.2-0.2-0.6-0.4-1.1-0.7-0.5-0.3-0.9-0.4-1.2-0.5-0.4-0.1-0.9 0.1-1.5 0.5-0.5 0.5-1.2 1-1.9 1.8l-10.5 11-0.9-0.9 2.6-21-7.4 7.7c-0.8 0.9-1.4 1.6-1.8 2.2-0.3 0.6-0.5 1.1-0.4 1.5 0 0.4 0.2 0.8 0.6 1.4 0.4 0.6 0.6 1 0.8 1.2l-0.7 0.7-6.2-5.9 0.7-0.7c0.2 0.2 0.6 0.4 1.1 0.7 0.6 0.3 1 0.5 1.2 0.5 0.5 0 0.9-0.1 1.4-0.5 0.5-0.3 1.2-0.9 2.1-1.9l7.1-7.4c0.3-0.3 0.5-0.7 0.7-1.1 0.2-0.4 0.3-0.8 0.2-1.2 0-0.5-0.2-1-0.5-1.6-0.3-0.6-0.5-1-0.8-1.3l0.7-0.7 4.3 4.1-2.4 19.5 6.8-7.1c0.8-0.9 1.4-1.6 1.8-2.2 0.3-0.6 0.4-1.1 0.4-1.4-0.1-0.3-0.3-0.8-0.6-1.3-0.3-0.5-0.6-0.9-0.8-1.2l0.7-0.7 6.1 5.8zm11.8 21.4c-0.2-0.1-0.5-0.2-0.9-0.4q-0.6-0.3-0.9-0.3c-0.4 0-0.6 0-0.9 0.2-0.2 0.1-0.4 0.4-0.7 0.7l-0.9 1.3c-0.6 1-1.1 1.6-1.3 2-0.2 0.4-0.4 0.6-0.5 0.8-1.4-0.2-2.8-0.6-4-1-1.2-0.5-2.4-1-3.4-1.7-1.1-0.8-2-1.7-2.7-2.8-0.8-1.1-1.2-2.3-1.5-3.5-0.2-1.4-0.2-2.7 0.1-4.1 0.3-1.4 0.8-2.8 1.8-4.1 0.8-1.3 1.9-2.4 3.1-3.2 1.2-0.8 2.5-1.4 3.8-1.7 1.3-0.3 2.7-0.3 4 0 1.4 0.3 2.7 0.8 3.9 1.6 1 0.7 1.8 1.4 2.3 2.1 0.5 0.7 1 1.4 1.3 2.1l1-0.5 1 0.7-4 6.1-1-0.7c0.3-0.8 0.5-1.5 0.6-2.4 0.2-0.8 0.3-1.6 0.2-2.4-0.1-0.8-0.3-1.5-0.6-2.2-0.3-0.7-1-1.3-1.7-1.8-0.9-0.6-1.8-0.9-2.7-1-0.9-0.1-1.9 0-2.8 0.4-1 0.3-1.9 0.9-2.8 1.8q-1.5 1.2-2.7 3c-0.7 1.1-1.3 2.2-1.7 3.4-0.4 1.1-0.6 2.3-0.6 3.3 0 1 0.3 2.1 0.7 3 0.5 0.9 1.2 1.7 2.1 2.3 0.7 0.5 1.4 0.8 2.2 1 0.7 0.2 1.3 0.3 1.7 0.2 0.4-0.4 0.7-0.7 1-1.2 0.3-0.4 0.6-0.8 0.7-1.1l0.6-1c0.3-0.3 0.4-0.7 0.5-1 0.1-0.3 0.1-0.7-0.2-1-0.2-0.3-0.5-0.7-0.9-1-0.5-0.4-0.8-0.7-1-0.8l0.6-1 7.6 5.1zm52.1 3.4c-0.3 0-0.6 0.1-1.2 0.2-0.5 0.1-1 0.2-1.3 0.5-0.3 0.2-0.6 0.7-0.7 1.4-0.1 0.7-0.2 1.5-0.2 2.6v9c0 1.1-0.2 2.1-0.7 3-0.5 0.9-1.1 1.6-1.9 2.1-0.7 0.5-1.6 0.9-2.4 1.1-0.9 0.3-1.6 0.4-2.4 0.4-1.2 0-2.4-0.2-3.3-0.5-1-0.3-1.8-0.8-2.5-1.3-0.6-0.6-1.1-1.2-1.4-1.9-0.4-0.7-0.5-1.5-0.5-2.2v-12.2c0-0.4-0.1-0.7-0.2-0.9-0.1-0.2-0.3-0.5-0.7-0.6-0.2-0.2-0.5-0.3-0.9-0.4-0.4-0.1-0.7-0.1-0.9-0.1v-1.1h8.6v1.1c-0.3 0-0.6 0-1 0.1-0.4 0.1-0.7 0.2-0.9 0.2-0.4 0.1-0.6 0.3-0.7 0.6-0.1 0.3-0.2 0.6-0.2 1v11.4c0 0.5 0.1 1.1 0.2 1.7 0.1 0.6 0.4 1.2 0.7 1.7 0.4 0.5 0.9 1 1.6 1.3 0.7 0.3 1.5 0.6 2.7 0.6q1.6 0 2.7-0.6c0.7-0.3 1.3-0.7 1.7-1.3 0.4-0.5 0.7-1.1 0.9-1.7 0.1-0.6 0.2-1.1 0.2-1.7v-8.5c0-1.1-0.1-2-0.2-2.7-0.2-0.7-0.4-1.1-0.7-1.4-0.4-0.2-0.9-0.4-1.4-0.6-0.6-0.1-1.1-0.2-1.4-0.2v-1.1h8.5zm24.1-10.6c-0.2 0.2-0.6 0.4-1 0.7-0.5 0.4-0.8 0.7-1 0.9-0.2 0.3-0.2 0.9-0.1 1.5 0.1 0.7 0.4 1.5 0.8 2.5l6.1 13.9-1.2 0.6-18.3-10.6 4.3 9.8c0.4 1.1 0.9 1.9 1.3 2.4 0.4 0.6 0.8 0.9 1.2 1q0.4 0.2 1.5 0c0.7-0.1 1.2-0.2 1.4-0.3l0.4 1-7.8 3.4-0.4-1c0.3-0.1 0.6-0.4 1.1-0.8 0.5-0.4 0.8-0.7 0.9-0.8 0.2-0.4 0.2-0.9 0.1-1.5-0.1-0.6-0.4-1.4-1-2.7l-4.1-9.4c-0.2-0.4-0.4-0.8-0.7-1.1-0.3-0.3-0.6-0.6-1-0.7-0.4-0.1-1-0.2-1.6-0.2-0.7 0.1-1.2 0.1-1.5 0.3l-0.4-1 5.4-2.4 17 9.8-3.9-9.1c-0.5-1.1-0.9-1.9-1.3-2.5-0.4-0.6-0.8-0.9-1.1-0.9-0.3-0.1-0.8-0.1-1.4 0-0.6 0.1-1.1 0.2-1.4 0.3l-0.4-1 7.7-3.3zm20.8 12.1l-8.4 4.1-0.5-0.9c0.2-0.1 0.6-0.3 1-0.6 0.4-0.3 0.7-0.5 0.8-0.6 0.2-0.3 0.4-0.6 0.4-0.8 0-0.3 0-0.6-0.2-0.9l-6.7-13.5c-0.1-0.3-0.3-0.6-0.5-0.7-0.2-0.1-0.5-0.2-1-0.2-0.3 0-0.7 0.1-1.1 0.2-0.5 0.1-0.8 0.2-1.1 0.3l-0.5-0.9 8.4-4.1 0.5 0.9q-0.5 0.2-0.9 0.6c-0.3 0.2-0.7 0.5-0.9 0.7-0.3 0.2-0.4 0.6-0.4 0.9 0 0.2 0.1 0.5 0.2 0.8l6.6 13.5c0.1 0.3 0.3 0.5 0.6 0.7 0.2 0.2 0.5 0.2 0.9 0.2 0.2 0 0.6-0.1 1-0.2 0.4-0.1 0.8-0.2 1.1-0.3zm10.2-32.7c-0.2 0.2-0.4 0.5-0.6 0.7-0.2 0.3-0.3 0.6-0.4 0.9-0.1 0.4-0.2 0.7-0.1 1.1 0.1 0.3 0.1 0.8 0.2 1.2 0.5 1.7 1.2 4.2 2.2 7.5 1.1 3.4 2.1 6.9 3.2 10.6l-0.9 0.7c-3.5-2-6.8-4-10-6-3.2-1.9-5.4-3.2-6.5-3.9-0.3-0.1-0.6-0.3-0.9-0.3h-1c-0.3 0.1-0.6 0.1-0.9 0.3-0.3 0.1-0.6 0.3-0.8 0.4l-0.7-0.8 6.7-5.3 0.7 0.8c-0.6 0.5-1 1-1.3 1.3-0.3 0.4-0.4 0.7-0.2 0.9l0.3 0.3c0.1 0.1 0.2 0.2 0.3 0.2 0.9 0.5 2.3 1.3 4.3 2.5 2 1.3 4.8 2.9 8.5 5.1-0.6-1.9-1.2-4.1-2-6.6-0.8-2.5-1.4-4.2-1.7-5.2-0.3-0.9-0.5-1.5-0.7-1.8-0.2-0.3-0.3-0.6-0.5-0.7-0.1-0.2-0.4-0.3-0.6-0.2-0.3 0-0.5 0.1-0.9 0.2-0.3 0.1-0.6 0.3-1 0.5-0.3 0.2-0.5 0.3-0.8 0.5l-0.7-0.8 6.1-4.8zm23.2-6.7l4.4 4.2-11 13.2-0.8-0.6c0.2-0.2 0.4-0.6 0.7-1 0.2-0.4 0.4-0.7 0.4-0.9 0.1-0.3 0.1-0.6 0-0.8-0.1-0.3-0.3-0.5-0.6-0.7l-11.5-9.6c-0.2-0.2-0.5-0.3-0.8-0.4-0.2-0.1-0.5-0.1-0.9 0.1-0.3 0.1-0.5 0.3-0.9 0.6-0.4 0.3-0.6 0.5-0.9 0.7l-0.8-0.6 10.3-12.4 3.8 3.2-0.7 0.8c-0.7-0.3-1.6-0.5-2.6-0.5-1.1 0-1.8 0.2-2.3 0.5-0.2 0.2-0.5 0.5-0.8 0.7-0.3 0.3-0.6 0.7-1 1.1l-2 2.5 6.3 5.3 1.5-1.8c0.5-0.6 0.8-1 0.9-1.4 0.1-0.4 0.1-0.8 0-1.1-0.1-0.4-0.2-0.7-0.5-1.2-0.3-0.4-0.5-0.8-0.8-1.1l0.7-0.8 6.2 5.2-0.7 0.8c-0.4-0.2-0.9-0.5-1.4-0.7q-0.8-0.3-1.2-0.3-0.8 0-1.2 0.3c-0.4 0.2-0.7 0.6-1.1 1.1l-1.5 1.8 4.8 4q0.7 0.6 1.2 0.9c0.3 0.2 0.7 0.2 1 0.2 0.3-0.1 0.6-0.3 1-0.6 0.3-0.3 0.7-0.8 1.2-1.4 0.2-0.2 0.5-0.5 0.8-1 0.4-0.3 0.6-0.7 0.8-1 0.2-0.3 0.4-0.7 0.6-1.1 0.2-0.3 0.2-0.6 0.2-0.9 0-0.7-0.3-1.5-0.7-2.5-0.4-1-0.8-1.6-1-2zm17.3-19.4l-2.7 4.8q-3.5 0.3-6 0.6c-1.7 0.2-3.5 0.4-5.4 0.7l-1 1.9 5.8 3.1q0.4 0.3 0.9 0.3 0.4 0 0.9-0.3c0.2-0.1 0.3-0.4 0.6-0.7 0.3-0.3 0.5-0.7 0.6-1l0.9 0.5-4.2 7.7-0.9-0.5c0.1-0.2 0.2-0.5 0.4-1 0.2-0.4 0.2-0.7 0.3-0.8 0-0.3 0-0.6-0.2-0.8-0.2-0.2-0.4-0.4-0.7-0.6l-13.2-7.2-0.9-0.3c-0.3-0.1-0.6 0.1-0.9 0.3-0.2 0.2-0.4 0.5-0.7 0.8-0.3 0.3-0.5 0.6-0.6 0.8l-0.9-0.5 4.6-8.5c0.4-0.8 0.9-1.5 1.4-2q0.7-0.9 1.8-1.5c0.6-0.4 1.3-0.5 2.1-0.5 0.7 0 1.5 0.2 2.2 0.6 0.7 0.4 1.3 0.9 1.7 1.4 0.4 0.5 0.7 1 0.9 1.7 0.2 0.6 0.2 1.2 0.2 1.9-0.1 0.6-0.2 1.4-0.3 2.1 1.7-0.2 3.1-0.5 4.3-0.6q1.6-0.3 4.2-0.6c0.7-0.1 1.3-0.2 1.7-0.4 0.4-0.2 0.8-0.4 1.1-0.6 0.3-0.2 0.5-0.4 0.7-0.7 0.2-0.3 0.4-0.6 0.5-0.7zm-17.3-0.6c-1.1-0.6-2.2-0.8-3.2-0.5-1 0.3-1.8 1-2.4 2.2l-1.2 2.2 7.9 4.2 0.9-1.7c0.6-1.2 0.8-2.4 0.5-3.6-0.4-1.2-1.2-2.1-2.5-2.8zm11.9-17.2c0.6-0.3 1.2-0.5 1.8-0.5 0.6-0.1 1.3 0 2 0.2 1.8 0.4 3.1 1.5 3.9 3.1 0.8 1.6 1 3.4 0.4 5.3-0.2 0.8-0.6 1.8-1.1 2.6-0.5 0.9-1.1 1.5-1.6 2l0.9 0.9-0.3 1.2-6.9-1.6 0.3-1.1c0.9 0 1.7-0.1 2.5-0.3 0.8-0.1 1.5-0.3 2.2-0.7 0.7-0.4 1.3-0.9 1.8-1.4 0.5-0.6 0.9-1.3 1.1-2.2 0.2-0.6 0.2-1.3 0.2-1.8 0-0.6-0.2-1-0.4-1.4-0.2-0.4-0.6-0.7-0.9-1-0.4-0.2-0.9-0.4-1.4-0.6-0.8-0.2-1.6-0.2-2.4 0.1-0.8 0.3-1.5 0.9-2.1 1.7-0.4 0.6-0.9 1.2-1.4 1.9-0.5 0.7-1 1.3-1.4 1.9-0.8 1-1.7 1.6-2.7 2.1-1 0.4-2.2 0.5-3.5 0.1-0.8-0.2-1.4-0.6-2.1-1.1-0.6-0.5-1-1-1.4-1.8-0.4-0.7-0.6-1.4-0.7-2.2-0.1-0.9 0-1.7 0.2-2.5 0.3-0.9 0.6-1.7 1.1-2.4 0.5-0.7 1-1.3 1.5-1.7l-0.9-0.9 0.3-1.2 6.7 1.6-0.3 1.2c-0.8 0-1.6 0-2.4 0.1-0.8 0.1-1.5 0.2-2.2 0.5-0.7 0.3-1.2 0.7-1.7 1.2-0.5 0.5-0.8 1.1-1.1 2-0.2 0.9-0.1 1.8 0.3 2.5 0.4 0.8 1.1 1.3 1.9 1.5 0.9 0.2 1.6 0.2 2.3-0.1 0.7-0.2 1.3-0.7 1.9-1.4 0.5-0.6 1-1.2 1.4-1.8 0.4-0.6 0.9-1.2 1.3-1.7 0.4-0.5 0.8-1 1.2-1.4 0.7-0.2 1.2-0.6 1.7-0.9zm12.4-13.7l-1.3 9.3-1-0.1c0-0.3 0.1-0.7 0.1-1.2 0.1-0.5 0-0.8 0-1.1-0.1-0.3-0.2-0.6-0.4-0.7q-0.3-0.3-0.9-0.3l-14.9-2h-0.8c-0.2 0.1-0.5 0.3-0.7 0.7-0.1 0.3-0.3 0.6-0.5 1-0.2 0.4-0.3 0.8-0.4 1.1l-1-0.1 1.3-9.3 1 0.1v1.1c0 0.4 0 0.8 0.1 1.1 0.1 0.3 0.2 0.6 0.5 0.8 0.2 0.2 0.5 0.3 0.8 0.3l14.9 2.1c0.3 0.1 0.6 0 0.9-0.1 0.3-0.1 0.5-0.3 0.7-0.7 0.1-0.2 0.3-0.5 0.4-0.9q0.3-0.7 0.3-1.2zm-13.2-24.7l-0.1 1c-0.4 0.1-0.8 0.2-1.3 0.5-0.5 0.2-1 0.5-1.4 0.7-0.4 0.3-0.8 0.6-1.2 1-0.4 0.3-0.6 0.6-0.6 1-0.1 0.3-0.1 0.7-0.2 1.1 0 0.5-0.1 0.9-0.1 1.3l-0.1 0.9 16.6 0.6c0.3 0 0.6 0 0.9-0.2 0.3-0.1 0.5-0.4 0.6-0.7 0.1-0.2 0.2-0.5 0.4-1.1 0.1-0.6 0.2-1 0.2-1.3h1l-0.4 9.8-1-0.1c0-0.2-0.1-0.7-0.1-1.3 0-0.6-0.1-0.9-0.2-1.2-0.1-0.3-0.3-0.6-0.5-0.7-0.2-0.2-0.6-0.2-1-0.3l-16.7-0.6v3.3c0 0.3 0.2 0.7 0.5 1.1 0.3 0.3 0.7 0.7 1.1 1 0.4 0.3 0.9 0.6 1.4 0.9 0.5 0.2 0.9 0.4 1.2 0.5l-0.1 1-5.6-0.2 0.7-18.1zm-4.3-22.7c0 0.1 0.1 0.4 0.2 0.8 0.2 0.3 0.3 0.6 0.4 0.8 0.2 0.4 0.4 0.6 0.5 0.8 0.1 0.1 0.5 0.4 1 0.8 1.1 0.8 2.2 1.5 3.2 2.2 1.1 0.6 2.5 1.4 4.1 2.4 0.6 0.4 1.1 0.7 1.5 0.7 0.4 0.2 0.9 0.2 1.6 0.2l4 0.1c0.4 0 0.7-0.1 1-0.2 0.2-0.1 0.4-0.4 0.6-0.7 0.1-0.2 0.2-0.6 0.3-1.1 0.1-0.5 0.2-0.9 0.2-1.2h1.1l-0.2 9.7-1-0.1c0-0.3-0.1-0.6-0.1-1.2 0-0.5-0.1-0.9-0.2-1.1-0.1-0.4-0.4-0.6-0.6-0.7-0.3-0.2-0.6-0.2-1-0.2l-5.1-0.1c-0.2-0.1-0.4 0.1-0.9 0.2-0.4 0.2-0.9 0.4-1.4 0.6-1.2 0.6-2.4 1.2-3.7 1.9-1.3 0.7-2.5 1.3-3.4 1.8-0.6 0.3-1 0.5-1.3 0.9-0.3 0.2-0.5 0.5-0.8 0.8-0.1 0.2-0.3 0.5-0.3 0.9-0.1 0.3-0.2 0.6-0.2 0.9h-1l0.1-8.9h1.1c0 1 0 1.7 0.2 2.2 0.1 0.4 0.3 0.6 0.5 0.6 0.1 0 0.2 0 0.3-0.1 0.2-0.1 0.4-0.2 0.6-0.2 0.3-0.1 0.6-0.3 0.9-0.5 0.3-0.2 0.7-0.3 1-0.5 0.9-0.4 1.8-0.9 2.6-1.4 0.9-0.4 2-1.1 3.4-1.8-2.4-1.5-4.3-2.8-5.7-3.6-1.3-0.8-2.2-1.2-2.4-1.2-0.2 0-0.4 0.1-0.6 0.2q-0.2 0.2-0.3 0.6c-0.1 0.3-0.2 0.6-0.2 0.9 0 0.3 0 0.7-0.1 0.9h-1.1l0.2-7.2zm-101.3 86.9c0.6 0.5 0.8 1.3 0.8 2.3 0 0.9-0.3 1.7-0.8 2.3-0.6 0.5-1.2 0.8-2 0.8-0.8 0-1.5-0.2-2-0.8-0.5-0.6-0.8-1.3-0.8-2.2q0-1.5 0.9-2.4c0.6-0.7 1.2-1 2-1 0.8 0 1.4 0.3 1.9 1zm13.3 0.2c0.5 0.7 0.8 2.3 0.8 4.6 0 2.3-0.3 3.8-0.8 4.6-0.6 0.8-1.2 1.2-2 1.2-0.8 0-1.4-0.4-2-1.2-0.5-0.8-0.8-2.3-0.8-4.6q0-3.6 0.9-4.8c0.5-0.7 1.2-1 1.9-1 0.8 0 1.4 0.4 2 1.2z"/><path fill-rule="evenodd" class="a" d="m217.2 164.6c0 21.7-3 40.2-9.6 55.2-6.6 15-17.9 25.4-30.4 34.4-12.6 9.2-28.5 14-43.1 21.6-14.7-7.5-30.6-12.4-43.3-21.4-12.5-8.9-23.5-19.6-30.2-34.4-6.8-14.9-9.9-34-9.7-55 0.1-20.8-0.2-42.8 0-64.1 0.1-0.2 0.1-0.5 0.3-0.5h166c0.3 21.1 0.1 43.3 0 64.2zm-130.2 31.4c7 0.9 15.6 0 22.2-2.1 11.6-3.1 18.8-3 26 2.8 6.5-6.1 15.2-5.9 24.5-2.7 7.6 2.5 15.4 3 22.4 2-0.3-0.9-1.3-1.2-2-1.5-8.5-4.5-16.9-8.8-23.9-14.5-2.6-2-5.4-3.9-7.5-6.4 6.5 1.8 9.2 2.2 15.2 1.7-1.9-2.3-4.2-4.1-6.4-6.1-5.3-5.1-11.1-10.3-14.7-16.9-0.7-1.3-1.5-2.8-1.7-4.4 3.7 1.5 6.5 1.6 9.7 1.8-7.2-9.4-13-20.2-16-33.7h-0.4c-3 13.5-8.7 24.4-16 33.7 3.7 0 7.2-0.8 9.9-1.7-4 10.6-12.4 17.2-19.8 24.2-1.1 1-2.4 1.8-3.2 3.1 4.9 0.1 9.5-0.1 15.4-1.5-8.8 8.5-20.1 14.9-31.4 20.8-0.8 0.4-1.9 0.5-2.3 1.4zm27.8 39.9h-1.1c-0.3 0.6-0.8 1.2-1.5 1.9-0.7 0.6-1.5 1.2-2.5 1.7v1.6c0.6-0.3 1.2-0.6 1.8-1 0.7-0.3 1.3-0.6 1.7-1.1v11h1.7zm16.1 6.7c0-1.7-0.3-3-0.6-3.9-0.5-1-1.1-1.7-1.8-2.2-0.8-0.5-1.6-0.7-2.6-0.7-1.2 0-2.2 0.4-3.1 1.3-0.9 0.8-1.3 2-1.3 3.4 0 1.4 0.5 2.5 1.3 3.4 0.8 0.8 1.8 1.3 3 1.3 0.6 0 1.3-0.2 1.9-0.5 0.6-0.3 1.1-0.8 1.4-1.4v0.4q0 1-0.3 2.1c-0.1 0.6-0.3 1.2-0.6 1.6-0.3 0.4-0.6 0.8-1 1-0.4 0.3-0.9 0.4-1.4 0.4-0.6 0-1.1-0.1-1.5-0.5-0.4-0.3-0.7-0.9-0.9-1.7l-1.6 0.2c0.2 1.2 0.6 2 1.3 2.6q1.1 0.9 2.7 0.9 1.5 0 2.7-0.9 1.2-0.8 1.8-2.4c0.3-1.1 0.6-2.5 0.6-4.4zm13.1 0.4q0-2.1-0.3-3.3c-0.3-0.8-0.5-1.5-0.9-2.1-0.4-0.6-0.8-1-1.4-1.3-0.6-0.3-1.2-0.4-2-0.4-1.1 0-1.9 0.3-2.6 0.9-0.6 0.5-1.1 1.3-1.5 2.3-0.3 1-0.5 2.3-0.5 4 0 2.6 0.5 4.6 1.4 5.7 0.8 1 1.8 1.5 3.2 1.5 1.1 0 1.9-0.3 2.6-0.9 0.7-0.5 1.2-1.3 1.5-2.3 0.3-1 0.5-2.4 0.5-4.1zm13.2 5.3h-6.9c0.2-0.4 0.4-0.7 0.7-1 0.3-0.3 1-0.9 2-1.8q1.9-1.5 2.7-2.4c0.5-0.6 0.9-1.2 1.1-1.7 0.2-0.6 0.3-1.2 0.3-1.7 0-1.1-0.4-2-1.2-2.8-0.8-0.8-1.8-1.1-3.2-1.1-1.3 0-2.4 0.3-3.2 1-0.8 0.7-1.2 1.7-1.4 3l1.8 0.2c0-0.8 0.2-1.5 0.7-2 0.5-0.5 1.2-0.8 2-0.8 0.8 0 1.4 0.2 1.9 0.7 0.5 0.4 0.8 1 0.8 1.7 0 0.7-0.3 1.4-0.8 2.1-0.6 0.8-1.6 1.7-3.1 3-0.9 0.9-1.7 1.6-2.2 2.2-0.6 0.6-1 1.3-1.2 1.9-0.1 0.3-0.2 0.8-0.2 1.2h9.3zm35-37.4l-5.9-7.9c0 0-13.7-1-22.7-4.3-9.6-3.6-19.9-5-28.1 1.9 0 0-10.4-8.8-27.6-2.4-8.8 3.3-19.2 4.6-24.5 4.9l-6.3 7.7h50.5l-0.5 3.7h16.1l-0.4-3.7z"/></svg>