<svg version="1.2" xmlns="http://www.w3.org/2000/svg" viewBox="0 0 213 70" width="213" height="70"><defs><clipPath clipPathUnits="userSpaceOnUse" id="cp1"><path d="m0 0h212.6v70h-212.6z"/></clipPath><clipPath clipPathUnits="userSpaceOnUse" id="cp2"><path d="m0 0h212.6v70h-212.6z"/></clipPath><clipPath clipPathUnits="userSpaceOnUse" id="cp3"><path d="m0 0h212.6v70h-212.6z"/></clipPath><clipPath clipPathUnits="userSpaceOnUse" id="cp4"><path d="m0 0h212.6v70h-212.6z"/></clipPath><clipPath clipPathUnits="userSpaceOnUse" id="cp5"><path d="m0 0h212.6v70h-212.6z"/></clipPath><clipPath clipPathUnits="userSpaceOnUse" id="cp6"><path d="m0 0h212.6v70h-212.6z"/></clipPath><clipPath clipPathUnits="userSpaceOnUse" id="cp7"><path d="m0 0h212.6v70h-212.6z"/></clipPath><clipPath clipPathUnits="userSpaceOnUse" id="cp8"><path d="m0 0h212.6v70h-212.6z"/></clipPath><clipPath clipPathUnits="userSpaceOnUse" id="cp9"><path d="m0 0h212.6v70h-212.6z"/></clipPath><clipPath clipPathUnits="userSpaceOnUse" id="cp10"><path d="m0 0h212.6v70h-212.6z"/></clipPath><clipPath clipPathUnits="userSpaceOnUse" id="cp11"><path d="m0 0h212.6v70h-212.6z"/></clipPath><clipPath clipPathUnits="userSpaceOnUse" id="cp12"><path d="m0 0h212.6v70h-212.6z"/></clipPath><clipPath clipPathUnits="userSpaceOnUse" id="cp13"><path d="m0 0h212.6v70h-212.6z"/></clipPath><clipPath clipPathUnits="userSpaceOnUse" id="cp14"><path d="m0 0h212.6v70h-212.6z"/></clipPath><clipPath clipPathUnits="userSpaceOnUse" id="cp15"><path d="m0 0h212.6v70h-212.6z"/></clipPath><clipPath clipPathUnits="userSpaceOnUse" id="cp16"><path d="m0 0h212.6v70h-212.6z"/></clipPath><clipPath clipPathUnits="userSpaceOnUse" id="cp17"><path d="m0 0h212.6v70h-212.6z"/></clipPath><clipPath clipPathUnits="userSpaceOnUse" id="cp18"><path d="m0 0h212.6v70h-212.6z"/></clipPath><clipPath clipPathUnits="userSpaceOnUse" id="cp19"><path d="m0 0h212.6v70h-212.6z"/></clipPath><clipPath clipPathUnits="userSpaceOnUse" id="cp20"><path d="m0 0h212.6v70h-212.6z"/></clipPath><clipPath clipPathUnits="userSpaceOnUse" id="cp21"><path d="m0 0h212.6v70h-212.6z"/></clipPath><clipPath clipPathUnits="userSpaceOnUse" id="cp22"><path d="m0 0h212.6v70h-212.6z"/></clipPath><clipPath clipPathUnits="userSpaceOnUse" id="cp23"><path d="m0 0h212.6v70h-212.6z"/></clipPath><clipPath clipPathUnits="userSpaceOnUse" id="cp24"><path d="m0 0h212.6v70h-212.6z"/></clipPath><clipPath clipPathUnits="userSpaceOnUse" id="cp25"><path d="m0 0h212.6v70h-212.6z"/></clipPath><clipPath clipPathUnits="userSpaceOnUse" id="cp26"><path d="m0 0h212.6v70h-212.6z"/></clipPath><clipPath clipPathUnits="userSpaceOnUse" id="cp27"><path d="m0 0h212.6v70h-212.6z"/></clipPath></defs><style>.a{fill:#003a65}.b{fill:#03a65c}.c{fill:#fff}.d{fill:#00fffc}.e{fill:#d91a35}.f{fill:#91a35c}</style><g clip-path="url(#cp1)"><path fill-rule="evenodd" class="a" d="m94.4 23.2c-5 0-8.3-3.6-8.3-8.8 0-5.2 3.5-8.9 8.5-8.9 4.7 0 7.7 3.4 7.7 9v0.7h-11.2c0 2.9 1.3 4.5 3.5 4.5 1.6 0 2.7-0.9 3.2-2.5l4.5 0.4c-1.1 3.5-4 5.6-7.9 5.6zm3.1-10.8c0-2.5-1.2-3.8-3.2-3.8-1.8 0-3 1.3-3.2 3.8z"/></g><g clip-path="url(#cp2)"><path fill-rule="evenodd" class="b" d="m204.7 23.2c-5 0-8.2-3.6-8.2-8.8 0-5.2 3.5-8.9 8.5-8.9 4.7 0 7.7 3.4 7.7 9v0.7h-11.2c0 2.9 1.3 4.5 3.5 4.5 1.6 0 2.7-0.9 3.2-2.5l4.5 0.4c-1.2 3.5-4.1 5.6-8 5.6zm3.1-10.8c0-2.5-1.2-3.8-3.2-3.8-1.8 0-3 1.3-3.2 3.8z"/></g><g clip-path="url(#cp3)"><path class="a" d="m102.8 5.9h5.3l2.4 9.9 2.3-9.9h4.4l2.4 10 2.9-10h4l-4.9 16.8h-4.4l-2.8-10.9-2.7 10.9h-4.1"/></g><g clip-path="url(#cp4)"><path class="b" d="m135.3 8.8c-2.1 0-3.6 1.8-3.6 5.4-0.1 3.6 1.4 5.5 3.5 5.5 1.6 0 3.1-1.2 3.4-3.4l4.2 0.5c-0.5 3.9-3.6 6.4-7.9 6.4-5 0-8.4-3.6-8.3-8.8 0.1-5.4 3.7-8.9 9-8.9 4 0 6.8 2.4 7.3 6.4l-4.3 0.5c-0.4-2.3-1.8-3.6-3.3-3.6z"/></g><g clip-path="url(#cp5)"><path fill-rule="evenodd" class="b" d="m155.1 20c-1.1 2-2.9 3.1-5.3 3.1-3.5 0-5.6-2-5.6-5.1 0-4 3.6-6.1 10.8-6.1v-0.7c0-1.7-0.9-2.6-2.7-2.6q-3 0-3.3 2.4l-4.3-0.5c0.7-3.3 3.4-5 7.9-5 5 0 7 2 7 6.6v7.5c0 1.4 0.1 2.5 0.5 3.2h-4.6c-0.3-0.9-0.4-1.8-0.4-2.8zm-6-2.3c0 1.4 0.9 2.2 2.4 2.2 1.9 0 3.4-1.6 3.4-3.9v-1.5c-3.8 0-5.8 1.2-5.8 3.2z"/></g><g clip-path="url(#cp6)"><path class="a" d="m165.3 17.4c0.4 1.5 1.8 2.4 3.9 2.4 1.8 0 2.8-0.8 2.8-1.8 0-1.5-1.4-1.4-3.9-1.9-4-0.8-6-2.2-6-5.2 0-3.1 2.5-5.5 6.8-5.5 3.4 0 5.8 1.5 6.8 4.4l-3.8 0.7c-0.6-1.3-1.6-1.9-3.2-1.9-1.6 0-2.4 0.6-2.4 1.7 0 1.5 1.6 1.4 4.6 2.1 3.6 0.8 5.4 2.1 5.4 5 0 3.3-2.8 5.7-7.5 5.7-3.8 0-6.6-1.9-7.4-5.1"/></g><g clip-path="url(#cp7)"><path class="b" d="m189.5 0h4.8v22.7h-4.8z"/></g><g clip-path="url(#cp8)"><path class="b" d="m91.4 36.4c0.7-1.2 1.5-2 2.5-2.6 0.9-0.6 2-0.9 3.2-0.9 1 0 1.9 0.2 2.6 0.6 0.7 0.4 1.2 1.1 1.7 1.9q0.6 1.4 0.6 3v7.6c0 0.6 0.1 1 0.4 1.2 0.3 0.2 0.7 0.4 1.3 0.4h1.1v1.2h-8.2v-1.2h0.8c0.7 0 1.2-0.1 1.5-0.4 0.3-0.2 0.4-0.6 0.4-1v-6.7c0-1.4-0.2-2.5-0.7-3.2-0.6-1-1.5-1.5-2.8-1.5-1.2 0-2.3 0.5-3.1 1.5q-1.2 1.5-1.2 3.9v5.8c0 0.6 0.1 1 0.4 1.2 0.3 0.2 0.7 0.4 1.3 0.4h1.1v1.2h-8.3v-1.2h1.1q0.7 0 1.2-0.3c0.3-0.2 0.4-0.5 0.4-0.8v-10.2c0-0.7-0.2-1.2-0.5-1.5-0.4-0.3-0.9-0.5-1.5-0.5h-0.8v-1.1l5.5-0.3"/></g><g clip-path="url(#cp9)"><path class="a" d="m104.9 33.3l6.3-0.2v13.5c0 0.4 0.1 0.6 0.3 0.8 0.3 0.2 0.6 0.3 1 0.3h1.8v1.2h-8.9v-1.2h1.7c0.5 0 0.8-0.1 1.1-0.4 0.2-0.2 0.3-0.6 0.3-1v-9.8c0-0.6-0.2-1.1-0.5-1.4-0.4-0.3-0.9-0.5-1.6-0.5h-1.3m4.2-7.9c0.5 0 0.9 0.2 1.3 0.6 0.4 0.4 0.6 0.8 0.6 1.3 0 0.5-0.2 0.9-0.5 1.3-0.4 0.4-0.8 0.6-1.3 0.6-0.5 0-1-0.2-1.3-0.6-0.4-0.4-0.6-0.8-0.6-1.3 0-0.5 0.2-0.9 0.6-1.3q0.4-0.6 1.2-0.6z"/></g><g clip-path="url(#cp10)"><path class="b" d="m174.1 33.3l6.3-0.2v13.5c0 0.4 0.1 0.6 0.3 0.8 0.3 0.2 0.6 0.3 1 0.3h1.8v1.2h-8.9v-1.2h1.7c0.5 0 0.8-0.1 1.1-0.4 0.2-0.2 0.3-0.6 0.3-1v-9.8c0-0.6-0.2-1.1-0.5-1.4-0.4-0.3-0.9-0.5-1.6-0.5h-1.3m4.2-7.9c0.5 0 0.9 0.2 1.3 0.6 0.4 0.4 0.6 0.8 0.6 1.3 0 0.5-0.2 0.9-0.6 1.3-0.4 0.4-0.8 0.6-1.3 0.6-0.5 0-1-0.2-1.3-0.6-0.4-0.4-0.6-0.8-0.6-1.3 0-0.5 0.2-0.9 0.6-1.3 0.3-0.4 0.8-0.6 1.3-0.6z"/></g><g clip-path="url(#cp11)"><path class="b" d="m113.1 33.2h7.7v1.2c-1 0-1.7 0.1-2 0.3-0.3 0.2-0.4 0.4-0.4 0.7 0 0.2 0.1 0.5 0.1 0.7l4.1 9.3 3.8-9c0.1-0.2 0.1-0.3 0.1-0.5q0-1.2-2.4-1.5v-1.2h6.5v1.2c-0.7 0.1-1.2 0.2-1.6 0.5q-0.6 0.5-0.9 1.2l-5.7 13.3h-0.9l-6.1-13.7c-0.2-0.5-0.5-0.8-0.8-1q-0.5-0.3-1.5-0.3"/></g><g clip-path="url(#cp12)"><path fill-rule="evenodd" class="a" d="m144.5 41.1h-11.3c0.1 2.4 0.5 4.1 1.4 5.1 1 1.1 2.2 1.7 3.7 1.7 2.2 0 4-1.2 5.3-3.7l1.1 0.5c-1.6 3.2-4 4.7-7.1 4.7-2.1 0-3.9-0.8-5.3-2.3-1.4-1.5-2.1-3.5-2.1-5.8 0-2.5 0.7-4.6 2.1-6.2 1.4-1.6 3.1-2.4 5.2-2.4q2.2 0 3.9 1.2c1.1 0.8 1.9 1.9 2.5 3.4 0.3 1 0.5 2.3 0.6 3.8zm-11.3-1.1h6.9c0.4 0 0.7-0.1 0.9-0.4 0.2-0.3 0.3-0.7 0.3-1.4 0-1.2-0.4-2.3-1.2-3.1-0.8-0.9-1.7-1.3-2.7-1.3-1.2 0-2.2 0.5-3 1.6-0.7 0.9-1.2 2.5-1.2 4.6z"/></g><g clip-path="url(#cp13)"><path class="b" d="m161.1 43.1c0.7 1.9 1.5 3.3 2.4 4 0.9 0.7 2 1.1 3.3 1.1 1.2 0 2.1-0.3 2.8-0.8 0.6-0.5 1-1.2 1-2 0-0.5-0.1-0.9-0.4-1.2-0.2-0.4-0.6-0.6-1-0.8-0.4-0.2-1.5-0.4-3.3-0.8-1.7-0.3-2.9-0.7-3.5-1.1-0.7-0.4-1.2-0.9-1.6-1.5-0.4-0.6-0.6-1.4-0.6-2.1 0-1.1 0.4-2.2 1.1-3.1 1-1.2 2.4-1.8 4.1-1.8 1.4 0 2.6 0.4 3.8 1.3l1.1-1.2h0.7l0.4 5.6h-1.1c-0.5-1.6-1.2-2.8-2-3.5-0.8-0.7-1.9-1.1-3.1-1.1-1.1 0-1.9 0.3-2.5 0.8-0.6 0.5-0.9 1.2-0.9 1.9 0 0.7 0.3 1.2 0.8 1.7 0.5 0.5 1.6 0.8 3.2 1.1 1.9 0.3 3.1 0.6 3.6 0.8q1.4 0.4 2.1 1.5c0.5 0.7 0.7 1.5 0.7 2.5 0 1.4-0.5 2.5-1.6 3.5-1.1 1-2.5 1.4-4.1 1.4-1.5 0-3-0.5-4.3-1.5l-1.2 1.4h-0.9l-0.3-6.2"/></g><g clip-path="url(#cp14)"><path class="b" d="m194.9 33.2h7.5v1.2h-0.7c-0.7 0-1.1 0.1-1.3 0.3-0.2 0.2-0.4 0.4-0.4 0.7 0 0.1 0 0.3 0.1 0.4l4.4 9.4 3.3-7.8c0.2-0.6 0.4-1.1 0.4-1.6 0-0.4-0.2-0.7-0.5-1-0.3-0.2-1-0.4-1.9-0.4v-1.2h6.5v1.2c-1.2 0.1-2.1 0.7-2.5 1.7l-5.9 13.5c-1 2.3-2 3.9-3 4.7-1 0.9-2.1 1.3-3.2 1.3-0.8 0-1.5-0.2-2-0.7-0.5-0.5-0.8-1-0.8-1.7 0-0.5 0.2-0.9 0.5-1.2 0.3-0.3 0.7-0.5 1.2-0.5 0.4 0 0.8 0.1 1.1 0.4 0.3 0.3 0.4 0.6 0.4 1 0 0.1 0 0.3-0.1 0.5 0 0.2-0.1 0.3-0.1 0.4 0 0.3 0.2 0.4 0.5 0.4 0.4 0 0.8-0.1 1.2-0.4 0.5-0.3 0.9-0.7 1.3-1.3q0.6-0.9 2.1-3.9l-5.9-12.7c-0.2-0.4-0.5-0.8-0.8-1-0.3-0.2-0.8-0.4-1.4-0.4"/></g><g clip-path="url(#cp15)"><path class="a" d="m64.6 0h6.1l8.6 14v-14h4.8v22.7h-5.1l-9.6-15.8v15.8h-4.8"/></g><g clip-path="url(#cp16)"><path class="b" d="m61.7 26.1h10.3v1.2h-1.7c-0.6 0-1 0.1-1.3 0.3-0.2 0.2-0.4 0.5-0.4 0.9v12.5c0 1.5 0.1 2.6 0.4 3.3 0.4 1.1 1.1 2 2.1 2.6 1 0.7 2.3 1 3.9 1 2.2 0 3.9-0.6 5.1-1.7 1.2-1.2 1.8-2.7 1.8-4.7v-9.8c0-1-0.1-1.8-0.2-2.3q-0.2-0.8-0.6-1.2c-0.3-0.3-0.6-0.5-1-0.6-0.4-0.1-1.1-0.2-2-0.2v-1.2h9.4v1.2h-0.7c-1 0-1.8 0.3-2.3 0.8-0.5 0.6-0.8 1.4-0.8 2.5v10.6c0 2.7-0.8 4.7-2.3 6.1-1.7 1.6-4 2.4-6.8 2.4-2.4 0-4.4-0.3-5.8-1-1.4-0.7-2.4-1.7-3.1-3-0.5-1-0.7-2.2-0.7-3.7v-13.5c0-0.4-0.1-0.7-0.4-0.9q-0.4-0.3-1.2-0.3h-1.8"/></g><g clip-path="url(#cp17)"><path class="b" d="m187.3 19.2c-0.5 0.1-1 0.2-1.5 0.2-1.7 0-2-0.8-2-2.7v-7.5h3.5v-3.3h-3.5v-4.9l-4.8 0.9v4h-2.2v3.3h2.2v8.1c0 4.1 1.6 5.9 5.5 5.9 0.9 0 1.8-0.1 2.8-0.3"/></g><g clip-path="url(#cp18)"><path class="a" d="m193.8 42.9c-0.1 1.6-0.4 2.8-0.9 3.5-0.5 0.7-1.2 1.1-1.9 1.1-0.6 0-1.2-0.2-1.6-0.7-0.4-0.5-0.6-1.2-0.6-2v-10.2h4.9v-1.4h-4.9v-6.5h-1.1c-0.1 2.2-0.6 3.9-1.6 5.1-0.7 0.8-1.6 1.4-2.9 1.6v1.2h2.8v10.7c0 1.2 0.4 2.1 1.1 2.8 0.7 0.7 1.8 1.1 3.1 1.1 1.4 0 2.6-0.5 3.5-1.5 0.9-1 1.4-2.6 1.4-4.7"/></g><g clip-path="url(#cp19)"><path class="b" d="m157 32.6c-2.7 0-5 3.2-6 6.8v-6.5l-5.7 0.3v1.2h1.4c0.6 0 1.1 0.2 1.4 0.5 0.3 0.4 0.5 0.9 0.5 1.7v10c0 0.3-0.1 0.5-0.4 0.7q-0.4 0.3-1.2 0.3h-1.6v1.2h9.8v-1.2h-2c-0.6 0-1.1-0.1-1.4-0.3-0.3-0.2-0.4-0.5-0.4-0.9v-2.9c0-3 1.3-8.1 3.8-8.1 0.7 0 0.6 1.1 1.9 1.1 1.1 0 1.9-0.8 1.9-1.9 0.1-1.2-0.9-2-2-2z"/></g><g clip-path="url(#cp20)"><path class="b" d="m0 0v22.7c0 33.4 29.8 47.3 29.8 47.3 0 0 29.8-13.9 29.8-47.3v-22.7"/></g><g clip-path="url(#cp21)"><path class="c" d="m1 1h57.8v21.7h-57.8z"/></g><g clip-path="url(#cp22)"><path class="d" d="m49 44.8c0-1.9-0.3-3.8-0.8-5.5-5.2 3.4-10.4 4.3-13.4 2.5 0.2-0.2 0.3-0.5 0.3-0.8 0-0.7-0.6-1.3-1.3-1.3-0.3 0-0.6 0.1-0.8 0.3-1.9-3.1-1-8.2 2.4-13.4-1.8-0.5-3.7-0.8-5.5-0.8-1.8 0-3.7 0.3-5.5 0.8 3.4 5.2 4.3 10.4 2.4 13.4-0.2-0.2-0.5-0.3-0.8-0.3-0.7 0-1.3 0.6-1.3 1.3 0 0.3 0.1 0.6 0.3 0.8-3.1 1.9-8.2 1-13.4-2.5-0.5 1.8-0.8 3.7-0.8 5.5 0 1.9 0.3 3.8 0.8 5.5 5.2-3.4 10.4-4.3 13.4-2.5-0.2 0.2-0.3 0.5-0.3 0.8 0 0.7 0.6 1.3 1.3 1.3 0.3 0 0.6-0.1 0.8-0.3 1.9 3.1 1 8.2-2.4 13.4 1.8 0.5 3.7 0.8 5.5 0.8 1.9 0 3.7-0.3 5.5-0.8-3.4-5.1-4.3-10.3-2.4-13.3 0.2 0.2 0.5 0.3 0.8 0.3 0.7 0 1.3-0.6 1.3-1.3 0-0.3-0.1-0.6-0.3-0.8 3.1-1.9 8.2-1 13.4 2.5 0.5-1.9 0.8-3.7 0.8-5.6z"/></g><g clip-path="url(#cp23)"><path class="a" d="m33.3 44.8c0 1.9-1.5 3.5-3.5 3.5-1.9 0-3.5-1.6-3.5-3.5 0-1.9 1.5-3.5 3.5-3.5 2 0 3.5 1.6 3.5 3.5z"/></g><g clip-path="url(#cp24)"><path class="e" d="m11.6 14.3c-1.5-1.1-3.3-1.1-3.7-1.1 0.4-0.7 0.6-0.8 1.3-1.2-2.3 0-2.6-0.6-2.7-1.2 0.6 0.1 1.3-0.1 1.6-0.4-1.7-0.1-2.2-1.2-2.4-1.6 1.3 0 1.3-0.7 1.1-1.1-0.1-0.3-0.6-0.6-1-0.4-0.4 0.1-0.8 0.6-1.2 0.7-0.3 0-0.4-0.4-0.4-0.6-0.4 0-0.8 0.2-1.1 0.5 0.1-1.5 1.7-2.1 2.7-1.9 0 0 0-0.6-0.3-0.8-0.3-0.3-0.7-0.3-1-0.5 0-0.3 0-0.6 0.3-0.7-0.3-0.5-1.2-0.5-1.2-0.5 1.8-1.3 3 0.4 3.4 1.7 0.5-0.6 0.5-0.9 0.5-1.3-0.1-0.4-0.4-0.6-0.4-0.8 0-0.3 0.4-0.2 0.4-0.2 0-0.5-0.4-0.9-0.8-1 0 0 1.5-0.1 2 1.4 0.5 1.4-0.2 2.3-0.2 2.3 0 0 0.5 0.1 0.8-0.2 0.2-0.3 0.1-0.7 0.4-0.9 0.3-0.5 0.6 0 0.6 0 0.3-0.3 0.1-0.9 0-1.1 0 0 0.8 0.5 0.7 1.4-0.1 0.6-0.7 1.1-0.9 1.4-0.2 0.3-1 1 0.2 3.1 0.7 1.3 1.4 1.8 1.8 1.9-0.3 0.4-0.7 1.7-0.5 3.1z"/></g><g clip-path="url(#cp25)"><path class="e" d="m5.8 17c-1.4 0.1-3.9 0.7-2.6 3.3 0-0.6 0.2-1.1 0.5-1.3 0.1 0.4 0.4 0.5 0.6 0.3 0.2-0.1 0.5-0.6 0.7-0.8 0.2-0.2 0.6-0.3 1-0.1-1.2 1.9 0.2 3.8 1.2 3.7-0.6-0.4-0.6-1-0.6-1.2 0 0 0.4 0.1 0.5-0.2 0.1-0.2-0.1-0.7 0.1-1.2 0.1-0.3 0.4-0.4 0.6-0.4 0.4 0.1 0.5 0.4 0.5 0.7 0 0.4-0.2 0.7-0.2 0.7 0.6 0.5 2.3-0.1 3.4-1 0 0.3 0 0.8-0.3 1.2 0.9 0.2 2.5-0.8 3-1.7 0.1 0.4 0 1.3-0.5 1.8 0.7 0.2 2.6-0.4 4.1-1.9 0.1 0.8 1.3 2 2.7 1.4 0 0-0.6-0.4-0.6-0.8 0-0.8 0.9-1.4 2-1.9 1.3-0.6 3.4-0.8 5.5-1.8 3.9-1.9 4.6-3.6 7.8-3.6 1.4 0 2.8 0.3 3.5 1.5 0.7 1.2 0.5 2.5 1.3 3.3 0.8 0.8 2.2 0.2 2.9 0 1.9-0.6 4.6-1.7 6.3-1.8 1.7-0.1 2.1 1.1 2.1 1.2q0.1 0.6-0.3 0.6c-0.6 0-1.6-0.3-2.2 0-0.8 0.5-0.6 1.6-0.6 1.6 0.2-0.3 0.7-0.9 1.3-0.8 0 0 0.1 0.7 0.6 0.4 0.3-0.2 0.7-0.6 1.4-0.5-0.6 0.6-1.9 2.8-0.1 3.7-0.3-0.4-0.3-1.1-0.1-1.4 0 0 0.5 0.3 0.8-0.1 0.1-0.2-0.1-0.7 0.1-1.2 0.1-0.4 0.5-0.6 0.5-0.6 0.1 0.5 1 1.9 3.3 1.8-0.5-0.2-0.8-0.6-0.9-0.8 0.3-0.2 0.4-0.6 0.1-0.7-0.3-0.1-0.8 0-1-0.4-0.3-0.4-0.2-1-0.2-1 0.8 0.3 2.7 1.1 3.5-0.6-0.2 0.2-0.9 0.4-1.3 0.3 0-0.2-0.3-0.8-0.7-0.8-0.5 0-0.9 0.1-1.4 0.2-0.4 0-0.6-0.1-0.7-0.3-0.1-0.2 0-0.4 0.1-0.5 0.2-0.3 0.6-0.4 0.6-0.4-0.3-0.6-1.3-0.3-1.5-0.3 0-0.3 0.4-0.9 1-1.2-0.2-0.4-1-0.8-2.2-0.6 0.1-0.5 0.6-1 0.9-1.2-0.6-0.4-2.2-0.2-3.5 0.8 0.1-0.3 0-1.2-0.4-1.6 0 0-1.8 2.2-3.5 2-1.8-0.3-1.5-2.4-1.5-2.4 0 0 3.5 0.5 5.1-0.2 1.7-0.8 1.7-2 3.1-2.7 1.1-0.6 2.4-0.1 2.4-0.1-0.2-1.2-2.4-2.1-4.1-0.3 0 0 0-2.7-4.2-2.5-1.5 0.1-4.3 0.9-6.9 1.4-2.5 0.5-6.2 0.7-7.8 0.7-1.6 0-3.1-0.3-3.1-1.4 0-1.1 1.1-1.2 1.9-1.2 1.2 0 2.9 0.7 4.2 1.2 1 0.3 1.9 0.3 2.4 0.3 1.4 0 3.2-0.7 4.1-1.1 1-0.3 1.7-0.5 3.5-0.4-0.5-0.7-2.5-1.5-4.8-0.3-0.2-0.4 0.2-1.1 1.1-1.3-0.4-0.3-1.7-0.6-3.3-0.6-2.5 0.1-3.3 1.2-5.7 1.1-2.4-0.1-4.6 0.3-4.6 2.1 0 1.4 1.8 2.6 4.6 2.7-0.1 0.2-0.5 0.5-0.6 0.6 1 0.2 2.4 0 4.3-1.2 0 0.2-0.1 0.7-0.3 0.9 0.7 0 1.9-0.3 3.4-1.3 0 0.2 0 0.6-0.4 0.9 1.8-0.1 2.7-1 3.9-1.4 1.6-0.5 6.7-1.7 6.7 1.2 0 0.7-0.3 1.7-2.1 1.7-1.8 0-4.8-0.8-5.4-0.9-0.6-0.1-1.2-0.2-2.8 0-1.4 0.2-12.3 1.8-14.1 2 0 0.6 0 2.4 1 3.2-0.8 0.4-1.6 0.6-3 0-0.1 0.5 0 1.8 0.7 2.6-0.6 0.2-1.7 0.5-2.8-0.2-0.4 0.8-1.6 2.9-4.8 2.3 0.2-0.2 0.8-1.3 0.8-1.5-0.6 0.5-2.3 1.4-5.4 1-0.9-0.1-1.9-0.4-2.2-1-0.3-0.6 0.1-1.6-0.1-2.1-0.4-1.1-1.6-1-1.6-1 0.1 0.1 0.6 0.4 0.6 0.8 0 0-0.5 0-0.5 0.5 0 0.7 0.2 1.5 0.2 1.5-1.3-1.3-3.5-2.7-4.2-0.4 0.3-0.3 0.6-0.5 1-0.5 0 0-0.3 0.4 0.3 0.8 0.2 0.2 0.8 0 1.1 0.1 0.5 0 0.8 0.6 0.8 0.6z"/></g><g clip-path="url(#cp26)"><path class="f" d="m34.7 16.4c0.3 0.2 0.1 0.4 0 0.5-0.1 0.1-1.6 1.1-2.5 0.8-0.7-0.2-0.7-1.5-1.7-1.9-0.8-0.3-1.7 0.3-1.7 0.3 0.3 0 0.8 0.2 0.9 0.2 0 0-0.2 0.3 0.1 0.4 0.3 0.2 0.5 0.1 0.7 0.3 0.3 0.3 0 0.9 0 0.9-2.1-1.7-4.1-0.5-4.2 0.5 0.2-0.1 0.7-0.4 1-0.3 0 0 0 0.3 0.3 0.4 0.3 0.1 0.7-0.2 1.1-0.1 0.5 0.1 0.9 0.5 0.9 0.5-0.7 0.1-2.1 1.2-1 2.9 0-0.3 0-0.7 0.2-0.8 0 0 0.4 0.2 0.6 0 0.2-0.2 0.3-0.7 0.6-1.1 0.3-0.4 0.7-0.4 0.7-0.4-0.2 0.9 0.7 2.8 2.2 2.4-0.3-0.2-0.6-0.6-0.6-0.8 0 0 0.4-0.2 0.4-0.4-0.1-0.4-0.7-0.3-0.7-0.8 0-0.3 0.3-0.5 0.7-0.5 0.9 0 0.8 1.2 0.8 1.2 0.6-0.1 1.5-0.8 1.7-1.5 0.3 0.2 0.5 1 0.4 1.5 0.8-0.3 1.4-0.9 1.4-3 0.6 0.9 2.2 1.4 3.4 0.6-1.5-0.2-1.8-1.8-1.9-2.1-0.1-0.3-0.2-1.5-0.9-2.2-1-1-3.2-0.9-4.5-0.5-0.3 0.1-0.7 0.3-0.7 1 0 0.6 0.1 1.2 1 1.6 0.8 0.1 1.1 0.3 1.3 0.4z"/></g><g clip-path="url(#cp27)"><path fill-rule="evenodd" class="f" d="m24.5 7.5c-0.1 1.2 0.3 2 0.3 2-0.3 0.2-0.9 0.1-1.4-0.2-0.2 0.8-0.2 3.2 0.5 4.1-0.5 0.1-1.6 0-2.3-0.7-0.3 0.5-0.6 1.8 0.1 3.1-0.5 0.1-1.4 0-2.1-0.8-0.4 1.1-1.5 2.9-3.6 2.7 0.3-0.5 0.7-1.5 0.5-2.1-0.2 0.5-2.2 1.7-3.3 1.4 0 0 0.6-0.6 0.9-1.2 0.2-0.3 0.3-0.8 0-0.9-0.2-0.2-0.4-0.1-0.7 0.2-0.3 0.3-0.6 1-0.6 1-0.7-1-1.1-3.3 0.1-5.2-0.4-0.1-1.9-0.9-1.7-1.8 0.4 0.2 1.7 0.1 2.3-0.8-1.2 0-1.8-1.2-1.8-1.8 0.8 0.3 2.3 0.6 3.3-0.9-0.4 0-1.1-0.3-1-0.9 0.9-0.1 1.9-1.4 2-2.5 0-0.7 1-0.3 1.1 0.7 0.5 0.1 0.9-0.8 0.7-1.4 0.4 0 1.8 0.3 2 1.7 0.7-1.1 1.7-1.2 2.2-1.2-0.2 0.4-0.5 1.4 0.2 1.6 0.5 0.2 1.1-0.2 1.2-0.8 0.6 0.4 0.8 1.8 0.3 2.3 0 0 1-0.1 1.5 0 0.3 0.1 0.2 0.4 0.2 0.5-0.3 0.4-0.7 1-0.9 1.9zm-7.1-0.4c0.7 0.6 1.2 0.2 1.1-0.1-0.1 0-0.4-0.1-0.5-0.3-0.3-0.2-0.4-0.4-0.5-0.6-0.1-0.1-0.2 0-0.3 0.1-0.2 0.2-0.1 0.6 0.2 0.9zm2.7 4.3c-0.2 0.1-0.7 0.2-1.4-0.1-0.7-0.4-0.7-0.7-0.6-0.9 0.1-0.3 0.5-0.1 0.9-0.1 0.4 0.1 0.7-0.2 0.8-0.4 0.1-0.3-0.2-0.5-0.4-0.6 0.4 0.7-0.9 0.4-1.2 0.3-0.2-0.2-1.2-1-0.4-1.2-0.1-0.1-0.5-0.2-0.7 0.1-0.2 0.2-0.1 0.6 0.1 0.9 0.2 0.3 0.5 0.5 0.4 0.8 0 0.1-0.3 0.4-1 0-0.7-0.3-0.9-0.8-0.9-1-0.2 0.2-0.5 0.8 0.3 1.4-0.3 0.5-0.2 1.8 0.4 2.1-0.1-0.3-0.1-1.2 0.2-1.9 0.1 0 0.4 0.2 0.6 0.2-0.2 0.4-0.4 1-0.4 1.3 0.4-0.5 0.8-0.9 1-1 0.1 0.1 0.3 0.2 0.4 0.3-0.4 0.7-1.1 1.2-1.4 1.3 0.7 0.4 1.7-0.4 2-0.9 0.9 0.3 1.3-0.3 1.3-0.6zm1.3-3.3c-0.3 0-0.4 0.1-0.8 0-0.2 0-0.5-0.2-0.6-0.3-0.3 0.1-0.3 0.7 0.6 0.9q0.7 0.2 0.9-0.3c0.1-0.1 0.1-0.3-0.1-0.3z"/></g></svg>