<svg version="1.2" xmlns="http://www.w3.org/2000/svg" viewBox="0 0 161 161" width="161" height="161"><style>.a{fill:#c79f2a}</style><path fill-rule="evenodd" d="m0.3 80.4c0-44.3 35.8-80.1 80.1-80.1 44.2 0 80.1 35.8 80.1 80.1 0 44.2-35.9 80.1-80.1 80.1-44.3 0-80.1-35.9-80.1-80.1z"/><path fill-rule="evenodd" class="a" d="m55.4 70.1c2.3 4.4 0.6 9.2-1.1 12.8-0.8 2.3-1.6 4.3-1.6 4.3l-0.8-0.3c0.6-1.1 0.9-2 1.3-3 1.3-3.3 2.2-6.9 0.3-10.3-1.5-3-4.5-5.2-7.9-5.2-1.9 0.1-3.7 0.6-5.4 1.6-0.5 0.7-1 2.8-2 3.7-1.3 1.1-2.2 2.9-2.4 3.2-0.3 0.1-0.7-0.3-1-0.4 1.3-1.6 2.2-3.3 1.9-4-0.7-0.2-3.1 3.1-3.1 3.1 0 0-0.3-0.3-0.5-0.4 0.8-1.3 1.4-2.3 2-3.6 1-1.2 2.7-1.5 3.9-2.1 2.2-2.2 4.9-3.4 7.9-3.9 3.6-0.4 6.8 1.4 8.5 4.5zm22-18.1c1.5-0.1 2 0 4.3-0.1 0.9 0 1.4-1.6 1.7-2.5 0.3 0.1 0.7 0 0.9 0.2-0.7 1.3-2.5 7-4.4 7-4.1-0.1-5.3 0.4-6.8 1 0.7-1.4 3.9-6.3 3.4-10.7-0.1-1.5-1-2.8-1.9-3.7-0.7 0.7-4.9 6.6-7.7 7-4.2 0.4-8.9-0.1-13.1 0.6-3.7 0.9-4.6 5.8-8.3 6.6-2.9 0.2-7.2-0.1-9 1.7-1.4 1.2-2.6 3.4-2.7 4.8 1.2-1.7 3-2.8 4.9-3.1 5.1-0.2 9.9-0.3 14.7-0.4 1-0.1 1.5-1.2 2-1.3 0.3 0 0.4-0.1 0.3 0.3-0.4 0.6-2.6 4.2-4.6 4.5-5.3 0.2-10.2 0.4-15.3 0.7-1.6 0.1-2.8 1.4-3.9 2.5h-0.9c0.4-1.5 5-10.8 6.5-12.4 2.7-2.9 7.1-1.5 10.4-2.1 2.8-1.1 7.3-6.4 7.9-6.9 3.4 0 11.1 0 11.4-0.4 4-0.8 7.7-3.6 10.1-7.1 3.2 3.1 2 10 0.1 13.8zm42.3 7.6c-0.7 2.6-1.1 6.4-4.1 6.3-6.2-0.3-10.8-0.4-17-0.8-2.9-0.2-3.2 1-3.8 2.1-0.4 0.3-1.1-0.2-1.1-0.2 1.7-3.2 2.5-6.7 7.8-6.2 4.3 0.5 6.8 0.8 11.2 1.1 2 0 5.2 0.8 6-2.5q0.1-0.1 0.2-0.1 0.2 0 0.3 0 0.2 0.1 0.3 0.1 0.1 0.1 0.2 0.2zm2.7 17.4c1.2-0.1 2.5-0.7 3.1-3 0.3 0 0.8 0.2 0.8 0.6-0.5 1.9-1.4 6.4-4.6 6.1-7.7-1.1-13.1-1.8-20.6-3.1-2.6-0.6-3.7 1.8-3.7 1.8-0.3 0.2-0.8 0.3-1-0.2 0.2-0.5 1.1-2.2 2.2-4 1.6-2.1 5-1.2 5-1.2 0 0 16.9 2.8 18.8 3zm1.4 12.7c0.2-0.4 1 0 0.9 0.2 0.1-0.2-1.7 6.1-5.5 5-1.7-0.6-15.2-4.8-15.2-4.8-1.8-0.8-2.8 1.4-2.8 1.4-0.3 0.1-0.9 0.4-1.1-0.4 0.7-0.9 3.4-4.2 3.4-4.2 1.1-1.3 3.3-0.4 5.2 0.3 4.4 1.5 6.5 2.4 10.6 3.8 3.7 1.4 4.2-0.3 4.5-1.3zm0.9 0.2q0 0 0 0 0 0 0 0z"/><path fill-rule="evenodd" class="a" d="m110.1 41.8c-0.6 2.6-1.1 7.6-4.4 7.7-3.1 0-11.1-0.3-14 0.6-1 0.3-2.2 3.3-2.3 4-0.3 1.3-1.6 4.8-1.9 9.9-0.3 7.6 3.1 13.3 4.8 18.9 2.5 8.3 3.4 12.8 3.5 21.2 0.2 6.7-0.6 12.9-1.7 18.2-1 4.8-2.2 8.7-4.9 14.3-2.6 5.3-6 10.3-8 12.8-21.8-0.4-41.5-10-55.2-27-2.3-3.1-6.7-9.7-6.7-9.7 11-6.5 14.8-9.3 33.9-23.2 14.5-3.2 19.9-4.5 33.8-9-3.3-8.2-1.7-21.9 4.7-34 1-1.1 2.4-1.5 3.8-1.6 4.1-0.1 7.7-0.1 11.8 0 1.2-0.5 1.4-2 1.7-3.1 0.3-0.1 0.8-0.3 1.1 0zm-54.7 50.9c0 0 37.4 25.6 37.5 25.6 1.7-11.7 0.6-23-4.2-34.3-9.5 2.3-18.3 4.6-33.3 8.7zm-32.9 21.6c5.2 9.5 18.9 21.9 30.6 25.5 0-23.6-1.1-32.6-1.1-45.3 0 0-23 15.1-29.5 19.8zm32.7-17.9c0 0 1.3 41.7 1.6 44.7 8.2 2.7 16.7 4.2 25.6 3.9 6.2-7.4 9.7-21.1 9.6-22.7zm51.6 2.3c3.2 2.5 5.4 4.2 8.1 6.4 2.1 1.5 3.4 0.6 3.6 0.2 0.5 0.2 1.1 0.2 0.7 0.7 0.5-0.5-4.2 4.5-6.6 2.3-3.1-2.4-4.8-3.9-7.9-6.3-1.4-1.3-2.4 0-3.1 0.5-0.4 0-0.9 0-0.9-0.7 1.8-1.3 4-4.5 6.1-3.1zm-29.3-87c-0.4 1.5-1.9 2.2-3.2 2.8 1.3-0.1 2.9-0.6 4.2-0.6-0.2 0.6-0.5 0.9-0.7 1.3-1.7 0.3-9.3 1.2-11.7 1.7-0.2 1.2 2.1 3.9 4.2 3.7 3.1-0.1 6.7-3.5 6.9-3.7 0.3 0.2-0.7 2.3-1.3 3.4-2.7 0.9-6.8 1.3-8.1 1.6-2.5 0.6-8.2-2.3-5.5-8.7 1.8-4.1 7.1-3.8 11.3-4.7 1.5-0.3 4.9 0.1 3.9 3.2zm-9.1-1c-1.6 1.6-2.9 3.4-2.4 5.6 2.3-0.3 5.1-1.5 6.4-2.8 2.7-3.1-1.3-5.3-4-2.8zm-7 13c-0.5 0.4-3.5 1.8-3.5 1.8-0.4-0.3-0.7-0.8-1.2-1.1-1.3 1.5-2.5 2.8-4.4 3.6-2.2 1.1-4.1 2.9-6.9 2.1-1.4-0.5-2.7-1.6-3.3-3.2-0.7-2.1 0.6-4.8 2.1-6.6-1.1 0.3-2.2 1.2-3.3 1.6-0.1-0.4 0-0.9 0-1.4q0.9-0.5 1.9-1 0.9-0.4 1.8-0.9 1-0.4 1.9-0.9 1-0.4 1.9-0.8c0.4-0.1 0.6 0.1 0.3 0.5-1.7 2.1-2.7 4.8-2.7 7.3 0 1.7 3.6 5.1 6.2 2.7 2-1.9 2.6-4.3 2.6-6.8 0-2.2-1.1-4.1-1.8-5.8 0.8-0.4 3.7-2 3.7-2 0.9 3.1 1.7 6.7 4.7 10.9zm-19.8 5.8c1.6 3.5-0.4 6.7-3 9.6-1.8 1.8-3.4 2.9-5.4 4.1-1.8 2.6-3.1 5.3-4.6 8-2.1 2.6-6.3 2.8-7.3 6.1 0.9 0.7 3 1.7 3 1.7 0 0-1.2 2.4-2 3.5-4.4-3.5-6.5-4.2-10-5.5-0.1-0.2 1.6-3.6 1.6-3.6h1.1c0 0 0.1-1.8 0.4-2.7 0.4-1.4 1-1.8 1.8-3.8 0.6-1.4 1.8-3 3.4-3.5 1-0.1 4.8 0.1 3.8 7 0.6-0.8 7-2.9 6.1-5.1-2.3-3.3-4.9-5.4-7.8-7.6-0.1-0.1 2.8-3 2.8-3 0 0 0.6 0.9 1.1 0.6 0.6-1.4 1.2-2.4 2.2-3.4 1.1-1 1.8-2.2 2.8-3.4 1.7-1.7 3.9-3 6.4-2.2 1.8 0.5 2.9 1.5 3.6 3.2zm-11 1.7c-1 1.7-1.4 4.5 0 7.7 1.5 3.6 6.8 1.5 7.3-1.1 1-2.3 1-5.5-1-7.3-2.1-1.9-5-1.4-6.3 0.7zm-13.1 16.8c-1.2 1.6-0.8 4.5 0.2 6.1 0.7 1.4 1.8 2.4 3 2.8 1.8-2.8 2.3-6.5 0.7-8.8-0.4-0.6-2.5-2-3.9-0.1zm4.3 16.8c-0.1 1.7-0.4 4.5-0.4 4.5 0 0-1 0.1-1.4 0.2 1.2 2.9 0.6 6.5 0.6 9.4 0 1.6-1.1 4.1-3.6 4.5-2.6 0.5-6-1-7.1-5.2-0.3 1.3-0.3 3.9-0.3 3.9l-1.3-0.6 0.9-8.6c0 0 0.4-0.4 0.7 0 0.6 3 3 6.1 5.5 6.4 5 0.8 4.8-3.9 4.4-5.2-0.7-1.4-1.5-3-3.1-4.3-1.5-1.1-3.9-2-6.8-2 0.1-1.5 0.4-4.3 0.4-4.3 3.6 1.1 7 1.2 11.5 1.3zm0.6 27.7c0.8 2.3 0.6 3.9 1 6 0.6 0.5 6.2-1 6.2-1 0 0 0.4 2.6 0.5 4-7 1-12.2 2.2-17.4 3.6-0.4-1.4-1-4.1-1-4.1l1-0.5c-0.3-1.2-1.1-1.9-1.2-2.5-0.5-2.7-2.4-6.4-1-8.8 1.1-2 3-2.7 5.3-2.7 4 0.1 6 4.5 6.6 6zm-9.4-1c-1.1 1-1.9 2.4-1.7 3.7 0.5 3.3 5 4.4 6.4 4.4 1.3 0 2.6 0.1 3.5-0.8 0.8-0.9 1.5-2.8 0.9-4.5-1.1-2.7-6.5-5.2-9.1-2.8zm86.3-80c0.1 0.1 0 0.3 0 0.3-2.6 0.6-6.7 1.4-7.6 4.4-0.5 1.6-0.5 2.5 0 3.4 1 1.9 3.6 2.3 5.9 1.5 2.8-0.9 5.3-4.5 6.1-8.3 1.2 0.3 3 0.7 3.7 0.9-1.7 4.5-2.8 9-2.9 11.2-1-0.2-4-1-4-1l0.1-1.7c-1.9 0.5-3.2 0.7-5 0.3-1.6-0.3-8.2-1.4-8.6-4.3-0.2-1.7 0-3 1-4.5 1.5-2.1 4.5-2.5 6.3-2.5-1.4-0.5-4.4-0.7-4.4-0.7l0.7-1.2c0 0 5.8 1.4 8.7 2.2zm17.7 7.3l-0.4 1.5c2.9-0.8 7.7 3.8 8.7 4.3 2 1 4.9 7.5-2.7 8.9-1.2 0.2-3.2-0.6-3.5-0.3-0.2 0.3 3.6 2.4 3.6 2.4l-1.7 0.4-7.5-5.5c0.1 0-0.1-0.3 0.3-0.2 2.5 0.9 6.4 2 9.3-1.3 3.5-4.1-2.2-7.9-5.8-6.9-1.3 0.4-5.3 2.4-7.4 5.9l-3.4-2.3c3.1-3.1 6.5-7.3 6.9-9.2 1.6 0.9 3.6 2.3 3.6 2.3zm19 15.6c-2.5 1.5-5.2 4-8.9 7.7-0.9-0.9-3-3.1-3-3.1 2.8-2.4 6.4-4.4 8-7.8 0-0.1 0.2-1 0.6-0.5 0.5 0.5 3.3 3.7 3.3 3.7zm4 5.6l3.7 6.7c-5.9-3.3-9.8-1.3-10.7 0.2-3 5.2 6.3 7.8 9 6.8 3.3-1.3 2.5-3.5 1.9-4.4 1 0.2 3 2.1 3 2.1 0.4 1.7 0.1 3.1-0.9 4.5-1.4 1.8-3.1 1.9-5.4 1.8-3.1 0-6.8-4.4-9.5-8.8-1-1.9-1-4.6-0.2-5.7 2.8-4.2 8.6-0.6 9.8-0.1l-2.1-3c0.5-0.2 1 0 1.4-0.1zm10.7 24.2c1.2 2.5 1.6 5.3 1.5 8.2-0.1 1.5-0.6 3-2.1 3.5-2.1 0.6-3.2-3.4-3.9-4-0.2 0 0.9 4.9 0.9 4.9-0.5 0-1.3-0.8-1.3-0.8-0.5-3.9-1.3-8-2-11.7-1.8-0.5-3.8 2.7-3.6 4.5 0.1 2.1 2 4.9 3.5 6.9-1.1-0.2-2.1-0.9-3.1-1.3-1.5-3.8-2.3-9.3-1.1-12.2 0.5-1.4 2-2.5 3.5-2.7 2.8-0.2 6 1 7.7 4.7zm-4-0.1c-0.7-0.2-1.5-0.2-2.1 0 0.4 2.5 1.1 5 2.9 6.9 3.1 1.7 5-0.9 2.9-4-0.9-1.5-2.2-2.6-3.7-2.9zm5.9 17.8l-0.4 4.1c-0.4 0.1-1-0.1-1.2 0.3 0.1 0.4 0.5 1.4 0.5 2 0.2 4.2-0.3 10.9-4.4 10.1-3.8-0.6-3.7-4.6-3.9-6.2-2 1.9-4.4 3.9-6.1 5.9-0.6 0.7-0.9 2.4-1.5 2.3 0-0.3 1.2-6.5 1.2-6.5 1.6-1.9 6.9-5 6.9-9.3-1.1-0.5-3.6-0.9-3.6-0.9 0 0 0.6-3.4 0.9-4.3 3.5 1.3 7.6 2.1 11.6 2.5zm-7.9 2.9c-0.4 0.4-0.4 1.1-0.5 1.7-0.1 2.8 1.2 7.7 3.9 7.7 1.9 0 2.8-1.8 2.7-3.4-0.2-2.7-3.1-5.8-6.1-6zm-4.4 17l-1.7 3.8c-3.5-2-4.3 1.6-4.4 2.9 0 0.7 1.1 4.1 3.8 2 1.7-1.3 3.7-7.7 6.4-6.7 2.6 0.6 2.7 3.5 0.5 8.1-1.7 3.4-3.1 5.5-4.5 5.6-0.6 0.1-1.5 0.3-1.9-0.2 0.7-1.1 1.7-3.4 1.7-3.4q1.2 0.6 2.3 0c1-0.4 1.7-2.6 1.6-3.3-0.6-2.2-2-2.4-3-1.4-0.9 0.9-2 2.8-2.9 4.7-1.4 2.7-4.9 2.8-6.4-0.5-0.5-1.1 0.8-4.8 1.5-6.3 0.7-1.7 4.2-7.6 7-5.3zm-2.1 20.5c-0.7 0.8-3.2 4.1-3.2 4.1-0.8-1.4-3.7-3.7-9.4-7.7 0.4-0.5 2.8-3.5 2.8-3.5 0 0 3.7 4 6.8 6 1.3 0.9 1.8 0.8 2.6 0.7 0.6-0.1 0.8 0 0.4 0.4zm-10.3 8.1c1.1-0.8 3.2-2.8 3.2-2.8l0.2 1.3c0 0-1.9 1.8-2.6 2.7 0.5 0.7 1 1.4 1.8 1.8-0.7 0.6-3.7 3-3.7 3 0 0-1.5-2.1-1.5-2.1-1.4 1.3-2.8 2.6-4.1 3.8l-0.2-1.6c1.4-1.1 3.1-2.6 3.6-3.1-0.2-1.3-3.7-6.2-6.2-7.2-1.9-0.7-2.5 2.4-2.8 4.2l-1-2.5c0.5-0.7 1.1-1.2 1.9-1.9 1.5-1.4 3.2-2.3 5.1-2 2.9 0.4 6.3 6.4 6.3 6.4zm-18.2-1.3q-0.4 0.3-0.8 0.6-0.3 0.2-0.7 0.4-0.4 0.3-0.8 0.5-0.4 0.2-0.8 0.3c-0.7-0.2-0.1-1-1.9-0.9-1.5 0.1-4.7 1.1-5.9 3.2-0.6 1.6 0.4 3 1.1 4.3h0.2c1.8-3.3 6-4.8 8.4-5.8 1.4-0.6 3.7-0.4 5.2 1 1.3 1.3 1.5 2.7 1.4 4.5-0.1 2.7-3.3 4.9-3.3 5.1 0.2 0.1 4.5-2.5 4.5-2.5 0.2 0.5 0.1 1.5 0.1 1.5 0 0-5.3 2.4-7.6 3.7-0.4 0.1-0.7-0.1-0.7-0.5 2.1-2 3.4-4.6 3-7.5-0.4-1.4-1.6-3.1-3.1-3.5-2-0.3-3.6 1-4.7 2.6-0.5 0.9-1 2-1.2 3-1 2.8 0.7 5.6 1.6 8-1 0.7-1.6 0.8-2.6 1.3-0.7 0.3-0.9-0.3-1-0.7-1.4-3.8-3.3-7.2-4.3-11.2-0.2-4.4 7.9-8.6 13.2-7.9 0.2 0.2 0.6 0.3 0.7 0.5z"/></svg>