<svg
  class="w-full h-full"
  viewBox="0 0 32 32"
  fill="none"
  xmlns="http://www.w3.org/2000/svg"
>
<path
    d="M23.25 14.45C23.25 14.2564 23.1731 14.0708 23.0362 13.9339C22.8993 13.797 22.7136 13.72 22.52 13.72C22.3264 13.72 22.1407 13.797 22.0038 13.9339C21.8669 14.0708 21.79 14.2564 21.79 14.45V19.53C21.79 19.6627 21.7373 19.7898 21.6436 19.8836C21.5498 19.9774 21.4226 20.03 21.29 20.03H10.65C10.5174 20.03 10.3902 19.9774 10.2964 19.8836C10.2027 19.7898 10.15 19.6627 10.15 19.53V10.53C10.15 10.3364 10.0731 10.1508 9.93619 10.0139C9.79929 9.87696 9.61361 9.80005 9.42 9.80005C9.22639 9.80005 9.04072 9.87696 8.90382 10.0139C8.76691 10.1508 8.69 10.3364 8.69 10.53V20.79C8.69 20.9757 8.76375 21.1537 8.89503 21.285C9.0263 21.4163 9.20435 21.49 9.39 21.49H22.55C22.7357 21.49 22.9137 21.4163 23.045 21.285C23.1763 21.1537 23.25 20.9757 23.25 20.79V14.46V14.45Z"
    fill="#FDD20E"
  />
<path
    d="M30.32 23.7799L27.81 18.4599C27.7601 18.3536 27.7342 18.2375 27.7342 18.1199C27.7342 18.0024 27.7601 17.8863 27.81 17.7799L29.81 13.5399C29.9246 13.296 29.9756 13.027 29.9585 12.758C29.9413 12.489 29.8564 12.2288 29.7118 12.0013C29.5672 11.7739 29.3674 11.5867 29.1311 11.4571C28.8948 11.3275 28.6295 11.2597 28.36 11.2599H24.22V7.53994C24.22 7.11559 24.0514 6.70863 23.7514 6.40857C23.4513 6.10851 23.0444 5.93994 22.62 5.93994H9.32001C8.89567 5.93994 8.4887 6.10851 8.18864 6.40857C7.88858 6.70863 7.72001 7.11559 7.72001 7.53994V11.2499H3.63001C3.36048 11.2497 3.09525 11.3175 2.85893 11.4471C2.62261 11.5767 2.42286 11.7639 2.27822 11.9913C2.13358 12.2188 2.04874 12.479 2.03157 12.748C2.0144 13.017 2.06546 13.286 2.18001 13.5299L4.24001 17.8999C4.272 17.9671 4.2886 18.0406 4.2886 18.1149C4.2886 18.1893 4.272 18.2628 4.24001 18.3299L1.68001 23.7799C1.56546 24.0239 1.5144 24.2929 1.53157 24.5619C1.54874 24.8308 1.63358 25.0911 1.77822 25.3186C1.92286 25.546 2.12261 25.7332 2.35893 25.8628C2.59525 25.9924 2.86048 26.0602 3.13001 26.0599H11.63C12.0544 26.0599 12.4613 25.8914 12.7614 25.5913C13.0614 25.2913 13.23 24.8843 13.23 24.4599V24.4599V22.4599H18.77V24.4599C18.77 24.6701 18.8114 24.8781 18.8918 25.0722C18.9722 25.2664 19.0901 25.4427 19.2386 25.5913C19.3872 25.7399 19.5636 25.8577 19.7577 25.9381C19.9518 26.0186 20.1599 26.0599 20.37 26.0599H28.87C29.1395 26.0602 29.4048 25.9924 29.6411 25.8628C29.8774 25.7332 30.0772 25.546 30.2218 25.3186C30.3664 25.0911 30.4513 24.8308 30.4685 24.5619C30.4856 24.2929 30.4346 24.0239 30.32 23.7799ZM12.23 24.4599C12.23 24.6191 12.1668 24.7717 12.0543 24.8842C11.9418 24.9967 11.7891 25.0599 11.63 25.0599H3.12001C3.01859 25.0598 2.91885 25.034 2.83011 24.9849C2.74138 24.9357 2.66655 24.8649 2.61262 24.779C2.55868 24.6931 2.5274 24.5949 2.5217 24.4937C2.516 24.3924 2.53606 24.2913 2.58001 24.1999L5.13001 18.7999C5.23144 18.5858 5.28406 18.3519 5.28406 18.1149C5.28406 17.878 5.23144 17.6441 5.13001 17.4299L3.13001 13.0999C3.08606 13.0085 3.066 12.9075 3.0717 12.8062C3.0774 12.7049 3.10868 12.6068 3.16262 12.5209C3.21655 12.435 3.29138 12.3642 3.38011 12.315C3.46885 12.2659 3.56859 12.2401 3.67001 12.2399H7.67001V20.8299C7.67001 21.2543 7.83858 21.6613 8.13864 21.9613C8.4387 22.2614 8.84567 22.4299 9.27001 22.4299H12.17L12.23 24.4599ZM18.77 21.4599H9.32001C9.16088 21.4599 9.00827 21.3967 8.89575 21.2842C8.78323 21.1717 8.72001 21.0191 8.72001 20.8599V20.8599V7.53994C8.72001 7.38081 8.78323 7.2282 8.89575 7.11568C9.00827 7.00316 9.16088 6.93994 9.32001 6.93994H22.62C22.7791 6.93994 22.9318 7.00316 23.0443 7.11568C23.1568 7.2282 23.22 7.38081 23.22 7.53994V7.53994V20.8399C23.22 20.9991 23.1568 21.1517 23.0443 21.2642C22.9318 21.3767 22.7791 21.4399 22.62 21.4399V21.4399H18.77V21.4599ZM28.88 25.0599H20.37C20.2109 25.0599 20.0583 24.9967 19.9457 24.8842C19.8332 24.7717 19.77 24.6191 19.77 24.4599V24.4599V22.4599H22.62C22.8301 22.4599 23.0382 22.4186 23.2323 22.3381C23.4264 22.2577 23.6028 22.1399 23.7514 21.9913C23.9 21.8427 24.0178 21.6664 24.0982 21.4722C24.1786 21.2781 24.22 21.0701 24.22 20.8599V20.8599V12.2499H28.36C28.4614 12.2501 28.5612 12.2759 28.6499 12.325C28.7386 12.3742 28.8135 12.445 28.8674 12.5309C28.9213 12.6168 28.9526 12.7149 28.9583 12.8162C28.964 12.9175 28.944 13.0185 28.9 13.1099L26.9 17.4399C26.7986 17.6541 26.746 17.888 26.746 18.1249C26.746 18.3619 26.7986 18.5958 26.9 18.8099L29.45 24.2199C29.4906 24.3128 29.507 24.4145 29.4977 24.5154C29.4884 24.6164 29.4537 24.7133 29.3967 24.7972C29.3398 24.8811 29.2626 24.9492 29.1722 24.9951C29.0819 25.0411 28.9813 25.0634 28.88 25.0599V25.0599Z"
    fill="#010101"
  />
<path
    d="M12.343 15.887L14.268 14.158C14.366 14.0693 14.464 13.969 14.562 13.857C14.66 13.745 14.709 13.6143 14.709 13.465C14.709 13.297 14.6483 13.1663 14.527 13.073C14.4057 12.975 14.2633 12.926 14.1 12.926C13.904 12.926 13.75 12.9867 13.638 13.108C13.5307 13.2293 13.47 13.3787 13.456 13.556L12.406 13.479C12.42 13.2223 12.4737 13.0007 12.567 12.814C12.6603 12.6227 12.784 12.464 12.938 12.338C13.092 12.212 13.2717 12.1187 13.477 12.058C13.687 11.9927 13.9133 11.96 14.156 11.96C14.38 11.96 14.59 11.9927 14.786 12.058C14.982 12.1187 15.1523 12.212 15.297 12.338C15.4417 12.4593 15.5537 12.6133 15.633 12.8C15.717 12.9867 15.759 13.2037 15.759 13.451C15.759 13.6097 15.7427 13.7543 15.71 13.885C15.6773 14.011 15.6307 14.1277 15.57 14.235C15.514 14.3377 15.4463 14.4333 15.367 14.522C15.2877 14.6107 15.2013 14.697 15.108 14.781L13.603 16.076H15.801V17H12.343V15.887ZM17.6546 13.997H17.9976C18.0956 13.997 18.1912 13.99 18.2846 13.976C18.3779 13.962 18.4619 13.9363 18.5366 13.899C18.6159 13.857 18.6789 13.801 18.7256 13.731C18.7722 13.6563 18.7956 13.5607 18.7956 13.444C18.7956 13.2947 18.7349 13.171 18.6136 13.073C18.4969 12.975 18.3522 12.926 18.1796 12.926C18.0162 12.926 17.8809 12.9703 17.7736 13.059C17.6662 13.1477 17.5962 13.2573 17.5636 13.388L16.4086 13.15C16.4646 12.9353 16.5486 12.7533 16.6606 12.604C16.7726 12.45 16.9056 12.3263 17.0596 12.233C17.2136 12.1397 17.3839 12.072 17.5706 12.03C17.7619 11.9833 17.9626 11.96 18.1726 11.96C18.3919 11.96 18.6019 11.988 18.8026 12.044C19.0079 12.0953 19.1876 12.1793 19.3416 12.296C19.4956 12.408 19.6169 12.5503 19.7056 12.723C19.7989 12.8957 19.8456 13.101 19.8456 13.339C19.8456 13.6143 19.7732 13.85 19.6286 14.046C19.4839 14.242 19.2739 14.368 18.9986 14.424V14.445C19.1479 14.4637 19.2786 14.508 19.3906 14.578C19.5072 14.648 19.6052 14.7343 19.6846 14.837C19.7639 14.9397 19.8246 15.0563 19.8666 15.187C19.9086 15.3177 19.9296 15.4553 19.9296 15.6C19.9296 15.8473 19.8806 16.0643 19.7826 16.251C19.6892 16.4377 19.5609 16.594 19.3976 16.72C19.2389 16.8413 19.0499 16.9323 18.8306 16.993C18.6159 17.0537 18.3872 17.084 18.1446 17.084C17.7012 17.084 17.3186 16.9813 16.9966 16.776C16.6792 16.5707 16.4692 16.2463 16.3666 15.803L17.4726 15.544C17.5099 15.7213 17.5846 15.8613 17.6966 15.964C17.8132 16.0667 17.9836 16.118 18.2076 16.118C18.4362 16.118 18.6042 16.0597 18.7116 15.943C18.8236 15.8217 18.8796 15.6677 18.8796 15.481C18.8796 15.341 18.8492 15.2337 18.7886 15.159C18.7326 15.0797 18.6579 15.0213 18.5646 14.984C18.4712 14.9467 18.3662 14.9257 18.2496 14.921C18.1329 14.9117 18.0162 14.907 17.8996 14.907H17.6546V13.997Z"
    fill="black"
  />
</svg>
