<svg
  id="Layer_1"
  data-name="Layer 1"
  xmlns="http://www.w3.org/2000/svg"
  viewBox="0 0 32 32"
>
  <defs>
    <style>
      .cls-1 {
        fill: #fed206;
      }

      .cls-2 {
        fill: #231f20;
      }

      .cls-3 {
        fill: #fff;
      }
    </style>
  </defs>
  <title>Artboard 1</title>
  <g>
    <path
      class="cls-1"
      d="M28.71,18.61a2.68,2.68,0,0,0-3.39,1.7,2.63,2.63,0,0,0-.06.26L16.78,17.8l-.43,1.33,9,2.93a2.68,2.68,0,1,0,3.36-3.46Zm.18,2.89a1.08,1.08,0,1,1-.06-.83A1.08,1.08,0,0,1,28.89,21.5Z"
    />
    <path
      class="cls-2"
      d="M15.29,14.49a2.5,2.5,0,1,0,2.5,2.5,2.5,2.5,0,0,0-2.5-2.5Z"
    />
    <rect
      class="cls-2"
      x="13.99"
      y="7.49"
      width="1"
      height="16.99"
      transform="translate(-6.63 11.57) rotate(-36)"
    />
    <rect
      class="cls-2"
      x="15.22"
      y="5.12"
      width="1"
      height="24.07"
      transform="translate(-5.45 26.8) rotate(-72)"
    />
    <rect
      class="cls-2"
      x="3.31"
      y="17.28"
      width="18.95"
      height="1"
      transform="translate(-4.86 4.81) rotate(-17.97)"
    />
    <rect
      class="cls-2"
      x="6.81"
      y="13.83"
      width="21.31"
      height="1"
      transform="translate(-4.74 18.49) rotate(-49.99)"
    />
    <rect class="cls-2" x="14.73" y="5.49" width="1" height="20.74" />
    <path
      class="cls-2"
      d="M15.2,26.47a.75.75,0,1,1-.75.75.75.75,0,0,1,.75-.75m0-1a1.75,1.75,0,1,0,1.75,1.75,1.75,1.75,0,0,0-1.75-1.75Z"
    />
    <path
      class="cls-2"
      d="M20,22.92a.75.75,0,1,1-.75.75.75.75,0,0,1,.75-.75m0-1a1.75,1.75,0,1,0,1.75,1.75A1.75,1.75,0,0,0,20,21.92Z"
    />
    <path
      class="cls-2"
      d="M27.87,20.4a.75.75,0,1,1-.75.75.75.75,0,0,1,.75-.75m0-1a1.75,1.75,0,1,0,1.75,1.75,1.75,1.75,0,0,0-1.75-1.75Z"
    />
    <path
      class="cls-2"
      d="M22.79,13.71h0A.75.75,0,0,1,23,15.18l-.19,0a.75.75,0,0,1-.19-1.48l.19,0m0-1A1.75,1.75,0,1,0,24.48,14a1.75,1.75,0,0,0-1.69-1.31Z"
    />
    <path
      class="cls-2"
      d="M24.82,4.74a.75.75,0,1,1-.75.75.75.75,0,0,1,.75-.75m0-1a1.75,1.75,0,1,0,1.75,1.75,1.75,1.75,0,0,0-1.75-1.75Z"
    />
    <path
      class="cls-2"
      d="M15.2,3.72a.75.75,0,1,1-.75.75.75.75,0,0,1,.75-.75m0-1a1.75,1.75,0,1,0,1.75,1.75A1.75,1.75,0,0,0,15.2,2.72Z"
    />
    <path
      class="cls-2"
      d="M8.84,7.57a.75.75,0,1,1-.42.13.75.75,0,0,1,.42-.13m0-1a1.75,1.75,0,1,0,1.44.76,1.74,1.74,0,0,0-1.44-.76Z"
    />
    <path
      class="cls-2"
      d="M3.32,12.33a.75.75,0,1,1-.42.13.75.75,0,0,1,.42-.13m0-1a1.75,1.75,0,1,0,1.44.76,1.74,1.74,0,0,0-1.44-.76Z"
    />
    <path
      class="cls-2"
      d="M3,20.12a.75.75,0,1,1-.71.51A.75.75,0,0,1,3,20.12m0-1a1.75,1.75,0,1,0,.56.09A1.75,1.75,0,0,0,3,19.12Z"
    />
    <path
      class="cls-2"
      d="M10,22.49a.75.75,0,1,1-.71.51.75.75,0,0,1,.71-.51m0-1a1.75,1.75,0,1,0,.56.09,1.75,1.75,0,0,0-.56-.09Z"
    />
    <path
      class="cls-3"
      d="M15.29,15.49a1.5,1.5,0,1,1-1.5,1.5,1.5,1.5,0,0,1,1.5-1.5"
    />
  </g>
</svg>
