<svg
  id="Layer_1"
  data-name="Layer 1"
  xmlns="http://www.w3.org/2000/svg"
  viewBox="0 0 32 32"
>
  <defs>
    <style>
      .cls-1 {
        fill: #da4635;
      }
    </style>
  </defs>
  <title>Artboard 2</title>
  <path class="cls-1" d="M27.64,12.77H4.2a1,1,0,0,0,0,2H27.64a1,1,0,0,0,0-2Z" />
  <g>
    <path d="M5,17.54v6.71a.5.5,0,0,0,1,0V17.54a.5.5,0,0,0-1,0Z" />
    <path d="M10.24,17.54v6.71a.5.5,0,0,0,1,0V17.54a.5.5,0,0,0-1,0Z" />
    <path
      d="M2.6,14.54a1.58,1.58,0,0,0,1.42,1H27.91a1.58,1.58,0,0,0,1.49-1l0-.1a1.41,1.41,0,0,0,.07-.4,1.46,1.46,0,0,0-.59-1.16l-.2-.13-.46-.3L16.92,5l-.07,0a1.66,1.66,0,0,0-1.72,0l-.07,0L3.24,12.77l-.08.05A1.48,1.48,0,0,0,2.5,14a1.42,1.42,0,0,0,.06.39Zm1.13-.86.08-.05L15.66,5.86A.62.62,0,0,1,16,5.77a.6.6,0,0,1,.29.07l.07,0,11.33,7.42.46.3.16.1a.43.43,0,0,1,.17.32.52.52,0,0,1-.56.47H4.06a.56.56,0,0,1-.51-.36.44.44,0,0,1,0-.11A.46.46,0,0,1,3.72,13.68Z"
    />
    <path d="M29,26.26H3a.5.5,0,0,0,0,1H29a.5.5,0,0,0,0-1Z" />
    <path d="M15.49,17.54v6.71a.5.5,0,0,0,1,0V17.54a.5.5,0,1,0-1,0Z" />
    <path d="M20.74,17.54v6.71a.5.5,0,1,0,1,0V17.54a.5.5,0,0,0-1,0Z" />
    <path d="M26,17.54v6.71a.5.5,0,1,0,1,0V17.54a.5.5,0,0,0-1,0Z" />
  </g>
</svg>
