<svg
  id="Layer_1"
  data-name="Layer 1"
  xmlns="http://www.w3.org/2000/svg"
  viewBox="0 0 32 32"
>
  <defs>
    <style>
      .cls-1 {
        fill: #db4536;
      }
    </style>
  </defs>
  <title>Artboard 6 copy 7</title>
  <path
    class="cls-1"
    d="M30.51,14.32a.9.9,0,0,0-.9-.9.86.86,0,0,0-.21,0h0l-.59.15,0,0L17.73,7.48h0a.88.88,0,0,0-.44-.13.9.9,0,0,0-.9.9.89.89,0,0,0,.48.78h0l9.44,5.18-2.68.68a1.9,1.9,0,0,0-1.43,1.84v5h0a.9.9,0,0,0,1.8,0h0v-5a.1.1,0,0,1,.08-.1l5.78-1.47v0A.89.89,0,0,0,30.51,14.32Z"
  />
  <path
    d="M29.61,16c1.57-.39,1.87-2.11.51-2.86L17.09,6a2.28,2.28,0,0,0-2.14,0L1.85,13.19A1.51,1.51,0,0,0,2.34,16L7,17.26v4.47H7c0,1.38,4,2.5,9,2.5s9-1.12,9-2.5h0V17.17l2.32-.58v6.68a2.5,2.5,0,1,0,1,0V16.34Zm-.29,9.7a1.5,1.5,0,1,1-1.5-1.5A1.5,1.5,0,0,1,29.31,25.72Zm-5.39-4c-.54.51-3.18,1.5-7.92,1.5s-7.38-1-7.92-1.5h0a6.71,6.71,0,0,1,2.67-1,24.92,24.92,0,0,1,5.25-.5,24.92,24.92,0,0,1,5.25.5,6.71,6.71,0,0,1,2.67,1ZM24,16.23v4.35a18.08,18.08,0,0,0-7.28-1.34H16l-1.24,0A17.21,17.21,0,0,0,8,20.58V16.22c.57-.52,3.23-1.49,8-1.49h.15c4.66,0,7.28,1,7.83,1.49Zm1-.09c0-.38-.39-.74-1-1.06a6.4,6.4,0,0,0-.8-.35,22.29,22.29,0,0,0-7.18-1,22.29,22.29,0,0,0-7.18,1,6.4,6.4,0,0,0-.81.35c-.62.33-1,.71-1,1.11v0L2.59,15.08C2.18,15,2,14.74,2,14.56s.2-.42.34-.49l13.1-7.21A1.24,1.24,0,0,1,16,6.71a1.23,1.23,0,0,1,.59.14l13,7.17c.14.08.38.25.34.5s-.2.42-.61.52Z"
  />
</svg>
