<svg
  id="Layer_1"
  data-name="Layer 1"
  xmlns="http://www.w3.org/2000/svg"
  viewBox="0 0 32 32"
>
  <defs>
    <style>
      .cls-1 {
        fill: #010101;
      }

      .cls-2 {
        fill: #48bea1;
      }
    </style>
  </defs>
  <title>Artboard 3</title>
  <g>
    <path
      class="cls-1"
      d="M16,13.74a2.5,2.5,0,1,0-2.5-2.5A2.5,2.5,0,0,0,16,13.74Zm0-4a1.5,1.5,0,1,1-1.5,1.5A1.5,1.5,0,0,1,16,9.74Z"
    />
    <path
      class="cls-1"
      d="M16,15a6.5,6.5,0,0,0-6.5,6.5v3.55a.5.5,0,0,0,1,0V21.55a5.5,5.5,0,1,1,11,0v3.55a.5.5,0,0,0,1,0V21.55A6.5,6.5,0,0,0,16,15Z"
    />
  </g>
  <path
    class="cls-1"
    d="M7.46,7.41A1.25,1.25,0,1,1,6.21,8.66,1.25,1.25,0,0,1,7.46,7.41m0-1A2.25,2.25,0,1,0,9.71,8.66,2.25,2.25,0,0,0,7.46,6.41Z"
  />
  <path
    class="cls-1"
    d="M24.54,7.41a1.25,1.25,0,1,1-1.25,1.25,1.25,1.25,0,0,1,1.25-1.25m0-1a2.25,2.25,0,1,0,2.25,2.25,2.25,2.25,0,0,0-2.25-2.25Z"
  />
  <path
    class="cls-1"
    d="M20,14.31h0a6.53,6.53,0,0,1,.77-.64A6.49,6.49,0,0,1,31,19v3.47a.5.5,0,1,1-1,0V19A5.49,5.49,0,0,0,20.72,15h0a.5.5,0,0,1-.71-.71Z"
  />
  <path
    class="cls-1"
    d="M12,14.31h0a6.53,6.53,0,0,0-.77-.64A6.49,6.49,0,0,0,1,19v2.47H1s0,0,0,0a.5.5,0,1,0,1,0s0,0,0,0H2V19A5.49,5.49,0,0,1,11.28,15h0a.5.5,0,0,0,.71-.71Z"
  />
  <path
    class="cls-2"
    d="M16,16a5.5,5.5,0,0,0-5.5,5.5v3.32h0a.75.75,0,0,0,1.5,0h0V21.53a4,4,0,1,1,8,0v.93h0a.74.74,0,0,0,1.48,0h0v-.93A5.5,5.5,0,0,0,16,16Z"
  />
</svg>
